<?xml version="1.0" encoding="utf-8"?>
<!-- Generator: Adobe Illustrator 19.0.0, SVG Export Plug-In . SVG Version: 6.00 Build 0)  -->
<svg version="1.1" id="Calque_1" xmlns="http://www.w3.org/2000/svg" xmlns:xlink="http://www.w3.org/1999/xlink" x="0px" y="0px"
	 viewBox="0 0 210.6 122" style="enable-background:new 0 0 210.6 122;" xml:space="preserve">
<style type="text/css">
	.st0{display:none;fill:#FFE211;}
	.st1{fill:#FFFFFF;}
</style>
<rect id="XMLID_1_" x="-7.9" y="-23.8" class="st0" width="226.8" height="226.8"/>
<path id="XMLID_38_" d="M-401.1,384.4c-4.3-1.7-7-5-9.3-9c-15-26.2-30.1-52.4-45.3-78.5c-3.4-5.8-3.3-10.8,0.1-16.5
	c15.4-26.3,30.6-52.7,45.7-79.1c3.3-5.8,7.6-8.3,14.3-8.2c30.6,0.2,61.2,0.2,91.9,0c6.4,0,10.6,2.3,13.8,7.8
	c15.2,26.7,30.6,53.3,46.1,79.8c3.3,5.6,3.2,10.6,0,16.2c-15.2,26-30.2,52.1-45.1,78.2c-2.3,4.1-5,7.5-9.4,9.4
	C-332.8,384.4-367,384.4-401.1,384.4z M-303.4,288.6c-0.1-25.6-20.9-46.5-46.5-46.5c-25.5,0-46.5,20.9-46.6,46.5
	c-0.1,25.6,21.1,46.7,46.7,46.6C-324,335-303.4,314.2-303.4,288.6z"/>
<path id="XMLID_35_" d="M-320,6.5c2.5,1.9,5.3,3.5,7.5,5.7c11.8,11.5,23.4,23.2,35.2,34.7c3.2,3.1,4.7,6.6,4.7,11.1
	c-0.1,17.1,0,34.2,0.2,51.3c0.1,4.5-1.4,8-4.6,11.1c-12,11.9-24,24-35.9,36.1c-3.2,3.3-6.9,4.8-11.5,4.8c-17.1-0.1-34.2,0-51.3,0.1
	c-4.1,0-7.3-1.2-10.2-4.1c-12.3-12.3-24.6-24.5-36.9-36.6c-3-2.9-4.4-6.2-4.4-10.5c0-17.1-0.1-34.2-0.3-51.3
	c-0.1-4.6,1.4-8.2,4.7-11.5c11.5-11.4,22.8-23.1,34.4-34.5c2.6-2.5,5.8-4.4,8.7-6.5C-359.8,6.5-339.9,6.5-320,6.5z M-382.8,83.7
	c-0.3,18,14.8,33.2,32.9,33.3c17.9,0.1,32.8-14.9,32.9-32.9c0.1-17.9-14.5-32.7-32.7-33.1C-367.4,50.6-382.5,65.6-382.8,83.7z"/>
<path id="XMLID_32_" d="M-185.1,253.1c-9.1,0-18.2-0.1-27.3,0c-5.5,0.1-9.3-2.2-12-7c-9-15.8-18.1-31.5-27.2-47.2
	c-2.7-4.6-2.7-9-0.1-13.6c9.2-15.8,18.3-31.7,27.4-47.5c2.6-4.6,6.4-6.8,11.8-6.8c18.3,0.1,36.6,0.1,54.9,0c5.3,0,9.1,2.2,11.7,6.8
	c9.1,15.8,18.1,31.5,27.3,47.2c2.8,4.9,2.7,9.4-0.1,14.2c-9.1,15.6-18.1,31.2-27.1,46.9c-2.7,4.7-6.5,7-12,7
	C-166.9,253-176,253.1-185.1,253.1z M-163.4,192.5c0.3-12-9.3-22-21.3-22.2c-12-0.2-21.9,9.2-22.3,21.3c-0.4,11.7,9.5,22,21.4,22.3
	C-173.6,214.1-163.6,204.5-163.4,192.5z"/>
<g id="XMLID_19_">
	<polygon id="XMLID_21_" points="-15.2,323 -5.6,306.5 -15.2,290 -34.5,290 -44.2,306.5 -34.5,323 	"/>
	<circle id="XMLID_20_" class="st1" cx="-24.9" cy="306.5" r="6.8"/>
</g>
<g id="XMLID_16_">
	<polygon id="XMLID_18_" points="-46.4,296 -41.5,287.5 -46.4,279 -56,279 -60.9,287.5 -56,296 	"/>
	<circle id="XMLID_17_" class="st1" cx="-51.2" cy="287.6" r="3.4"/>
</g>
<g id="XMLID_13_">
	<polygon id="XMLID_15_" points="-22.1,284 -15.8,272.5 -22.1,261 -34.8,261 -41.1,272.5 -34.8,284 	"/>
	<circle id="XMLID_14_" class="st1" cx="-28.4" cy="272.6" r="4.5"/>
</g>
<g id="XMLID_30_">
	<path id="XMLID_31_" class="st1" d="M95.2,120.7L80.6,95.3h-7.5v25.4H61.8V58.1h21.7c3.9,0,7.3,0.8,10.3,2.3
		c3.1,1.6,5.5,3.8,7.1,6.7c1.6,2.8,2.4,6.1,2.4,9.6c0,4.4-1.4,8.3-4,11.4c-2,2.3-4.5,4.1-7.4,5.3l15.6,27.1H95.2z M82.7,85.1
		c3.1,0,5.3-0.7,6.8-2.2c1.5-1.5,2.3-3.5,2.3-6.1c0-2.6-0.7-4.6-2.3-6.1c-1.5-1.5-3.8-2.3-6.8-2.3h-9.6v16.7H82.7z"/>
</g>
<g id="XMLID_26_">
	<path id="XMLID_27_" class="st1" d="M129.2,122c-4.3,0-8.1-1-11.5-3.1c-3.4-2-6-4.9-7.9-8.5c-1.9-3.6-2.8-7.6-2.8-12
		c0-4.4,0.9-8.5,2.8-12c1.9-3.6,4.5-6.5,7.8-8.5c1.9-1.1,3.9-2,6-2.5l-3.7-6.3l20-11.9l5.6,9.5L126.3,75c0.8-0.1,1.7-0.1,2.6-0.1
		c4,0,7.7,1,10.9,3c3.2,2,5.8,4.7,7.6,8.1c1.8,3.4,2.7,7.2,2.7,11.3c0,1.1,0,2-0.1,2.7l-0.2,2.2H118c0.5,2.4,1.5,4.5,3,6.3
		c1.9,2.3,4.5,3.4,8,3.4c2.9,0,5.3-0.5,7.2-1.6c1.9-1.1,3.3-2.5,4.5-4.4l1.3-2.2l8.8,5.8l-1.3,2.1c-2.1,3.3-4.9,5.9-8.3,7.7
		C137.8,121.1,133.7,122,129.2,122z M138.9,92.4c-0.6-2.1-1.5-3.8-2.8-4.9c-1.7-1.6-4.1-2.4-7.2-2.4c-3,0-5.4,0.9-7.2,2.8
		c-1.3,1.3-2.3,2.8-3,4.6H138.9z"/>
</g>
<g id="XMLID_8_">
	<path id="XMLID_23_" class="st1" d="M176.4,122c-4.2,0-8.1-1-11.4-3.1c-3.4-2-6-4.9-7.9-8.5c-1.9-3.6-2.8-7.6-2.8-12.1
		c0-4.4,0.9-8.5,2.8-12c1.9-3.6,4.5-6.4,7.8-8.4c3.3-2,7.2-3.1,11.4-3.1c3.3,0,6.3,0.7,9.1,2.2c0.8,0.4,1.6,0.9,2.4,1.5v-2.3h10.7
		v44.5h-10.7v-2.3c-0.7,0.5-1.5,1-2.3,1.5C182.6,121.3,179.6,122,176.4,122z M176.2,85.1c-2.2,0-4,0.5-5.7,1.6c-1.7,1.1-3,2.6-4,4.6
		c-1,2-1.5,4.4-1.5,7c0,2.7,0.5,5.1,1.5,7.2c1,2,2.3,3.5,4,4.7c1.7,1.1,3.6,1.6,5.7,1.6c2.2,0,4.2-0.5,5.9-1.6
		c1.7-1.1,3.1-2.6,4-4.6c1-2.1,1.5-4.4,1.5-7.1c0-2.6-0.5-5-1.5-7.1c-1-2-2.3-3.5-4-4.6C180.4,85.6,178.5,85.1,176.2,85.1z"/>
</g>
<path id="XMLID_44_" class="st1" d="M40,40H13.3L0,63l13.3,23H40l13.3-23L40,40z M26.6,72.8c-5.2,0-9.4-4.2-9.4-9.4s4.2-9.4,9.4-9.4
	s9.4,4.2,9.4,9.4S31.8,72.8,26.6,72.8z"/>
<path id="XMLID_9_" class="st1" d="M69.6,25H56.3l-6.7,12l6.7,12h13.3l6.7-12L69.6,25z M63,42c-2.6,0-4.7-2.1-4.7-4.7
	s2.1-4.7,4.7-4.7s4.7,2.1,4.7,4.7S65.6,42,63,42z"/>
<path id="XMLID_12_" class="st1" d="M41.3,0H23.8l-8.8,15.5L23.8,31h17.5l8.8-15.5L41.3,0z M32.6,21.8c-3.4,0-6.2-2.8-6.2-6.2
	c0-3.4,2.8-6.2,6.2-6.2c3.4,0,6.2,2.8,6.2,6.2C38.7,19,36,21.8,32.6,21.8z"/>
<circle id="XMLID_5_" class="st1" cx="206.2" cy="116.2" r="4.4"/>
<g id="XMLID_106_">
	<g id="XMLID_105_">
		<path id="XMLID_50_" class="st1" d="M412,41h-26.6L372,64l13.3,23H412l13.3-23L412,41z M398.6,73.8c-5.2,0-9.4-4.2-9.4-9.4
			s4.2-9.4,9.4-9.4s9.4,4.2,9.4,9.4S403.8,73.8,398.6,73.8z"/>
		<path id="XMLID_47_" class="st1" d="M441.6,26h-13.3l-6.7,12l6.7,12h13.3l6.7-12L441.6,26z M435,43c-2.6,0-4.7-2.1-4.7-4.7
			s2.1-4.7,4.7-4.7s4.7,2.1,4.7,4.7S437.6,43,435,43z"/>
		<path id="XMLID_10_" class="st1" d="M413.3,1h-17.5l-8.8,15.5l8.8,15.5h17.5l8.8-15.5L413.3,1z M404.6,22.8
			c-3.4,0-6.2-2.8-6.2-6.2c0-3.4,2.8-6.2,6.2-6.2c3.4,0,6.2,2.8,6.2,6.2C410.7,20,408,22.8,404.6,22.8z"/>
	</g>
	<g id="XMLID_104_">
		<g id="XMLID_61_">
			<path id="XMLID_62_" class="st1" d="M467.2,121.7l-14.6-25.4h-7.5v25.4h-11.3V59.1h21.7c3.9,0,7.3,0.8,10.3,2.3
				c3.1,1.6,5.5,3.8,7.1,6.7c1.6,2.8,2.4,6.1,2.4,9.6c0,4.4-1.4,8.3-4,11.4c-2,2.3-4.5,4.1-7.4,5.3l15.6,27.1H467.2z M454.7,86.1
				c3.1,0,5.3-0.7,6.8-2.2c1.5-1.5,2.3-3.5,2.3-6.1c0-2.6-0.7-4.6-2.3-6.1c-1.5-1.5-3.8-2.3-6.8-2.3h-9.6v16.7H454.7z"/>
		</g>
		<g id="XMLID_57_">
			<path id="XMLID_58_" class="st1" d="M501.2,123c-4.3,0-8.1-1-11.5-3.1c-3.4-2-6-4.9-7.9-8.5c-1.9-3.6-2.8-7.6-2.8-12
				c0-4.4,0.9-8.5,2.8-12c1.9-3.6,4.5-6.5,7.8-8.5c1.9-1.1,3.9-2,6-2.5l-3.7-6.3l20-11.9l5.6,9.5L498.3,76c0.8-0.1,1.7-0.1,2.6-0.1
				c4,0,7.7,1,10.9,3c3.2,2,5.8,4.7,7.6,8.1c1.8,3.4,2.7,7.2,2.7,11.3c0,1.1,0,2-0.1,2.7l-0.2,2.2H490c0.5,2.4,1.5,4.5,3,6.3
				c1.9,2.3,4.5,3.4,8,3.4c2.9,0,5.3-0.5,7.2-1.6c1.9-1.1,3.3-2.5,4.5-4.4l1.3-2.2l8.8,5.8l-1.3,2.1c-2.1,3.3-4.9,5.9-8.3,7.7
				C509.8,122.1,505.7,123,501.2,123z M510.9,93.4c-0.6-2.1-1.5-3.8-2.8-4.9c-1.7-1.6-4.1-2.4-7.2-2.4c-3,0-5.4,0.9-7.2,2.8
				c-1.3,1.3-2.3,2.8-3,4.6H510.9z"/>
		</g>
		<g id="XMLID_53_">
			<path id="XMLID_54_" class="st1" d="M548.4,123c-4.2,0-8.1-1-11.4-3.1c-3.4-2-6-4.9-7.9-8.5c-1.9-3.6-2.8-7.6-2.8-12.1
				c0-4.4,0.9-8.5,2.8-12c1.9-3.6,4.5-6.4,7.8-8.4c3.3-2,7.2-3.1,11.4-3.1c3.3,0,6.3,0.7,9.1,2.2c0.8,0.4,1.6,0.9,2.4,1.5v-2.3h10.7
				v44.5h-10.7v-2.3c-0.7,0.5-1.5,1-2.3,1.5C554.6,122.3,551.6,123,548.4,123z M548.2,86.1c-2.2,0-4,0.5-5.7,1.6
				c-1.7,1.1-3,2.6-4,4.6c-1,2-1.5,4.4-1.5,7c0,2.7,0.5,5.1,1.5,7.2c1,2,2.3,3.5,4,4.7c1.7,1.1,3.6,1.6,5.7,1.6
				c2.2,0,4.2-0.5,5.9-1.6c1.7-1.1,3.1-2.6,4-4.6c1-2.1,1.5-4.4,1.5-7.1c0-2.6-0.5-5-1.5-7.1c-1-2-2.3-3.5-4-4.6
				C552.4,86.6,550.5,86.1,548.2,86.1z"/>
		</g>
		<circle id="XMLID_65_" class="st1" cx="578.2" cy="117.2" r="4.4"/>
	</g>
</g>
</svg>
