<?xml version="1.0" encoding="UTF-8"?><svg version="1.1" viewBox="0 0 100 112" xmlns="http://www.w3.org/2000/svg" xmlns:xlink="http://www.w3.org/1999/xlink" class="i"><!--Generated by IJSVG (https://github.com/iconjar/IJSVG)--><style>.k{fill: #FFE211;}.i{}.n{stroke-linecap: round; stroke-width: 1; stroke: #4A4A4A; fill: none; stroke-linejoin: round;}.l{fill: none;}.m{stroke-width: 1; stroke: #4A4A4A; fill: #FFE211; stroke-linejoin: round;}.p{stroke-linecap: round; stroke-width: 1; stroke: #4A4A4A; fill: #FFF; stroke-linejoin: round;}.j{fill: #FFF;}.o{stroke-width: 1; stroke: #4A4A4A; fill: none; stroke-linejoin: round;}</style><defs class="i"><mask id="a" maskContentUnits="userSpaceOnUse" maskUnits="objectBoundingBox" class="i"><path d="M78.3243,27.5357c15.621,15.621 15.621,40.9476 0,56.5685c-15.621,15.621 -40.9476,15.621 -56.5685,0c-15.621,-15.621 -15.621,-40.9476 -7.10543e-15,-56.5685c15.621,-15.621 40.9476,-15.621 56.5685,-7.10543e-15" class="j"></path></mask><path id="e" d="M66.23,47.58c0.13,-2.71 0.61,-8.51 2.85,-8.18l9.63544e-08,1.44969e-08c0.8885,0.133678 1.50127,0.961141 1.37,1.85l-0.08,0.53c-0.57,3.95 0.54,8.32 3.84,8.8l-1.21,8.24l-0.42,-0.06c-2.07,-0.3 -3.26,1 -7,0.45l-6.27,-0.92l-2.83321e-09,-1.86112e-10c-0.799091,-0.0524911 -1.40433,-0.742834 -1.35184,-1.54193c0.0524911,-0.799091 0.742834,-1.40433 1.54193,-1.35184c0.0774174,0.00508543 0.154302,0.0163761 0.229913,0.0337633l-0.72,-0.11l-1.11018e-07,-1.62465e-08c-0.792529,-0.11598 -1.34098,-0.852471 -1.225,-1.645c0.11598,-0.792529 0.852471,-1.34098 1.645,-1.225l-0.72,-0.1l-1.11018e-07,-1.62465e-08c-0.792529,-0.11598 -1.34098,-0.852471 -1.225,-1.645c0.11598,-0.792529 0.852471,-1.34098 1.645,-1.225l-0.71,-0.1l-1.11018e-07,-1.62465e-08c-0.792529,-0.11598 -1.34098,-0.852471 -1.225,-1.645c0.11598,-0.792529 0.852471,-1.34098 1.645,-1.225Z" class="i"></path><path id="d" d="M8,50.69h16h-3.27835e-08c0.414214,-1.81059e-08 0.75,0.335786 0.75,0.75v9.48v0c0,0.552285 -0.447715,1 -1,1h-15.75h-4.37114e-08c-0.552285,-2.41411e-08 -1,-0.447715 -1,-1c0,0 0,0 0,0v-9.23l1.06581e-14,1.50996e-07c-8.33927e-08,-0.552285 0.447715,-1 1,-1Z" class="i"></path><path id="h" d="M64.11,94.73c-0.55228,0 -1,-0.44772 -1,-1v-13.5c0,-0.55228 0.44772,-1 1,-1h22.5c0.55228,0 1,0.44772 1,1v13.5c0,0.55228 -0.44772,1 -1,1Z" class="i"></path><path id="f" d="M76.67,50.69h15.75h-4.37114e-08c0.552285,-2.41411e-08 1,0.447715 1,1v9.48v0c0,0.414214 -0.335786,0.75 -0.75,0.75h-16h-4.37114e-08c-0.552285,-2.41411e-08 -1,-0.447715 -1,-1c0,0 0,0 0,0v-9.23l1.42109e-14,1.50996e-07c-8.33927e-08,-0.552285 0.447715,-1 1,-1Z" class="i"></path><path id="c" d="M34.17,47.58c-0.12,-2.71 -0.6,-8.51 -2.84,-8.18l-9.84184e-08,1.72597e-08c-0.872283,0.152973 -1.46284,0.974425 -1.33,1.85l0.08,0.53c0.58,3.95 -0.53,8.32 -3.84,8.8l1.21,8.24l0.42,-0.06c2.07,-0.3 3.25,1 7,0.45l6.27,-0.92l8.98747e-08,-2.06673e-08c0.780444,-0.179469 1.26763,-0.957631 1.08816,-1.73807c-0.159431,-0.693308 -0.798289,-1.16856 -1.50816,-1.12193l0.71,-0.11l3.87687e-08,-6.50664e-09c0.789767,-0.132548 1.32255,-0.880233 1.19,-1.67c-0.128,-0.762667 -0.832,-1.29067 -1.6,-1.2l0.71,-0.1l-1.44339e-08,2.11227e-09c0.792529,-0.11598 1.34098,-0.852471 1.225,-1.645c-0.11598,-0.792529 -0.852471,-1.34098 -1.645,-1.225l0.72,-0.1l-1.44339e-08,2.11228e-09c0.792529,-0.11598 1.34098,-0.852471 1.225,-1.645c-0.11598,-0.792529 -0.852471,-1.34098 -1.645,-1.225Z" class="i"></path><path id="g" d="M50.48,74.16c0.29,-3.75 1.21,-11.72 4.28,-11.17l1.1013e-07,1.96423e-08c1.22329,0.218181 2.03812,1.3867 1.82,2.61l-0.14,0.73c-1,5.42 0.38,11.5 4.92,12.31l-2.02,11.36l-0.58,-0.1c-2.84,-0.51 -4.53,1.22 -9.62,0.31l-8.61,-1.54l5.75207e-08,6.49493e-09c-1.09759,-0.123934 -1.8869,-1.11418 -1.76297,-2.21177c0.123934,-1.09759 1.11418,-1.8869 2.21177,-1.76297c0.0845981,0.00955236 0.1685,0.0244967 0.251193,0.0447418l-1,-0.18l-3.22485e-08,-5.72942e-09c-1.088,-0.1933 -1.8133,-1.232 -1.62,-2.32c0.1933,-1.088 1.232,-1.8133 2.32,-1.62l-1,-0.17l-1.78976e-07,-3.2252e-08c-1.088,-0.196061 -1.81106,-1.237 -1.615,-2.325c0.196061,-1.088 1.237,-1.81106 2.325,-1.615l-1,-0.18l-3.76894e-08,-4.63045e-09c-1.09633,-0.134693 -1.87588,-1.13263 -1.74119,-2.22896c0.134693,-1.09633 1.13263,-1.87588 2.22896,-1.74119c0.0747751,0.00918675 0.148971,0.0225912 0.222234,0.0401492Z" class="i"></path><path id="b" d="M78.3643,27.5357c15.621,15.621 15.621,40.9476 0,56.5685c-15.621,15.621 -40.9476,15.621 -56.5685,0c-15.621,-15.621 -15.621,-40.9476 -7.10543e-15,-56.5685c15.621,-15.621 40.9476,-15.621 56.5685,-7.10543e-15" class="i"></path></defs><use xlink:href="#b" class="k"></use><use xlink:href="#b" class="l"></use><path d="M73.87,30l4.13939e-08,7.43644e-09c0.32615,0.058593 0.543047,0.370488 0.484454,0.696638c-0.0102022,0.0567891 -0.0285424,0.11181 -0.0544541,0.163362l-2.43,5l-1.04491e-08,2.15973e-08c-0.14432,0.298293 -0.503128,0.423113 -0.80142,0.278793c-0.203444,-0.0984299 -0.334318,-0.302829 -0.33858,-0.528793l-0.21,-5.48l-2.12925e-09,-1.29594e-07c-0.00300506,-0.1829 0.0736341,-0.358075 0.21,-0.48l-3.54297e-08,3.13698e-08c0.136334,-0.120711 0.322136,-0.16902 0.5,-0.13Z" class="m"></path><path d="M61.53,30.39l-2.45102e-10,6.0119e-11c-0.181541,0.044529 -0.332645,0.169834 -0.41,0.34l1.01164e-08,-1.92333e-08c-0.0889033,0.169022 -0.0889033,0.370977 -2.02328e-08,0.54l2.7,4.85l-2.65525e-08,-4.5851e-08c0.13913,0.24025 0.421012,0.358723 0.69,0.29l-1.52862e-08,4.22622e-09c0.264231,-0.0730529 0.445344,-0.315908 0.44,-0.59l-0.1,-5.49l2.36071e-10,2.81956e-08c-0.00153189,-0.182966 -0.0908058,-0.354075 -0.24,-0.46l4.37643e-09,3.73586e-09c-0.140687,-0.120094 -0.332319,-0.161427 -0.51,-0.11Z" class="m"></path><path d="M50.87,54.43l-1.00884e-08,6.17185e-09c0.162157,-0.0992039 0.360022,-0.121189 0.54,-0.06l-5.34118e-08,-2.10421e-08c0.173231,0.0682462 0.305808,0.211871 0.36,0.39l1.62,5.32l1.39256e-08,4.59568e-08c0.0810984,0.267638 -0.0301821,0.556144 -0.27,0.7l-2.90151e-09,1.73235e-09c-0.236798,0.141381 -0.539947,0.0998541 -0.73,-0.1l-3.88,-3.88l1.90026e-08,1.91748e-08c-0.12798,-0.12914 -0.190501,-0.309346 -0.17,-0.49l-1.53514e-08,1.34706e-07c0.0204446,-0.179398 0.119316,-0.340522 0.27,-0.44Z" class="m"></path><path d="M42.06,63.07l6.97854e-09,-1.01677e-08c-0.106626,0.155353 -0.132637,0.352291 -0.07,0.53l-9.14091e-09,-2.60772e-08c0.0623363,0.177833 0.202167,0.317664 0.38,0.38l5.29,1.72l2.84612e-08,9.18315e-09c0.263025,0.0848664 0.550244,-0.0177119 0.7,-0.25l3.52543e-09,-5.93332e-09c0.14083,-0.237018 0.108231,-0.538557 -0.08,-0.74l-3.8,-3.95l3.17856e-08,3.3743e-08c-0.126278,-0.134054 -0.30636,-0.203881 -0.49,-0.19l-2.95429e-09,3.28775e-10c-0.18213,0.0202687 -0.346408,0.118836 -0.45,0.27Z" class="m"></path><path d="M39.78,32.89l-1.5053e-08,-1.25125e-08c-0.144584,-0.120182 -0.339133,-0.161337 -0.52,-0.11l6.58596e-09,-1.50055e-09c-0.182958,0.0416854 -0.335177,0.167916 -0.41,0.34l-2.24,5.09l-1.73494e-08,4.12054e-08c-0.107493,0.255301 -0.0294671,0.55098 0.19,0.72l1.19357e-08,9.60951e-09c0.216012,0.173913 0.523988,0.173913 0.74,-1.9219e-08l4.31,-3.39l-2.61157e-08,2.07933e-08c0.14338,-0.114159 0.227833,-0.286736 0.23,-0.47l2.25657e-09,-2.39598e-07c0.00171329,-0.181918 -0.0792049,-0.354788 -0.22,-0.47Z" class="m"></path><path d="M29.5,29.26l2.652e-08,3.41508e-10c-0.189943,-0.00244598 -0.370525,0.0823171 -0.49,0.23l-3.85067e-08,4.68785e-08c-0.119126,0.145026 -0.163529,0.337438 -0.12,0.52l1.3,5.4l-3.25534e-08,-1.2832e-07c0.0685192,0.270092 0.311353,0.45942 0.59,0.46l-9.48678e-10,-1.4289e-11c0.276962,0.00417103 0.520783,-0.181794 0.59,-0.45l1.37,-5.31l1.14013e-08,-4.10464e-08c0.0489582,-0.176258 0.0118945,-0.365282 -0.1,-0.51l9.96637e-09,1.40375e-08c-0.105925,-0.149194 -0.277034,-0.238468 -0.46,-0.24Z" class="m"></path><g mask="url(#a)" class="i"><use xlink:href="#c" class="j"></use><path d="M32.74,47.79l1.43,-0.21" class="n"></path><path d="M40.63,55.43l-0.72,0.1" class="n"></path><path d="M40.93,52.45l-0.72,0.11" class="n"></path><path d="M41.22,49.48l-0.71,0.11" class="n"></path><g transform="matrix(1,0,0,1,-7.98,2.89)" class="i"><use transform="matrix(0.989475,-0.144702,0.144702,0.989475,0,0)" xlink:href="#d" class="k"></use><use transform="matrix(0.989475,-0.144702,0.144702,0.989475,0,0)" xlink:href="#d" class="o"></use></g><g transform="matrix(1,0,0,1,59.11,105.42)" class="i"><path d="M25.63,50h1.17v9.78h-1.17h-4.37114e-08c-0.552285,-2.41411e-08 -1,-0.447715 -1,-1c0,0 0,0 0,0v-7.78l1.06581e-14,1.50996e-07c-8.33927e-08,-0.552285 0.447715,-1 1,-1Z" transform="matrix(-0.989475,0.144702,-0.144702,-0.989475,0,0)" class="p"></path></g><use xlink:href="#c" class="o"></use><use xlink:href="#e" class="j"></use><path d="M67.67,47.79l-1.44,-0.21" class="n"></path><path d="M59.78,55.43l0.72,0.1" class="n"></path><path d="M59.48,52.45l0.72,0.11" class="n"></path><path d="M59.18,49.48l0.72,0.11" class="n"></path><g transform="matrix(1,0,0,1,160.05,124.24)" class="i"><use transform="matrix(-0.989475,-0.144702,0.144702,-0.989475,0,0)" xlink:href="#f" class="k"></use><use transform="matrix(-0.989475,-0.144702,0.144702,-0.989475,0,0)" xlink:href="#f" class="o"></use></g><g transform="matrix(1,0,0,1,8.72,-10.23)" class="i"><path d="M74.6,50h1.17v9.78h-1.17h-4.37114e-08c-0.552285,-2.41411e-08 -1,-0.447715 -1,-1c0,0 0,0 0,0v-7.78l1.42109e-14,1.50996e-07c-8.33927e-08,-0.552285 0.447715,-1 1,-1Z" transform="matrix(0.989475,0.144702,-0.144702,0.989475,0,0)" class="p"></path></g><use xlink:href="#e" class="o"></use><use xlink:href="#g" class="j"></use><path d="M52.45,74.51l-1.97,-0.35" class="n"></path><path d="M41.23,84.7l0.99,0.17" class="n"></path><path d="M40.95,80.58l0.98,0.18" class="n"></path><path d="M40.67,76.47l0.98,0.18" class="n"></path><g transform="matrix(1,0,0,1,134.26,185.85)" class="i"><use transform="matrix(-0.984442,-0.17571,0.17571,-0.984442,0,0)" xlink:href="#h" class="k"></use><use transform="matrix(-0.984442,-0.17571,0.17571,-0.984442,0,0)" xlink:href="#h" class="o"></use></g><g transform="matrix(1,0,0,1,15.82,-9.55)" class="i"><path d="M61.32,77.81h2v13.5h-2h-4.37114e-08c-0.552285,-2.41411e-08 -1,-0.447715 -1,-1c0,0 0,0 0,0v-11.5l1.42109e-14,1.50996e-07c-8.33927e-08,-0.552285 0.447715,-1 1,-1Z" transform="matrix(0.984442,0.17571,-0.17571,0.984442,0,0)" class="p"></path></g><use xlink:href="#g" class="o"></use></g></svg>