<svg xmlns="http://www.w3.org/2000/svg" xmlns:xlink="http://www.w3.org/1999/xlink" width="163.10022" height="111.41262" viewBox="0 0 163.10022 111.41262">
  <defs>
    <style>
      .a22f8abc-5f68-4e7a-8b8b-20d9f43090e7, .b38a8cfb-e320-4343-8968-9965a5db2159, .be10189d-4be4-4c7a-8d37-82ad45899e14, .e3f89223-4e21-43d3-9ca6-e9292de5bff8 {
        fill: #fff;
      }

      .a7e02b46-d92b-40e9-bc91-9406f2c72c37, .f26c4a52-1c55-4e23-88e5-228aa2a7dd24, .f65d49b7-ca2e-4077-9afe-3cf8c173419c {
        fill: none;
      }

      .a2998420-9db7-41df-be5f-c6b381b1cb09, .a9e83349-13b3-4422-8d93-370a02a9a70b, .b558912d-44a3-4632-8b64-011aebeee01b {
        fill: #ffe211;
      }

      .a22f8abc-5f68-4e7a-8b8b-20d9f43090e7, .a2998420-9db7-41df-be5f-c6b381b1cb09, .a7e02b46-d92b-40e9-bc91-9406f2c72c37, .a9e83349-13b3-4422-8d93-370a02a9a70b, .b38a8cfb-e320-4343-8968-9965a5db2159, .e3f89223-4e21-43d3-9ca6-e9292de5bff8, .f65d49b7-ca2e-4077-9afe-3cf8c173419c {
        stroke: #3a3a3a;
        stroke-linejoin: round;
      }

      .a7e02b46-d92b-40e9-bc91-9406f2c72c37, .a9e83349-13b3-4422-8d93-370a02a9a70b, .e3f89223-4e21-43d3-9ca6-e9292de5bff8 {
        stroke-linecap: round;
      }

      .b629325b-11ac-4781-8f24-967124ba61a1 {
        mask: url(#ab20ca11-2e80-4452-ae08-8c7eb5e72247);
      }
    </style>
    <mask id="ab20ca11-2e80-4452-ae08-8c7eb5e72247" x="39.93712" y="15.45633" width="99.22602" height="80.49995" maskUnits="userSpaceOnUse">
      <g id="eea3bc50-b694-4e9a-bdce-cc815ed6f796" data-name="a">
        <path class="be10189d-4be4-4c7a-8d37-82ad45899e14" d="M108.22137,27.672a40,40,0,1,1-56.5685,0,39.99989,39.99989,0,0,1,56.5685,0"/>
      </g>
    </mask>
  </defs>
  <title>Asset 7-rea</title>
  <g id="fbc32d8b-10b6-4b5d-b277-e68d6c106454" data-name="Layer 2">
    <g id="f6d3860a-67f7-449a-9cd9-272279eba94d" data-name="Layer 1">
      <g>
        <rect class="f26c4a52-1c55-4e23-88e5-228aa2a7dd24" width="163.10022" height="111.41262"/>
        <g>
          <g id="a9b484b8-c97f-4838-9440-cc248992e570" data-name="a">
            <path class="be10189d-4be4-4c7a-8d37-82ad45899e14" d="M108.22137,27.672a40,40,0,1,1-56.5685,0,39.99989,39.99989,0,0,1,56.5685,0"/>
          </g>
          <path class="b558912d-44a3-4632-8b64-011aebeee01b" d="M119.93707,55.95633v.00375a40,40,0,1,0-76.44154,16.4928H116.377a39.84983,39.84983,0,0,0,3.56-16.4966Z"/>
          <path class="a7e02b46-d92b-40e9-bc91-9406f2c72c37" d="M40.93707,72.45633h78"/>
          <path class="a7e02b46-d92b-40e9-bc91-9406f2c72c37" d="M36.43707,72.45633h2.5"/>
          <path class="a7e02b46-d92b-40e9-bc91-9406f2c72c37" d="M120.93707,72.45633h2.5"/>
          <path class="a9e83349-13b3-4422-8d93-370a02a9a70b" d="M71.23707,31.88633h0a2.77,2.77,0,0,0-2.3-4.31h-.31a6.9,6.9,0,0,0-13.18,0h-.31a2.77,2.77,0,0,0-2.29,4.31h0a2.74,2.74,0,0,0,.58,5.32h0a2.76,2.76,0,0,0,5.13-.91h0a6.91,6.91,0,0,0,7,0h0a2.77,2.77,0,0,0,2.73,2.32h0a2.73,2.73,0,0,0,2.39-1.41h0a2.74,2.74,0,0,0,.59-5.32Z"/>
          <g class="b629325b-11ac-4781-8f24-967124ba61a1">
            <g>
              <path class="a2998420-9db7-41df-be5f-c6b381b1cb09" d="M86.96707,15.95633h38v56.5h-38Z"/>
              <path id="a30b08b3-136d-43c3-bd46-f488020ace78" data-name="b" class="be10189d-4be4-4c7a-8d37-82ad45899e14" d="M90.46707,33.95633h31v38.5h-31Z"/>
              <path class="f65d49b7-ca2e-4077-9afe-3cf8c173419c" d="M90.46707,33.95633h31v38.5h-31Z"/>
              <path class="b38a8cfb-e320-4343-8968-9965a5db2159" d="M100.93707,48.95633h10.5a1,1,0,0,1,1,1v4h-12.5v-4h0A1,1,0,0,1,100.93707,48.95633Z"/>
              <path id="e4bccf9f-0dec-4354-87e0-4136d410a41e" data-name="c" class="b558912d-44a3-4632-8b64-011aebeee01b" d="M99.46707,53.95633h13.47a2,2,0,0,1,2,2v16.5h-17.47v-16.5h0A2,2,0,0,1,99.46707,53.95633Z"/>
              <path class="f65d49b7-ca2e-4077-9afe-3cf8c173419c" d="M99.46707,53.95633h13.47a2,2,0,0,1,2,2v16.5h-17.47v-16.5h0A2,2,0,0,1,99.46707,53.95633Z"/>
              <path class="f65d49b7-ca2e-4077-9afe-3cf8c173419c" d="M104.46707,72.45633h-12v-12h12Z"/>
              <path class="a22f8abc-5f68-4e7a-8b8b-20d9f43090e7" d="M92.40205,58.95739l11.48342,11.48342L102.47125,71.855,90.98784,60.37161Z"/>
              <path id="b466d9f5-af0b-4b71-ab7d-a266a2ac5653" data-name="d" class="a22f8abc-5f68-4e7a-8b8b-20d9f43090e7" d="M91.90752,62.9612l-9.4611,9.46109-1.41421-1.41421L90.4933,61.547Z"/>
              <path class="a22f8abc-5f68-4e7a-8b8b-20d9f43090e7" d="M138.66315,62.1454,128.38181,72.42674l-1.41421-1.41421,10.28133-10.28134Z"/>
              <path class="a22f8abc-5f68-4e7a-8b8b-20d9f43090e7" d="M82.44194,61.55589,91.903,71.017,90.48882,72.4312l-9.4611-9.46109Z"/>
              <path class="a22f8abc-5f68-4e7a-8b8b-20d9f43090e7" d="M116.4802,47.55351l11.48341,11.48342-1.41421,1.41421L115.066,48.96772Z"/>
              <path id="fbe6bc79-4a63-40dd-bf71-3934eb95fb74" data-name="e" class="a22f8abc-5f68-4e7a-8b8b-20d9f43090e7" d="M91.90706,50.37075,82.446,59.83184l-1.41421-1.41421,9.46109-9.4611Z"/>
              <path class="a22f8abc-5f68-4e7a-8b8b-20d9f43090e7" d="M82.44149,48.95634l9.46109,9.4611-1.41421,1.41421-9.4611-9.46109Z"/>
              <path class="b38a8cfb-e320-4343-8968-9965a5db2159" d="M82.46707,72.45633h-2v-27.5h0a.5.5,0,0,1,.5-.5h1.03a.5.5,0,0,1,.5.5h0v27.5Z"/>
              <path class="b38a8cfb-e320-4343-8968-9965a5db2159" d="M92.46707,72.45633h-2v-27.5h0a.5.5,0,0,1,.5-.5h1.03a.5.5,0,0,1,.5.5h0v27.5Z"/>
              <path class="b38a8cfb-e320-4343-8968-9965a5db2159" d="M104.46707,72.45633h-2v-19.5h0a.5.5,0,0,1,.5-.5h1.03a.5.5,0,0,1,.5.5h0v19.5Z"/>
              <path class="b38a8cfb-e320-4343-8968-9965a5db2159" d="M116.99707,72.45633h-2v-27.5h0a.5.5,0,0,1,.5-.5h1a.5.5,0,0,1,.5.5h0Z"/>
              <path class="b38a8cfb-e320-4343-8968-9965a5db2159" d="M128.46707,72.45633h-2v-15.5h0a.5.5,0,0,1,.5-.5h1.03a.5.5,0,0,1,.5.5h0v15.5Z"/>
              <path class="b38a8cfb-e320-4343-8968-9965a5db2159" d="M136.96707,58.45633v2h-20v-2Z"/>
              <path class="b38a8cfb-e320-4343-8968-9965a5db2159" d="M90.46707,61.95633h-8v-2h8Z"/>
              <path class="b38a8cfb-e320-4343-8968-9965a5db2159" d="M102.46707,60.45633h-10v-2h10Z"/>
              <path class="b38a8cfb-e320-4343-8968-9965a5db2159" d="M90.46707,48.95633h-8v-2h8Z"/>
              <path class="b38a8cfb-e320-4343-8968-9965a5db2159" d="M90.46707,15.95633h31v13h-31Z"/>
              <path id="a23fca4f-d0e3-4a72-bc7e-b7a409e4498c" data-name="f" class="be10189d-4be4-4c7a-8d37-82ad45899e14" d="M86.96707,33.95633a1,1,0,0,1-1-1v-3a1,1,0,0,1,1-1h38.5a1,1,0,0,1,1,1v3a1,1,0,0,1-1,1Z"/>
              <path class="f65d49b7-ca2e-4077-9afe-3cf8c173419c" d="M86.96707,33.95633a1,1,0,0,1-1-1v-3a1,1,0,0,1,1-1h38.5a1,1,0,0,1,1,1v3a1,1,0,0,1-1,1Z"/>
              <path id="f0a1287a-cad3-4e0c-ad68-34ea2a88c17c" data-name="g" class="b558912d-44a3-4632-8b64-011aebeee01b" d="M101.46707,44.95633h0a1,1,0,0,1-1,1h-5a1,1,0,0,1-1-1h0v-4.5h0a3.5,3.5,0,0,1,7,0h0Z"/>
              <path id="a661b62b-f49c-4897-a503-9e6f17e35935" data-name="h" class="b558912d-44a3-4632-8b64-011aebeee01b" d="M117.46707,44.95633h0a1,1,0,0,1-1,1h-5a1,1,0,0,1-1-1h0v-4.5h0a3.5,3.5,0,0,1,7,0h0Z"/>
              <path class="f65d49b7-ca2e-4077-9afe-3cf8c173419c" d="M117.46707,44.95633h0a1,1,0,0,1-1,1h-5a1,1,0,0,1-1-1h0v-4.5h0a3.5,3.5,0,0,1,7,0h0Z"/>
              <path id="f4427a15-34c0-42c6-a0a5-ff63963601a8" data-name="i" class="b558912d-44a3-4632-8b64-011aebeee01b" d="M117.46707,28.95633h-7v-5.5h0a3.5,3.5,0,0,1,7,0h0Z"/>
              <path class="a2998420-9db7-41df-be5f-c6b381b1cb09" d="M117.46707,28.95633h-7v-5.5h0a3.5,3.5,0,0,1,7,0h0Z"/>
              <path id="a08c0aec-5a6a-49dc-8db5-947c6333fd2d" data-name="j" class="b558912d-44a3-4632-8b64-011aebeee01b" d="M101.46707,28.95633h-7v-5.5h0a3.5,3.5,0,0,1,7,0h0Z"/>
              <path class="f65d49b7-ca2e-4077-9afe-3cf8c173419c" d="M101.46707,28.95633h-7v-5.5h0a3.5,3.5,0,0,1,7,0h0Z"/>
              <path class="f65d49b7-ca2e-4077-9afe-3cf8c173419c" d="M101.46707,44.95633h0a1,1,0,0,1-1,1h-5a1,1,0,0,1-1-1h0v-4.5h0a3.5,3.5,0,0,1,7,0h0Z"/>
            </g>
          </g>
          <path id="f7b83257-5aa7-4fe6-8d47-28de9e02aed1" data-name="k" class="b558912d-44a3-4632-8b64-011aebeee01b" d="M56.27707,58.50633l1.73,24.15h8.04l1.73-24.15Z"/>
          <path class="a7e02b46-d92b-40e9-bc91-9406f2c72c37" d="M56.27707,58.50633l1.73,24.15h8.04l1.73-24.15Z"/>
          <path class="e3f89223-4e21-43d3-9ca6-e9292de5bff8" d="M68.35707,57.95633h4v.87h0a2.58,2.58,0,0,0,2.58,2.55h0a2,2,0,0,1,2,2h0a2,2,0,0,1-2,2h0a6.61,6.61,0,0,1-6.61-6.61Z"/>
          <path class="e3f89223-4e21-43d3-9ca6-e9292de5bff8" d="M80.40707,56.11633l-5.56-1.47c-.07,4.76-3.3,12.47-3.6,13.62-.21.77.87,1.72,2.41,2.13s3,.13,3.15-.64C77.11708,68.60633,76.53708,63.14633,80.40707,56.11633Z"/>
          <path class="e3f89223-4e21-43d3-9ca6-e9292de5bff8" d="M80.40707,56.11633c-.21.77-1.61,1.06-3.15.66s-2.61-1.36-2.41-2.13,1.61-1.06,3.15-.65S80.60708,55.35633,80.40707,56.11633Z"/>
          <path class="b558912d-44a3-4632-8b64-011aebeee01b" d="M70.15877,82.003c4.491.67561,4.491,1.771,0,2.44659a65.50434,65.50434,0,0,1-16.2635,0c-4.491-.67561-4.491-1.771,0-2.44659a65.50434,65.50434,0,0,1,16.2635,0"/>
          <path class="e3f89223-4e21-43d3-9ca6-e9292de5bff8" d="M68.04707,82.65633h0a1.15,1.15,0,0,0,1-1.67h0a3.45,3.45,0,0,0-3-1.78h-.58a3.45,3.45,0,0,0-3.45,3.45h6.03Z"/>
          <path class="e3f89223-4e21-43d3-9ca6-e9292de5bff8" d="M62.02707,82.65633h0a3.44,3.44,0,0,0-3.43-3.45q-.01,0-.02,0h-.57a3.45,3.45,0,0,0-3,1.78h0a1.14,1.14,0,0,0,1,1.67Z"/>
          <path class="a7e02b46-d92b-40e9-bc91-9406f2c72c37" d="M62.02707,64.82634v17.83"/>
          <path id="ec05f788-e077-41b2-a23b-123052364301" data-name="l" class="be10189d-4be4-4c7a-8d37-82ad45899e14" d="M67.77707,55.05633h4.6v-4.6h0a10.35,10.35,0,0,0-20.7,0v4.6h4.6v3.45h11.5Z"/>
          <path class="e3f89223-4e21-43d3-9ca6-e9292de5bff8" d="M56.27707,56.20633h11.5v2.3h-11.5Z"/>
          <path class="e3f89223-4e21-43d3-9ca6-e9292de5bff8" d="M56.27707,57.95633h-4v6.62h0a2,2,0,0,0,4,0Z"/>
          <path class="a7e02b46-d92b-40e9-bc91-9406f2c72c37" d="M67.77707,55.05633h4.6v-4.6h0a10.35,10.35,0,0,0-20.7,0v4.6h4.6v3.45h11.5Z"/>
          <path class="e3f89223-4e21-43d3-9ca6-e9292de5bff8" d="M52.25707,61.37633h4.02v2.3h-4.02Z"/>
          <path class="a7e02b46-d92b-40e9-bc91-9406f2c72c37" d="M67.77707,55.05633V51.60655a10.68011,10.68011,0,0,1,.57993-3.45h0"/>
          <path class="a7e02b46-d92b-40e9-bc91-9406f2c72c37" d="M56.27707,55.05633V51.60614a10.66974,10.66974,0,0,0-.57006-3.45h0"/>
          <path class="e3f89223-4e21-43d3-9ca6-e9292de5bff8" d="M60.48707,43.39633l1,2.38h0a.58.58,0,0,0,1.06,0l1-2.38h0a1.15,1.15,0,0,1,.6-.57h0a6.09,6.09,0,0,0,2.18-1.77h0a10.34,10.34,0,0,0-8.66,0h0a6.21994,6.21994,0,0,0,2.18,1.77h0A1.21006,1.21006,0,0,1,60.48707,43.39633Z"/>
          <path class="e3f89223-4e21-43d3-9ca6-e9292de5bff8" d="M66.35707,41.05633h0a6.09,6.09,0,0,1-2.18,1.77h0a1.18,1.18,0,0,0-.35.23l1.61,1.61h0a1.15,1.15,0,0,0,1.44.15h0a13.4102,13.4102,0,0,0,2.22-1.92h0A10.21,10.21,0,0,0,66.35707,41.05633Z"/>
          <path class="a7e02b46-d92b-40e9-bc91-9406f2c72c37" d="M62.02707,46.12633v10.08"/>
          <path class="e3f89223-4e21-43d3-9ca6-e9292de5bff8" d="M67.77707,55.05633h4.68a.5.5,0,0,1,.5.5v1.88h0a.5.5,0,0,1-.5.5h-4.68Z"/>
          <path class="e3f89223-4e21-43d3-9ca6-e9292de5bff8" d="M51.60707,55.05633h4.68v2.9h-4.68a.5.5,0,0,1-.5-.5h0v-1.9h0A.5.5,0,0,1,51.60707,55.05633Z"/>
          <path class="e3f89223-4e21-43d3-9ca6-e9292de5bff8" d="M59.87707,42.82633h0a6.22,6.22,0,0,1-2.18-1.77h0a10.15987,10.15987,0,0,0-2.76,1.84h0a14.28028,14.28028,0,0,0,2.29,1.92h0a1.15,1.15,0,0,0,1.44-.15l1.57-1.61h0A1.37961,1.37961,0,0,0,59.87707,42.82633Z"/>
          <path class="e3f89223-4e21-43d3-9ca6-e9292de5bff8" d="M75.93707,61.50633h0a2.26125,2.26125,0,0,0-1.49,4.27l2.13.75h0a.76.76,0,0,0,.98534-.42932l.01466-.04068,1-2.84h0a.75.75,0,0,0-.40581-.98q-.0267-.01106-.05419-.02Z"/>
          <path class="e3f89223-4e21-43d3-9ca6-e9292de5bff8" d="M70.07707,30.95633h0a1.42,1.42,0,0,0-1.14-1.43v-.92h0a6.9,6.9,0,0,0-13.8,0v.92h0a1.41,1.41,0,0,0,.15,2.79h0a6.9,6.9,0,0,0,13.51,0h0A1.43,1.43,0,0,0,70.07707,30.95633Z"/>
          <path class="b558912d-44a3-4632-8b64-011aebeee01b" d="M58.89517,31.15823a.86.86,0,1,1-1.21622,0,.86.86,0,0,1,1.21622,0"/>
          <path class="b558912d-44a3-4632-8b64-011aebeee01b" d="M66.37517,31.15823a.86.86,0,1,1-1.21622,0,.86.86,0,0,1,1.21622,0"/>
          <path class="a7e02b46-d92b-40e9-bc91-9406f2c72c37" d="M65.13707,29.75633h0a1,1,0,0,0-1.38,0"/>
          <path class="a7e02b46-d92b-40e9-bc91-9406f2c72c37" d="M58.93707,29.75633h0a1,1,0,0,1,1.39,0"/>
          <path class="a7e02b46-d92b-40e9-bc91-9406f2c72c37" d="M63.75707,33.77633h0a2.86,2.86,0,0,1-3.45,0"/>
          <path id="e805959a-38b0-4433-b6a5-25241c553350" data-name="m" class="b558912d-44a3-4632-8b64-011aebeee01b" d="M62.02707,19.17633h0a8.28,8.28,0,0,0-8.16,8.28h16.33v.00008a8.29,8.29,0,0,0-8.16993-8.28008Z"/>
          <path class="a7e02b46-d92b-40e9-bc91-9406f2c72c37" d="M62.02707,19.17633h0a8.28,8.28,0,0,0-8.16,8.28h16.33v.00008a8.29,8.29,0,0,0-8.16993-8.28008Z"/>
          <path class="a7e02b46-d92b-40e9-bc91-9406f2c72c37" d="M52.25707,27.45633h19.55"/>
          <path class="a7e02b46-d92b-40e9-bc91-9406f2c72c37" d="M58.00707,18.82633v6.33"/>
          <path class="a7e02b46-d92b-40e9-bc91-9406f2c72c37" d="M66.05707,18.82633v6.33"/>
          <path id="ab99ae7a-8334-4a38-8580-0574cb65ac49" data-name="n" class="be10189d-4be4-4c7a-8d37-82ad45899e14" d="M62.02707,24.57633h0a1.72,1.72,0,0,1-1.72-1.72v-3.45a1.73,1.73,0,0,1,1.72-1.73h0a1.74,1.74,0,0,1,1.73,1.73v3.45h0a1.73,1.73,0,0,1-1.73,1.72Z"/>
          <path class="a7e02b46-d92b-40e9-bc91-9406f2c72c37" d="M62.02707,24.57633h0a1.72,1.72,0,0,1-1.72-1.72v-3.45a1.73,1.73,0,0,1,1.72-1.73h0a1.74,1.74,0,0,1,1.73,1.73v3.45h0a1.73,1.73,0,0,1-1.73,1.72Z"/>
        </g>
      </g>
    </g>
  </g>
</svg>
