<svg xmlns="http://www.w3.org/2000/svg" width="163.10022" height="111.41262" viewBox="0 0 163.10022 111.41262">
  <defs>
    <style>
      .a377fac7-9628-4d33-a660-dc151ac32fd4, .a5a29496-5184-4e76-80f2-71eccd1de2ba, .a9104737-6ee8-4de7-b3c5-08782c14e07e, .b3a8e67a-6fe3-4cc5-b3e3-c470b7b4e2d3 {
        fill: none;
      }

      .a377fac7-9628-4d33-a660-dc151ac32fd4, .b3a8e67a-6fe3-4cc5-b3e3-c470b7b4e2d3, .bc623fac-7f05-4c36-aa20-c552c89dfea5, .bd8fba7b-c28c-4a54-b1a9-53b82e055522, .ed3a6c00-b852-46c6-ab62-4a907c45776a, .f3e31274-2759-401e-8488-770b6aee4ca0, .f9f4cdb1-d5e5-451a-8783-0f98164ecc6b {
        stroke: #2a2a2a;
      }

      .a9104737-6ee8-4de7-b3c5-08782c14e07e, .b3a8e67a-6fe3-4cc5-b3e3-c470b7b4e2d3, .bc623fac-7f05-4c36-aa20-c552c89dfea5, .bd8fba7b-c28c-4a54-b1a9-53b82e055522, .f9f4cdb1-d5e5-451a-8783-0f98164ecc6b {
        stroke-linecap: round;
      }

      .a377fac7-9628-4d33-a660-dc151ac32fd4, .a9104737-6ee8-4de7-b3c5-08782c14e07e, .b3a8e67a-6fe3-4cc5-b3e3-c470b7b4e2d3, .bc623fac-7f05-4c36-aa20-c552c89dfea5, .bd8fba7b-c28c-4a54-b1a9-53b82e055522, .ed3a6c00-b852-46c6-ab62-4a907c45776a, .f3e31274-2759-401e-8488-770b6aee4ca0, .f9f4cdb1-d5e5-451a-8783-0f98164ecc6b {
        stroke-linejoin: round;
      }

      .aeccfab4-7f1d-48c6-84dd-55c16a035735, .bd8fba7b-c28c-4a54-b1a9-53b82e055522, .ed3a6c00-b852-46c6-ab62-4a907c45776a, .f9f4cdb1-d5e5-451a-8783-0f98164ecc6b {
        fill: #ffe211;
      }

      .bc623fac-7f05-4c36-aa20-c552c89dfea5, .f1738ea1-8b60-4fac-9c1f-464079675876, .f3e31274-2759-401e-8488-770b6aee4ca0 {
        fill: #fff;
      }

      .a9104737-6ee8-4de7-b3c5-08782c14e07e {
        stroke: #3a3a3a;
      }

      .f9f4cdb1-d5e5-451a-8783-0f98164ecc6b {
        stroke-width: 1.0032px;
      }

      .ab80a99f-aa92-48c9-a903-2d86ca983175 {
        fill: #2a2a2a;
      }
    </style>
  </defs>
  <title>Asset 4-rea</title>
  <g id="ac095bcf-f9f7-4d7c-a1ad-ff1049ec8db9" data-name="Layer 2">
    <g id="fee35c01-69e3-4c8b-b68e-53ab90f558f8" data-name="Layer 1">
      <g>
        <rect class="a5a29496-5184-4e76-80f2-71eccd1de2ba" width="163.10022" height="111.41262"/>
        <g>
          <path class="b3a8e67a-6fe3-4cc5-b3e3-c470b7b4e2d3" d="M65.44021,44.22621v13.2"/>
          <path class="b3a8e67a-6fe3-4cc5-b3e3-c470b7b4e2d3" d="M57.64016,57.5262h15.6001v15H57.64016Z"/>
          <path class="ed3a6c00-b852-46c6-ab62-4a907c45776a" d="M60.64016,57.5262h2.3999v15h-2.3999Z"/>
          <path class="ed3a6c00-b852-46c6-ab62-4a907c45776a" d="M67.94021,57.5262h2.3999v15h-2.3999Z"/>
          <path class="ed3a6c00-b852-46c6-ab62-4a907c45776a" d="M73.34011,57.5262H89.74a.94472.94472,0,0,1,1,1v2H73.34011Z"/>
          <path class="ed3a6c00-b852-46c6-ab62-4a907c45776a" d="M73.34011,60.5262H90.74v3H73.34011Z"/>
          <path class="ed3a6c00-b852-46c6-ab62-4a907c45776a" d="M73.34011,63.5262H90.74v3H73.34011Z"/>
          <path class="ed3a6c00-b852-46c6-ab62-4a907c45776a" d="M73.34011,66.5262H90.74v3H73.34011Z"/>
          <path class="ed3a6c00-b852-46c6-ab62-4a907c45776a" d="M73.34011,69.5262H90.74v3H73.34011Z"/>
          <path class="b3a8e67a-6fe3-4cc5-b3e3-c470b7b4e2d3" d="M57.64016,57.5262l7.8-13.2,7.80005,13.2Z"/>
          <path class="b3a8e67a-6fe3-4cc5-b3e3-c470b7b4e2d3" d="M65.44021,44.22621h38"/>
          <path class="b3a8e67a-6fe3-4cc5-b3e3-c470b7b4e2d3" d="M67.94021,48.42621h31.2"/>
          <path class="b3a8e67a-6fe3-4cc5-b3e3-c470b7b4e2d3" d="M60.54031,52.62621h34.8999"/>
          <path class="b3a8e67a-6fe3-4cc5-b3e3-c470b7b4e2d3" d="M72.14016,44.22621l8.3999,13.2"/>
          <path class="b3a8e67a-6fe3-4cc5-b3e3-c470b7b4e2d3" d="M79.34011,44.22621l8.3999,13.2"/>
          <path class="b3a8e67a-6fe3-4cc5-b3e3-c470b7b4e2d3" d="M61.84011,50.32621v7.1"/>
          <path class="b3a8e67a-6fe3-4cc5-b3e3-c470b7b4e2d3" d="M69.14016,50.32621v7.1"/>
        </g>
        <g>
          <path id="a6cc4eac-62ce-451b-a4b1-eaf6c3fa8ed2" data-name="a" class="aeccfab4-7f1d-48c6-84dd-55c16a035735" d="M107.44021,40.5262h27.7a1.889,1.889,0,0,1,1.8,1.1h0l8.5,17.9h-38Z"/>
          <path class="a377fac7-9628-4d33-a660-dc151ac32fd4" d="M107.44021,40.5262h27.7a1.889,1.889,0,0,1,1.8,1.1h0l8.5,17.9h-38Z"/>
          <path id="b924af6c-ad35-4e01-a129-cc6646ef5867" data-name="b" class="f1738ea1-8b60-4fac-9c1f-464079675876" d="M88.94021,72.5262h37v-13l-17.8-18.7h0a.96655.96655,0,0,0-1.3999,0h0l-17.80005,18.7Z"/>
          <path class="a377fac7-9628-4d33-a660-dc151ac32fd4" d="M88.94021,72.5262h37v-13l-17.8-18.7h0a.96655.96655,0,0,0-1.3999,0h0l-17.80005,18.7Z"/>
          <path id="bb37ae5d-206c-4873-ab31-d83142de38d1" data-name="c" class="f1738ea1-8b60-4fac-9c1f-464079675876" d="M144.44021,72.5262h-18.5v-13h18.5Z"/>
          <path class="a377fac7-9628-4d33-a660-dc151ac32fd4" d="M144.44021,72.5262h-18.5v-13h18.5Z"/>
          <path id="e9b40175-c4fe-48d7-b9c3-9274faef128d" data-name="d" class="f1738ea1-8b60-4fac-9c1f-464079675876" d="M110.94021,59.5262l7.5-8,7.5,8v13h-15Z"/>
          <path class="a377fac7-9628-4d33-a660-dc151ac32fd4" d="M110.94021,59.5262l7.5-8,7.5,8v13h-15Z"/>
          <path id="bb0065d8-f6bd-4666-ba06-55fa97bea395" data-name="e" class="f1738ea1-8b60-4fac-9c1f-464079675876" d="M122.44021,47.92621a1.08058,1.08058,0,0,1,.30005-.7h0l5.5-5.1a.96655.96655,0,0,1,1.3999,0h0l5.5,5.1a.908.908,0,0,1,.3.7h0v6.6h-13Z"/>
          <path class="a377fac7-9628-4d33-a660-dc151ac32fd4" d="M122.44021,47.92621a1.08058,1.08058,0,0,1,.30005-.7h0l5.5-5.1a.96655.96655,0,0,1,1.3999,0h0l5.5,5.1a.908.908,0,0,1,.3.7h0v6.6h-13Z"/>
          <path id="e22a1fda-b839-4e90-92bb-d317692bd0bf" data-name="f" class="aeccfab4-7f1d-48c6-84dd-55c16a035735" d="M118.44021,61.5262a3.47823,3.47823,0,0,0-3.5,3.5h0v7.5h7v-7.5h0a3.54321,3.54321,0,0,0-3.5-3.5Z"/>
          <path id="a345c98c-525a-4b22-8c75-798e8a6b436d" data-name="h" class="aeccfab4-7f1d-48c6-84dd-55c16a035735" d="M110.94021,72.5262h-12v-12h12Z"/>
          <path class="f3e31274-2759-401e-8488-770b6aee4ca0" d="M98.94021,72.5262h-10v-12h10Z"/>
          <path id="a6cf4387-c01a-4449-a837-7cca2cd0c74e" data-name="i" class="aeccfab4-7f1d-48c6-84dd-55c16a035735" d="M109.94021,49.0262a1.07539,1.07539,0,0,1,1,1h0v4.5h-6a.94472.94472,0,0,1-1-1h0v-3.5a.94472.94472,0,0,1,1-1h5Z"/>
          <path id="fc9f20c3-ab60-45e4-a8a6-9cb807cb9126" data-name="j" class="aeccfab4-7f1d-48c6-84dd-55c16a035735" d="M132.44021,54.5262h-7v-6h7Z"/>
          <path id="b4bb9301-4c18-4fac-8300-3d3ecf27f634" data-name="k" class="aeccfab4-7f1d-48c6-84dd-55c16a035735" d="M138.94021,72.5262h-6.5v-10h6.5Z"/>
          <path class="a377fac7-9628-4d33-a660-dc151ac32fd4" d="M118.44021,61.5262a3.47823,3.47823,0,0,0-3.5,3.5h0v7.5h7v-7.5h0a3.54321,3.54321,0,0,0-3.5-3.5Z"/>
          <path class="a377fac7-9628-4d33-a660-dc151ac32fd4" d="M110.94021,72.5262h-12v-12h12Z"/>
          <path class="a377fac7-9628-4d33-a660-dc151ac32fd4" d="M109.94021,49.0262a1.07539,1.07539,0,0,1,1,1h0v4.5h-6a.94472.94472,0,0,1-1-1h0v-3.5a.94472.94472,0,0,1,1-1h5Z"/>
          <path class="a377fac7-9628-4d33-a660-dc151ac32fd4" d="M132.44021,54.5262h-7v-6h7Z"/>
          <path class="a377fac7-9628-4d33-a660-dc151ac32fd4" d="M138.94021,72.5262h-6.5v-10h6.5Z"/>
        </g>
        <path class="b3a8e67a-6fe3-4cc5-b3e3-c470b7b4e2d3" d="M86.34011,44.22621l6.8999,10.8"/>
        <path class="b3a8e67a-6fe3-4cc5-b3e3-c470b7b4e2d3" d="M93.34011,44.22621l4.1001,6.4"/>
        <g>
          <path class="a9104737-6ee8-4de7-b3c5-08782c14e07e" d="M14.56132,72.49466h78"/>
          <path class="a9104737-6ee8-4de7-b3c5-08782c14e07e" d="M10.06132,72.49466h2.5"/>
          <path class="a9104737-6ee8-4de7-b3c5-08782c14e07e" d="M94.56132,72.49466h2.5"/>
        </g>
        <g>
          <path class="a9104737-6ee8-4de7-b3c5-08782c14e07e" d="M70.94021,72.49466h78"/>
          <path class="a9104737-6ee8-4de7-b3c5-08782c14e07e" d="M66.44021,72.49466h2.5"/>
          <path class="a9104737-6ee8-4de7-b3c5-08782c14e07e" d="M150.94021,72.49466h2.5"/>
        </g>
        <g>
          <path class="aeccfab4-7f1d-48c6-84dd-55c16a035735" d="M46.56315,85.69814c5.8.7,5.8,1.8,0,2.4a106.26438,106.26438,0,0,1-21.1001,0c-5.8-.7-5.8-1.8,0-2.4a123.892,123.892,0,0,1,21.1001,0"/>
          <path class="bc623fac-7f05-4c36-aa20-c552c89dfea5" d="M40.56315,55.89812h4v3.2h0a2.5619,2.5619,0,0,0,2.5,2.6h.1001a2.00581,2.00581,0,0,1,2,2h0a2.00582,2.00582,0,0,1-2,2h0a6.53106,6.53106,0,0,1-6.6001-6.6h0Z"/>
          <path id="b1e85a49-bc5c-4b65-aff2-e52a09cba297" data-name="n" class="f1738ea1-8b60-4fac-9c1f-464079675876" d="M22.7631,54.19814h0a10.95567,10.95567,0,0,1,21.90015-.7v2.4h-2.8999v8.6H26.86345v-8.6h-4v-1.7l-.10035,0Z"/>
          <path class="b3a8e67a-6fe3-4cc5-b3e3-c470b7b4e2d3" d="M22.7631,54.19814h0a10.95567,10.95567,0,0,1,21.90015-.7v2.4h-2.8999v8.6H26.86345v-8.6h-4v-1.7l-.10035,0Z"/>
          <path id="b93eb200-8ae1-4358-8322-a8361c91ca55" data-name="o" class="aeccfab4-7f1d-48c6-84dd-55c16a035735" d="M26.7631,64.49813v20.2h0a1.20075,1.20075,0,0,0,1.1001,1.2h4l.5-14.2h0a1.83187,1.83187,0,0,1,1.3999-1.8h0a1.85292,1.85292,0,0,1,2.3,1.3c0,.1.1001.3.1001.4l.3999,13.2h0a1.10979,1.10979,0,0,0,1.1001,1.1h4.1001v-21.3Z"/>
          <path class="b3a8e67a-6fe3-4cc5-b3e3-c470b7b4e2d3" d="M26.7631,64.49813v20.2h0a1.20075,1.20075,0,0,0,1.1001,1.2h4l.5-14.2h0a1.83187,1.83187,0,0,1,1.3999-1.8h0a1.85292,1.85292,0,0,1,2.3,1.3c0,.1.1001.3.1001.4l.3999,13.2h0a1.10979,1.10979,0,0,0,1.1001,1.1h4.1001v-21.3Z"/>
          <path class="b3a8e67a-6fe3-4cc5-b3e3-c470b7b4e2d3" d="M26.7631,55.89812v-3.4"/>
          <path class="b3a8e67a-6fe3-4cc5-b3e3-c470b7b4e2d3" d="M41.7631,55.89812v-3.4"/>
          <path class="bd8fba7b-c28c-4a54-b1a9-53b82e055522" d="M44.4633,85.79811h0a3.4577,3.4577,0,0,0-3.3999-3.5H36.4633v2.3h0a1.216,1.216,0,0,0,1.2,1.2h6.8Z"/>
          <path class="bd8fba7b-c28c-4a54-b1a9-53b82e055522" d="M34.7631,85.79811h0a3.4577,3.4577,0,0,0-3.3999-3.5H26.7631v2.3h0a1.20074,1.20074,0,0,0,1.1001,1.2h6.8999Z"/>
          <path class="bd8fba7b-c28c-4a54-b1a9-53b82e055522" d="M55.8632,44.29811l-5.6001-1.5c-3.3,12.4-4.2,19.4-7.3,25.7-.2.8.89991,1.7,2.39991,2.1s3,.1,3.2-.6C50.06315,62.19814,51.56315,57.69814,55.8632,44.29811Z"/>
          <path class="bc623fac-7f05-4c36-aa20-c552c89dfea5" d="M55.8632,44.29811c-.2.8-1.6001,1.1-3.1001.7s-2.60009-1.3-2.3999-2.1c.2-.8,1.6001-1.1,3.2-.7S56.06315,43.49813,55.8632,44.29811Z"/>
          <path class="bc623fac-7f05-4c36-aa20-c552c89dfea5" d="M48.06315,61.29811h0a2.28475,2.28475,0,0,0-1.8,4.2.34853.34853,0,0,1,.2.1l2.1001.8h0a.73054.73054,0,0,0,1-.4v-.1l1-2.8h0a.73061.73061,0,0,0-.3999-1h0Z"/>
          <path class="bc623fac-7f05-4c36-aa20-c552c89dfea5" d="M38.2631,48.99813v-4.7h0a10.32945,10.32945,0,0,0-8.60009-.2v5l4.60009-1.7Z"/>
          <path class="bc623fac-7f05-4c36-aa20-c552c89dfea5" d="M30.9633,43.59813l3.30005,3.7,3.1001-3.4h0a11.3249,11.3249,0,0,0-3.6001-.6h0A12.64608,12.64608,0,0,0,30.9633,43.59813Z"/>
          <path class="b3a8e67a-6fe3-4cc5-b3e3-c470b7b4e2d3" d="M34.2631,47.29811v17.2"/>
          <path class="f9f4cdb1-d5e5-451a-8783-0f98164ecc6b" d="M28.66325,67.69814a1.088,1.088,0,0,1-1.1001-.9l-.8999-11.2a1.08783,1.08783,0,0,1,.8999-1.1l7.2-.6a1.088,1.088,0,0,1,1.1001.9l.8999,11.2a1.08783,1.08783,0,0,1-.8999,1.1Z"/>
          <path class="bc623fac-7f05-4c36-aa20-c552c89dfea5" d="M32.66325,59.69814l2.8,2.9,1.5-1.6h0a1.97991,1.97991,0,1,0-2.8-2.8l-1.5,1.5Z"/>
          <path class="bc623fac-7f05-4c36-aa20-c552c89dfea5" d="M26.66325,56.19814l.19995,1.4h0a3.3293,3.3293,0,0,0,3.30005,3.3h0a3.36724,3.36724,0,0,0,2.6001-1.2l2.8,2.9h0a7.25276,7.25276,0,0,1-12.6001-5v-1.4"/>
          <path class="bc623fac-7f05-4c36-aa20-c552c89dfea5" d="M32.66325,55.29811l-2.8.2a.77294.77294,0,0,1-.8-.7l-.1001-.9a.77286.77286,0,0,1,.7-.8l2.8-.2a.77293.77293,0,0,1,.8.7l.1001.9A.71326.71326,0,0,1,32.66325,55.29811Z"/>
          <g>
            <path class="bc623fac-7f05-4c36-aa20-c552c89dfea5" d="M41.9633,34.49813h0a1.40213,1.40213,0,0,0-1.19995-1.4v-.9h0a6.89991,6.89991,0,1,0-13.79981,0v.9h0a1.38316,1.38316,0,0,0-1.19995,1.6,1.49075,1.49075,0,0,0,1.3,1.2h0a6.904,6.904,0,0,0,13.5,0h0A1.50277,1.50277,0,0,0,41.9633,34.49813Z"/>
            <path class="aeccfab4-7f1d-48c6-84dd-55c16a035735" d="M30.7631,34.69814a.84851.84851,0,1,1-1.2,0,.9124.9124,0,0,1,1.2,0"/>
            <path class="aeccfab4-7f1d-48c6-84dd-55c16a035735" d="M38.2631,34.69814a.84851.84851,0,1,1-1.2,0,.9124.9124,0,0,1,1.2,0"/>
            <path id="ad879eb3-4d4c-4709-8e26-dd97a88c1d8a" data-name="k" class="aeccfab4-7f1d-48c6-84dd-55c16a035735" d="M41.3632,30.49813h0a7.45414,7.45414,0,0,0-14.8999,0v2.3h0a5.95174,5.95174,0,0,0,4-3.4C33.66325,31.49813,37.8632,30.99813,41.3632,30.49813Z"/>
            <path class="b3a8e67a-6fe3-4cc5-b3e3-c470b7b4e2d3" d="M41.3632,30.49813h0a7.45414,7.45414,0,0,0-14.8999,0v2.3h0a5.95174,5.95174,0,0,0,4-3.4C33.66325,31.49813,37.8632,30.99813,41.3632,30.49813Z"/>
            <path class="b3a8e67a-6fe3-4cc5-b3e3-c470b7b4e2d3" d="M29.2631,28.19814h0a3.44762,3.44762,0,0,0,1.19995,1.2"/>
            <path class="b3a8e67a-6fe3-4cc5-b3e3-c470b7b4e2d3" d="M32.56315,37.89812a11.30391,11.30391,0,0,0,2.6001,0"/>
            <path class="ab80a99f-aa92-48c9-a903-2d86ca983175" d="M36.2631,32.29811h0a.9.9,0,1,0,.89991.9h0a.896.896,0,0,0-.89991-.9Z"/>
            <path class="ab80a99f-aa92-48c9-a903-2d86ca983175" d="M31.4633,32.29811h0a.9.9,0,1,0,.8999.9h0a.89619.89619,0,0,0-.8999-.9Z"/>
            <path class="b3a8e67a-6fe3-4cc5-b3e3-c470b7b4e2d3" d="M32.8632,34.99813h-2.5a.87134.87134,0,0,1-.8-.6l-.3999-2.3c-.1001-.4.3-.8.8-.8h3.1001a.78883.78883,0,0,1,.8.8l-.2,2.3A.87191.87191,0,0,1,32.8632,34.99813Z"/>
            <path class="b3a8e67a-6fe3-4cc5-b3e3-c470b7b4e2d3" d="M34.9633,34.99813h2.5a.87134.87134,0,0,0,.80005-.6l.3999-2.3c.1001-.4-.3-.8-.8-.8H34.7631a.78883.78883,0,0,0-.8.8l.2,2.3C34.16325,34.69814,34.56315,34.99813,34.9633,34.99813Z"/>
            <line class="b3a8e67a-6fe3-4cc5-b3e3-c470b7b4e2d3" x1="38.4633" y1="33.19814" x2="40.56315" y2="33.09813"/>
            <line class="b3a8e67a-6fe3-4cc5-b3e3-c470b7b4e2d3" x1="29.06315" y1="33.19814" x2="27.06315" y2="33.09813"/>
          </g>
        </g>
      </g>
    </g>
  </g>
</svg>
