<svg xmlns="http://www.w3.org/2000/svg" width="163.10022" height="111.41262" viewBox="0 0 163.10022 111.41262">
  <defs>
    <style>
      .adb7e1df-322f-47d0-8be9-bdf68524759e, .b6026ea1-c915-4e69-8e99-b21b4b15a82e, .e63e23ee-006a-4524-a466-3568ca1c5cf0 {
        fill: none;
      }

      .ab24ecce-a689-4b32-9635-c8ad6e417a0f, .b4d51cf4-0f05-4d44-8500-50da57598284 {
        fill: #ffe211;
      }

      .ab24ecce-a689-4b32-9635-c8ad6e417a0f, .ac5afb11-09b8-4a74-9f97-fe9a984075e9, .adb7e1df-322f-47d0-8be9-bdf68524759e, .b7dd1e55-0eef-485c-9259-6067727b0270, .e63e23ee-006a-4524-a466-3568ca1c5cf0, .fe4e917d-db54-4ff0-8377-f4f4c6f19286 {
        stroke: #3a3a3a;
        stroke-linejoin: round;
      }

      .ab24ecce-a689-4b32-9635-c8ad6e417a0f, .ac5afb11-09b8-4a74-9f97-fe9a984075e9, .adb7e1df-322f-47d0-8be9-bdf68524759e {
        stroke-linecap: round;
      }

      .ac5afb11-09b8-4a74-9f97-fe9a984075e9, .ad007a10-058f-45d8-81e8-0286cbc5695b, .b7dd1e55-0eef-485c-9259-6067727b0270, .fe4e917d-db54-4ff0-8377-f4f4c6f19286 {
        fill: #fff;
      }

      .a2930091-8fb0-49d4-962e-4f1dd2878210 {
        fill: #3a3a3a;
      }
    </style>
  </defs>
  <title>Asset 5-rea</title>
  <g id="a6895524-fd30-494c-a93a-d612cf659667" data-name="Layer 2">
    <g id="fb4dc054-e7e8-4f5b-b8b6-0bda469326f9" data-name="Layer 1">
      <g>
        <rect class="b6026ea1-c915-4e69-8e99-b21b4b15a82e" width="163.10022" height="111.41262"/>
        <g>
          <path class="b4d51cf4-0f05-4d44-8500-50da57598284" d="M121.55011,56.20444v.00375A40,40,0,1,0,45.10857,72.701h72.8815a39.84986,39.84986,0,0,0,3.56-16.4966Z"/>
          <path class="adb7e1df-322f-47d0-8be9-bdf68524759e" d="M42.55011,72.70444h78"/>
          <path class="adb7e1df-322f-47d0-8be9-bdf68524759e" d="M38.05011,72.70444h2.5"/>
          <path class="adb7e1df-322f-47d0-8be9-bdf68524759e" d="M122.55011,72.70444h2.5"/>
          <path id="b705ee00-530f-4dc9-be0b-23ac6db3ff44" data-name="a" class="b4d51cf4-0f05-4d44-8500-50da57598284" d="M95.84011,59.70444h-38l8.46-17.86h0a2,2,0,0,1,1.81-1.14h27.73Z"/>
          <path class="e63e23ee-006a-4524-a466-3568ca1c5cf0" d="M95.84011,59.70444h-38l8.46-17.86h0a2,2,0,0,1,1.81-1.14h27.73Z"/>
          <path id="fc1f345b-47db-4ebf-a7bb-7077661a1776" data-name="b" class="ad007a10-058f-45d8-81e8-0286cbc5695b" d="M114.34011,59.70444l-17.79-18.74h0a1,1,0,0,0-1.41375-.03625q-.01859.01765-.03625.03625l-17.76,18.74v13h37Z"/>
          <path class="e63e23ee-006a-4524-a466-3568ca1c5cf0" d="M114.34011,59.70444l-17.79-18.74h0a1,1,0,0,0-1.41375-.03625q-.01859.01765-.03625.03625l-17.76,18.74v13h37Z"/>
          <path id="eb165cce-6cf3-4724-b38f-106fcfc96073" data-name="c" class="ad007a10-058f-45d8-81e8-0286cbc5695b" d="M58.84011,59.70444h18.5v13h-18.5Z"/>
          <path class="e63e23ee-006a-4524-a466-3568ca1c5cf0" d="M58.84011,59.70444h18.5v13h-18.5Z"/>
          <path id="a183422d-afb2-4f23-b1ab-185ff24887ec" data-name="d" class="ad007a10-058f-45d8-81e8-0286cbc5695b" d="M92.34011,72.70444h-15v-13l7.5-8,7.5,8Z"/>
          <path class="e63e23ee-006a-4524-a466-3568ca1c5cf0" d="M92.34011,72.70444h-15v-13l7.5-8,7.5,8Z"/>
          <path id="ba287b75-41f3-49e2-bbcc-fa6f3f8b6145" data-name="e" class="ad007a10-058f-45d8-81e8-0286cbc5695b" d="M80.84011,54.70444h-13v-6.56h0a1,1,0,0,1,.32-.74l5.5-5.07h0a1,1,0,0,1,1.36,0l5.53,5.07h0a1,1,0,0,1,.32.74Z"/>
          <path class="e63e23ee-006a-4524-a466-3568ca1c5cf0" d="M80.84011,54.70444h-13v-6.56h0a1,1,0,0,1,.32-.74l5.5-5.07h0a1,1,0,0,1,1.36,0l5.53,5.07h0a1,1,0,0,1,.32.74Z"/>
          <path id="beaad136-b5e7-4667-9d8c-1f4ce803ebac" data-name="f" class="b4d51cf4-0f05-4d44-8500-50da57598284" d="M84.84011,61.70444h0a3.5,3.5,0,0,0-3.5,3.5h0v7.5h7v-7.5h0a3.5,3.5,0,0,0-3.5-3.5Z"/>
          <path id="fc578076-8531-4939-9d9c-c9d03f631561" data-name="g" class="ad007a10-058f-45d8-81e8-0286cbc5695b" d="M58.84011,59.70444h2.5v13h-2.5Z"/>
          <path class="e63e23ee-006a-4524-a466-3568ca1c5cf0" d="M58.84011,59.70444h2.5v13h-2.5Z"/>
          <path id="a237f25b-7147-4ab1-bf8f-5b5625357381" data-name="h" class="b4d51cf4-0f05-4d44-8500-50da57598284" d="M92.34011,60.70444h12v12h-12Z"/>
          <path class="b7dd1e55-0eef-485c-9259-6067727b0270" d="M104.34011,60.70444h10v12h-10Z"/>
          <path id="b4be14af-0e42-44d2-9df8-4d14507ea2e3" data-name="i" class="b4d51cf4-0f05-4d44-8500-50da57598284" d="M93.34011,49.20444h5a1,1,0,0,1,1,1v3.5h0a1,1,0,0,1-1,1h-6v-4.5h0a1,1,0,0,1,1-1Z"/>
          <path id="a55067e5-9b01-49c0-8b04-809ac18e9c83" data-name="j" class="b4d51cf4-0f05-4d44-8500-50da57598284" d="M70.84011,48.70444h7v6h-7Z"/>
          <path id="a7562758-c874-4785-89d4-31196e68bda8" data-name="k" class="b4d51cf4-0f05-4d44-8500-50da57598284" d="M64.34011,62.70444h6.5v10h-6.5Z"/>
          <path class="e63e23ee-006a-4524-a466-3568ca1c5cf0" d="M84.84011,61.70444h0a3.5,3.5,0,0,0-3.5,3.5h0v7.5h7v-7.5h0a3.5,3.5,0,0,0-3.5-3.5Z"/>
          <path class="e63e23ee-006a-4524-a466-3568ca1c5cf0" d="M92.34011,60.70444h12v12h-12Z"/>
          <path class="e63e23ee-006a-4524-a466-3568ca1c5cf0" d="M93.34011,49.20444h5a1,1,0,0,1,1,1v3.5h0a1,1,0,0,1-1,1h-6v-4.5h0a1,1,0,0,1,1-1Z"/>
          <path class="e63e23ee-006a-4524-a466-3568ca1c5cf0" d="M70.84011,48.70444h7v6h-7Z"/>
          <path class="e63e23ee-006a-4524-a466-3568ca1c5cf0" d="M64.34011,62.70444h6.5v10h-6.5Z"/>
          <path class="fe4e917d-db54-4ff0-8377-f4f4c6f19286" d="M105.82277,60.61569,94.33936,72.09911l-1.41422-1.41422,11.48342-11.48341Z"/>
          <path id="fa097e09-69fd-4e04-84f2-7f23c6cd33c8" data-name="l" class="fe4e917d-db54-4ff0-8377-f4f4c6f19286" d="M106.31518,61.8042l9.46109,9.46109-1.41421,1.41422L104.901,63.21842Z"/>
          <path class="fe4e917d-db54-4ff0-8377-f4f4c6f19286" d="M55.5592,60.9884,65.84054,71.26974,64.42633,72.684,54.145,62.40261Z"/>
          <path class="fe4e917d-db54-4ff0-8377-f4f4c6f19286" d="M115.78035,63.20951l-9.46109,9.46109-1.41421-1.41421,9.46109-9.46109Z"/>
          <path class="fe4e917d-db54-4ff0-8377-f4f4c6f19286" d="M77.73936,49.22114,66.25594,60.70456l-1.41421-1.41422L76.32514,47.80692Z"/>
          <path id="a39e199a-7b4a-4b40-a5eb-a8d7bd5c4cdd" data-name="m" class="fe4e917d-db54-4ff0-8377-f4f4c6f19286" d="M106.31473,49.20465l9.46109,9.46109L114.3616,60.08l-9.46109-9.46109Z"/>
          <path class="fe4e917d-db54-4ff0-8377-f4f4c6f19286" d="M115.7799,50.61906l-9.46109,9.46109-1.41422-1.41421,9.46109-9.46109Z"/>
          <path class="b7dd1e55-0eef-485c-9259-6067727b0270" d="M114.84011,44.70444h1a.5.5,0,0,1,.5.5v27.5h-2v-27.5h0A.5.5,0,0,1,114.84011,44.70444Z"/>
          <path class="b7dd1e55-0eef-485c-9259-6067727b0270" d="M104.84011,44.70444h1a.5.5,0,0,1,.5.5v27.5h-2v-27.5h0A.5.5,0,0,1,104.84011,44.70444Z"/>
          <path class="b7dd1e55-0eef-485c-9259-6067727b0270" d="M92.84011,52.70444h1a.5.5,0,0,1,.5.5v19.5h-2v-19.5h0A.5.5,0,0,1,92.84011,52.70444Z"/>
          <path class="b7dd1e55-0eef-485c-9259-6067727b0270" d="M76.34011,44.70444h1a.5.5,0,0,1,.5.5v27.5h-2v-27.5h0A.5.5,0,0,1,76.34011,44.70444Z"/>
          <path class="b7dd1e55-0eef-485c-9259-6067727b0270" d="M54.34011,52.20444h1a.5.5,0,0,1,.5.5v20h-2v-20h0A.5.5,0,0,1,54.34011,52.20444Z"/>
          <path class="b7dd1e55-0eef-485c-9259-6067727b0270" d="M64.84011,56.70444h1a.5.5,0,0,1,.5.5v15.5h-2v-15.5h0A.5.5,0,0,1,64.84011,56.70444Z"/>
          <path class="b7dd1e55-0eef-485c-9259-6067727b0270" d="M75.84011,58.70444v2h-20v-2Z"/>
          <path class="b7dd1e55-0eef-485c-9259-6067727b0270" d="M106.34011,60.20444h8v2h-8Z"/>
          <path class="b7dd1e55-0eef-485c-9259-6067727b0270" d="M94.34011,58.70444h10v2h-10Z"/>
          <path class="b7dd1e55-0eef-485c-9259-6067727b0270" d="M106.34011,47.20444h8v2h-8Z"/>
          <path class="b4d51cf4-0f05-4d44-8500-50da57598284" d="M72.31131,86.25114c5.83834.67561,5.83834,1.771,0,2.44659a110.527,110.527,0,0,1-21.1425,0c-5.83834-.67561-5.83834-1.771,0-2.44659a110.527,110.527,0,0,1,21.1425,0"/>
          <path class="ac5afb11-09b8-4a74-9f97-fe9a984075e9" d="M59.44011,25.37444h0a6.9,6.9,0,0,0-6.9,6.9v.93h0a1.4,1.4,0,0,0,.15,2.78h0a6.9,6.9,0,0,0,13.65-1.41v-2.3h0A6.9,6.9,0,0,0,59.44011,25.37444Z"/>
          <path class="a2930091-8fb0-49d4-962e-4f1dd2878210" d="M58.55011,32.27444h0a.87.87,0,1,0,.85994.88l.00006-.00995h0a.86.86,0,0,0-.84994-.86994Z"/>
          <path class="a2930091-8fb0-49d4-962e-4f1dd2878210" d="M63.18011,32.27444h0a.87.87,0,1,0,.85994.88l.00006-.00995h0a.86.86,0,0,0-.84994-.86994Z"/>
          <path class="b4d51cf4-0f05-4d44-8500-50da57598284" d="M56.88821,34.83634a.86.86,0,1,1-1.21622,0,.86.86,0,0,1,1.21622,0"/>
          <path class="adb7e1df-322f-47d0-8be9-bdf68524759e" d="M58.87011,37.50444h0a3.1,3.1,0,0,0,3.45,0"/>
          <path class="ab24ecce-a689-4b32-9635-c8ad6e417a0f" d="M67.32011,31.12444h0a8,8,0,0,0-15.93,0Z"/>
          <path class="ab24ecce-a689-4b32-9635-c8ad6e417a0f" d="M59.00011,22.50444h0a7.94,7.94,0,0,0-4.18,1.4c3.05.47,5.4,3.89,5.4,7.22h3.78C64.00011,27.55444,61.94011,23.81444,59.00011,22.50444Z"/>
          <path class="adb7e1df-322f-47d0-8be9-bdf68524759e" d="M56.70011,29.13444h0a3.56,3.56,0,0,0-3.32-3.31"/>
          <path class="ac5afb11-09b8-4a74-9f97-fe9a984075e9" d="M66.34011,56.42444h4v3.17h0a2.58,2.58,0,0,0,2.54951,2.61013q.03525.00042.07049-.00013h0a2,2,0,0,1,2,2h0a2,2,0,0,1-2,2h0a6.61,6.61,0,0,1-6.62-6.6v-3.18Z"/>
          <path id="bb906838-02f7-448e-a8fe-a5a753fe0b49" data-name="n" class="b4d51cf4-0f05-4d44-8500-50da57598284" d="M48.55011,54.70444h0a10.93,10.93,0,0,1,21.85-.6612q.01.33049,0,.66113v1.72h-2.91v8.63h-14.94v-8.63h-4Z"/>
          <path class="adb7e1df-322f-47d0-8be9-bdf68524759e" d="M48.55011,54.70444h0a10.93,10.93,0,0,1,21.85-.6612q.01.33049,0,.66113v1.72h-2.91v8.63h-14.94v-8.63h-4Z"/>
          <path id="b98906c6-6e01-44b2-b9e9-2939377b7818" data-name="o" class="ad007a10-058f-45d8-81e8-0286cbc5695b" d="M52.55011,65.05444v20.15h0a1.15,1.15,0,0,0,1.15,1.15h4l.45-14.23h0a1.92,1.92,0,0,1,1.4-1.84h0a1.85,1.85,0,0,1,2.32,1.73l.41,13.19h0a1.15,1.15,0,0,0,1.15,1.11h4.06v-21.26Z"/>
          <path class="adb7e1df-322f-47d0-8be9-bdf68524759e" d="M52.55011,65.05444v20.15h0a1.15,1.15,0,0,0,1.15,1.15h4l.45-14.23h0a1.92,1.92,0,0,1,1.4-1.84h0a1.85,1.85,0,0,1,2.32,1.73l.41,13.19h0a1.15,1.15,0,0,0,1.15,1.11h4.06v-21.26Z"/>
          <path id="a5cb44d7-4882-4c19-992e-ae1cddd1dbf6" data-name="p" class="ad007a10-058f-45d8-81e8-0286cbc5695b" d="M48.55011,68.20444h0a2,2,0,0,0,4,0v-11.78h-4Z"/>
          <path class="adb7e1df-322f-47d0-8be9-bdf68524759e" d="M48.55011,68.20444h0a2,2,0,0,0,4,0v-11.78h-4Z"/>
          <path class="adb7e1df-322f-47d0-8be9-bdf68524759e" d="M52.54011,56.42444v-3.45"/>
          <path class="adb7e1df-322f-47d0-8be9-bdf68524759e" d="M67.49011,56.42444v-3.45"/>
          <path class="ab24ecce-a689-4b32-9635-c8ad6e417a0f" d="M70.26011,86.32444h0a3.45,3.45,0,0,0-3.45-3.45h-4.6v2.33h0a1.15,1.15,0,0,0,1.15,1.15h0Z"/>
          <path class="ab24ecce-a689-4b32-9635-c8ad6e417a0f" d="M60.55011,86.32444h0a3.45,3.45,0,0,0-3.45-3.45h-4.55v2.33h0a1.15,1.15,0,0,0,1.15,1.15h0Z"/>
          <path class="ac5afb11-09b8-4a74-9f97-fe9a984075e9" d="M78.17011,55.88444l-5.56-1.47c-.06,4.79-3.29,12.47-3.6,13.62-.2.77.88,1.72,2.41,2.12s3,.14,3.16-.63C74.88011,68.37445,74.30011,62.91445,78.17011,55.88444Z"/>
          <path class="ac5afb11-09b8-4a74-9f97-fe9a984075e9" d="M78.17011,55.88444c-.2.77-1.61,1.06-3.14.65s-2.62-1.33-2.42-2.12,1.61-1.06,3.15-.66S78.37011,55.11445,78.17011,55.88444Z"/>
          <path class="ac5afb11-09b8-4a74-9f97-fe9a984075e9" d="M73.80011,61.84444h0a2.26,2.26,0,1,0-1.49,4.26l2.13.75h0a.75.75,0,0,0,.98-.4058q.01105-.0267.02-.0542l1-2.84h0a.76.76,0,0,0-.42519-.98712l-.03481-.01288Z"/>
          <path class="ac5afb11-09b8-4a74-9f97-fe9a984075e9" d="M64.04011,49.52444v-4.72h0a10.77,10.77,0,0,0-8.62-.25v5l4.6-1.72Z"/>
          <path class="ac5afb11-09b8-4a74-9f97-fe9a984075e9" d="M56.75011,44.12444l3.27,3.68,3.05-3.39h0a10.61005,10.61005,0,0,0-3.63-.64h0A10.84021,10.84021,0,0,0,56.75011,44.12444Z"/>
          <path class="adb7e1df-322f-47d0-8be9-bdf68524759e" d="M60.02011,47.80444v17.25"/>
        </g>
      </g>
    </g>
  </g>
</svg>
