<svg xmlns="http://www.w3.org/2000/svg" xmlns:xlink="http://www.w3.org/1999/xlink" width="80.00005" height="80" viewBox="0 0 80.00005 80">
  <defs>
    <style>
      .ac259188-5c51-423e-8300-366bd4106678, .aedde0e0-cc96-40d0-9e60-d0e68087ba67, .e4b8ade9-3769-4303-b7b2-c1972ae9692d, .ea96a303-13b9-4554-b1fb-b374c46106be, .f3ffd213-f6dd-4adf-a779-1619ecd552dc, .f6dd262a-6361-466b-a8ac-1a5415dd2321, .fcbc8ac8-ba58-49f5-b978-426f48b61dbc {
        fill: #fff;
      }

      .adf8ffd8-38d1-4747-8394-d6ac4d4f7df9, .be3e0987-e35c-492a-be80-68984e029c04, .f9fa0ff5-b0b5-48f9-a334-dd2db2463701 {
        fill: #ffe211;
      }

      .a09ed5bf-8c2b-41c3-b687-f465fd30e28f, .af987e15-1e27-458d-aa8d-7191322a5460, .b2342eff-f003-4e16-9cf6-362d6697ecc6, .b81a2649-3981-4384-bc44-6e86168f54ca, .b96b8e58-e17c-4b8e-a6b9-0677e62ffdd0, .be9a54ec-6e68-422e-8dfa-a971ff5586f6, .e342cbff-f6f1-4c88-bb58-5ea393bbc958, .f1e577ff-913e-40e3-8d5d-719f7cb3159b {
        fill: none;
      }

      .a09ed5bf-8c2b-41c3-b687-f465fd30e28f, .aedde0e0-cc96-40d0-9e60-d0e68087ba67, .af987e15-1e27-458d-aa8d-7191322a5460, .b2342eff-f003-4e16-9cf6-362d6697ecc6, .b81a2649-3981-4384-bc44-6e86168f54ca, .b96b8e58-e17c-4b8e-a6b9-0677e62ffdd0, .be3e0987-e35c-492a-be80-68984e029c04, .be9a54ec-6e68-422e-8dfa-a971ff5586f6, .e342cbff-f6f1-4c88-bb58-5ea393bbc958, .e4b8ade9-3769-4303-b7b2-c1972ae9692d, .ea96a303-13b9-4554-b1fb-b374c46106be, .f3ffd213-f6dd-4adf-a779-1619ecd552dc, .f6dd262a-6361-466b-a8ac-1a5415dd2321, .f9fa0ff5-b0b5-48f9-a334-dd2db2463701, .fcbc8ac8-ba58-49f5-b978-426f48b61dbc {
        stroke: #4a4a4a;
      }

      .a09ed5bf-8c2b-41c3-b687-f465fd30e28f, .b81a2649-3981-4384-bc44-6e86168f54ca, .b96b8e58-e17c-4b8e-a6b9-0677e62ffdd0, .be3e0987-e35c-492a-be80-68984e029c04, .e342cbff-f6f1-4c88-bb58-5ea393bbc958, .e4b8ade9-3769-4303-b7b2-c1972ae9692d, .ea96a303-13b9-4554-b1fb-b374c46106be, .f1e577ff-913e-40e3-8d5d-719f7cb3159b, .f3ffd213-f6dd-4adf-a779-1619ecd552dc, .f6dd262a-6361-466b-a8ac-1a5415dd2321, .f9fa0ff5-b0b5-48f9-a334-dd2db2463701 {
        stroke-linecap: round;
      }

      .a09ed5bf-8c2b-41c3-b687-f465fd30e28f, .af987e15-1e27-458d-aa8d-7191322a5460, .b2342eff-f003-4e16-9cf6-362d6697ecc6, .b81a2649-3981-4384-bc44-6e86168f54ca, .b96b8e58-e17c-4b8e-a6b9-0677e62ffdd0, .be3e0987-e35c-492a-be80-68984e029c04, .e342cbff-f6f1-4c88-bb58-5ea393bbc958, .e4b8ade9-3769-4303-b7b2-c1972ae9692d, .ea96a303-13b9-4554-b1fb-b374c46106be, .f1e577ff-913e-40e3-8d5d-719f7cb3159b, .f3ffd213-f6dd-4adf-a779-1619ecd552dc, .f6dd262a-6361-466b-a8ac-1a5415dd2321, .f9fa0ff5-b0b5-48f9-a334-dd2db2463701, .fcbc8ac8-ba58-49f5-b978-426f48b61dbc {
        stroke-linejoin: round;
      }

      .f1894de7-a72b-48c8-b25e-2e79e86d0fea {
        mask: url(#a237908a-e71c-4b63-9526-17476f1df454);
      }

      .f1e577ff-913e-40e3-8d5d-719f7cb3159b {
        stroke: #66bb6a;
      }
    </style>
    <mask id="a237908a-e71c-4b63-9526-17476f1df454" x="0.00005" y="0" width="80" height="80" maskUnits="userSpaceOnUse">
      <g id="e25b2d52-0b6c-42f2-8c67-637e2cc932b0" data-name="a">
        <path class="ac259188-5c51-423e-8300-366bd4106678" d="M68.2843,11.71575a40,40,0,1,1-56.5685,0,39.9999,39.9999,0,0,1,56.5685,0"/>
      </g>
    </mask>
  </defs>
  <title>Asset 23-rea</title>
  <g id="f91d32a8-ee66-4b37-9528-4175e22a8972" data-name="Layer 2">
    <g id="fe711367-b816-4405-ac78-f1184de88241" data-name="Layer 1">
      <g>
        <g id="b4bdec4d-7607-4460-991b-8859420ac6e7" data-name="a">
          <path class="ac259188-5c51-423e-8300-366bd4106678" d="M68.2843,11.71575a40,40,0,1,1-56.5685,0,39.9999,39.9999,0,0,1,56.5685,0"/>
        </g>
        <path class="adf8ffd8-38d1-4747-8394-d6ac4d4f7df9" d="M80,40.00006v.00374A40,40,0,1,0,3.55846,56.4966H76.44A39.92032,39.92032,0,0,0,80,40Z"/>
        <path class="e342cbff-f6f1-4c88-bb58-5ea393bbc958" d="M1,56.50006H79"/>
        <path id="a504e2aa-dbbc-4d07-bbe2-6c45784e230a" data-name="b" class="ac259188-5c51-423e-8300-366bd4106678" d="M66.5,49.00006h0a15.5,15.5,0,1,0-31,0v7.5h31Z"/>
        <path class="e342cbff-f6f1-4c88-bb58-5ea393bbc958" d="M66.5,49.00006h0a15.5,15.5,0,1,0-31,0v7.5h31Z"/>
        <path class="f9fa0ff5-b0b5-48f9-a334-dd2db2463701" d="M58,36.32006v0a3.82,3.82,0,0,0-3.82-3.82l-.01,0H47.83A3.82,3.82,0,0,0,44,36.31v.01a3.88,3.88,0,0,0,.23,1.31l1.36,3.73h0a.99994.99994,0,0,0,.6.6h0a1,1,0,0,0,.85-.09l4-2.37,4,2.37h0a1,1,0,0,0,.85.09h0a.99994.99994,0,0,0,.6-.6l1.36-3.73h0A3.88006,3.88006,0,0,0,58,36.32006Z"/>
        <path class="e342cbff-f6f1-4c88-bb58-5ea393bbc958" d="M51,39.50006v17"/>
        <path id="a46682e3-050d-459d-be0a-bba1fd7f3e20" data-name="c" class="ac259188-5c51-423e-8300-366bd4106678" d="M54.5,35.17005h0a2,2,0,0,1-.59,1.41l-2.91,2.92-2.91-2.92h0a2.00006,2.00006,0,0,1-.59-1.41v-4.67h7Z"/>
        <path class="e342cbff-f6f1-4c88-bb58-5ea393bbc958" d="M54.5,35.17005h0a2,2,0,0,1-.59,1.41l-2.91,2.92-2.91-2.92h0a2.00006,2.00006,0,0,1-.59-1.41v-4.67h7Z"/>
        <path class="f3ffd213-f6dd-4adf-a779-1619ecd552dc" d="M61,20.00006v-2.5h0a10,10,0,0,0-20,0v2.5h0a2,2,0,0,0,0,4h.12a10,10,0,0,0,19.76,0H61a2,2,0,0,0,0-4Z"/>
        <path class="e342cbff-f6f1-4c88-bb58-5ea393bbc958" d="M56.5,21.00006h0a1.63,1.63,0,0,0-3,0"/>
        <path class="e342cbff-f6f1-4c88-bb58-5ea393bbc958" d="M48.5,21.00006h0a1.63,1.63,0,0,0-3,0"/>
        <path class="adf8ffd8-38d1-4747-8394-d6ac4d4f7df9" d="M46.1339,23.36615a1.25,1.25,0,1,1-1.76777,0,1.25,1.25,0,0,1,1.76777,0"/>
        <path class="adf8ffd8-38d1-4747-8394-d6ac4d4f7df9" d="M57.6339,23.36615a1.25,1.25,0,1,1-1.76777,0,1.25,1.25,0,0,1,1.76777,0"/>
        <path class="e342cbff-f6f1-4c88-bb58-5ea393bbc958" d="M47.99,26.79005h0a4.36,4.36,0,0,0,6,0"/>
        <path class="e342cbff-f6f1-4c88-bb58-5ea393bbc958" d="M53.8536,49.64646a.5.5,0,1,1-.70711,0,.5.5,0,0,1,.70711,0"/>
        <path class="e342cbff-f6f1-4c88-bb58-5ea393bbc958" d="M53.8536,45.64645a.5.5,0,1,1-.70711,0,.5.5,0,0,1,.70711,0"/>
        <path class="e342cbff-f6f1-4c88-bb58-5ea393bbc958" d="M53.8536,53.64646a.5.5,0,1,1-.70711,0,.5.5,0,0,1,.70711,0"/>
        <path class="e342cbff-f6f1-4c88-bb58-5ea393bbc958" d="M41.5,47.50006v9"/>
        <path class="e342cbff-f6f1-4c88-bb58-5ea393bbc958" d="M60.5,47.50006v9"/>
        <path id="be8b774d-0b40-42d8-be4f-191cfb039ac3" data-name="d" class="ac259188-5c51-423e-8300-366bd4106678" d="M42.5,17.50006s8.23.45,13.75-5.19h0a.84.84,0,0,1,1.34.2h0a18.75009,18.75009,0,0,1,1.91,8.49h0A1.47,1.47,0,0,0,61,19.56069q.00063-.03032,0-.06063h0a3.13,3.13,0,0,0,2.5-3c0-2.5,0-8.5-5.5-8.5,0,0-6-6-14.5-.5h0a11.88,11.88,0,0,0-5,10.5h0a1.47,1.47,0,0,0,1.43938,1.5q.0303.00063.06063,0h0a2.23,2.23,0,0,0,2,1.5s0-3.5.5-3.5Z"/>
        <path class="e342cbff-f6f1-4c88-bb58-5ea393bbc958" d="M42.5,17.50006s8.23.45,13.75-5.19h0a.84.84,0,0,1,1.34.2h0a18.75009,18.75009,0,0,1,1.91,8.49h0A1.47,1.47,0,0,0,61,19.56069q.00063-.03032,0-.06063h0a3.13,3.13,0,0,0,2.5-3c0-2.5,0-8.5-5.5-8.5,0,0-6-6-14.5-.5h0a11.88,11.88,0,0,0-5,10.5h0a1.47,1.47,0,0,0,1.43938,1.5q.0303.00063.06063,0h0a2.23,2.23,0,0,0,2,1.5s0-3.5.5-3.5Z"/>
        <g class="f1894de7-a72b-48c8-b25e-2e79e86d0fea">
          <g>
            <path class="f3ffd213-f6dd-4adf-a779-1619ecd552dc" d="M22.01,48.69005l-4.8-3.64h0a3.65014,3.65014,0,0,0-1.13-.53l-5.25-1.46c-.69-.54-.64.39-1.17,1.07s-1.91,3.49-1.23,4l6,4.58h0l.22,1.36h0a1.57,1.57,0,0,0,3.1-.46h0a1.52007,1.52007,0,0,0,1.07,0h0a1.56,1.56,0,0,0,.91-2l-.35-.93.66.5h0a1.57125,1.57125,0,0,0,1.93-2.48Z"/>
            <path class="be9a54ec-6e68-422e-8dfa-a971ff5586f6" d="M16.13,50.85005l.71,1.86h0a1.57,1.57,0,0,0,2.93-1.11"/>
            <path class="be9a54ec-6e68-422e-8dfa-a971ff5586f6" d="M16.58,48.51005l3.5,2.66"/>
            <path class="e342cbff-f6f1-4c88-bb58-5ea393bbc958" d="M13.19,46.62005l-1.37-.41"/>
            <path id="e5eaa3f9-0b9b-4508-8ca0-0cbcd4315ffc" data-name="e" class="ac259188-5c51-423e-8300-366bd4106678" d="M12.12,64.57006l-8.28-.78h0c-1.34-10.17-2.07-21.11,11.1-27.87l.75-.39h0a1.57215,1.57215,0,0,1,1.45,2.79l-.75.39c-3.32,1.71-5.62,3.69-6.33,7.34-1.12,5.51,1.91,3.59,2.66,1.65l1.78-4.08h0a1.57115,1.57115,0,0,1,2.9,1.21c-1.9,8.09-1.41,9.68-3.4,12.39C12.5,59.23005,12.5,60.79005,12.12,64.57006Z"/>
            <path class="e342cbff-f6f1-4c88-bb58-5ea393bbc958" d="M12.12,64.57006l-8.28-.78h0c-1.34-10.17-2.07-21.11,11.1-27.87l.75-.39h0a1.57215,1.57215,0,0,1,1.45,2.79l-.75.39c-3.32,1.71-5.62,3.69-6.33,7.34-1.12,5.51,1.91,3.59,2.66,1.65l1.78-4.08h0a1.57115,1.57115,0,0,1,2.9,1.21c-1.9,8.09-1.41,9.68-3.4,12.39C12.5,59.23005,12.5,60.79005,12.12,64.57006Z"/>
            <g>
              <path class="be3e0987-e35c-492a-be80-68984e029c04" d="M17.3438,61.39915a2,2,0,0,1-2.20615-1.77l-2.94408-26.839a2,2,0,0,1,1.77-2.20615l19.88074-2.1808a2,2,0,0,1,2.20616,1.77l2.94408,26.839a2,2,0,0,1-1.77,2.20615Z"/>
              <path class="e4b8ade9-3769-4303-b7b2-c1972ae9692d" d="M15.7294,32.92542,32.628,31.07174h0a1,1,0,0,1,1.10308.885L36.13,53.82555h0a3,3,0,0,1-2.655,3.30923L17.5704,58.87942l-2.726-24.85093h0A1,1,0,0,1,15.7294,32.92542Z"/>
            </g>
            <path id="b9fc5a0d-f3b2-41a0-9ff8-3f5c927a32c9" data-name="f" class="adf8ffd8-38d1-4747-8394-d6ac4d4f7df9" d="M25.78,28.28005h0a2.01152,2.01152,0,0,0-4,.43l-2,.22h0a2,2,0,0,0-1.77047,2.20578l.00047.00422.11,1h0a1,1,0,0,0,1.098.89132l.012-.00132,9.97-1.11h0a1,1,0,0,0,.88037-1.10677L30.08,30.81006l-.11-1h0a2,2,0,0,0-2.2-1.77Z"/>
            <path class="e342cbff-f6f1-4c88-bb58-5ea393bbc958" d="M25.78,28.28005h0a2.01152,2.01152,0,0,0-4,.43l-2,.22h0a2,2,0,0,0-1.77047,2.20578l.00047.00422.11,1h0a1,1,0,0,0,1.098.89132l.012-.00132,9.97-1.11h0a1,1,0,0,0,.88037-1.10677L30.08,30.81006l-.11-1h0a2,2,0,0,0-2.2-1.77Z"/>
            <path class="e4b8ade9-3769-4303-b7b2-c1972ae9692d" d="M22.39228,43.24413a1,1,0,0,1-1.10308-.885l-.70876-6.46124a1,1,0,0,1,.885-1.10307l5.96422-.65424a1,1,0,0,1,1.10308.885l.70876,6.46124a1,1,0,0,1-.885,1.10308Z"/>
            <path class="adf8ffd8-38d1-4747-8394-d6ac4d4f7df9" d="M23.5,37.92005h0a1.31,1.31,0,0,0,2.59-.29l-.07-.6h0a1.3,1.3,0,0,0-2.58.28Z"/>
            <path class="adf8ffd8-38d1-4747-8394-d6ac4d4f7df9" d="M22.3,42.75006v-.16h0a3.0181,3.0181,0,0,1,6-.66v.15Z"/>
            <path class="f3ffd213-f6dd-4adf-a779-1619ecd552dc" d="M17.56,58.86006h0a3,3,0,0,1-3.30943-2.65475L14.25,56.20006l15-1.65h0a1,1,0,0,1,1.06.69h0a3,3,0,0,0,3.19,1.87Z"/>
            <path class="b81a2649-3981-4384-bc44-6e86168f54ca" d="M20.29475,51.71681a1,1,0,0,1-1.10338-.88462l-.34895-3.17085A1,1,0,0,1,19.727,46.558l3.17086-.34894a1,1,0,0,1,1.10339.88461l.34894,3.17086a1,1,0,0,1-.88461,1.10338Z"/>
            <path class="b81a2649-3981-4384-bc44-6e86168f54ca" d="M28.32687,50.89335a1,1,0,0,1-1.10339-.88461l-.34894-3.17086a1,1,0,0,1,.88461-1.10338L30.93,45.38555a1,1,0,0,1,1.10338.88461l.349,3.17086a1,1,0,0,1-.88462,1.10339Z"/>
            <path class="f1e577ff-913e-40e3-8d5d-719f7cb3159b" d="M20.5,48.79006l1.39,1.11,3.19-5.4"/>
            <path class="f3ffd213-f6dd-4adf-a779-1619ecd552dc" d="M10.32,49.58006c.71.41,2-.73,2.4-1.88l1.78-4.08h0a1.57115,1.57115,0,0,1,2.9,1.21c-1.9,8.09-1.41,9.68-3.4,12.39-1.49,2-1.53,3.57-1.88,7.35l-4.05-.38"/>
            <g>
              <path id="a95a1a7f-566d-41cc-b896-4942ebaa1595" data-name="g" class="adf8ffd8-38d1-4747-8394-d6ac4d4f7df9" d="M13.48276,69.20366a1,1,0,0,1-1.08857.90278l-10.126-.94471a1,1,0,0,1-.90278-1.08856L1.6905,64.5883a1,1,0,0,1,1.08857-.90278l10.126.94471a1,1,0,0,1,.90279,1.08856Z"/>
              <path class="b2342eff-f003-4e16-9cf6-362d6697ecc6" d="M13.48276,69.20366a1,1,0,0,1-1.08857.90278l-10.126-.94471a1,1,0,0,1-.90278-1.08856L1.6905,64.5883a1,1,0,0,1,1.08857-.90278l10.126.94471a1,1,0,0,1,.90279,1.08856Z"/>
            </g>
            <path class="ea96a303-13b9-4554-b1fb-b374c46106be" d="M13.25092,63.30838l-.12633,1.35412L2.57043,63.67784l.12633-1.35412h0a1,1,0,0,1,1.08857-.90278h0l8.56281.79887h0A1,1,0,0,1,13.25092,63.30838Z"/>
            <path class="aedde0e0-cc96-40d0-9e60-d0e68087ba67" d="M54.5,57.06005h0a1.52,1.52,0,0,1,1.49,1.54941v.0006l-.12,4.94h0a1.52,1.52,0,0,1-3-.08l.12-4.93h0a1.52,1.52,0,0,1,1.51-1.48Z"/>
            <path class="aedde0e0-cc96-40d0-9e60-d0e68087ba67" d="M52.88,56.63005h0a1.52,1.52,0,0,1,.69,2l-1.71,3.58h0a1.52,1.52,0,0,1-2.72-1.29l1.71-3.58h0a1.52,1.52,0,0,1,2.02876-.7106Z"/>
            <path id="ac9162e2-fcd6-4b33-bcba-939ff7898c4b" data-name="h" class="ac259188-5c51-423e-8300-366bd4106678" d="M58.34,63.09005h0a12.9,12.9,0,0,1,5,2.7l1.57,1.3,6.47-6.86-1.52-1.21c-2.35-1.61-2.85-5.63-7.06-7.67-5.3-2.58-11.76-1.73-17.23,5.57h0a1.52,1.52,0,0,0,2.42,1.83c.36-.47.73-.92,1.09-1.34h0a20.12983,20.12983,0,0,1,2.31-2.2h0a8.47,8.47,0,0,1,6.13-2h0a1.77,1.77,0,0,1,1.64,2.62h0a3.37,3.37,0,0,1-4.21.92l-3.56-1.5h0a20.13069,20.13069,0,0,0-2.31,2.2h0a1.75024,1.75024,0,0,0,.48.32C55.64,62.03006,56.86,62.57006,58.34,63.09005Z"/>
            <path class="fcbc8ac8-ba58-49f5-b978-426f48b61dbc" d="M59.16,55.76005h0a3.37,3.37,0,0,1-4.21.92l-3.56-1.5h0a8.47,8.47,0,0,1,6.13-2h0a1.77,1.77,0,0,1,1.64,2.58Z"/>
            <path class="e342cbff-f6f1-4c88-bb58-5ea393bbc958" d="M58.34,63.09005h0a12.9,12.9,0,0,1,5,2.7l1.57,1.3,6.47-6.86-1.52-1.21c-2.35-1.61-2.85-5.63-7.06-7.67-5.3-2.58-11.76-1.73-17.23,5.57h0a1.52,1.52,0,0,0,2.42,1.83c.36-.47.73-.92,1.09-1.34h0a20.12983,20.12983,0,0,1,2.31-2.2h0a8.47,8.47,0,0,1,6.13-2h0a1.77,1.77,0,0,1,1.64,2.62h0a3.37,3.37,0,0,1-4.21.92l-3.56-1.5h0a20.13069,20.13069,0,0,0-2.31,2.2h0a1.75024,1.75024,0,0,0,.48.32C55.64,62.03006,56.86,62.57006,58.34,63.09005Z"/>
            <g>
              <path id="a7dc15af-95fb-4f19-b96a-135a5262c2ab" data-name="i" class="adf8ffd8-38d1-4747-8394-d6ac4d4f7df9" d="M75.257,62.44175a1,1,0,0,1,.04245,1.41357l-6.698,7.11269a1,1,0,0,1-1.41358.04244l-2.417-2.27607a1,1,0,0,1-.04245-1.41357l6.698-7.11269A1,1,0,0,1,72.84,60.16568Z"/>
              <path class="af987e15-1e27-458d-aa8d-7191322a5460" d="M75.257,62.44175a1,1,0,0,1,.04245,1.41357l-6.698,7.11269a1,1,0,0,1-1.41358.04244l-2.417-2.27607a1,1,0,0,1-.04245-1.41357l6.698-7.11269A1,1,0,0,1,72.84,60.16568Z"/>
            </g>
            <path class="f6dd262a-6361-466b-a8ac-1a5415dd2321" d="M70.66041,59.15589l.93185.87752-7.03388,7.4694-.93186-.87752h0a1,1,0,0,1-.04245-1.41357h0l5.66276-6.01339h0A1,1,0,0,1,70.66041,59.15589Z"/>
            <path id="ba36ec5a-51cc-4279-ac57-c5b20ec45c45" data-name="j" class="adf8ffd8-38d1-4747-8394-d6ac4d4f7df9" d="M59.69126,51.31905l1.78711,2.89244L47.73926,62.70026l-1.78711-2.89245Z"/>
            <path id="b8b9ea7c-7a47-473c-9833-12f616eef2d8" data-name="k" class="ac259188-5c51-423e-8300-366bd4106678" d="M45.95,59.80005c-.08,0-2.73,3.68-2.73,3.68l4.51-.79Z"/>
            <path class="b96b8e58-e17c-4b8e-a6b9-0677e62ffdd0" d="M59.69126,51.31905l1.78711,2.89244L47.73926,62.70026l-1.78711-2.89245Z"/>
            <g>
              <path id="ff2e0838-d1ce-43b0-ae9f-f67ecc16e149" data-name="l" class="ac259188-5c51-423e-8300-366bd4106678" d="M61.135,50.41952l1.78762,2.89213-1.44607.89381-1.78761-2.89214Z"/>
              <path class="a09ed5bf-8c2b-41c3-b687-f465fd30e28f" d="M61.135,50.41952l1.78762,2.89213-1.44607.89381-1.78761-2.89214Z"/>
            </g>
            <path id="b7bc7c1e-285c-44b3-8a8e-dab9f35a84bc" data-name="m" class="ac259188-5c51-423e-8300-366bd4106678" d="M64,52.64006h0a1.7,1.7,0,0,0-1.79-2.89l-1.08.67,1.79,2.89Z"/>
            <path class="e342cbff-f6f1-4c88-bb58-5ea393bbc958" d="M64,52.64006h0a1.7,1.7,0,0,0-1.79-2.89l-1.08.67,1.79,2.89Z"/>
            <path class="e342cbff-f6f1-4c88-bb58-5ea393bbc958" d="M43.22,63.48005l-.72.45"/>
            <path class="e342cbff-f6f1-4c88-bb58-5ea393bbc958" d="M45.95,59.80005c-.08,0-2.73,3.68-2.73,3.68l4.51-.79Z"/>
            <path id="bc000443-8772-44c5-88df-50c00f4c8f5d" data-name="n" class="e342cbff-f6f1-4c88-bb58-5ea393bbc958" d="M59.16,55.76005h0a3.37,3.37,0,0,1-4.21.92l-4.21-1.76h0a1.52,1.52,0,1,0-1.2684,2.76275q.04361.02.08839.03725c6.08,4.32,7.3,4.86,8.78,5.38"/>
            <path class="ac259188-5c51-423e-8300-366bd4106678" d="M59.16,55.76005h0a3.37,3.37,0,0,1-4.21.92l-4.21-1.76h0a1.52,1.52,0,1,0-1.2684,2.76275q.04361.02.08839.03725c6.08,4.32,7.3,4.86,8.78,5.38"/>
            <path class="e342cbff-f6f1-4c88-bb58-5ea393bbc958" d="M59.16,55.76005h0a3.37,3.37,0,0,1-4.21.92l-4.21-1.76h0a1.52,1.52,0,1,0-1.2684,2.76275q.04361.02.08839.03725c6.08,4.32,7.3,4.86,8.78,5.38"/>
          </g>
        </g>
      </g>
    </g>
  </g>
</svg>
