<svg xmlns="http://www.w3.org/2000/svg" width="163.10022" height="111.41262" viewBox="0 0 163.10022 111.41262">
  <defs>
    <style>
      .a11720b2-c85f-4124-a8e6-f58131915d30, .f16e4bcb-3b7a-4525-bcec-9a9e6e5f83c6 {
        fill: none;
      }

      .a65b1821-d263-4b40-a25d-01e50461f61b, .ac156387-7c08-45e6-9536-18982db3b284, .b871c860-c75e-4835-ba4d-4f11f3f30319, .f16e4bcb-3b7a-4525-bcec-9a9e6e5f83c6 {
        stroke: #3a3a3a;
      }

      .a65b1821-d263-4b40-a25d-01e50461f61b, .ac156387-7c08-45e6-9536-18982db3b284, .f16e4bcb-3b7a-4525-bcec-9a9e6e5f83c6 {
        stroke-linecap: round;
        stroke-linejoin: round;
      }

      .ac156387-7c08-45e6-9536-18982db3b284, .b871c860-c75e-4835-ba4d-4f11f3f30319, .bb067518-f520-4a81-8644-7b3d2e71ced3 {
        fill: #ffe211;
      }

      .a65b1821-d263-4b40-a25d-01e50461f61b, .ba05af7c-0496-4c0c-ad47-e94a7b855acb {
        fill: #fff;
      }

      .aca4eece-c127-44c8-8b27-f16af482c2c3 {
        fill: #3a3a3a;
      }

      .b871c860-c75e-4835-ba4d-4f11f3f30319 {
        stroke-miterlimit: 10;
      }

      .e10fcae3-140f-4efd-922a-904fcdbb3231 {
        fill: #2d2d2d;
      }
    </style>
  </defs>
  <title>Asset 3-rea</title>
  <g id="b5075235-be04-4676-86d9-689b5a7a1ea7" data-name="Layer 2">
    <g id="a5ebafcf-0396-46b9-a92f-b8da7b35d2ff" data-name="Layer 1">
      <g>
        <rect class="a11720b2-c85f-4124-a8e6-f58131915d30" width="163.10022" height="111.41262"/>
        <g>
          <path class="f16e4bcb-3b7a-4525-bcec-9a9e6e5f83c6" d="M43.80005,72.22418h78"/>
          <path class="f16e4bcb-3b7a-4525-bcec-9a9e6e5f83c6" d="M39.30005,72.22418h2.5"/>
          <path class="f16e4bcb-3b7a-4525-bcec-9a9e6e5f83c6" d="M123.80005,72.22418h2.5"/>
          <path class="bb067518-f520-4a81-8644-7b3d2e71ced3" d="M92.90665,85.788c9.43116.6717,9.43116,1.76075,0,2.43245a289.67869,289.67869,0,0,1-34.1533,0c-9.43116-.6717-9.43116-1.76075,0-2.43245a289.67869,289.67869,0,0,1,34.1533,0"/>
          <path id="bca90e65-68ad-4ab2-b85d-11e171821602" data-name="a" class="ba05af7c-0496-4c0c-ad47-e94a7b855acb" d="M72.95005,58.82418v.58h-4v9.77h-12.67v-9.77h-4v-.58h0a10.35,10.35,0,0,1,20.7,0h-.03Z"/>
          <path class="ac156387-7c08-45e6-9536-18982db3b284" d="M68.93005,69.17418h-12.65l-1.15,2.88h14.95Z"/>
          <path class="a65b1821-d263-4b40-a25d-01e50461f61b" d="M54.55005,75.50418a1.15,1.15,0,0,1-1.15-1.15v-1.15a1.15,1.15,0,0,1,1.15-1.15h16.1a1.15,1.15,0,0,1,1.15,1.15v1.15a1.15,1.15,0,0,1-1.15,1.15Z"/>
          <path class="a65b1821-d263-4b40-a25d-01e50461f61b" d="M55.80005,85.85418h-.1a1.16,1.16,0,0,1-1.15-1.13v-9.2h2.88l-.52,9.2h0A1.15,1.15,0,0,1,55.80005,85.85418Z"/>
          <path class="a65b1821-d263-4b40-a25d-01e50461f61b" d="M70.65,84.72418h0a1.15,1.15,0,0,1-1.15,1.15h-.06a1.16,1.16,0,0,1-1.15-1.15l-.49-9.22h2.87Z"/>
          <path class="ac156387-7c08-45e6-9536-18982db3b284" d="M67.97005,72.15418h0a2.7,2.7,0,0,0-4.77-1.43h0a2.72,2.72,0,0,0-.54,2.26l2.75,12.85h4Z"/>
          <path class="ac156387-7c08-45e6-9536-18982db3b284" d="M57.23005,72.15418h0a2.7,2.7,0,0,1,4.77-1.43h0a2.72,2.72,0,0,1,.54,2.26l-2.74,12.87h-4Z"/>
          <path class="a65b1821-d263-4b40-a25d-01e50461f61b" d="M67.97005,72.15418h0a2.7,2.7,0,0,0-4.77-1.43h0a2.72,2.72,0,0,0-.54,2.26l.17.77h5.31Z"/>
          <path class="a65b1821-d263-4b40-a25d-01e50461f61b" d="M59.91005,69.72418h0a2.69,2.69,0,0,0-2.68,2.4l-.17,1.62h5.32l.16-.77h0a2.72,2.72,0,0,0-.54-2.25h0A2.69008,2.69008,0,0,0,59.91005,69.72418Z"/>
          <path class="a65b1821-d263-4b40-a25d-01e50461f61b" d="M69.65,86.42418h0a1.15,1.15,0,0,0,1-1.67h0a3.45,3.45,0,0,0-3-1.78h-.58a3.45,3.45,0,0,0-3,1.78h0a1.15,1.15,0,0,0,1,1.67Z"/>
          <path class="a65b1821-d263-4b40-a25d-01e50461f61b" d="M55.56005,86.42418h0a1.15,1.15,0,0,1-1-1.67h0a3.46,3.46,0,0,1,3-1.78h.57a3.45,3.45,0,0,1,3,1.78h0a1.15,1.15,0,0,1-1,1.67Z"/>
          <path class="a65b1821-d263-4b40-a25d-01e50461f61b" d="M62.60005,48.47418h0a10.30008,10.30008,0,0,0-4.48,1h0a4.6,4.6,0,0,0,9,0h0A10.38008,10.38008,0,0,0,62.60005,48.47418Z"/>
          <path class="f16e4bcb-3b7a-4525-bcec-9a9e6e5f83c6" d="M72.95005,58.82418v.58h-4v9.77h-12.67v-9.77h-4v-.58h0a10.35,10.35,0,0,1,20.7,0h-.03Z"/>
          <path class="a65b1821-d263-4b40-a25d-01e50461f61b" d="M56.28005,59.40418h-4v3.73a4.33,4.33,0,0,0,4.31,4.32h1.73a2,2,0,1,0,0-4h-1.47a.57.57,0,0,1-.57-.57h0Z"/>
          <path class="a65b1821-d263-4b40-a25d-01e50461f61b" d="M68.93005,59.40418h4v3.73h0a4.32,4.32,0,0,1-4.31,4.32h-1.71a2,2,0,0,1,0-4h1.44a.56.56,0,0,0,.57-.54982q.00018-.01008,0-.02018C68.92005,61.81419,68.92005,59.72419,68.93005,59.40418Z"/>
          <path class="ba05af7c-0496-4c0c-ad47-e94a7b855acb" d="M56.85005,63.42418h0a.57.57,0,0,1-.57-.57h0a3.49,3.49,0,0,0-.65-2.13h0a2.31993,2.31993,0,0,1-.5-1.31h0a6.6599,6.6599,0,0,1,1.12-2.9h0a2.45,2.45,0,0,0,0-2.28h1.15v9.2Z"/>
          <path class="ba05af7c-0496-4c0c-ad47-e94a7b855acb" d="M68.35005,63.42418h0a.58.58,0,0,0,.58-.57h0a3.41994,3.41994,0,0,1,.65-2.13h0a2.37,2.37,0,0,0,.49-1.31h0a6.84013,6.84013,0,0,0-1.13-2.9h0a2.42,2.42,0,0,1,0-2.28h-1.14v9.2Z"/>
          <path class="f16e4bcb-3b7a-4525-bcec-9a9e6e5f83c6" d="M56.28005,54.22418h0a2.45,2.45,0,0,1,0,2.28h0a6.66,6.66,0,0,0-1.12,2.9h0a2.32,2.32,0,0,0,.5,1.31h0a3.49,3.49,0,0,1,.65,2.14h0a.57.57,0,0,0,.57.57h1.44"/>
          <path class="f16e4bcb-3b7a-4525-bcec-9a9e6e5f83c6" d="M68.93005,54.22418h0a2.42,2.42,0,0,0,0,2.28h0a6.84,6.84,0,0,1,1.13,2.9h0a2.37,2.37,0,0,1-.48,1.32h0a3.42,3.42,0,0,0-.65,2.14h0a.58.58,0,0,1-.58.57h-1.44"/>
          <path id="bddb9641-5990-4e5a-a81f-2bedd51adf69" data-name="b" class="bb067518-f520-4a81-8644-7b3d2e71ced3" d="M107.30005,68.22418h7v3h0a1,1,0,0,1-1,1h-5a1,1,0,0,1-1-1h0Z"/>
          <path id="a110f061-90f0-4bd2-aa84-184d35c4fa63" data-name="c" class="ba05af7c-0496-4c0c-ad47-e94a7b855acb" d="M107.80005,45.72418c1,.71,2.51,3.11,1.9,3.95s-3.18-.2-4.14-.9h0a1.91,1.91,0,1,1,2.24-3.05Z"/>
          <path class="f16e4bcb-3b7a-4525-bcec-9a9e6e5f83c6" d="M107.80005,45.72418c1,.71,2.51,3.11,1.9,3.95s-3.18-.2-4.14-.9h0a1.91,1.91,0,1,1,2.24-3.05Z"/>
          <path id="add5d0e3-a927-4b48-aa12-8ea00a2c7152" data-name="d" class="ba05af7c-0496-4c0c-ad47-e94a7b855acb" d="M111.91005,45.72418c-1,.71-2.51,3.11-1.89,3.95s3.17-.2,4.13-.9h0a1.91,1.91,0,1,0-2.24-3Z"/>
          <path class="f16e4bcb-3b7a-4525-bcec-9a9e6e5f83c6" d="M111.91005,45.72418c-1,.71-2.51,3.11-1.89,3.95s3.17-.2,4.13-.9h0a1.91,1.91,0,1,0-2.24-3Z"/>
          <path id="efa37637-f4f0-490b-97a5-1044cebbfbac" data-name="e" class="ba05af7c-0496-4c0c-ad47-e94a7b855acb" d="M115.80005,52.26418c-1.17.23-3.59,1.77-3.38,2.79s3,1.15,4.13.91h0a1.9,1.9,0,1,0-.75-3.7Z"/>
          <path class="f16e4bcb-3b7a-4525-bcec-9a9e6e5f83c6" d="M115.80005,52.26418c-1.17.23-3.59,1.77-3.38,2.79s3,1.15,4.13.91h0a1.9,1.9,0,1,0-.75-3.7Z"/>
          <path class="f16e4bcb-3b7a-4525-bcec-9a9e6e5f83c6" d="M109.80005,58.93418s1.12-3.29,2.6-3.78"/>
          <path class="f16e4bcb-3b7a-4525-bcec-9a9e6e5f83c6" d="M109.80005,58.00418s-.47-6.91.15-8.46"/>
          <path class="f16e4bcb-3b7a-4525-bcec-9a9e6e5f83c6" d="M110.16005,67.36418s-.23-8.74-.54-11.25c-.17-1.39-1.82-1.94-1.82-1.94"/>
          <path class="a65b1821-d263-4b40-a25d-01e50461f61b" d="M104.41005,51.34418c1.16.25,3.56,1.82,3.34,2.83s-3,1.11-4.15.86h0a1.9,1.9,0,1,1,.81-3.69Z"/>
          <path class="f16e4bcb-3b7a-4525-bcec-9a9e6e5f83c6" d="M107.30005,68.22418h7v3h0a1,1,0,0,1-1,1h-5a1,1,0,0,1-1-1h0Z"/>
          <path id="b0f31e01-1300-49c9-beac-edd1eacdfb3c" data-name="f" class="bb067518-f520-4a81-8644-7b3d2e71ced3" d="M114.30005,68.22418h0a1,1,0,0,0,0-2h-7a1,1,0,0,0,0,2Z"/>
          <path class="f16e4bcb-3b7a-4525-bcec-9a9e6e5f83c6" d="M114.30005,68.22418h0a1,1,0,0,0,0-2h-7a1,1,0,0,0,0,2Z"/>
          <path id="afcb6c9f-3349-4f8a-af27-36928b529846" data-name="g" class="ba05af7c-0496-4c0c-ad47-e94a7b855acb" d="M95.54265,24.98158a6,6,0,1,1-8.48528,0,6,6,0,0,1,8.48528,0"/>
          <path class="f16e4bcb-3b7a-4525-bcec-9a9e6e5f83c6" d="M95.54265,24.98158a6,6,0,1,1-8.48528,0,6,6,0,0,1,8.48528,0"/>
          <path class="f16e4bcb-3b7a-4525-bcec-9a9e6e5f83c6" d="M85.30005,29.22418h2"/>
          <path class="f16e4bcb-3b7a-4525-bcec-9a9e6e5f83c6" d="M95.30005,29.22418h2"/>
          <path class="f16e4bcb-3b7a-4525-bcec-9a9e6e5f83c6" d="M91.30005,23.22418v2"/>
          <path class="f16e4bcb-3b7a-4525-bcec-9a9e6e5f83c6" d="M91.30005,33.22418v2"/>
          <path class="f16e4bcb-3b7a-4525-bcec-9a9e6e5f83c6" d="M89.80005,28.22418l1.5,1.5,2.5-2.5"/>
          <path class="ac156387-7c08-45e6-9536-18982db3b284" d="M78.55005,69.17418a1,1,0,0,1-1-1v-1.45a1,1,0,0,1,1-1H98.4a1,1,0,0,1,1,1v1.45a1,1,0,0,1-1,1Z"/>
          <path id="ba88ad09-ba78-4a4c-b5f9-171201417e2c" data-name="h" class="ba05af7c-0496-4c0c-ad47-e94a7b855acb" d="M78.70005,69.17418h19.55v4.9h0a2,2,0,0,1-2,2h-15.55a2,2,0,0,1-2-2h0Z"/>
          <path class="f16e4bcb-3b7a-4525-bcec-9a9e6e5f83c6" d="M78.70005,69.17418h19.55v4.9h0a2,2,0,0,1-2,2h-15.55a2,2,0,0,1-2-2h0Z"/>
          <path class="ac156387-7c08-45e6-9536-18982db3b284" d="M82.80005,85.61418h0a.92.92,0,0,1-.91.81h0a.91.91,0,0,1-.91-.91v-9.44h2.88Z"/>
          <path class="ac156387-7c08-45e6-9536-18982db3b284" d="M95.04,86.42418h0a.91.91,0,0,0,.91-.91v-9.44h-2.87l1.06,9.54h0A.91.91,0,0,0,95.04,86.42418Z"/>
          <path id="b145f8ab-fbfe-4c9c-b626-45cd7bbc1ee0" data-name="i" class="bb067518-f520-4a81-8644-7b3d2e71ced3" d="M93.65,51.92418h-8.85a.58.58,0,0,0-.52.83l1.31,2.62v6.35a1.72,1.72,0,0,0,1.72,1.72l.01,0h4.6a1.72,1.72,0,0,0,1.72994-1.71l0-.01Z"/>
          <path class="ba05af7c-0496-4c0c-ad47-e94a7b855acb" d="M93.65,57.10418h-8.05v4.62a1.72,1.72,0,0,0,1.72,1.72l.01,0h4.6a1.72,1.72,0,0,0,1.72-1.72Z"/>
          <path class="f16e4bcb-3b7a-4525-bcec-9a9e6e5f83c6" d="M93.65,51.92418h-8.85a.58.58,0,0,0-.52.83l1.31,2.62v6.35a1.72,1.72,0,0,0,1.72,1.72l.01,0h4.6a1.72,1.72,0,0,0,1.72994-1.71l0-.01Z"/>
          <path class="f16e4bcb-3b7a-4525-bcec-9a9e6e5f83c6" d="M93.65,51.92418h0a4.6,4.6,0,1,1,0,9.2"/>
          <path class="f16e4bcb-3b7a-4525-bcec-9a9e6e5f83c6" d="M87.9,51.92418v13.8"/>
          <path class="f16e4bcb-3b7a-4525-bcec-9a9e6e5f83c6" d="M91.35005,51.92418v13.8"/>
          <path class="a65b1821-d263-4b40-a25d-01e50461f61b" d="M85.60005,51.92418h0a4.025,4.025,0,1,1,8.05,0h-8.05Z"/>
          <path class="f16e4bcb-3b7a-4525-bcec-9a9e6e5f83c6" d="M89.63005,47.90418v-2.3"/>
          <path class="aca4eece-c127-44c8-8b27-f16af482c2c3" d="M89.63005,45.45418h0a.15.15,0,0,1,.15.15h0a.15.15,0,0,1-.15.15h0a.15.15,0,0,1-.15-.15h0a.14.14,0,0,1,.15-.15m0-1h0a1.15,1.15,0,0,0,0,2.3h0a1.15,1.15,0,0,0,0-2.3Z"/>
          <g>
            <path class="f16e4bcb-3b7a-4525-bcec-9a9e6e5f83c6" d="M55.773,58.22852V69.27845"/>
            <path class="f16e4bcb-3b7a-4525-bcec-9a9e6e5f83c6" d="M69.45959,58.22852V69.27845"/>
            <path class="f16e4bcb-3b7a-4525-bcec-9a9e6e5f83c6" d="M55.773,65.5982V58.22852"/>
            <path class="f16e4bcb-3b7a-4525-bcec-9a9e6e5f83c6" d="M69.45959,65.5982V58.22852"/>
            <path class="ac156387-7c08-45e6-9536-18982db3b284" d="M69.98142,69.28761H55.24206a1.062,1.062,0,0,1-1.01619-1.05281V67.182h16.845V68.2348h0a1.05282,1.05282,0,0,1-1.05218,1.05344Q70,69.28825,69.98142,69.28761Z"/>
            <path id="b74d3c75-0375-4102-aa35-f19676c48caa" data-name="p" class="ac156387-7c08-45e6-9536-18982db3b284" d="M55.24206,67.182a1.05282,1.05282,0,0,1-1.05281-1.05281V57.70669a1.05281,1.05281,0,0,1,1.05281-1.05281H69.98142a1.05282,1.05282,0,0,1,1.05281,1.05281v8.42249A1.05281,1.05281,0,0,1,69.98142,67.182Z"/>
            <path class="f16e4bcb-3b7a-4525-bcec-9a9e6e5f83c6" d="M55.24206,67.182a1.05282,1.05282,0,0,1-1.05281-1.05281V57.70669a1.05281,1.05281,0,0,1,1.05281-1.05281H69.98142a1.05282,1.05282,0,0,1,1.05281,1.05281v8.42249A1.05281,1.05281,0,0,1,69.98142,67.182Z"/>
            <path class="ba05af7c-0496-4c0c-ad47-e94a7b855acb" d="M63.62042,60.19944H61.60306l-1.00121,1.7185,1.00121,1.71849h2.01736l1.00121-1.71849Zm-1.00121,2.43578a.70235.70235,0,1,1,.70235-.70235A.70153.70153,0,0,1,62.61921,62.63522Z"/>
          </g>
        </g>
        <g>
          <path id="aafc43b6-f25a-4c2e-bb48-b1146a3fd7e2" data-name="g" class="b871c860-c75e-4835-ba4d-4f11f3f30319" d="M72.6979,37.79062h0a2.67993,2.67993,0,0,0,.32889-1.184h0a2.415,2.415,0,0,0-2.36809-2.43382h0a7.9806,7.9806,0,0,0-9.07748-6.841,8.0932,8.0932,0,0,0-6.84092,6.841h0a2.442,2.442,0,0,0-2.0392,2.76271,1.93876,1.93876,0,0,0,.3289.85512h0a3.43156,3.43156,0,0,0,.78947,6.77519h0a2.94531,2.94531,0,0,0,1.31557-.26312h0a2.803,2.803,0,0,0,5.39381-1.31557h0a8.10632,8.10632,0,0,0,4.34146,0h0a2.81234,2.81234,0,1,0,5.52534,1.05246h0a3.46636,3.46636,0,1,0,3.81519-5.78851,4.44823,4.44823,0,0,0-1.51294-.46045ZM68.75118,40.948l-.32889-.13156q.19728-.19736.39474-.39468h0c0,.19735-.06585.32889-.06585.52624Z"/>
          <path class="f16e4bcb-3b7a-4525-bcec-9a9e6e5f83c6" d="M72.6979,37.79062h0a2.67993,2.67993,0,0,0,.32889-1.184h0a2.415,2.415,0,0,0-2.36809-2.43382h0a7.9806,7.9806,0,0,0-9.07748-6.841,8.0932,8.0932,0,0,0-6.84092,6.841h0a2.442,2.442,0,0,0-2.0392,2.76271,1.93876,1.93876,0,0,0,.3289.85512h0a3.43156,3.43156,0,0,0,.78947,6.77519h0a2.94531,2.94531,0,0,0,1.31557-.26312h0a2.803,2.803,0,0,0,5.39381-1.31557h0a8.10632,8.10632,0,0,0,4.34146,0h0a2.81234,2.81234,0,1,0,5.52534,1.05246h0a3.46636,3.46636,0,1,0,3.81519-5.78851,4.44823,4.44823,0,0,0-1.51294-.46045ZM68.75118,40.948l-.32889-.13156q.19728-.19736.39474-.39468h0c0,.19735-.06585.32889-.06585.52624Z"/>
          <path class="a65b1821-d263-4b40-a25d-01e50461f61b" d="M70.39565,39.69821h0a1.31939,1.31939,0,0,1-1.31557,1.31557h-.06585a6.5589,6.5589,0,0,1-12.95835,0H55.99a1.31557,1.31557,0,0,1,0-2.63114s1.64447-2.368,3.28893-1.97336,2.63115-.19733,3.94672-2.368h0a4.37974,4.37974,0,0,1,3.61783-2.17069h0a13.50269,13.50269,0,0,0,.65778,3.61782h0a13.06207,13.06207,0,0,0,1.64447,2.96h0a1.2084,1.2084,0,0,1,1.24989,1.24979Z"/>
          <path class="f16e4bcb-3b7a-4525-bcec-9a9e6e5f83c6" d="M60.52885,42.85558h0a8.88027,8.88027,0,0,0,3.94672,0"/>
          <path class="bb067518-f520-4a81-8644-7b3d2e71ced3" d="M59.27913,40.55333a.83723.83723,0,1,1-1.184,0,.83373.83373,0,0,1,1.184,0"/>
          <path class="bb067518-f520-4a81-8644-7b3d2e71ced3" d="M66.84367,40.55333a.83723.83723,0,1,1-1.184,0,.83373.83373,0,0,1,1.184,0"/>
          <path class="a65b1821-d263-4b40-a25d-01e50461f61b" d="M53.85887,43.53967l1.38142-1.38136,1.38141,1.38136L55.24029,44.921Z"/>
          <path class="a65b1821-d263-4b40-a25d-01e50461f61b" d="M68.62627,43.55283l1.38141-1.38135,1.38142,1.38135-1.38142,1.38136Z"/>
          <path class="f16e4bcb-3b7a-4525-bcec-9a9e6e5f83c6" d="M55.26656,40.81644v1.5129"/>
          <path class="f16e4bcb-3b7a-4525-bcec-9a9e6e5f83c6" d="M69.93523,40.68489v1.57868"/>
          <circle class="e10fcae3-140f-4efd-922a-904fcdbb3231" cx="59.87107" cy="39.04043" r="0.85513"/>
          <circle class="e10fcae3-140f-4efd-922a-904fcdbb3231" cx="65.13336" cy="39.04043" r="0.85513"/>
        </g>
        <g>
          <path class="ac156387-7c08-45e6-9536-18982db3b284" d="M37.55646,68.57967h0a1.72346,1.72346,0,0,1-3.18,1.33h0a8.90993,8.90993,0,0,1,.16-3.33h0a.34.34,0,0,1,.53-.23h0A8.81963,8.81963,0,0,1,37.55646,68.57967Z"/>
          <path class="a65b1821-d263-4b40-a25d-01e50461f61b" d="M42.90646,83.88967h-.43a4.58,4.58,0,0,0,1.58-3.45c0-2.54-2.06-5.75-4.6-5.75s-4.6,3.21-4.6,5.75v0a4.55,4.55,0,0,0,1.55,3.45h-.44a1.68115,1.68115,0,0,0-1.68,1.64h0a.6.6,0,0,0,.14.46h0a.57.57,0,0,0,.43.2h9.12a.57.57,0,0,0,.44-.2h0a.56.56,0,0,0,.13-.46C44.40645,84.57967,43.90645,83.88967,42.90646,83.88967Z"/>
          <path class="a65b1821-d263-4b40-a25d-01e50461f61b" d="M39.41646,78.13967c-3.45,0-7.5-9.2,0-9.2S42.90646,78.13967,39.41646,78.13967Z"/>
          <path class="ac156387-7c08-45e6-9536-18982db3b284" d="M41.27646,68.57967h0a1.72346,1.72346,0,0,0,3.18,1.33h0a8.70994,8.70994,0,0,0-.16-3.33h0a.34.34,0,0,0-.53-.23h0A8.81963,8.81963,0,0,0,41.27646,68.57967Z"/>
          <path class="bb067518-f520-4a81-8644-7b3d2e71ced3" d="M40.04646,68.98967h0a4.53,4.53,0,0,0,2.66,6.66C44.21646,72.98967,44.32646,69.28967,40.04646,68.98967Z"/>
          <path class="aca4eece-c127-44c8-8b27-f16af482c2c3" d="M37.97646,71.23967h0a.87.87,0,1,0,.87.86994l-.00005-.00994h0A.87.87,0,0,0,37.97646,71.23967Z"/>
          <path class="aca4eece-c127-44c8-8b27-f16af482c2c3" d="M40.90646,71.23967h0a.87.87,0,1,0,.86.87988q.0001-.00995,0-.01989h0A.86.86,0,0,0,40.90646,71.23967Z"/>
          <path class="aca4eece-c127-44c8-8b27-f16af482c2c3" d="M39.41646,76.83967h0a.17.17,0,0,1,.12.05l-.12.09-.11-.09h0a.16.16,0,0,1,.11-.05m0-1h0a1.15,1.15,0,0,0-1.15,1.15c0,.64,1.15,1.15,1.15,1.15s1.15-.51,1.15-1.15h0a1.14,1.14,0,0,0-1.12991-1.15Q39.4265,75.83958,39.41646,75.83967Z"/>
          <path class="f16e4bcb-3b7a-4525-bcec-9a9e6e5f83c6" d="M39.41646,78.13967c-3.45,0-7.5-9.2,0-9.2S42.90646,78.13967,39.41646,78.13967Z"/>
        </g>
      </g>
    </g>
  </g>
</svg>
