<svg xmlns="http://www.w3.org/2000/svg" width="88" height="57.01832" viewBox="0 0 88 57.01832">
  <defs>
    <style>
      .f1b70c44-e89d-4c4a-bf59-c98f45a6a944 {
        fill: #d3d3d3;
      }

      .afb989cc-8222-4b57-9362-cd15f9d040aa {
        fill: none;
      }

      .a074185e-8978-41db-a7cb-61d88e99c94c, .a0ee0d15-48c2-41f1-91ac-7498a2171c77, .afb989cc-8222-4b57-9362-cd15f9d040aa {
        stroke: #4a4a4a;
        stroke-linecap: round;
        stroke-linejoin: round;
      }

      .a074185e-8978-41db-a7cb-61d88e99c94c, .a0c5f504-b11f-499c-b1d9-691c3321c760 {
        fill: #fff;
      }

      .a0ee0d15-48c2-41f1-91ac-7498a2171c77, .a2d9c3a1-54eb-44f1-9dae-cef1cdb5b482 {
        fill: #ffe211;
      }
    </style>
  </defs>
  <title>Asset 8-rea</title>
  <g id="f3491125-5ca7-4f28-93cf-b73ecb31c83b" data-name="Layer 2">
    <g id="b425ba4f-f352-44e3-ada9-b6b1049eb68a" data-name="Layer 1">
      <g>
        <g>
          <path class="f1b70c44-e89d-4c4a-bf59-c98f45a6a944" d="M84.5,40.01829v.00122A40,40,0,1,0,8.06949,56.5172H80.94A39.8501,39.8501,0,0,0,84.5,40.0183Z"/>
          <path class="afb989cc-8222-4b57-9362-cd15f9d040aa" d="M5,56.51829H83"/>
          <path class="afb989cc-8222-4b57-9362-cd15f9d040aa" d="M.5,56.51829H3"/>
          <path class="afb989cc-8222-4b57-9362-cd15f9d040aa" d="M85,56.51829h2.5"/>
        </g>
        <path id="e1897a4a-0408-4b7e-99db-6401ee80ed80" data-name="a" class="a0c5f504-b11f-499c-b1d9-691c3321c760" d="M44,38.52829h0A14.75,14.75,0,0,0,29.0021,53.0262Q29,53.14723,29,53.26832v3.25H59V53.266a14.74,14.74,0,0,0-14.74-14.74q-.13114,0-.26229.00234Z"/>
        <path class="afb989cc-8222-4b57-9362-cd15f9d040aa" d="M44,38.52829h0A14.75,14.75,0,0,0,29.0021,53.0262Q29,53.14723,29,53.26832v3.25H59V53.266a14.74,14.74,0,0,0-14.74-14.74q-.13114,0-.26229.00234Z"/>
        <path class="afb989cc-8222-4b57-9362-cd15f9d040aa" d="M34.5,56.51829v-4.5"/>
        <path class="afb989cc-8222-4b57-9362-cd15f9d040aa" d="M53.5,56.51829v-4.5"/>
        <path class="a0ee0d15-48c2-41f1-91ac-7498a2171c77" d="M47.78,54.72829l-3.77-11.38h0l-3.78,11.38h0a3.3,3.3,0,0,0-.07,1.79h7.68A3.21,3.21,0,0,0,47.78,54.72829Z"/>
        <path class="a0ee0d15-48c2-41f1-91ac-7498a2171c77" d="M44.01,43.34829h0l-2.77,1.26c.82,1.23,1.3,2.35,2.77,2.35h0c1.47,0,2-1.12,2.77-2.35Z"/>
        <path class="a074185e-8978-41db-a7cb-61d88e99c94c" d="M50.52,46.26829l-.78-5.42h0a4.07,4.07,0,0,0-2.15-2.81h0c-.58-.14-1.18,1-1.79.9l-1.82.3h0l-1.82-.3c-.61.07-1.2-1-1.79-.9h0a4.08,4.08,0,0,0-2.11,2.81l-.77,5.42h0a.44.44,0,0,0,.61.46l5.89-2.68h0l5.89,2.68h0a.44.44,0,0,0,.64-.46Z"/>
        <path id="ae38aca5-fa2d-4f85-92d4-2c051094f89b" data-name="b" class="a0c5f504-b11f-499c-b1d9-691c3321c760" d="M44,36.01829H40.5v5.31l3.5,2.33,3.5-2.33v-5.31Z"/>
        <path class="afb989cc-8222-4b57-9362-cd15f9d040aa" d="M44,36.01829H40.5v5.31l3.5,2.33,3.5-2.33v-5.31Z"/>
        <path class="a074185e-8978-41db-a7cb-61d88e99c94c" d="M54,25.01829v-2.5h0a10,10,0,0,0-20,0v2.5h0a2,2,0,0,0,0,4h.13a10,10,0,0,0,19.75,0H54a2,2,0,1,0,0-4Z"/>
        <path class="a2d9c3a1-54eb-44f1-9dae-cef1cdb5b482" d="M39.1339,27.89439a1.25,1.25,0,1,1-1.76777,0,1.25,1.25,0,0,1,1.76777,0"/>
        <path class="a2d9c3a1-54eb-44f1-9dae-cef1cdb5b482" d="M50.6339,27.88439a1.25,1.25,0,1,1-1.76777,0,1.25,1.25,0,0,1,1.76777,0"/>
        <path class="afb989cc-8222-4b57-9362-cd15f9d040aa" d="M40.99,31.3183h0a4.38,4.38,0,0,0,6,0"/>
        <path class="afb989cc-8222-4b57-9362-cd15f9d040aa" d="M41.5,25.52829h0a1.63,1.63,0,0,0-3,0"/>
        <path class="afb989cc-8222-4b57-9362-cd15f9d040aa" d="M49.51,25.51829h0a1.63,1.63,0,0,0-3,0"/>
        <path id="ee765a8f-ccad-4d4a-9b14-a65adae75e1c" data-name="c" class="a2d9c3a1-54eb-44f1-9dae-cef1cdb5b482" d="M34.5,25.51829v-2c0-3.21,1.72-5,4.89-5.5,2.51.73,6.17.88,9-1h0a9.00007,9.00007,0,0,1,3.28,2.32c1.4,1.52,1.83,4,1.83,6.18.6,0,1.64-.22,2,.19v-5.69h0a6.79,6.79,0,0,0-7.06584-6.50247l-.05416.00246c-1.15-2.31-3.49-2-4.49-2h0A11.4,11.4,0,0,0,32.4996,22.9279l.00044.09044v2.67c.37-.42,1.41-.17,2-.17Z"/>
        <path class="afb989cc-8222-4b57-9362-cd15f9d040aa" d="M34.5,25.51829v-2c0-3.21,1.72-5,4.89-5.5,2.51.73,6.17.88,9-1h0a9.00007,9.00007,0,0,1,3.28,2.32c1.4,1.52,1.83,4,1.83,6.18.6,0,1.64-.22,2,.19v-5.69h0a6.79,6.79,0,0,0-7.06584-6.50247l-.05416.00246c-1.15-2.31-3.49-2-4.49-2h0A11.4,11.4,0,0,0,32.4996,22.9279l.00044.09044v2.67c.37-.42,1.41-.17,2-.17Z"/>
      </g>
    </g>
  </g>
</svg>
