<svg xmlns="http://www.w3.org/2000/svg" width="88" height="57.04829" viewBox="0 0 88 57.04829">
  <defs>
    <style>
      .a362af59-4008-435d-a0e3-2160b8761b27 {
        fill: #d3d3d3;
      }

      .fc8824d4-be51-49c0-a858-9ea6f3780269 {
        fill: none;
      }

      .a05cc39c-d78f-4309-a9fc-0a186b58d834, .fc8824d4-be51-49c0-a858-9ea6f3780269 {
        stroke: #4a4a4a;
        stroke-linecap: round;
        stroke-linejoin: round;
      }

      .b3fe9b62-1078-4f78-81f7-cea93c244f53 {
        fill: #474747;
      }

      .e1c34360-420a-4f0a-981f-5ef3a0fa8410 {
        fill: #ffe211;
      }

      .a05cc39c-d78f-4309-a9fc-0a186b58d834, .b76f8c8f-0327-4aba-b0e8-251bb5496a74 {
        fill: #fff;
      }
    </style>
  </defs>
  <title>Asset 10-rea</title>
  <g id="e87ddbb7-9dcf-4226-902e-b3fff7b27073" data-name="Layer 2">
    <g id="bed13f70-fbd4-494d-b891-b17bbae9012a" data-name="Layer 1">
      <g>
        <g>
          <path class="a362af59-4008-435d-a0e3-2160b8761b27" d="M84.51,40.01829v.00122A40,40,0,1,0,8.07949,56.5172H80.94a39.84973,39.84973,0,0,0,3.57-16.4989Z"/>
          <path class="fc8824d4-be51-49c0-a858-9ea6f3780269" d="M5,56.51829H83"/>
          <path class="fc8824d4-be51-49c0-a858-9ea6f3780269" d="M.5,56.51829H3"/>
          <path class="fc8824d4-be51-49c0-a858-9ea6f3780269" d="M85,56.51829h2.5"/>
        </g>
        <path id="ba54e5ed-5550-4e34-88d1-07acea7de651" data-name="a" class="b3fe9b62-1078-4f78-81f7-cea93c244f53" d="M45.17,41.39829h0a2.00141,2.00141,0,0,0,4,.15l.17-4.34.74,2.17h0a2.00176,2.00176,0,0,0,3.79-1.29h0l-.14-.41c2-.42,1.59-2.33,1.71-5.48l.71,3h0a2,2,0,0,0,3.89-.93l-1.3-5.42,1,.81h0a2.00373,2.00373,0,0,0,2.49-3.14l-1.12-.89c1.49-1,.92-2.35-.27-3.68h0a2,2,0,0,0,.6-1.05c2,.11,2.44-3.69-.83-4.51h0a2,2,0,0,0-.85-3.63l-2.89-.4h0a2,2,0,0,0-3.53-.5h-.06a2,2,0,1,0-3.64-1.63h0a11.42,11.42,0,0,0-10.31,0h0a2,2,0,1,0-3.62,1.62h-.06a2,2,0,0,0-3.53.5l-2.89.4h0a2,2,0,0,0-.86,3.63c-3.29.83-2.75,4.62-.82,4.51h0a2.00008,2.00008,0,0,0,.59,1.05c-1.19,1.33-1.75,2.66-.26,3.68l-1.12.89h0a2.00373,2.00373,0,1,0,2.49,3.14l1-.81-1.3,5.43h0a2.00468,2.00468,0,1,0,3.9.93l.71-3c.1,2.8-.31,5,1.71,5.48l-.14.41h0a2.00176,2.00176,0,1,0,3.79,1.29h0l.74-2.17.16,4.34h0a2.00141,2.00141,0,0,0,4-.15h0A2.00006,2.00006,0,0,0,45.17,41.39829Z"/>
        <path class="fc8824d4-be51-49c0-a858-9ea6f3780269" d="M45.17,41.39829h0a2.00141,2.00141,0,0,0,4,.15l.17-4.34.74,2.17h0a2.00176,2.00176,0,0,0,3.79-1.29h0l-.14-.41c2-.42,1.59-2.33,1.71-5.48l.71,3h0a2,2,0,0,0,3.89-.93l-1.3-5.42,1,.81h0a2.00373,2.00373,0,0,0,2.49-3.14l-1.12-.89c1.49-1,.92-2.35-.27-3.68h0a2,2,0,0,0,.6-1.05c2,.11,2.44-3.69-.83-4.51h0a2,2,0,0,0-.85-3.63l-2.89-.4h0a2,2,0,0,0-3.53-.5h-.06a2,2,0,1,0-3.64-1.63h0a11.42,11.42,0,0,0-10.31,0h0a2,2,0,1,0-3.62,1.62h-.06a2,2,0,0,0-3.53.5l-2.89.4h0a2,2,0,0,0-.86,3.63c-3.29.83-2.75,4.62-.82,4.51h0a2.00008,2.00008,0,0,0,.59,1.05c-1.19,1.33-1.75,2.66-.26,3.68l-1.12.89h0a2.00373,2.00373,0,1,0,2.49,3.14l1-.81-1.3,5.43h0a2.00468,2.00468,0,1,0,3.9.93l.71-3c.1,2.8-.31,5,1.71,5.48l-.14.41h0a2.00176,2.00176,0,1,0,3.79,1.29h0l.74-2.17.16,4.34h0a2.00141,2.00141,0,0,0,4-.15h0A2.00006,2.00006,0,0,0,45.17,41.39829Z"/>
        <path id="a01f8bd4-bbb4-490f-b7f6-0e92090d3728" data-name="b" class="e1c34360-420a-4f0a-981f-5ef3a0fa8410" d="M44.51,39.01829h0A15.56,15.56,0,0,0,29,54.54829v2H60V54.54882a15.55,15.55,0,0,0-15.4895-15.5305Z"/>
        <path class="fc8824d4-be51-49c0-a858-9ea6f3780269" d="M44.51,39.01829h0A15.56,15.56,0,0,0,29,54.54829v2H60V54.54882a15.55,15.55,0,0,0-15.4895-15.5305Z"/>
        <path class="fc8824d4-be51-49c0-a858-9ea6f3780269" d="M35,56.51829c-.77-1.55-1-1.38-.55-3.07l.57-2.43"/>
        <path class="fc8824d4-be51-49c0-a858-9ea6f3780269" d="M54,56.51829c.78-1.55,1-1.38.56-3.07l-.57-2.43"/>
        <path id="e792846d-a170-4d79-90b7-1dbd4a9128e6" data-name="c" class="b76f8c8f-0327-4aba-b0e8-251bb5496a74" d="M44.51,44.51829c3.19,0,5.84-1.76,6.4-4.08h0a14.99977,14.99977,0,0,0-2.9-1v-3.92h-7v3.93h0a15.16005,15.16005,0,0,0-2.89,1C38.67,42.75829,41.32,44.51829,44.51,44.51829Z"/>
        <path class="fc8824d4-be51-49c0-a858-9ea6f3780269" d="M44.51,44.51829c3.19,0,5.84-1.76,6.4-4.08h0a14.99977,14.99977,0,0,0-2.9-1v-3.92h-7v3.93h0a15.16005,15.16005,0,0,0-2.89,1C38.67,42.75829,41.32,44.51829,44.51,44.51829Z"/>
        <path class="a05cc39c-d78f-4309-a9fc-0a186b58d834" d="M53.58,23.14829h0a2,2,0,0,1-3.13-1.3c-3.08,3.18-3.86-3.27-4.07-4.28-.18,5.06-4,3.56-4,1.42-.93,4.28-2.87,3.86-3.87,2.86h0a2,2,0,0,1-3.12,1.28l.35,3.15h0a1.9,1.9,0,0,1-1.59487,2.1625l-.05513.0075h0a1.56976,1.56976,0,0,0,.37.05h.13a10,10,0,0,0,19.75,0h.12a2.68919,2.68919,0,0,0,.4,0c-2.29-.36-1.54-2.96-1.28-5.35Z"/>
        <path class="fc8824d4-be51-49c0-a858-9ea6f3780269" d="M50,25.51829h0a1.62,1.62,0,0,0-3,0"/>
        <path class="fc8824d4-be51-49c0-a858-9ea6f3780269" d="M42.01,25.51829h0a1.63,1.63,0,0,0-3,0"/>
        <path class="e1c34360-420a-4f0a-981f-5ef3a0fa8410" d="M39.6339,27.88439a1.25,1.25,0,1,1-1.76777,0,1.25,1.25,0,0,1,1.76777,0"/>
        <path class="e1c34360-420a-4f0a-981f-5ef3a0fa8410" d="M51.1339,27.88439a1.25,1.25,0,1,1-1.76777,0,1.25,1.25,0,0,1,1.76777,0"/>
        <path class="fc8824d4-be51-49c0-a858-9ea6f3780269" d="M41.51,31.30829h0a4.34,4.34,0,0,0,6,0"/>
        <path class="fc8824d4-be51-49c0-a858-9ea6f3780269" d="M31.8,26.73829h0a2.01206,2.01206,0,1,0,4-.44h0l-.35-3.15h0a2,2,0,0,0,3.06-1.3c1,1,2.9,1.42,3.79-2.86,0,2.2,3.86,3.58,4-1.42.21,1,1,7.47,4.07,4.28h0a2,2,0,0,0,3.13,1.28c-.25,2.25-1.08,5.08,1.42,5.36h0a2,2,0,0,0,2.20953-1.76578l.00046-.00422"/>
      </g>
    </g>
  </g>
</svg>
