<svg xmlns="http://www.w3.org/2000/svg" width="84.80709" height="75.51786" viewBox="0 0 84.80709 75.51786">
  <defs>
    <style>
      .a02141d7-bbfa-4e01-9535-a6f2d9def507, .a11bbb93-afe8-4ebd-bf31-b395e9ed3f82, .ad85d1e8-49cd-4e4a-bc51-67b935dc588b, .b367ee2b-7175-4483-a673-ede934e089d6, .bb78c71e-0db6-4116-b19a-11eed1617c65, .bd069447-83e5-4f87-82e3-ac74d94eeb6c, .e15f6b0f-38b9-4e57-88b7-7c5f07a9aa55 {
        fill: #fff;
      }

      .a02141d7-bbfa-4e01-9535-a6f2d9def507, .a11bbb93-afe8-4ebd-bf31-b395e9ed3f82, .e15f6b0f-38b9-4e57-88b7-7c5f07a9aa55, .e1b0f2b2-af81-4943-b91b-1af635536352, .e9f74332-d5fa-45cd-b847-71ee617f08f3, .f006794c-5aef-4b7b-89c1-ec2c8b50719b, .f4b34d4c-9ae2-431d-bb48-5eea220cb318, .fd2ba994-4705-4577-a10a-ece0087a8702 {
        stroke: #4a4a4a;
      }

      .a02141d7-bbfa-4e01-9535-a6f2d9def507, .a11bbb93-afe8-4ebd-bf31-b395e9ed3f82, .ac88e45c-9357-4621-a3ab-528d89c42f65, .ad85d1e8-49cd-4e4a-bc51-67b935dc588b, .bb78c71e-0db6-4116-b19a-11eed1617c65, .befe8875-8630-456a-ae53-3bb297959b31, .e15f6b0f-38b9-4e57-88b7-7c5f07a9aa55, .e1b0f2b2-af81-4943-b91b-1af635536352, .f4b34d4c-9ae2-431d-bb48-5eea220cb318, .f4e11c9e-11d4-46c4-a682-4c23f8b28d20, .f97fac37-9a2d-468d-b35c-9d126cee7e96 {
        stroke-linecap: round;
      }

      .a02141d7-bbfa-4e01-9535-a6f2d9def507, .a11bbb93-afe8-4ebd-bf31-b395e9ed3f82, .ac88e45c-9357-4621-a3ab-528d89c42f65, .ad85d1e8-49cd-4e4a-bc51-67b935dc588b, .bb78c71e-0db6-4116-b19a-11eed1617c65, .befe8875-8630-456a-ae53-3bb297959b31, .e15f6b0f-38b9-4e57-88b7-7c5f07a9aa55, .e1b0f2b2-af81-4943-b91b-1af635536352, .f006794c-5aef-4b7b-89c1-ec2c8b50719b, .f4b34d4c-9ae2-431d-bb48-5eea220cb318, .f4e11c9e-11d4-46c4-a682-4c23f8b28d20, .f97fac37-9a2d-468d-b35c-9d126cee7e96, .fd2ba994-4705-4577-a10a-ece0087a8702 {
        stroke-linejoin: round;
      }

      .befe8875-8630-456a-ae53-3bb297959b31, .e1b0f2b2-af81-4943-b91b-1af635536352, .e9f74332-d5fa-45cd-b847-71ee617f08f3, .f006794c-5aef-4b7b-89c1-ec2c8b50719b, .f4b34d4c-9ae2-431d-bb48-5eea220cb318, .f97fac37-9a2d-468d-b35c-9d126cee7e96, .fd2ba994-4705-4577-a10a-ece0087a8702 {
        fill: none;
      }

      .ac88e45c-9357-4621-a3ab-528d89c42f65, .e464843f-9875-4382-a25b-93c21522bac3, .f4e11c9e-11d4-46c4-a682-4c23f8b28d20 {
        fill: #ffe211;
      }

      .f42de36e-5f59-4c07-9b5d-ec01c42293a9 {
        fill: #4a4a4a;
      }

      .f006794c-5aef-4b7b-89c1-ec2c8b50719b {
        stroke-width: 0.99459px;
      }

      .ac88e45c-9357-4621-a3ab-528d89c42f65, .bb78c71e-0db6-4116-b19a-11eed1617c65, .f97fac37-9a2d-468d-b35c-9d126cee7e96 {
        stroke: #444;
      }

      .ad85d1e8-49cd-4e4a-bc51-67b935dc588b, .bd069447-83e5-4f87-82e3-ac74d94eeb6c, .befe8875-8630-456a-ae53-3bb297959b31, .f4e11c9e-11d4-46c4-a682-4c23f8b28d20 {
        stroke: #474747;
      }

      .bd069447-83e5-4f87-82e3-ac74d94eeb6c {
        stroke-miterlimit: 10;
      }
    </style>
  </defs>
  <title>Asset 15-rea</title>
  <g id="a5c8f6ec-56e1-45ca-9e4f-a152389037d9" data-name="Layer 2">
    <g id="bc2edf1d-caec-421c-85c4-36595b6aa625" data-name="Layer 1">
      <g>
        <path class="a02141d7-bbfa-4e01-9535-a6f2d9def507" d="M37.8447,59.04793l-3.4-3.66h0a2.83982,2.83982,0,0,0-.84-.59l-4.08-1.95c-.49-.53-.58.23-1.11.71s-2.06,2.57-1.57,3.11l4.27,4.59h0v1.15a1.32,1.32,0,0,0,1.28,1.32h0a1.3,1.3,0,0,0,1.32-1.25h0a1.33,1.33,0,0,0,.88.14h0a1.31,1.31,0,0,0,1-1.52l-.16-.81.47.5h0a1.3,1.3,0,0,0,1.93-1.74Z"/>
        <path class="e9f74332-d5fa-45cd-b847-71ee617f08f3" d="M32.7147,59.95794l.32,1.63h0a1.29,1.29,0,0,0,1.52,1h0a1.31,1.31,0,0,0,1-1.52"/>
        <path class="e9f74332-d5fa-45cd-b847-71ee617f08f3" d="M33.4347,58.11793l2.48,2.67"/>
        <path class="e1b0f2b2-af81-4943-b91b-1af635536352" d="M30.9447,56.09794l-1.06-.53"/>
        <path id="b6aacf73-3c8c-4844-8cf2-d0ca16634369" data-name="d" class="b367ee2b-7175-4483-a673-ede934e089d6" d="M27.5147,70.57794l-6.65-1.8h0c.34-8.48,1.31-17.5,13-21.14l.67-.21h0a1.3,1.3,0,0,1,.81,2.42l-.67.21c-3,.93-5.1,2.21-6.2,5.09-1.7,4.33,1,3.2,1.93,1.73l2-3.08h0a1.3,1.3,0,0,1,2.19,1.4c-2.73,6.34-2.51,7.7-4.52,9.62C28.5947,66.28794,28.3447,67.55794,27.5147,70.57794Z"/>
        <path class="e1b0f2b2-af81-4943-b91b-1af635536352" d="M27.5147,70.57794l-6.65-1.8h0c.34-8.48,1.31-17.5,13-21.14l.67-.21h0a1.3,1.3,0,0,1,.81,2.42l-.67.21c-3,.93-5.1,2.21-6.2,5.09-1.7,4.33,1,3.2,1.93,1.73l2-3.08h0a1.3,1.3,0,0,1,2.19,1.4c-2.73,6.34-2.51,7.7-4.52,9.62C28.5947,66.28794,28.3447,67.55794,27.5147,70.57794Z"/>
        <path id="e569034f-46d0-44bf-a0cd-4786afabb5f4" data-name="e" class="b367ee2b-7175-4483-a673-ede934e089d6" d="M34.4547,28.84794h19.49a2.27,2.27,0,0,1,2.27,2.27h0v29.46h0a2.27,2.27,0,0,1-2.27,2.27h-19.46a2.27,2.27,0,0,1-2.27-2.27v-29.49h0A2.24,2.24,0,0,1,34.4547,28.84794Z"/>
        <path class="b367ee2b-7175-4483-a673-ede934e089d6" d="M53.4147,33.63794h0a1,1,0,0,0-.7-.29h-17a1,1,0,0,0-1,1h0v17.86Z"/>
        <path class="fd2ba994-4705-4577-a10a-ece0087a8702" d="M34.4547,28.84794h19.49a2.27,2.27,0,0,1,2.27,2.27h0v29.46h0a2.27,2.27,0,0,1-2.27,2.27h-19.46a2.27,2.27,0,0,1-2.27-2.27v-29.49h0A2.24,2.24,0,0,1,34.4547,28.84794Z"/>
        <path class="e464843f-9875-4382-a25b-93c21522bac3" d="M35.7147,58.84794a1,1,0,0,1-1-1v-23.5a1,1,0,0,1,1-1h17a1,1,0,0,1,1,1v23.5a1,1,0,0,1-1,1Z"/>
        <path class="e1b0f2b2-af81-4943-b91b-1af635536352" d="M40.7147,31.34794h7"/>
        <path class="f42de36e-5f59-4c07-9b5d-ec01c42293a9" d="M38.8347,30.58794h0a.38.38,0,1,0,.38.38h0a.38.38,0,0,0-.38-.38Z"/>
        <path class="e1b0f2b2-af81-4943-b91b-1af635536352" d="M66.8047,45.84794h0a23.38,23.38,0,0,1-7.65,10.63"/>
        <path class="e1b0f2b2-af81-4943-b91b-1af635536352" d="M15.8947,58.37793h0a35.24007,35.24007,0,0,1-6.13-15.53"/>
        <path class="e1b0f2b2-af81-4943-b91b-1af635536352" d="M65.7147,66.45794h0a35.39,35.39,0,0,1-33.76,4.49"/>
        <path class="e1b0f2b2-af81-4943-b91b-1af635536352" d="M73.5247,17.45794h0a35.13991,35.13991,0,0,1,6.59,20.55v.00028a35.70007,35.70007,0,0,1-.86007,7.84"/>
        <path class="e1b0f2b2-af81-4943-b91b-1af635536352" d="M14.8347,19.23794h0a35.43,35.43,0,0,1,40.88-14.85"/>
        <path class="a02141d7-bbfa-4e01-9535-a6f2d9def507" d="M59.1547,5.06794h0a1.8,1.8,0,1,1-1.8-1.8h0A1.81,1.81,0,0,1,59.1547,5.06794Z"/>
        <path class="a02141d7-bbfa-4e01-9535-a6f2d9def507" d="M80.1875,46.32514a1.8,1.8,0,1,1-2.54557,0,1.8,1.8,0,0,1,2.54557,0"/>
        <path class="a02141d7-bbfa-4e01-9535-a6f2d9def507" d="M10.7175,39.73514a1.8,1.8,0,1,1-2.54558,0,1.8,1.8,0,0,1,2.54558,0"/>
        <path class="e1b0f2b2-af81-4943-b91b-1af635536352" d="M23.8147,48.32794h0a23.36,23.36,0,0,1,2.95-25.19"/>
        <path class="e1b0f2b2-af81-4943-b91b-1af635536352" d="M48.3747,14.92794h0a23.36,23.36,0,0,1,17,12"/>
        <path class="a02141d7-bbfa-4e01-9535-a6f2d9def507" d="M29.8047,21.84794h0a1.8,1.8,0,1,1-1.8-1.8h0A1.8,1.8,0,0,1,29.8047,21.84794Z"/>
        <path class="a02141d7-bbfa-4e01-9535-a6f2d9def507" d="M68.1347,28.42794v0a1.8,1.8,0,1,1-1.8-1.8l.01,0h0A1.8,1.8,0,0,1,68.1347,28.42794Z"/>
        <path class="a02141d7-bbfa-4e01-9535-a6f2d9def507" d="M28.1847,58.10794c.51.44,1.7-.32,2.22-1.19l2-3.08h0a1.3,1.3,0,0,1,2.19,1.4c-2.73,6.34-2.51,7.7-4.52,9.62-1.5,1.43-1.75,2.7-2.58,5.72l-3.25-.88"/>
        <path id="a8658b41-4c55-4ac0-a933-db8116a48a02" data-name="g" class="e464843f-9875-4382-a25b-93c21522bac3" d="M27.4735,74.28573a.9946.9946,0,0,1-1.22.7l-7.7472-2.0982a.99458.99458,0,0,1-.7-1.22l.663-2.448a.99459.99459,0,0,1,1.22-.7l7.7472,2.0982a.9946.9946,0,0,1,.7,1.22Z"/>
        <path class="f006794c-5aef-4b7b-89c1-ec2c8b50719b" d="M27.4735,74.28573a.9946.9946,0,0,1-1.22.7l-7.7472-2.0982a.99458.99458,0,0,1-.7-1.22l.663-2.448a.99459.99459,0,0,1,1.22-.7l7.7472,2.0982a.9946.9946,0,0,1,.7,1.22Z"/>
        <path class="a11bbb93-afe8-4ebd-bf31-b395e9ed3f82" d="M28.57344,69.87744l-.26252.96493L19.84852,68.54l.2494-.91668h0a1,1,0,0,1,1.22745-.7024h0l6.53254,1.7773h0A1,1,0,0,1,28.57344,69.87744Z"/>
        <g>
          <path id="ad022c9d-53aa-4f22-a8b9-072036571e5c" data-name="d" class="e464843f-9875-4382-a25b-93c21522bac3" d="M69.64185,33.48528l1.879,1.87832-8.76548,8.76855-1.879-1.87832Z"/>
          <path class="a02141d7-bbfa-4e01-9535-a6f2d9def507" d="M72.77052,32.23469l-3.13169,1.25139,1.8803,1.8803Z"/>
          <path class="e1b0f2b2-af81-4943-b91b-1af635536352" d="M72.77052,32.23469l.62891-.62891"/>
          <path class="e15f6b0f-38b9-4e57-88b7-7c5f07a9aa55" d="M60.87016,42.2523l1.87766,1.87963-1.412,1.41052h0a.64174.64174,0,0,1-.90756-.00048l-.97058-.9716h0a.64174.64174,0,0,1,.00047-.90755h0Z"/>
          <path class="f4b34d4c-9ae2-431d-bb48-5eea220cb318" d="M69.64185,33.48528l1.879,1.87832-8.76548,8.76855-1.879-1.87832Z"/>
        </g>
        <g>
          <path class="b367ee2b-7175-4483-a673-ede934e089d6" d="M44.33518,45.81733H40.27806L38.26453,49.2734l2.01353,3.45608h4.05712l2.01353-3.45608Zm-2.01352,4.8986a1.41249,1.41249,0,1,1,1.41247-1.41248A1.41082,1.41082,0,0,1,42.32166,50.71593Z"/>
          <path class="b367ee2b-7175-4483-a673-ede934e089d6" d="M48.84311,43.74369H46.82958l-1.02176,1.713,1.02176,1.713h2.01353l1.02176-1.713Zm-.99176,2.284a.72127.72127,0,1,1,.72124-.72126A.73127.73127,0,0,1,47.85135,46.0277Z"/>
          <path class="b367ee2b-7175-4483-a673-ede934e089d6" d="M44.54554,39.59639H41.87087l-1.3223,2.40423,1.3223,2.40422h2.67467l1.32229-2.40422Zm-1.32229,3.36592a.93164.93164,0,1,1,.93166-.93164A.93636.93636,0,0,1,43.22325,42.96231Z"/>
        </g>
        <g>
          <path class="ac88e45c-9357-4621-a3ab-528d89c42f65" d="M77.40065,3.83873h0a.628.628,0,0,0-.50917-.79024L65.19688.51885h0a.628.628,0,0,0-.79024.50917h0L61.877,12.72263h0a.628.628,0,0,0,.50917.79023L74.08078,16.0425h0a.628.628,0,0,0,.79023-.50917Z"/>
          <path class="bb78c71e-0db6-4116-b19a-11eed1617c65" d="M73.66837,13.23289,72.912,8.24058h0a.2963.2963,0,0,0-.34772-.27925.14289.14289,0,0,0-.158.10184l-3.00473,2.88657-.94807-1.90533h0a.40941.40941,0,0,0-.4407-.16334l-.07909.05091L65.626,11.42525"/>
          <path class="bb78c71e-0db6-4116-b19a-11eed1617c65" d="M68.86661,4.30508a.98709.98709,0,1,1-1.36444-.29514,1.10091,1.10091,0,0,1,1.36444.29514"/>
          <path class="f97fac37-9a2d-468d-b35c-9d126cee7e96" d="M75.29262,13.58423l-12.994-2.8107"/>
        </g>
        <g>
          <path class="ad85d1e8-49cd-4e4a-bc51-67b935dc588b" d="M2.70085,36.71766a.63688.63688,0,0,1-.74963-.58907L.50621,24.08018a.63688.63688,0,0,1,.58907-.74963L14.4824,21.725a.63689.63689,0,0,1,.74964.58907l1.445,12.04841a.63688.63688,0,0,1-.58908.74963Z"/>
          <path class="befe8875-8630-456a-ae53-3bb297959b31" d="M2.27344,21.83128l.24083,2.00807"/>
          <path class="befe8875-8630-456a-ae53-3bb297959b31" d="M4.95086,21.51016l.24084,2.00807"/>
          <path class="befe8875-8630-456a-ae53-3bb297959b31" d="M7.62829,21.18905l.24083,2.00807"/>
          <path class="befe8875-8630-456a-ae53-3bb297959b31" d="M10.30571,20.86794l.24083,2.00806"/>
          <path class="befe8875-8630-456a-ae53-3bb297959b31" d="M12.98313,20.54682l.24084,2.00807"/>
          <path class="befe8875-8630-456a-ae53-3bb297959b31" d="M8.85959,25.79426l2.00807-.24083.32111,2.67742L8.51135,28.552,8.27051,26.5439h0A.6369.6369,0,0,1,8.85959,25.79426Z"/>
          <path class="f4e11c9e-11d4-46c4-a682-4c23f8b28d20" d="M10.86766,25.55343l2.00807-.24084h0a.63688.63688,0,0,1,.74963.58908l.24084,2.00807-2.67743.32111Z"/>
          <path class="befe8875-8630-456a-ae53-3bb297959b31" d="M8.51135,28.552l2.67742-.32111.32112,2.67742-2.67743.32112Z"/>
          <path class="befe8875-8630-456a-ae53-3bb297959b31" d="M11.18877,28.23085l2.67743-.32111.32111,2.67742-2.67742.32111Z"/>
          <path class="befe8875-8630-456a-ae53-3bb297959b31" d="M8.83246,31.22939l2.67743-.32112L11.831,33.5857l-2.67742.32111Z"/>
          <path class="befe8875-8630-456a-ae53-3bb297959b31" d="M11.50989,30.90827l2.67742-.32111.24084,2.00807h0a.63689.63689,0,0,1-.58908.74963L11.831,33.5857Z"/>
          <path class="f4e11c9e-11d4-46c4-a682-4c23f8b28d20" d="M3.82586,29.11391l2.00807-.24083L6.155,31.5505l-2.67742.32112-.24084-2.00807h0A.6369.6369,0,0,1,3.82586,29.11391Z"/>
          <path class="f4e11c9e-11d4-46c4-a682-4c23f8b28d20" d="M5.83393,28.87308,8.51135,28.552l.32111,2.67743L6.155,31.5505Z"/>
          <path class="befe8875-8630-456a-ae53-3bb297959b31" d="M3.47762,31.87162,6.155,31.5505l.32111,2.67743-2.00806.24083h0a.63689.63689,0,0,1-.74964-.58908h0Z"/>
          <path class="befe8875-8630-456a-ae53-3bb297959b31" d="M6.155,31.5505l2.67742-.32111.32112,2.67742-2.67743.32112Z"/>
        </g>
        <g>
          <path class="bd069447-83e5-4f87-82e3-ac74d94eeb6c" d="M75.51306,59.3344l.498,4.6484-1.27448,1.65769-1.15961,1.438L73.284,64.3441l-4.10153.43941h0a.64949.64949,0,0,1-.75682-.61035h0L67.32715,53.91933h0a.64949.64949,0,0,1,.61035-.75682l12.30459-1.31824h0a.64952.64952,0,0,1,.75683.61036l.65911,6.15229"/>
          <path class="befe8875-8630-456a-ae53-3bb297959b31" d="M76.01106,63.9828l-2.42676,3.164-.29294-2.73436-4.10153.43942h0a.64951.64951,0,0,1-.75683-.61036h0L67.33447,53.98769h0a.6495.6495,0,0,1,.61036-.75682l12.30459-1.31824h0a.64949.64949,0,0,1,.75682.61035l.65912,6.1523"/>
          <path class="f4e11c9e-11d4-46c4-a682-4c23f8b28d20" d="M76.17218,65.48669l3.41794-.36618,3.02729,2.44142-.29294-2.73436,1.36718-.14647h0a.64949.64949,0,0,0,.61035-.75682l-.51264-4.78512h0a.6495.6495,0,0,0-.75683-.61035l-6.83588.73235h0a.64949.64949,0,0,0-.61035.75682h0Z"/>
          <path class="befe8875-8630-456a-ae53-3bb297959b31" d="M70.63033,55.7089l7.51947-.80559"/>
          <path class="befe8875-8630-456a-ae53-3bb297959b31" d="M70.92327,58.44325l7.51947-.80559"/>
          <path class="befe8875-8630-456a-ae53-3bb297959b31" d="M77.78353,61.16545l4.10153-.43941"/>
          <path class="befe8875-8630-456a-ae53-3bb297959b31" d="M78.00324,63.21622l4.10153-.43941"/>
          <path class="befe8875-8630-456a-ae53-3bb297959b31" d="M71.21621,61.1776l3.07615-.32956"/>
        </g>
        <g>
          <g>
            <path class="ad85d1e8-49cd-4e4a-bc51-67b935dc588b" d="M45.70983,21.10419h0a.62154.62154,0,0,0,.52726-.7666L44.32239,9.98666h0a3.959,3.959,0,0,0-4.59962-3.16359l-7.7632,1.436h0a.62155.62155,0,0,0-.52726.76661h0l2.513,13.58559h0a.62154.62154,0,0,0,.7666.52727Z"/>
            <path class="f4e11c9e-11d4-46c4-a682-4c23f8b28d20" d="M40.3697,6.7034l.46671,2.523a.62154.62154,0,0,0,.76661.52726L44.126,9.287A3.98976,3.98976,0,0,0,40.3697,6.7034Z"/>
          </g>
          <g>
            <path class="f4e11c9e-11d4-46c4-a682-4c23f8b28d20" d="M37.49405,9.24255h0a1.93851,1.93851,0,0,1,2.2998,1.58179c.15557.841-.70976,2.67376-1.10767,3.41643h0a.4052.4052,0,0,1-.44086.14846.06447.06447,0,0,1-.07672-.05271c-.63725-.5512-2.10093-1.95312-2.2565-2.79413h0A1.93874,1.93874,0,0,1,37.49405,9.24255Z"/>
            <path class="befe8875-8630-456a-ae53-3bb297959b31" d="M32.31786,13.813,46.0048,19.44386"/>
            <path class="befe8875-8630-456a-ae53-3bb297959b31" d="M37.80519,10.92458h0a.283.283,0,0,1,.30657.21091"/>
            <path class="befe8875-8630-456a-ae53-3bb297959b31" d="M37.59419,11.23123h0a.283.283,0,0,1,.21084-.30662"/>
            <path class="befe8875-8630-456a-ae53-3bb297959b31" d="M37.90092,11.44213h0a.283.283,0,0,1-.30657-.21091h0"/>
            <path class="befe8875-8630-456a-ae53-3bb297959b31" d="M38.04717,11.14744h0a.283.283,0,0,1-.21085.30663"/>
            <path class="befe8875-8630-456a-ae53-3bb297959b31" d="M39.88743,22.18121,38.84631,16.5529"/>
            <path class="befe8875-8630-456a-ae53-3bb297959b31" d="M42.31063,17.91928l2.56944-4.55662"/>
            <path class="befe8875-8630-456a-ae53-3bb297959b31" d="M33.41882,19.7648l2.51665-4.47994"/>
          </g>
        </g>
      </g>
    </g>
  </g>
</svg>
