<svg xmlns="http://www.w3.org/2000/svg" width="88" height="57.01829" viewBox="0 0 88 57.01829">
  <defs>
    <style>
      .a6230d3e-0b92-4188-ac9b-0acfc0dd8431 {
        fill: #d3d3d3;
      }

      .a4f1b71e-ca07-4b16-a06b-f60686a2cf0c {
        fill: none;
      }

      .a4f1b71e-ca07-4b16-a06b-f60686a2cf0c, .bd86f615-e6c3-41aa-866c-5f8b1909fa63 {
        stroke: #4a4a4a;
        stroke-linecap: round;
        stroke-linejoin: round;
      }

      .bb3af972-b293-4a51-ba01-0ddb2dd8350e {
        fill: #ffe211;
      }

      .bd86f615-e6c3-41aa-866c-5f8b1909fa63, .f3e1eb8e-1b2d-4e28-9ea8-312fecb69e65 {
        fill: #fff;
      }
    </style>
  </defs>
  <title>Asset 11-rea</title>
  <g id="a83738a1-d0d6-48be-a67b-ffa6e48c585a" data-name="Layer 2">
    <g id="b51e98b9-c295-4dad-8177-77761decf470" data-name="Layer 1">
      <g>
        <g>
          <path class="a6230d3e-0b92-4188-ac9b-0acfc0dd8431" d="M84.5,40.01829v.00122A40,40,0,1,0,8.06949,56.5172H80.94A39.8501,39.8501,0,0,0,84.5,40.0183Z"/>
          <path class="a4f1b71e-ca07-4b16-a06b-f60686a2cf0c" d="M5,56.51829H83"/>
          <path class="a4f1b71e-ca07-4b16-a06b-f60686a2cf0c" d="M.5,56.51829H3"/>
          <path class="a4f1b71e-ca07-4b16-a06b-f60686a2cf0c" d="M85,56.51829h2.5"/>
        </g>
        <path id="e47cc910-38a8-4afd-a11d-c44f24ae1163" data-name="a" class="bb3af972-b293-4a51-ba01-0ddb2dd8350e" d="M57.43,27.76829c-2.12-5.57-1.79-4.49-1.86-5.51h0a12.13,12.13,0,0,0-24.24,0c-.07,1,.26-.06-1.87,5.51h0a8.57,8.57,0,0,0,7.36,10.91c2.23.21,4.44.33,6.63.34s4.4-.13,6.63-.34h0a8.56,8.56,0,0,0,7.35-10.91Z"/>
        <path class="a4f1b71e-ca07-4b16-a06b-f60686a2cf0c" d="M57.43,27.76829c-2.12-5.57-1.79-4.49-1.86-5.51h0a12.13,12.13,0,0,0-24.24,0c-.07,1,.26-.06-1.87,5.51h0a8.57,8.57,0,0,0,7.36,10.91c2.23.21,4.44.33,6.63.34s4.4-.13,6.63-.34h0a8.56,8.56,0,0,0,7.35-10.91Z"/>
        <path id="ef11f1eb-977d-4ee0-8fda-ec9f09e43dfe" data-name="b" class="bb3af972-b293-4a51-ba01-0ddb2dd8350e" d="M43.45,38.51829h0a15.86,15.86,0,0,0-15.5,15.8v2.2h31V54.31846a15.87,15.87,0,0,0-15.4998-15.8002Z"/>
        <path class="a4f1b71e-ca07-4b16-a06b-f60686a2cf0c" d="M43.45,38.51829h0a15.86,15.86,0,0,0-15.5,15.8v2.2h31V54.31846a15.87,15.87,0,0,0-15.4998-15.8002Z"/>
        <path id="eef29d66-131a-417a-a3b0-af9f7e308b59" data-name="c" class="f3e1eb8e-1b2d-4e28-9ea8-312fecb69e65" d="M47.06,38.9983h-.11v-4h-7v4h-.11l-1.09,4.73,3.53,12.79h2.31l3.53-12.79Z"/>
        <path class="a4f1b71e-ca07-4b16-a06b-f60686a2cf0c" d="M47.06,38.9983h-.11v-4h-7v4h-.11l-1.09,4.73,3.53,12.79h2.31l3.53-12.79Z"/>
        <path class="a4f1b71e-ca07-4b16-a06b-f60686a2cf0c" d="M33.45,56.51829v-3.79"/>
        <path class="a4f1b71e-ca07-4b16-a06b-f60686a2cf0c" d="M53.45,56.51829v-3.79"/>
        <path class="bd86f615-e6c3-41aa-866c-5f8b1909fa63" d="M53.45,24.51829h0a29.74,29.74,0,0,1-14.86-7.74c-.8,4.88-2.17,8.14-5.09,7.74h0a2,2,0,0,0,0,4h.09a10,10,0,0,0,19.75,0h.13a2,2,0,0,0,0-4Z"/>
        <path class="bb3af972-b293-4a51-ba01-0ddb2dd8350e" d="M38.5839,27.88439a1.25,1.25,0,1,1-1.76777,0,1.25,1.25,0,0,1,1.76777,0"/>
        <path class="bb3af972-b293-4a51-ba01-0ddb2dd8350e" d="M50.0839,27.88439a1.25,1.25,0,1,1-1.76777,0,1.25,1.25,0,0,1,1.76777,0"/>
        <path class="a4f1b71e-ca07-4b16-a06b-f60686a2cf0c" d="M46.45,31.30829h0a4.32,4.32,0,0,1-6,0"/>
        <path class="a4f1b71e-ca07-4b16-a06b-f60686a2cf0c" d="M40.95,25.51829h0a1.62,1.62,0,0,0-3,0"/>
        <path class="a4f1b71e-ca07-4b16-a06b-f60686a2cf0c" d="M48.95,25.51829h0a1.63,1.63,0,0,0-3,0"/>
        <path class="bd86f615-e6c3-41aa-866c-5f8b1909fa63" d="M43.45,47.7483h0a10.28011,10.28011,0,0,1-3.79-.71l2.62,9.48h2.31l2.61-9.48h0A10.23022,10.23022,0,0,1,43.45,47.7483Z"/>
        <path class="bd86f615-e6c3-41aa-866c-5f8b1909fa63" d="M39.95,38.51829l-1.2,5.21,3.53,12.79h-2.5l-3.87-3.84h0a1,1,0,0,1-.32-1.29l2.69-1.47-3.48-4.31h0a1,1,0,0,1-.3-1.09C35.44,41.84829,35.77,39.39829,39.95,38.51829Z"/>
        <path class="bd86f615-e6c3-41aa-866c-5f8b1909fa63" d="M46.95,38.51829l1.2,5.21-3.56,12.79h2.5l3.87-3.84h0a1,1,0,0,0,.31-1.29l-2.68-1.47,3.48-4.31h0a1,1,0,0,0,.29-1.09C51.46,41.84829,51.12,39.39829,46.95,38.51829Z"/>
      </g>
    </g>
  </g>
</svg>
