<svg xmlns="http://www.w3.org/2000/svg" width="163.10022" height="111.41262" viewBox="0 0 163.10022 111.41262">
  <defs>
    <style>
      .ac5c5030-9e33-4366-8aea-dbc1cbb2610d, .b3ac47a1-1f1a-4d3a-9b7b-53043471a857, .be3f4878-5863-463b-b626-e53a0f9d7b9b {
        fill: none;
      }

      .a9652c8f-c9bf-43bf-ac13-656447c06212, .b5b5c371-a935-479c-962c-f9a3d9383a86, .e50388fd-b951-4af6-a85f-eb86bc4eca24 {
        fill: #ffe211;
      }

      .ac5c5030-9e33-4366-8aea-dbc1cbb2610d, .b3ac47a1-1f1a-4d3a-9b7b-53043471a857, .b5b5c371-a935-479c-962c-f9a3d9383a86, .e50388fd-b951-4af6-a85f-eb86bc4eca24, .ebe3086d-a8c6-4f88-a677-1a94165ef34f, .fe5eb95a-03bc-4aeb-9cd1-a7e9ccc4e490 {
        stroke: #3a3a3a;
        stroke-linejoin: round;
      }

      .b3ac47a1-1f1a-4d3a-9b7b-53043471a857, .b5b5c371-a935-479c-962c-f9a3d9383a86, .ebe3086d-a8c6-4f88-a677-1a94165ef34f {
        stroke-linecap: round;
      }

      .b54e66bf-5138-497c-be0a-633b774ae46a, .ebe3086d-a8c6-4f88-a677-1a94165ef34f, .fe5eb95a-03bc-4aeb-9cd1-a7e9ccc4e490 {
        fill: #fff;
      }

      .e15f9124-ce76-433e-ae3c-be6f2ed85f5b {
        fill: #3a3a3a;
      }
    </style>
  </defs>
  <title>Asset 6-rea</title>
  <g id="a0241b30-30bc-4b6b-b2d0-99dc268e5e80" data-name="Layer 2">
    <g id="a2fa4ce6-c8ff-46a0-9f1d-a77cce0b225c" data-name="Layer 1">
      <g>
        <rect class="be3f4878-5863-463b-b626-e53a0f9d7b9b" width="163.10022" height="111.41262"/>
        <g>
          <path class="a9652c8f-c9bf-43bf-ac13-656447c06212" d="M121.55011,55.95444v.00374A40,40,0,1,0,45.10857,72.451h72.8815a39.84982,39.84982,0,0,0,3.56-16.4966Z"/>
          <path class="b3ac47a1-1f1a-4d3a-9b7b-53043471a857" d="M42.55011,72.43444h78"/>
          <path class="b3ac47a1-1f1a-4d3a-9b7b-53043471a857" d="M38.05011,72.43444h2.5"/>
          <path class="b3ac47a1-1f1a-4d3a-9b7b-53043471a857" d="M122.55011,72.43444h2.5"/>
          <path class="b3ac47a1-1f1a-4d3a-9b7b-53043471a857" d="M78.55011,31.54444l21.66-7.22"/>
          <path class="b3ac47a1-1f1a-4d3a-9b7b-53043471a857" d="M111.04011,31.54444l-10.83-7.22"/>
          <path id="b4b4b38c-8ca9-4b90-8eb5-3b34619b1edb" data-name="a" class="a9652c8f-c9bf-43bf-ac13-656447c06212" d="M96.60011,33.94444l-1.2,4.21h8.42v-4.21Z"/>
          <path class="b54e66bf-5138-497c-be0a-633b774ae46a" d="M96.60011,33.94444l-1.2,4.21h.99l4.22-4.21Z"/>
          <path id="a8297a76-bcd0-49ba-847b-e9507247507b" data-name="b" class="a9652c8f-c9bf-43bf-ac13-656447c06212" d="M114.05011,32.74444h0a1.21,1.21,0,0,1-1.21,1.21h-34.09a1.2,1.2,0,0,1,0-2.4h34.09a1.2,1.2,0,0,1,1.21,1.18991Z"/>
          <path class="b3ac47a1-1f1a-4d3a-9b7b-53043471a857" d="M114.05011,32.74444h0a1.21,1.21,0,0,1-1.21,1.21h-34.09a1.2,1.2,0,0,1,0-2.4h34.09a1.2,1.2,0,0,1,1.21,1.18991Z"/>
          <path id="f3ea87ba-5b4a-4639-a023-3c2a64a30313" data-name="c" class="a9652c8f-c9bf-43bf-ac13-656447c06212" d="M97.80011,40.56444h4.81v23.46h-4.81Z"/>
          <path class="b3ac47a1-1f1a-4d3a-9b7b-53043471a857" d="M97.80011,40.56444h4.81v23.46h-4.81Z"/>
          <path class="ebe3086d-a8c6-4f88-a677-1a94165ef34f" d="M102.62011,31.54444h-4.82l1.8-7.08h0a.63.63,0,0,1,1.22,0Z"/>
          <path class="ebe3086d-a8c6-4f88-a677-1a94165ef34f" d="M95.40011,39.56444h0a1,1,0,0,0,1,1h6.42a1,1,0,0,0,1-1v-1.41h-8.42Z"/>
          <path class="b3ac47a1-1f1a-4d3a-9b7b-53043471a857" d="M96.60011,33.94444l-1.2,4.21h8.42v-4.21Z"/>
          <path class="ebe3086d-a8c6-4f88-a677-1a94165ef34f" d="M82.16011,33.95444h4.81v1.4h0a1,1,0,0,1-1,1h-2.81a1,1,0,0,1-1-1h0Z"/>
          <path class="b3ac47a1-1f1a-4d3a-9b7b-53043471a857" d="M84.55011,36.35444v17.45h0a1.2,1.2,0,1,0,2.4,0v-.6"/>
          <path class="ebe3086d-a8c6-4f88-a677-1a94165ef34f" d="M85.77011,50.79444h0a1.21,1.21,0,1,1-1.21992-1.2q.01-.00008.01992,0h0A1.2,1.2,0,0,1,85.77011,50.79444Z"/>
          <path class="b3ac47a1-1f1a-4d3a-9b7b-53043471a857" d="M97.80011,51.99444l4.82,4.82"/>
          <path class="b3ac47a1-1f1a-4d3a-9b7b-53043471a857" d="M102.62011,51.99444l-4.82,4.82"/>
          <path class="b3ac47a1-1f1a-4d3a-9b7b-53043471a857" d="M97.80011,57.41444l4.82,4.81"/>
          <path class="b3ac47a1-1f1a-4d3a-9b7b-53043471a857" d="M102.62011,57.41444l-4.82,4.81"/>
          <path class="b3ac47a1-1f1a-4d3a-9b7b-53043471a857" d="M97.80011,46.58444l4.82,4.81"/>
          <path class="b3ac47a1-1f1a-4d3a-9b7b-53043471a857" d="M102.62011,46.58444l-4.82,4.81"/>
          <path class="b3ac47a1-1f1a-4d3a-9b7b-53043471a857" d="M97.80011,41.16444l4.82,4.82"/>
          <path class="b3ac47a1-1f1a-4d3a-9b7b-53043471a857" d="M102.62011,41.16444l-4.82,4.82"/>
          <path id="beda9206-d073-487f-b0c6-0025cf5fe359" data-name="d" class="b54e66bf-5138-497c-be0a-633b774ae46a" d="M105.62011,68.84444h-10.83v-1.81h0a5.42,5.42,0,0,1,10.83,0Z"/>
          <path class="b3ac47a1-1f1a-4d3a-9b7b-53043471a857" d="M105.62011,68.84444h-10.83v-1.81h0a5.42,5.42,0,0,1,10.83,0Z"/>
          <path id="b7ffc7df-194d-4b64-8fa9-9c0de0cddc79" data-name="e" class="b54e66bf-5138-497c-be0a-633b774ae46a" d="M93.18011,68.84444h14.05a2,2,0,0,1,2,2v1.61h-18.05v-1.61h0A2,2,0,0,1,93.18011,68.84444Z"/>
          <path class="b3ac47a1-1f1a-4d3a-9b7b-53043471a857" d="M93.18011,68.84444h14.05a2,2,0,0,1,2,2v1.61h-18.05v-1.61h0A2,2,0,0,1,93.18011,68.84444Z"/>
          <path class="a9652c8f-c9bf-43bf-ac13-656447c06212" d="M76.55011,87.72443c0,1-5.15,1.73-11.5,1.73s-11.5-.77-11.5-1.73,5.15-1.72,11.5-1.72S76.55011,86.77443,76.55011,87.72443Z"/>
          <path id="a68dda82-bf84-4b82-af98-fbc79f3f4973" data-name="f" class="a9652c8f-c9bf-43bf-ac13-656447c06212" d="M75.40011,54.95444v10.35h-4v.57h0v21.27h-12.68v-21.84h-4v-10.35a11.37,11.37,0,0,1,2.2-6.43h0a9.88006,9.88006,0,0,1,3.35-2.86l.11-.06h0a9.57,9.57,0,0,1,4.69-1h0a11.16022,11.16022,0,0,1,4.65,1.2h0A10.2,10.2,0,0,1,75.40011,54.95444Z"/>
          <path class="b3ac47a1-1f1a-4d3a-9b7b-53043471a857" d="M75.40011,54.95444v10.35h-4v.57h0v21.27h-12.68v-21.84h-4v-10.35a11.37,11.37,0,0,1,2.2-6.43h0a9.88006,9.88006,0,0,1,3.35-2.86l.11-.06h0a9.57,9.57,0,0,1,4.69-1h0a11.16022,11.16022,0,0,1,4.65,1.2h0A10.2,10.2,0,0,1,75.40011,54.95444Z"/>
          <path class="b3ac47a1-1f1a-4d3a-9b7b-53043471a857" d="M58.72011,65.30444V55.37456a3.49,3.49,0,0,0-.62993-2h0a3.42,3.42,0,0,1-.54007-1.8801"/>
          <path class="b3ac47a1-1f1a-4d3a-9b7b-53043471a857" d="M65.05011,63.58444v3.45"/>
          <path class="b3ac47a1-1f1a-4d3a-9b7b-53043471a857" d="M71.37011,65.30444v-9.93h0a3.34,3.34,0,0,1,.62-2h0a3.42,3.42,0,0,0,.56-1.88"/>
          <path id="ae538d2c-62bf-4681-bf4e-a3b1dbe38dc2" data-name="g" class="b54e66bf-5138-497c-be0a-633b774ae46a" d="M61.45011,73.60444l-1.44-1.6h0a1.16,1.16,0,0,0-.85-.38h-5.9a1.16,1.16,0,0,0-.85.38l-1.44,1.6h0a1.14,1.14,0,0,0-.3.77v4.16h0a1.16,1.16,0,0,0,1.16,1.15h8.77a1.16,1.16,0,0,0,1.15-1.15v-4.16a1.14,1.14,0,0,0-.3-.77Z"/>
          <path class="ac5c5030-9e33-4366-8aea-dbc1cbb2610d" d="M61.45011,73.60444l-1.44-1.6h0a1.16,1.16,0,0,0-.85-.38h-5.9a1.16,1.16,0,0,0-.85.38l-1.44,1.6h0a1.14,1.14,0,0,0-.3.77v4.16h0a1.16,1.16,0,0,0,1.16,1.15h8.77a1.16,1.16,0,0,0,1.15-1.15v-4.16a1.14,1.14,0,0,0-.3-.77Z"/>
          <path class="b3ac47a1-1f1a-4d3a-9b7b-53043471a857" d="M54.12011,74.16444l1.45-6.48"/>
          <path class="b3ac47a1-1f1a-4d3a-9b7b-53043471a857" d="M58.30011,74.22443l-1.4-6.32"/>
          <path id="f1e451fe-96a8-4478-8720-31cbc8ed69e2" data-name="h" class="b54e66bf-5138-497c-be0a-633b774ae46a" d="M71.37011,65.30444v2.59h0a2,2,0,0,0,4,0v-2.59Z"/>
          <path class="b3ac47a1-1f1a-4d3a-9b7b-53043471a857" d="M71.37011,65.30444v2.59h0a2,2,0,0,0,4,0v-2.59Z"/>
          <path class="b3ac47a1-1f1a-4d3a-9b7b-53043471a857" d="M65.03011,70.47443v16.67"/>
          <path class="ebe3086d-a8c6-4f88-a677-1a94165ef34f" d="M65.05011,87.15443h0a3.44,3.44,0,0,0-3.43-3.45q-.01,0-.02,0h-.58a3.44,3.44,0,0,0-3.46988,3.40986q-.00018.02007-.00012.04013Z"/>
          <path class="ebe3086d-a8c6-4f88-a677-1a94165ef34f" d="M65.05011,87.15443v0a3.44,3.44,0,0,1,3.42949-3.45047q.03527-.0001.07054.00051h.58a3.44,3.44,0,0,1,3.42,3.45Z"/>
          <path class="fe5eb95a-03bc-4aeb-9cd1-a7e9ccc4e490" d="M58.72011,61.28444h12.65v2.3h-12.65Z"/>
          <path class="e50388fd-b951-4af6-a85f-eb86bc4eca24" d="M63.33011,61.28444h3.45v2.3h-3.45Z"/>
          <path class="ebe3086d-a8c6-4f88-a677-1a94165ef34f" d="M69.70011,45.80444l-1.15,5.15-2.35,10.33h-2.3l-2.35-10.33-1.21-5.33h0a9.57016,9.57016,0,0,1,4.69-1h0A11.16007,11.16007,0,0,1,69.70011,45.80444Z"/>
          <path class="ebe3086d-a8c6-4f88-a677-1a94165ef34f" d="M68.53011,50.93444l-2.33,10.35h-2.3l-2.33-10.35Z"/>
          <path id="eb52869c-4332-4bea-a635-6e72808ce0d0" data-name="i" class="b54e66bf-5138-497c-be0a-633b774ae46a" d="M54.69011,65.30444v2.59h0a2,2,0,0,0,4,0v-2.59Z"/>
          <path class="b3ac47a1-1f1a-4d3a-9b7b-53043471a857" d="M54.69011,65.30444v2.59h0a2,2,0,0,0,4,0v-2.59Z"/>
          <path class="b3ac47a1-1f1a-4d3a-9b7b-53043471a857" d="M65.05011,50.93444v-1.15"/>
          <path class="b5b5c371-a935-479c-962c-f9a3d9383a86" d="M62.72011,56.03444c-.4-.63-3.45-5.68-4-5.68h-1.17l2.82-4.53,1.18,5.13Z"/>
          <path class="b5b5c371-a935-479c-962c-f9a3d9383a86" d="M72.55011,50.35444h-1.18c-.54,0-3.59,5.05-4,5.68l1.18-5.08,1.17-5.11Z"/>
          <path class="ebe3086d-a8c6-4f88-a677-1a94165ef34f" d="M71.40281,28.85964a7.83742,7.83742,0,0,1,0,11.7097,9.507,9.507,0,0,1-12.6855,0,7.83742,7.83742,0,0,1,0-11.7097,9.507,9.507,0,0,1,12.6855,0"/>
          <path class="ebe3086d-a8c6-4f88-a677-1a94165ef34f" d="M65.05011,42.30444h0a6.88,6.88,0,0,0,6.55-4.83h0c2.19,0,2.32-3.45.35-3.45v-1.38h0a6.9,6.9,0,1,0-13.8,0v1.38c-2,0-1.84,3.45.34,3.45h0A6.88,6.88,0,0,0,65.05011,42.30444Z"/>
          <path class="e15f9124-ce76-433e-ae3c-be6f2ed85f5b" d="M62.80011,33.33444h0a.87.87,0,1,0,.86.87988q.00012-.00995,0-.01988h0A.87.87,0,0,0,62.80011,33.33444Z"/>
          <path class="e15f9124-ce76-433e-ae3c-be6f2ed85f5b" d="M67.28011,33.33444h0a.87.87,0,1,0,.86.87988q.00012-.00995,0-.01988h0A.86.86,0,0,0,67.28011,33.33444Z"/>
          <path class="a9652c8f-c9bf-43bf-ac13-656447c06212" d="M61.388,35.60654a.69.69,0,1,1-.97581,0,.69.69,0,0,1,.97581,0"/>
          <path class="a9652c8f-c9bf-43bf-ac13-656447c06212" d="M69.668,35.60654a.69.69,0,1,1-.97581,0,.69.69,0,0,1,.97581,0"/>
          <path class="b3ac47a1-1f1a-4d3a-9b7b-53043471a857" d="M63.32011,38.22444h0a3.1,3.1,0,0,0,3.45,0"/>
          <path class="ebe3086d-a8c6-4f88-a677-1a94165ef34f" d="M65.04011,25.74444h0a6.9,6.9,0,0,0-6.9,6.9v.63h0a1.92,1.92,0,0,0,1.89-1.91h0a1.36,1.36,0,0,1,1.5501-1.13859l.0499.00859h0a17.21979,17.21979,0,0,0,6.81,0h0a1.36,1.36,0,0,1,1.59141,1.0801l.00859.0499h0a1.92,1.92,0,0,0,1.89,1.91v-.98h0a6.9,6.9,0,0,0-6.89-6.55Z"/>
          <path class="b3ac47a1-1f1a-4d3a-9b7b-53043471a857" d="M56.32011,32.41444h17.25"/>
          <path id="efa3df20-e201-4a6e-a094-0ebddeaa4533" data-name="j" class="a9652c8f-c9bf-43bf-ac13-656447c06212" d="M72.42011,31.26444h0a7.48,7.48,0,0,0-14.95,0v1.15h14.95Z"/>
          <path class="b3ac47a1-1f1a-4d3a-9b7b-53043471a857" d="M72.42011,31.26444h0a7.48,7.48,0,0,0-14.95,0v1.15h14.95Z"/>
          <path id="ab97c4ab-70aa-4360-b957-6f26a708dc27" data-name="k" class="a9652c8f-c9bf-43bf-ac13-656447c06212" d="M66.67011,32.41444h-3.45l-1.15-8.62h0a7.45,7.45,0,0,1,5.75,0Z"/>
          <path class="b3ac47a1-1f1a-4d3a-9b7b-53043471a857" d="M66.67011,32.41444h-3.45l-1.15-8.62h0a7.45,7.45,0,0,1,5.75,0Z"/>
          <path class="b3ac47a1-1f1a-4d3a-9b7b-53043471a857" d="M70.15011,25.89444l-.6,4.22"/>
          <path class="b3ac47a1-1f1a-4d3a-9b7b-53043471a857" d="M59.74011,25.89444l.61,4.22"/>
        </g>
      </g>
    </g>
  </g>
</svg>
