<svg xmlns="http://www.w3.org/2000/svg" width="88" height="57.01832" viewBox="0 0 88 57.01832">
  <defs>
    <style>
      .b64df4a9-3e02-4eda-ace2-c8af2a662301 {
        fill: #d3d3d3;
      }

      .be2e6eaa-7a8a-492a-a337-55de39bdda1f {
        fill: none;
      }

      .b7608225-8a81-4b77-8c2e-4958b4eba285, .bdb82e47-81d1-4d76-9b20-652717b8378f, .be2e6eaa-7a8a-492a-a337-55de39bdda1f {
        stroke: #4a4a4a;
        stroke-linecap: round;
        stroke-linejoin: round;
      }

      .ad69ef3f-e889-4bd2-92d4-134b0e2797ce, .b7608225-8a81-4b77-8c2e-4958b4eba285 {
        fill: #fff;
      }

      .a0318e36-dbe2-443e-9ea5-e4c2fa2a3121, .bdb82e47-81d1-4d76-9b20-652717b8378f {
        fill: #ffe211;
      }

      .afb5e132-b15b-4e84-a43c-90ba9d7da0ac {
        fill: #474747;
      }
    </style>
  </defs>
  <title>Asset 9-rea</title>
  <g id="bf9dfffa-8f5e-4c41-9f23-07ac919fc742" data-name="Layer 2">
    <g id="b16e6cf6-4efb-43ef-bd74-b8a7bf1c38f7" data-name="Layer 1">
      <g>
        <g>
          <path class="b64df4a9-3e02-4eda-ace2-c8af2a662301" d="M84.5,40.01829v.00122A40,40,0,1,0,8.06949,56.5172H80.94A39.8501,39.8501,0,0,0,84.5,40.0183Z"/>
          <path class="be2e6eaa-7a8a-492a-a337-55de39bdda1f" d="M5,56.51829H83"/>
          <path class="be2e6eaa-7a8a-492a-a337-55de39bdda1f" d="M.5,56.51829H3"/>
          <path class="be2e6eaa-7a8a-492a-a337-55de39bdda1f" d="M85,56.51829h2.5"/>
        </g>
        <path id="ba44db1b-d1b4-481a-9cc7-e177565edf2c" data-name="a" class="ad69ef3f-e889-4bd2-92d4-134b0e2797ce" d="M44,38.51829h0a14.75,14.75,0,0,0-14.9979,14.4979Q29,53.13724,29,53.25831v3.26H59V53.256a14.74,14.74,0,0,0-14.74-14.74q-.13114,0-.26229.00233Z"/>
        <path class="be2e6eaa-7a8a-492a-a337-55de39bdda1f" d="M44,38.51829h0a14.75,14.75,0,0,0-14.9979,14.4979Q29,53.13724,29,53.25831v3.26H59V53.256a14.74,14.74,0,0,0-14.74-14.74q-.13114,0-.26229.00233Z"/>
        <path class="be2e6eaa-7a8a-492a-a337-55de39bdda1f" d="M34.5,56.5083v-4.5"/>
        <path class="be2e6eaa-7a8a-492a-a337-55de39bdda1f" d="M53.5,56.5083v-4.5"/>
        <path class="bdb82e47-81d1-4d76-9b20-652717b8378f" d="M42.5,44.01829h3v7.5h0a1,1,0,0,1-1,1h-1a1,1,0,0,1-1-1h0Z"/>
        <path class="bdb82e47-81d1-4d76-9b20-652717b8378f" d="M44,45.01829h0a6,6,0,0,0,5.84-5.41h0a14.5602,14.5602,0,0,0-5.84-1.09h0a14.5602,14.5602,0,0,0-5.84,1.09h0A6,6,0,0,0,44,45.01829Z"/>
        <path id="fb0928cc-d17c-4437-9942-3e3f8493dc48" data-name="b" class="ad69ef3f-e889-4bd2-92d4-134b0e2797ce" d="M40.5,34.01829v5.28h0a3.5,3.5,0,1,0,7,0v-5.28Z"/>
        <path class="be2e6eaa-7a8a-492a-a337-55de39bdda1f" d="M40.5,34.01829v5.28h0a3.5,3.5,0,1,0,7,0v-5.28Z"/>
        <path class="b7608225-8a81-4b77-8c2e-4958b4eba285" d="M54,24.51829v-2.5h0a10,10,0,0,0-20,0v2.5h0a2,2,0,0,0,0,4h.12a10,10,0,0,0,19.76,0H54a2,2,0,0,0,0-4Z"/>
        <path class="a0318e36-dbe2-443e-9ea5-e4c2fa2a3121" d="M39.1339,27.88439a1.25,1.25,0,1,1-1.76777,0,1.25,1.25,0,0,1,1.76777,0"/>
        <path class="a0318e36-dbe2-443e-9ea5-e4c2fa2a3121" d="M50.6339,27.88439a1.25,1.25,0,1,1-1.76777,0,1.25,1.25,0,0,1,1.76777,0"/>
        <path class="be2e6eaa-7a8a-492a-a337-55de39bdda1f" d="M47,31.30829h0a4.32,4.32,0,0,1-6,0"/>
        <path class="be2e6eaa-7a8a-492a-a337-55de39bdda1f" d="M41.5,25.51829h0a1.63,1.63,0,0,0-3,0"/>
        <path class="be2e6eaa-7a8a-492a-a337-55de39bdda1f" d="M49.5,25.51829h0a1.63,1.63,0,0,0-3,0"/>
        <path id="bf233d65-f71e-4d8f-88af-71d1cad410e7" data-name="c" class="afb5e132-b15b-4e84-a43c-90ba9d7da0ac" d="M54,22.01829h0a10,10,0,0,0-20,0v2.5h0a1.6,1.6,0,0,1,1.5945,1.60548q-.00019.05731-.0045.11452h0a8.17,8.17,0,0,0,.4-4.22h0a4.78007,4.78007,0,0,0,2.5-1v-2.5h0a15.62,15.62,0,0,0,11,0v2.5h0a4.78,4.78,0,0,0,2.5,1h0a8.16984,8.16984,0,0,0,.4,4.22h0a1.6,1.6,0,0,1,1.47549-1.7155q.06215-.00468.12451-.0045Z"/>
        <path class="be2e6eaa-7a8a-492a-a337-55de39bdda1f" d="M54,22.01829h0a10,10,0,0,0-20,0v2.5h0a1.6,1.6,0,0,1,1.5945,1.60548q-.00019.05731-.0045.11452h0a8.17,8.17,0,0,0,.4-4.22h0a4.78007,4.78007,0,0,0,2.5-1v-2.5h0a15.62,15.62,0,0,0,11,0v2.5h0a4.78,4.78,0,0,0,2.5,1h0a8.16984,8.16984,0,0,0,.4,4.22h0a1.6,1.6,0,0,1,1.47549-1.7155q.06215-.00468.12451-.0045Z"/>
      </g>
    </g>
  </g>
</svg>
