<?xml version="1.0" encoding="UTF-8"?><svg version="1.1" viewBox="0 0 24 24" xmlns="http://www.w3.org/2000/svg" xmlns:xlink="http://www.w3.org/1999/xlink" class="a"><!--Generated by IJSVG (https://github.com/iconjar/IJSVG)--><style>.b{fill: #FFE211;}.a{}</style><path d="M18.559,3.932l-1.88439e-07,-2.68072e-09c-2.72912,-0.0388242 -4.97297,2.14209 -5.0118,4.8712c-0.0388242,2.72912 2.14209,4.97297 4.8712,5.0118c0.0468627,0.000666665 0.0937325,0.000666663 0.140595,-5.36146e-09l-2.61868e-07,9.33108e-10c0.376027,-0.00133988 0.750476,-0.0486917 1.115,-0.141l-4.27932e-09,1.05078e-09c0.134088,-0.0329252 0.269479,0.0490834 0.302404,0.183171c0.0153978,0.0627075 0.0059359,0.128941 -0.0264041,0.184829l8.33055e-09,-1.50582e-08c-1.1858,2.14344 -3.42867,3.48771 -5.878,3.523h-5.46392e-08c-0.690356,3.01764e-08 -1.25,0.559644 -1.25,1.25c3.01764e-08,0.690356 0.559644,1.25 1.25,1.25l-3.20019e-07,9.19678e-09c5.34684,-0.153659 9.56242,-4.60264 9.428,-9.95v-1.242l9.57916e-08,7.95557e-05c-0.00326216,-2.72747 -2.21345,-4.93773 -4.94092,-4.94108Z" class="b"></path><path d="M6.236,3.932l-2.4356e-07,3.46489e-09c-2.72912,0.0388244 -4.91003,2.28268 -4.8712,5.0118c0.0380457,2.67437 2.19683,4.83316 4.8712,4.8712l-1.95688e-07,6.5026e-10c0.376032,-0.00124953 0.750493,-0.0486028 1.115,-0.141l-1.58939e-08,3.98394e-09c0.133928,-0.0335702 0.269712,0.0477858 0.303282,0.181714c0.0158288,0.0631489 0.00639972,0.129982 -0.0262822,0.186286l-2.227e-07,4.0255e-07c-1.1858,2.14344 -3.42867,3.48771 -5.878,3.523h-5.46392e-08c-0.690356,3.01764e-08 -1.25,0.559644 -1.25,1.25c3.01764e-08,0.690356 0.559644,1.25 1.25,1.25l5.17798e-08,-1.49338e-09c5.3466,-0.154201 9.56186,-4.60286 9.428,-9.95v-1.242l9.71395e-08,8.06676e-05c-0.00326263,-2.72786 -2.21406,-4.93828 -4.94192,-4.94108Z" class="b"></path></svg>