<svg xmlns="http://www.w3.org/2000/svg" width="64.36" height="66.07999" viewBox="0 0 64.36 66.07999">
  <defs>
    <style>
      .b1811933-c1e4-4ec5-a587-6d00eca9ae68, .b1c12498-9b13-43c2-afd7-8e0e48ab272c {
        fill: #fff;
      }

      .b1811933-c1e4-4ec5-a587-6d00eca9ae68, .b8407b0b-3439-4750-8231-f97dea6d40bb, .bb8167ee-86f5-42a3-92b0-ce92b4d8f3a3 {
        stroke: #4a4a4a;
        stroke-linecap: round;
        stroke-linejoin: round;
      }

      .e8fc93c3-06a5-4865-bb04-75ddf46bddb1 {
        fill: #4a4a4a;
      }

      .a6dc4e27-b891-4ebd-b4d2-670364bf64e7, .b8407b0b-3439-4750-8231-f97dea6d40bb {
        fill: #ffe211;
      }

      .bb8167ee-86f5-42a3-92b0-ce92b4d8f3a3 {
        fill: none;
      }
    </style>
  </defs>
  <title>Asset 14-rea</title>
  <g id="b4846ea8-9952-46b3-991f-020c7bb1943d" data-name="Layer 2">
    <g id="a929c1c4-302a-4a84-a4df-690c981ce011" data-name="Layer 1">
      <g>
        <g>
          <path class="b1811933-c1e4-4ec5-a587-6d00eca9ae68" d="M39.61,24.63l-.42-11.24h-.25a6.91,6.91,0,0,1-13.52,0h-.25l-.42,11.24h0a1.16,1.16,0,0,0,1.11927,1.19935L25.9,25.83H38.46a1.16,1.16,0,0,0,1.15065-1.16927Z"/>
          <path class="b1811933-c1e4-4ec5-a587-6d00eca9ae68" d="M40.23,12.03h0a1.41,1.41,0,0,0-1.15-1.38V9.73h0a6.9,6.9,0,0,0-13.8,0v.92h0a1.41,1.41,0,0,0-1.15,1.38h0a1.43,1.43,0,0,0,1.29,1.41h0a6.91,6.91,0,0,0,13.52,0h0A1.43,1.43,0,0,0,40.23,12.03Z"/>
          <path class="e8fc93c3-06a5-4865-bb04-75ddf46bddb1" d="M29.59,9.73h0a.86.86,0,1,0,.86.86h0A.86.86,0,0,0,29.59,9.73Z"/>
          <path class="e8fc93c3-06a5-4865-bb04-75ddf46bddb1" d="M34.77,9.73h0a.86.86,0,1,0,.86.86h0a.85.85,0,0,0-.83988-.86Q34.78006,9.72988,34.77,9.73Z"/>
          <path class="a6dc4e27-b891-4ebd-b4d2-670364bf64e7" d="M29.0481,12.2819a.86.86,0,1,1-1.21622,0,.86.86,0,0,1,1.21622,0"/>
          <path class="a6dc4e27-b891-4ebd-b4d2-670364bf64e7" d="M36.5281,12.2819a.86.86,0,1,1-1.21622,0,.86.86,0,0,1,1.21622,0"/>
          <path class="bb8167ee-86f5-42a3-92b0-ce92b4d8f3a3" d="M30.45,14.95h0a3.11,3.11,0,0,0,3.46,0"/>
          <path id="a805417a-36f9-4bad-a02b-27d44b3a1973" data-name="a" class="b1c12498-9b13-43c2-afd7-8e0e48ab272c" d="M35.54,1.68h0a1.08,1.08,0,0,0-1,.68h0a2.69,2.69,0,0,1,.47,1.39h0a4.57,4.57,0,0,1-.57,2.46c0,.84,2.52,3.43,4,4.51h0a.57.57,0,0,0,.91-.4l.4-4.07h0a4.14,4.14,0,0,0-4.21-4.57Z"/>
          <path class="bb8167ee-86f5-42a3-92b0-ce92b4d8f3a3" d="M35.54,1.68h0a1.08,1.08,0,0,0-1,.68h0a2.69,2.69,0,0,1,.47,1.39h0a4.57,4.57,0,0,1-.57,2.46c0,.84,2.52,3.43,4,4.51h0a.57.57,0,0,0,.91-.4l.4-4.07h0a4.14,4.14,0,0,0-4.21-4.57Z"/>
          <path id="fcd892e5-2aa8-4a79-aabb-19c9836fbdaa" data-name="b" class="b1c12498-9b13-43c2-afd7-8e0e48ab272c" d="M32.18,1.1h0a2.86,2.86,0,0,1,2.87,2.65c.27,5.93-10.12,7.73-11.29,5.4-.51-1-.08-2.57,1.31-2.4h0a.33.33,0,0,0,.36-.37C25.22,3.19,28.34,1.1,32.18,1.1Z"/>
          <path class="bb8167ee-86f5-42a3-92b0-ce92b4d8f3a3" d="M32.18,1.1h0a2.86,2.86,0,0,1,2.87,2.65c.27,5.93-10.12,7.73-11.29,5.4-.51-1-.08-2.57,1.31-2.4h0a.33.33,0,0,0,.36-.37C25.22,3.19,28.34,1.1,32.18,1.1Z"/>
          <path class="a6dc4e27-b891-4ebd-b4d2-670364bf64e7" d="M52.5093,63.1267c11.2276.67561,11.2276,1.771,0,2.44659s-29.4311.67561-40.6586,0-11.2276-1.771,0-2.44659,29.4311-.6756,40.6586,0"/>
          <path id="bca1f135-4a0d-4212-acb2-6df95192a24a" data-name="c" class="b1c12498-9b13-43c2-afd7-8e0e48ab272c" d="M25.85,42.5l2.31,21.28H36.2L38.51,42.5Z"/>
          <path class="a6dc4e27-b891-4ebd-b4d2-670364bf64e7" d="M36.89,57.45,38.51,42.5H25.85l1.62,14.95Z"/>
          <path class="bb8167ee-86f5-42a3-92b0-ce92b4d8f3a3" d="M32.18,47.1V63.78"/>
          <path class="bb8167ee-86f5-42a3-92b0-ce92b4d8f3a3" d="M27.47,57.45h9.42"/>
          <path class="bb8167ee-86f5-42a3-92b0-ce92b4d8f3a3" d="M25.85,42.5l2.31,21.28H36.2L38.51,42.5Z"/>
          <path class="b1811933-c1e4-4ec5-a587-6d00eca9ae68" d="M38.2,63.78h0a1.16,1.16,0,0,0,1-1.73h0a3.44,3.44,0,0,0-3-1.72h-.52a3.44,3.44,0,0,0-3.45,3.43q0,.01,0,.02Z"/>
          <path class="b1811933-c1e4-4ec5-a587-6d00eca9ae68" d="M32.18,63.78h0a3.44,3.44,0,0,0-3.43-3.45q-.01,0-.02,0h-.57a3.44,3.44,0,0,0-3,1.72h0a1.16,1.16,0,0,0,1,1.73Z"/>
          <path id="b15452ac-7505-49fa-9ac3-6ecbeee31fde" data-name="d" class="b1c12498-9b13-43c2-afd7-8e0e48ab272c" d="M42.53,31.58h0a10.35,10.35,0,0,0-20.7,0v2.3h4v8.65H38.51V33.88h4Z"/>
          <path class="bb8167ee-86f5-42a3-92b0-ce92b4d8f3a3" d="M42.53,31.58h0a10.35,10.35,0,0,0-20.7,0v2.3h4v8.65H38.51V33.88h4Z"/>
          <path class="b1811933-c1e4-4ec5-a587-6d00eca9ae68" d="M32.18,24.68h0a3.45,3.45,0,0,0,3.39-2.87h0a10.2,10.2,0,0,0-6.78,0h0A3.45,3.45,0,0,0,32.18,24.68Z"/>
          <path class="b1811933-c1e4-4ec5-a587-6d00eca9ae68" d="M31.77,40.53l-3.48-.8h0a3.13,3.13,0,0,1-2.44-3.06v-2.8h-4v2.8h0a7.14,7.14,0,0,0,5.56,7l3.47.8h0a1.75,1.75,0,0,0,.46,0h0a2.01262,2.01262,0,1,0,.45-4Z"/>
          <path class="b1811933-c1e4-4ec5-a587-6d00eca9ae68" d="M32.59,40.53l3.48-.8h0a3.13,3.13,0,0,0,2.44-3.06v-2.8h4v2.8h0a7.14,7.14,0,0,1-5.56,7l-3.47.8h0a1.75,1.75,0,0,1-.46,0h0a2.01262,2.01262,0,0,1-.45-4Z"/>
          <path class="bb8167ee-86f5-42a3-92b0-ce92b4d8f3a3" d="M42.53,33.88V31"/>
          <path id="bc566584-f1f3-40df-a49a-b6508d653857" data-name="e" class="a6dc4e27-b891-4ebd-b4d2-670364bf64e7" d="M19.53,41.93v20.6H14.35L13.9,48.21h0a1.85,1.85,0,0,0-3.69,0L9.75,62.53H4.58V41.93Z"/>
          <path class="bb8167ee-86f5-42a3-92b0-ce92b4d8f3a3" d="M19.53,41.93v20.6H14.35L13.9,48.21h0a1.85,1.85,0,0,0-3.69,0L9.75,62.53H4.58V41.93Z"/>
          <path class="b1811933-c1e4-4ec5-a587-6d00eca9ae68" d="M4.31,63.78h0a1.15,1.15,0,0,1-1-1.67h0a3.45,3.45,0,0,1,3-1.78h.58a3.45,3.45,0,0,1,3,1.78h0a1.15,1.15,0,0,1-1,1.67Z"/>
          <path class="b1811933-c1e4-4ec5-a587-6d00eca9ae68" d="M15.24,63.78h0a1.14,1.14,0,0,1-1-1.67h0a3.45,3.45,0,0,1,3-1.78h.57a3.44,3.44,0,0,1,3,1.78h0a1.14,1.14,0,0,1-1,1.67Z"/>
          <path class="b1c12498-9b13-43c2-afd7-8e0e48ab272c" d="M.56,32.73v1.15h4v8h15v-8h4V32.73h0a11.5,11.5,0,0,0-23,0Z"/>
          <path class="bb8167ee-86f5-42a3-92b0-ce92b4d8f3a3" d="M.56,32.73v1.15h4v8h15v-8h4V32.73019a11.49992,11.49992,0,0,0-8.22982-11.0001h0a11.06006,11.06006,0,0,0-3.27-.48h0A11.5,11.5,0,0,0,.56,32.73Z"/>
          <path class="b1811933-c1e4-4ec5-a587-6d00eca9ae68" d="M9.02,21.64c.08.62.53,3,3,3s3.11-2.28,3.27-3h0a11.06006,11.06006,0,0,0-3.27-.48h0A10.9401,10.9401,0,0,0,9.02,21.64Z"/>
          <path class="bb8167ee-86f5-42a3-92b0-ce92b4d8f3a3" d="M4.58,30.43v3.45"/>
          <path class="bb8167ee-86f5-42a3-92b0-ce92b4d8f3a3" d="M19.53,30.43v3.45"/>
          <path class="b1811933-c1e4-4ec5-a587-6d00eca9ae68" d="M20.1,12.03h0a1.4,1.4,0,0,0-1.15-1.38V9.73h0A6.9,6.9,0,0,0,5.16,9.20474q-.01.26253,0,.52526v.92h0a1.4,1.4,0,0,0-1.15,1.38h0A1.43,1.43,0,0,0,5.3,13.44h0a6.9,6.9,0,0,0,13.51,0h0A1.43,1.43,0,0,0,20.1,12.03Z"/>
          <path class="e8fc93c3-06a5-4865-bb04-75ddf46bddb1" d="M9.47,9.73h0a.86.86,0,1,0,.86.86h0A.86.86,0,0,0,9.47,9.73Z"/>
          <path class="e8fc93c3-06a5-4865-bb04-75ddf46bddb1" d="M14.68,9.73h0a.86.86,0,1,0,.87.86v-.00006a.86.86,0,0,0-.86-.86L14.67994,9.73Z"/>
          <path class="a6dc4e27-b891-4ebd-b4d2-670364bf64e7" d="M8.9281,12.2819a.86.86,0,1,1-1.21622,0,.86.86,0,0,1,1.21622,0"/>
          <path class="a6dc4e27-b891-4ebd-b4d2-670364bf64e7" d="M16.3981,12.2819a.86.86,0,1,1-1.21622,0,.86.86,0,0,1,1.21622,0"/>
          <path class="bb8167ee-86f5-42a3-92b0-ce92b4d8f3a3" d="M10.33,14.95h0a3.1,3.1,0,0,0,3.45,0"/>
          <path id="bf5e8c2c-ea68-4020-b619-17b78773653d" data-name="f" class="b1c12498-9b13-43c2-afd7-8e0e48ab272c" d="M19.53,8h0a7.5,7.5,0,0,0-15,0v2.3h0a5.91,5.91,0,0,0,4-3.45C11.83,9.02,16.08,8.58,19.53,8Z"/>
          <path class="bb8167ee-86f5-42a3-92b0-ce92b4d8f3a3" d="M19.53,8h0a7.5,7.5,0,0,0-15,0v2.3h0a5.91,5.91,0,0,0,4-3.45C11.83,9.02,16.08,8.58,19.53,8Z"/>
          <path class="bb8167ee-86f5-42a3-92b0-ce92b4d8f3a3" d="M7.45,5.7h0A3.67,3.67,0,0,0,8.6,6.85"/>
          <path class="b1811933-c1e4-4ec5-a587-6d00eca9ae68" d="M19.53,35.03h0a1.15,1.15,0,0,1-1.15,1.15h-3.7a2,2,0,0,0,0,4h3.7a5.18,5.18,0,0,0,5.18-5.17V33.88h-4Z"/>
          <path class="b1811933-c1e4-4ec5-a587-6d00eca9ae68" d="M4.58,33.88v4.35A4.87,4.87,0,0,0,6.76,42.3l.37.25h0L4.68,45.76l-.18-.11h0a8.91,8.91,0,0,1-4-7.42V33.88Z"/>
          <path class="b1811933-c1e4-4ec5-a587-6d00eca9ae68" d="M44.83,41.93v20.6h5.18l.45-14.32h0a1.85,1.85,0,0,1,3.69,0l.46,14.32h5.17V41.93Z"/>
          <path id="a0561236-81b2-4cdc-a356-5cf778e0fb23" data-name="g" class="a6dc4e27-b891-4ebd-b4d2-670364bf64e7" d="M50.31,52.85l.15-4.6h0a1.85,1.85,0,0,1,3.69,0l.15,4.6h5.48V41.93H44.83V52.85Z"/>
          <path class="bb8167ee-86f5-42a3-92b0-ce92b4d8f3a3" d="M50.31,52.85l.15-4.6h0a1.85,1.85,0,0,1,3.69,0l.15,4.6h5.48V41.93H44.83V52.85Z"/>
          <path class="b8407b0b-3439-4750-8231-f97dea6d40bb" d="M44.76,55.73a.5.5,0,0,1-.5-.5V53.35a.5.5,0,0,1,.5-.5h5.9a.5.5,0,0,1,.5.5v1.88a.5.5,0,0,1-.5.5Z"/>
          <path class="b8407b0b-3439-4750-8231-f97dea6d40bb" d="M53.95,55.73a.5.5,0,0,1-.5-.5V53.35a.5.5,0,0,1,.5-.5h5.9a.5.5,0,0,1,.5.5v1.88a.5.5,0,0,1-.5.5Z"/>
          <path class="b1811933-c1e4-4ec5-a587-6d00eca9ae68" d="M60.05,63.78h0a1.15,1.15,0,0,0,1-1.67h0a3.45,3.45,0,0,0-3-1.78h-.57a3.45005,3.45005,0,0,0-3,1.78h0a1.15,1.15,0,0,0,1,1.67Z"/>
          <path class="b1811933-c1e4-4ec5-a587-6d00eca9ae68" d="M49.12,63.78h0a1.14,1.14,0,0,0,1-1.67h0a3.45,3.45,0,0,0-3-1.78h-.57a3.44,3.44,0,0,0-3,1.78h0a1.14,1.14,0,0,0,1,1.67Z"/>
          <path id="ae9944da-8087-4571-aa5d-27840c67643d" data-name="h" class="b1c12498-9b13-43c2-afd7-8e0e48ab272c" d="M63.8,32.73v1.15h-4v8H44.83v-8h-4V32.73h0a11.5,11.5,0,0,1,23,0H63.8Z"/>
          <path class="bb8167ee-86f5-42a3-92b0-ce92b4d8f3a3" d="M63.8,32.73v1.15h-4v8H44.83v-8h-4V32.73h0a11.5,11.5,0,0,1,23,0H63.8Z"/>
          <path class="b1811933-c1e4-4ec5-a587-6d00eca9ae68" d="M55.34,21.64c-.08.62-.53,3-3,3s-3.11-2.28-3.27-3h0a11.06,11.06,0,0,1,3.27-.48h0A10.94,10.94,0,0,1,55.34,21.64Z"/>
          <path class="bb8167ee-86f5-42a3-92b0-ce92b4d8f3a3" d="M59.78,30.43v3.45"/>
          <path class="bb8167ee-86f5-42a3-92b0-ce92b4d8f3a3" d="M44.83,30.43v3.45"/>
          <path class="b1811933-c1e4-4ec5-a587-6d00eca9ae68" d="M44.83,35.03h0a1.15,1.15,0,0,0,1.15,1.15h3.7a2,2,0,0,1,0,4h-3.7a5.18,5.18,0,0,1-5.18-5.17V33.88h4Z"/>
          <path class="b1811933-c1e4-4ec5-a587-6d00eca9ae68" d="M44.26,12.03h0a1.4,1.4,0,0,1,1.15-1.38V9.73h0A6.9,6.9,0,0,1,59.2,9.20474q.01.26253,0,.52526v.92h0a1.4,1.4,0,0,1,1.15,1.38h0a1.43,1.43,0,0,1-1.29,1.41h0a6.9,6.9,0,0,1-13.51,0h0A1.43,1.43,0,0,1,44.26,12.03Z"/>
          <path class="e8fc93c3-06a5-4865-bb04-75ddf46bddb1" d="M54.89,9.73h0a.86.86,0,1,0,.87.86v-.00006a.86.86,0,0,0-.86-.86l-.01.00006Z"/>
          <path class="e8fc93c3-06a5-4865-bb04-75ddf46bddb1" d="M49.68,9.73h0a.86.86,0,1,0,.86.86h0A.86.86,0,0,0,49.68,9.73Z"/>
          <path class="a6dc4e27-b891-4ebd-b4d2-670364bf64e7" d="M56.6481,12.2819a.86.86,0,1,1-1.21622,0,.86.86,0,0,1,1.21622,0"/>
          <path class="a6dc4e27-b891-4ebd-b4d2-670364bf64e7" d="M49.1781,12.2819a.86.86,0,1,1-1.21622,0,.86.86,0,0,1,1.21622,0"/>
          <path class="bb8167ee-86f5-42a3-92b0-ce92b4d8f3a3" d="M50.58,14.95h0a3.1,3.1,0,0,0,3.45,0"/>
          <path class="b1811933-c1e4-4ec5-a587-6d00eca9ae68" d="M52.3,2.83h0a6.89,6.89,0,0,1,6.9,6.88q0,.01,0,.02v.63h0a1.92,1.92,0,0,1-1.89-1.91h0a1.36,1.36,0,0,0-1.54509-1.14538Q55.72223,7.311,55.68,7.32h0a17.22016,17.22016,0,0,1-6.81,0h0a1.36,1.36,0,0,0-1.59141,1.0801L47.27,8.45h0a1.92,1.92,0,0,1-1.89,1.91V9.73A6.89,6.89,0,0,1,52.25991,2.83q.02,0,.04007.00006Z"/>
          <path id="a506b02f-3b9a-449c-b94f-0848ea931445" data-name="i" class="b1c12498-9b13-43c2-afd7-8e0e48ab272c" d="M61.24,8.72h0a3.45,3.45,0,0,1-2.4672,4.20927L58.77,12.93l-1.79.46h0a.23.23,0,0,1-.26-.1h0a.24.24,0,0,1,0-.28h0a2.79,2.79,0,0,0,.73-2.72h0a1.23,1.23,0,0,0-1.49-.8h0A4,4,0,0,1,51.01,5.2h0a3.92,3.92,0,0,1,3-3.52h0a5.17,5.17,0,0,1,6.30883,3.69548L60.32,5.38Z"/>
          <path class="bb8167ee-86f5-42a3-92b0-ce92b4d8f3a3" d="M61.24,8.72h0a3.45,3.45,0,0,1-2.4672,4.20927L58.77,12.93l-1.79.46h0a.23.23,0,0,1-.26-.1h0a.24.24,0,0,1,0-.28h0a2.79,2.79,0,0,0,.73-2.72h0a1.23,1.23,0,0,0-1.49-.8h0A4,4,0,0,1,51.01,5.2h0a3.92,3.92,0,0,1,3-3.52h0a5.17,5.17,0,0,1,6.30883,3.69548L60.32,5.38Z"/>
          <path class="bb8167ee-86f5-42a3-92b0-ce92b4d8f3a3" d="M60.68,6.53h0a1.73,1.73,0,0,0,2.10891,1.24028L62.79,7.77"/>
          <path class="b1811933-c1e4-4ec5-a587-6d00eca9ae68" d="M59.78,33.88v4.35A4.87,4.87,0,0,1,57.6,42.3l-.37.25h0l2.45,3.21.18-.11h0a8.91,8.91,0,0,0,4-7.42V33.88Z"/>
          <path class="bb8167ee-86f5-42a3-92b0-ce92b4d8f3a3" d="M38.51,33.88V30.43"/>
          <path class="bb8167ee-86f5-42a3-92b0-ce92b4d8f3a3" d="M25.85,33.88V30.43"/>
        </g>
        <path class="a6dc4e27-b891-4ebd-b4d2-670364bf64e7" d="M13.85488,26.7437H9.95576L8.02065,30.06518l1.93511,3.32147h3.89912L15.79,30.06518Zm-1.9351,4.70783a1.35748,1.35748,0,1,1,1.35746-1.35748A1.35587,1.35587,0,0,1,11.91978,31.45153Z"/>
        <path class="a6dc4e27-b891-4ebd-b4d2-670364bf64e7" d="M54.27956,26.7437H50.38044l-1.93511,3.32148,1.93511,3.32147h3.89912l1.93511-3.32147Zm-1.9351,4.70783a1.35748,1.35748,0,1,1,1.35746-1.35748A1.35587,1.35587,0,0,1,52.34446,31.45153Z"/>
        <g>
          <path class="a6dc4e27-b891-4ebd-b4d2-670364bf64e7" d="M34.83737,29.99516H33.39362L32.661,31.22343l.73264,1.22828h1.44375L35.57,31.22343Zm-.71112,1.6377a.51717.51717,0,1,1,.51715-.51717A.52435.52435,0,0,1,34.12625,31.63286Z"/>
          <path class="a6dc4e27-b891-4ebd-b4d2-670364bf64e7" d="M31.75589,27.02144H29.83808L28.89,28.74533l.94812,1.72389h1.91781l.94813-1.72389Zm-.94812,2.41345a.668.668,0,1,1,.668-.668A.6714.6714,0,0,1,30.80777,29.43489Z"/>
        </g>
      </g>
    </g>
  </g>
</svg>
