<?xml version="1.0" encoding="UTF-8"?><svg version="1.1" viewBox="0 0 24 24" xmlns="http://www.w3.org/2000/svg" xmlns:xlink="http://www.w3.org/1999/xlink" class="a"><!--Generated by IJSVG (https://github.com/iconjar/IJSVG)--><style>.b{fill: #3A3A3A;}.a{}</style><path d="M23.773,16.23l-3.21,-5.54l-2.50737e-08,-3.90809e-08c-0.275969,-0.430136 -0.751946,-0.690171 -1.263,-0.69h-2.78l-5.46094e-09,-1.61826e-12c-0.17786,-5.27017e-05 -0.342359,0.0943818 -0.432,0.248l-1.845,3.162l-0.37,0.64l-1.28482e-07,2.03786e-07c-0.351678,0.557797 -0.86924,0.99143 -1.48,1.24l2.18634e-08,-8.87739e-09c-0.346124,0.14054 -0.716436,0.211884 -1.09,0.21h-2.371l-1.56597e-08,3.97904e-13c-0.178628,4.54346e-06 -0.343686,0.0953034 -0.433,0.25l-0.266,0.46l-5.97754e-08,9.46288e-08c-0.308135,0.4878 -0.312013,1.10839 -0.00999988,1.6l3.21,5.5l-4.80551e-08,-7.55698e-08c0.273942,0.430792 0.749485,0.691209 1.26,0.69h6.607l4.9777e-08,-1.69685e-10c0.517461,-0.00176396 0.997472,-0.270117 1.27,-0.71l3.19,-5.46l1.85521e-08,-2.92472e-08c0.309058,-0.487227 0.3141,-1.10782 0.0129999,-1.6Zm-7.78,-2.23l-1.31134e-07,3.55271e-15c1.65685,-7.24234e-08 3,1.34315 3,3c7.24234e-08,1.65685 -1.34315,3 -3,3c-1.65685,7.24234e-08 -3,-1.34315 -3,-3l3.01981e-14,3.21853e-07c-2.50178e-07,-1.65685 1.34315,-3 3,-3c4.06383e-08,-5.32907e-15 9.04959e-08,-1.24345e-14 1.31134e-07,-1.59872e-14Z" class="b"></path><path d="M15.777,6.23l-3.21,-5.54l-2.95356e-09,-4.60355e-09c-0.275393,-0.42924 -0.750012,-0.68915 -1.26,-0.69h-6.607l7.11249e-08,-3.07754e-11c-0.517864,0.000224056 -0.998573,0.268967 -1.27,0.71l-3.193,5.5l-5.97754e-08,9.46288e-08c-0.308135,0.4878 -0.312013,1.10839 -0.00999988,1.6l3.21,5.5l2.65343e-08,4.17276e-08c0.274512,0.431696 0.751421,0.69224 1.263,0.69h6.61l4.9777e-08,-1.69683e-10c0.517461,-0.00176396 0.997472,-0.270117 1.27,-0.71l3.19,-5.46l1.03001e-08,-1.6374e-08c0.307213,-0.488373 0.309928,-1.10896 0.0069999,-1.6Zm-7.777,3.77l-1.31134e-07,-3.55271e-15c-1.65685,-7.24234e-08 -3,-1.34315 -3,-3c7.24234e-08,-1.65685 1.34315,-3 3,-3c1.65685,7.24234e-08 3,1.34315 3,3l-3.13447e-08,1.04889e-05c-0.00494804,1.6548 -1.34521,2.99505 -3.00001,2.99999Z" class="b"></path></svg>