<svg xmlns="http://www.w3.org/2000/svg" xmlns:xlink="http://www.w3.org/1999/xlink" width="72.5913" height="64.3481" viewBox="0 0 72.5913 64.3481">
  <defs>
    <style>
      .a3189e41-646e-486e-9055-4164a3fc6510, .add31583-9863-4b03-9799-edf86be48a11, .b2dd4369-7c77-4618-be68-1c61e8b31011, .bef1f21c-68ad-44c4-aa21-b02f377d8cec {
        fill: #fff;
      }

      .acb7f8c8-a2d4-4665-9af7-87919ba2b7e2, .f3e55998-1bcc-42b2-953e-6ebbc1171853 {
        fill: #ffe211;
      }

      .a3189e41-646e-486e-9055-4164a3fc6510, .ac753ecf-8f33-4ebd-99e8-eda6e1e55a4f, .acb7f8c8-a2d4-4665-9af7-87919ba2b7e2, .add31583-9863-4b03-9799-edf86be48a11, .bef1f21c-68ad-44c4-aa21-b02f377d8cec, .e285ebc8-3e6f-4f25-a168-62077d0aeb48, .e694866e-ab0c-423f-868d-2f29b4b70b58, .f5f89050-f1e0-4517-a688-4f574622a6c2 {
        stroke: #4a4a4a;
      }

      .a3189e41-646e-486e-9055-4164a3fc6510, .ac753ecf-8f33-4ebd-99e8-eda6e1e55a4f, .acb7f8c8-a2d4-4665-9af7-87919ba2b7e2, .bef1f21c-68ad-44c4-aa21-b02f377d8cec, .f5f89050-f1e0-4517-a688-4f574622a6c2, .f6a52596-11f7-4734-a260-1ae63099ad8f {
        stroke-linecap: round;
      }

      .a3189e41-646e-486e-9055-4164a3fc6510, .ac753ecf-8f33-4ebd-99e8-eda6e1e55a4f, .acb7f8c8-a2d4-4665-9af7-87919ba2b7e2, .bef1f21c-68ad-44c4-aa21-b02f377d8cec, .e285ebc8-3e6f-4f25-a168-62077d0aeb48, .e694866e-ab0c-423f-868d-2f29b4b70b58, .f5f89050-f1e0-4517-a688-4f574622a6c2, .f6a52596-11f7-4734-a260-1ae63099ad8f {
        stroke-linejoin: round;
      }

      .ac753ecf-8f33-4ebd-99e8-eda6e1e55a4f, .e285ebc8-3e6f-4f25-a168-62077d0aeb48, .e694866e-ab0c-423f-868d-2f29b4b70b58, .f5f89050-f1e0-4517-a688-4f574622a6c2, .f6a52596-11f7-4734-a260-1ae63099ad8f {
        fill: none;
      }

      .ad9e271f-11f2-487b-9585-e70602100741 {
        mask: url(#ef2efba2-1c9c-4760-b870-64435066e420);
      }

      .f6a52596-11f7-4734-a260-1ae63099ad8f {
        stroke: #2dba69;
      }
    </style>
    <mask id="ef2efba2-1c9c-4760-b870-64435066e420" x="-6.28035" y="-7.9971" width="80" height="80" maskUnits="userSpaceOnUse">
      <g id="eb87229d-b076-4f96-85c9-55d4bf96bfeb" data-name="a">
        <path id="a3319c33-ef6e-4731-a637-446e72868fc5" data-name="b" class="b2dd4369-7c77-4618-be68-1c61e8b31011" d="M62.0039,3.71865a40,40,0,1,1-56.5685,0,39.9999,39.9999,0,0,1,56.5685,0"/>
      </g>
    </mask>
  </defs>
  <title>Asset 13-rea</title>
  <g id="b17e9c61-dde2-4c08-80e1-3f64a27416bd" data-name="Layer 2">
    <g id="b43d141e-ec2e-48bc-a9c5-f964308e6d03" data-name="Layer 1">
      <g>
        <g>
          <path class="f3e55998-1bcc-42b2-953e-6ebbc1171853" d="M39.5696,7.783l4.65-4.66h0a1.2,1.2,0,0,1,1.697-.00295l.00294.00295,18.68,18.66h0A1.2,1.2,0,0,1,64.60253,23.48l-.00294.00295-4.66,4.67h0a1.2,1.2,0,0,1-1.69706.00294l-.00294-.00294-18.67-18.67h0a1.2,1.2,0,0,1-.00294-1.697Z"/>
          <path class="f3e55998-1bcc-42b2-953e-6ebbc1171853" d="M22.1693,5.55325a7,7,0,1,1-9.89949,0,7,7,0,0,1,9.89949,0"/>
          <path class="a3189e41-646e-486e-9055-4164a3fc6510" d="M11.6396,14.92294h0a1.49,1.49,0,0,1-2.10714.01286l-.01286-.01286h0a1.51,1.51,0,0,1,0-2.12l2.48-2.47,2.12,2.12Z"/>
          <path class="a3189e41-646e-486e-9055-4164a3fc6510" d="M12.3496,12.10294h0a6.5,6.5,0,1,0,0-9.2h0A6.51,6.51,0,0,0,12.3496,12.10294Z"/>
          <path id="f7b524f2-fce0-4403-aaf7-60e1bdf56d52" data-name="c" class="f3e55998-1bcc-42b2-953e-6ebbc1171853" d="M20.1316,4.321a4.5,4.5,0,1,1-6.364,0,4.5,4.5,0,0,1,6.364,0"/>
          <path class="ac753ecf-8f33-4ebd-99e8-eda6e1e55a4f" d="M20.1316,4.321a4.5,4.5,0,1,1-6.364,0,4.5,4.5,0,0,1,6.364,0"/>
          <path class="f3e55998-1bcc-42b2-953e-6ebbc1171853" d="M20.7196,60.003a2,2,0,0,1-2-2v-36a2,2,0,0,1,2-2h26.5a2,2,0,0,1,2,2v36a2,2,0,0,1-2,2Z"/>
          <path class="acb7f8c8-a2d4-4665-9af7-87919ba2b7e2" d="M18.7196,58.003a2,2,0,0,1-2-2v-36a2,2,0,0,1,2-2h26.5a2,2,0,0,1,2,2v36a2,2,0,0,1-2,2Z"/>
          <path class="a3189e41-646e-486e-9055-4164a3fc6510" d="M19.7196,56.003a1,1,0,0,1-1-1v-34a1,1,0,0,1,1-1h24.5a1,1,0,0,1,1,1v34a1,1,0,0,1-1,1Z"/>
          <path id="b319de6b-7c44-4c0c-bb2c-af9fe5ccf084" data-name="d" class="b2dd4369-7c77-4618-be68-1c61e8b31011" d="M39.5696,5.523l4.65-4.67h0a1.2,1.2,0,0,1,1.697-.003l.00294.003,18.68,18.67h0a1.2,1.2,0,0,1,.00294,1.697l-.00294.003-4.66,4.66h0a1.2,1.2,0,0,1-1.69706.00294l-.00294-.00294-18.67-18.66h0a1.2,1.2,0,0,1-.00294-1.697Z"/>
          <path class="ac753ecf-8f33-4ebd-99e8-eda6e1e55a4f" d="M39.5696,5.523l4.65-4.67h0a1.2,1.2,0,0,1,1.697-.003l.00294.003,18.68,18.67h0a1.2,1.2,0,0,1,.00294,1.697l-.00294.003-4.66,4.66h0a1.2,1.2,0,0,1-1.69706.00294l-.00294-.00294-18.67-18.66h0a1.2,1.2,0,0,1-.00294-1.697Z"/>
          <path class="ac753ecf-8f33-4ebd-99e8-eda6e1e55a4f" d="M62.9096,17.823l-2.55,2.55"/>
          <path class="ac753ecf-8f33-4ebd-99e8-eda6e1e55a4f" d="M60.3596,15.28294l-2.12,2.12"/>
          <path class="ac753ecf-8f33-4ebd-99e8-eda6e1e55a4f" d="M57.8096,12.733l-2.54,2.55"/>
          <path class="ac753ecf-8f33-4ebd-99e8-eda6e1e55a4f" d="M55.2696,10.19294l-2.12,2.12"/>
          <path class="ac753ecf-8f33-4ebd-99e8-eda6e1e55a4f" d="M52.7196,7.643l-2.54,2.55"/>
          <path class="ac753ecf-8f33-4ebd-99e8-eda6e1e55a4f" d="M50.1796,5.093l-2.12,2.13"/>
          <path class="ac753ecf-8f33-4ebd-99e8-eda6e1e55a4f" d="M47.6296,2.553l-2.54,2.54"/>
          <path class="f3e55998-1bcc-42b2-953e-6ebbc1171853" d="M12.2196,33.273l1.42,4.27h0a1,1,0,0,1-.63,1.26l-9.47,3.2h0a1,1,0,0,1-1.26-.63l-1.73-5.23h0a1,1,0,0,1,.59143-1.2846q.03875-.01431.07857-.02539l8.5-2.83h0A2,2,0,0,1,12.2196,33.273Z"/>
          <path class="a3189e41-646e-486e-9055-4164a3fc6510" d="M12.2196,31.163l1.42,4.27h0a1,1,0,0,1-.62536,1.26844l-.00464.00156-9.5,3.14h0a1,1,0,0,1-1.26-.63l-1.7-5.21h0a1,1,0,0,1,.64047-1.26087L1.2196,32.733l8.54-2.84h0A2,2,0,0,1,12.2196,31.163Z"/>
          <path id="bfec0848-9a9a-473d-83c6-ce43e569321d" data-name="e" class="f3e55998-1bcc-42b2-953e-6ebbc1171853" d="M7.8296,30.523l2.39,7.12-6.65,2.2h0a1,1,0,0,1-1.26-.63l-1.76-5.21h0a1,1,0,0,1,.64048-1.26088l.02952-.00913Z"/>
          <path class="ac753ecf-8f33-4ebd-99e8-eda6e1e55a4f" d="M7.8296,30.523l2.39,7.12-6.65,2.2h0a1,1,0,0,1-1.26-.63l-1.76-5.21h0a1,1,0,0,1,.64048-1.26088l.02952-.00913Z"/>
          <g class="ad9e271f-11f2-487b-9585-e70602100741">
            <g>
              <path class="add31583-9863-4b03-9799-edf86be48a11" d="M48.7996,44.193h0a1.69,1.69,0,0,1,1.34478,1.97579l-.00478.02421-1,5.41h0a1.70658,1.70658,0,1,1-3.36-.6l1-5.41h0A1.69,1.69,0,0,1,48.704,44.17561Q48.75205,44.1829,48.7996,44.193Z"/>
              <path class="add31583-9863-4b03-9799-edf86be48a11" d="M47.1296,43.433h0a1.71,1.71,0,0,1,.39,2.37l-2.53,3.63h0a1.70018,1.70018,0,1,1-2.75-2l2.53-3.63h0A1.69,1.69,0,0,1,47.1296,43.433Z"/>
              <path id="bcb3b63f-7589-4714-ae1a-319ef21967e8" data-name="f" class="b2dd4369-7c77-4618-be68-1c61e8b31011" d="M51.9496,51.543h0a14.24986,14.24986,0,0,1,5.06,3.89l1.49,1.72,8.37-6.38-1.5-1.61c-2.29-2.16-2.15-6.72-6.36-9.73-5.38-3.8-12.62-4-20,2.95h0a1.7,1.7,0,0,0,2.33,2.47c.48-.46,1-.89,1.45-1.28h0a23.24877,23.24877,0,0,1,2.93-2h0a9.47,9.47,0,0,1,7.12-1.13c1.9.51,2.12,2.29,1.33,3.18h0a3.76,3.76,0,0,1-4.8.25l-3.65-2.3h0a23.24877,23.24877,0,0,0-2.93,2h0a1.72,1.72,0,0,0,.48.45C49.2196,49.88294,50.4296,50.69294,51.9496,51.543Z"/>
              <path class="e285ebc8-3e6f-4f25-a168-62077d0aeb48" d="M54.2196,43.623h0a3.76,3.76,0,0,1-4.8.25l-3.65-2.3h0a9.47,9.47,0,0,1,7.12-1.13C54.76959,41.003,54.9896,42.733,54.2196,43.623Z"/>
              <path class="ac753ecf-8f33-4ebd-99e8-eda6e1e55a4f" d="M51.9496,51.543h0a14.24986,14.24986,0,0,1,5.06,3.89l1.49,1.72,8.37-6.38-1.5-1.61c-2.29-2.16-2.15-6.72-6.36-9.73-5.38-3.8-12.62-4-20,2.95h0a1.7,1.7,0,0,0,2.33,2.47c.48-.46,1-.89,1.45-1.28h0a23.24877,23.24877,0,0,1,2.93-2h0a9.47,9.47,0,0,1,7.12-1.13c1.9.51,2.12,2.29,1.33,3.18h0a3.76,3.76,0,0,1-4.8.25l-3.65-2.3h0a23.24877,23.24877,0,0,0-2.93,2h0a1.72,1.72,0,0,0,.48.45C49.2196,49.88294,50.4296,50.69294,51.9496,51.543Z"/>
              <path id="a11d26ed-9a2b-4c11-af75-56a5bceeb7a0" data-name="g" class="b2dd4369-7c77-4618-be68-1c61e8b31011" d="M42.6396,47.553l-1.45-3.8,19.49-7.34,1.45,3.79Z"/>
              <path id="e7c11bec-bd1a-4c83-93e3-d7ad5ba0b3ab" data-name="h" class="b2dd4369-7c77-4618-be68-1c61e8b31011" d="M41.2196,43.753c-.1,0-4,3.72-4,3.72l5.47.08Z"/>
              <path class="ac753ecf-8f33-4ebd-99e8-eda6e1e55a4f" d="M42.6396,47.553l-1.45-3.8,19.49-7.34,1.45,3.79Z"/>
              <g>
                <path id="fa395da1-94f3-43af-a559-a6c9c57e070f" data-name="i" class="f3e55998-1bcc-42b2-953e-6ebbc1171853" d="M62.56971,35.67826l1.453,3.79109-1.89555.7265-1.453-3.7911Z"/>
                <path class="f5f89050-f1e0-4517-a688-4f574622a6c2" d="M62.56971,35.67826l1.453,3.79109-1.89555.7265-1.453-3.7911Z"/>
              </g>
              <path id="e76d0abd-47de-4344-8f27-b4b61b01731b" data-name="j" class="b2dd4369-7c77-4618-be68-1c61e8b31011" d="M65.4496,38.933h0a2.029,2.029,0,0,0-1.45-3.79l-1.42.54,1.45,3.8Z"/>
              <path class="ac753ecf-8f33-4ebd-99e8-eda6e1e55a4f" d="M65.4496,38.933h0a2.029,2.029,0,0,0-1.45-3.79l-1.42.54,1.45,3.8Z"/>
              <path class="ac753ecf-8f33-4ebd-99e8-eda6e1e55a4f" d="M37.1696,47.473l-.95.36"/>
              <path class="ac753ecf-8f33-4ebd-99e8-eda6e1e55a4f" d="M41.2196,43.753c-.1,0-4,3.72-4,3.72l5.47.08Z"/>
              <g>
                <path id="bc1f45b0-d7a0-4ab6-8194-90f73440388d" data-name="k" class="f3e55998-1bcc-42b2-953e-6ebbc1171853" d="M71.88662,55.49573a1,1,0,0,1-.18924,1.4015l-8.85245,6.74619a1,1,0,0,1-1.40149-.18924L57.9279,58.841a1,1,0,0,1,.18924-1.40149l8.85244-6.74619a1,1,0,0,1,1.4015.18924Z"/>
                <path class="e694866e-ab0c-423f-868d-2f29b4b70b58" d="M71.88662,55.49573a1,1,0,0,1-.18924,1.4015l-8.85245,6.74619a1,1,0,0,1-1.40149-.18924L57.9279,58.841a1,1,0,0,1,.18924-1.40149l8.85244-6.74619a1,1,0,0,1,1.4015.18924Z"/>
              </g>
              <path class="bef1f21c-68ad-44c4-aa21-b02f377d8cec" d="M66.15737,49.37624l.93323,1.225-9.09226,6.92644-.93322-1.225h0a1,1,0,0,1,.18948-1.40146h0l7.50131-5.71447h0A1,1,0,0,1,66.15737,49.37624Z"/>
              <path id="b3cb72dc-469a-4506-bf21-fcfb41d65535" data-name="l" class="b2dd4369-7c77-4618-be68-1c61e8b31011" d="M54.2196,43.623h0a3.76,3.76,0,0,1-4.8.25l-4.3-2.72h0a1.7,1.7,0,1,0-1.83,2.85c5.9,5.86,7.14,6.67,8.66,7.52"/>
              <path class="ac753ecf-8f33-4ebd-99e8-eda6e1e55a4f" d="M54.2196,43.623h0a3.76,3.76,0,0,1-4.8.25l-4.3-2.72h0a1.7,1.7,0,1,0-1.83,2.85c5.9,5.86,7.14,6.67,8.66,7.52"/>
              <path class="ac753ecf-8f33-4ebd-99e8-eda6e1e55a4f" d="M54.2196,43.623h0a3.76,3.76,0,0,1-4.8.25l-4.3-2.72h0a1.7,1.7,0,1,0-1.83,2.85c5.9,5.86,7.14,6.67,8.66,7.52"/>
            </g>
          </g>
        </g>
        <g>
          <path class="f3e55998-1bcc-42b2-953e-6ebbc1171853" d="M32.17863,36.25414H26.402L23.5351,41.175,26.402,46.0958h5.77663l2.8669-4.92083Zm-2.8669,6.97474a2.01113,2.01113,0,1,1,2.01111-2.01113A2.00876,2.00876,0,0,1,29.31173,43.22888Z"/>
          <path class="f3e55998-1bcc-42b2-953e-6ebbc1171853" d="M38.59711,33.30164h-2.8669l-1.45481,2.439,1.45481,2.439h2.8669l1.45482-2.439Zm-1.41208,3.252a1.027,1.027,0,1,1,1.02691-1.02695A1.0412,1.0412,0,0,1,37.185,36.55367Z"/>
          <path class="f3e55998-1bcc-42b2-953e-6ebbc1171853" d="M32.47814,27.39663H28.66989l-1.88272,3.42319L28.66989,34.243h3.80825l1.88271-3.42319ZM30.59543,32.1891A1.32649,1.32649,0,1,1,31.922,30.86261,1.33321,1.33321,0,0,1,30.59543,32.1891Z"/>
        </g>
        <path class="f6a52596-11f7-4734-a260-1ae63099ad8f" d="M33.06441,35.926c-4.40827.316-7.51588,3.67413-7.43738,7.03374a6.42213,6.42213,0,0,0,4.20869,5.76537,6.69833,6.69833,0,0,0,5.41946-.63422"/>
      </g>
    </g>
  </g>
</svg>
