<?xml version="1.0" encoding="UTF-8"?><svg version="1.1" viewBox="0 0 24 24" xmlns="http://www.w3.org/2000/svg" xmlns:xlink="http://www.w3.org/1999/xlink" class="a"><!--Generated by IJSVG (https://github.com/iconjar/IJSVG)--><style>.b{fill: #3A3A3A;}.c{fill: none;}.a{}</style><path d="M16.2426,7.75736c2.34315,2.34315 2.34315,6.14214 0,8.48528c-2.34315,2.34315 -6.14214,2.34315 -8.48528,0c-2.34315,-2.34315 -2.34315,-6.14214 -1.77636e-15,-8.48528c2.34315,-2.34315 6.14214,-2.34315 8.48528,-1.77636e-15" class="b"></path><path d="M4,1.051c-0.353,0.051 -0.688,0.151 -1,0.301v7.148h1v-7.449Z" class="b"></path><path d="M6,8.422v-7.422h-1v7.5h0.947c0.016,-0.027 0.036,-0.052 0.053,-0.078Z" class="b"></path><path d="M23,18.848v-10.348v-3.348v-0.652c0,-1.93 -1.57,-3.5 -3.5,-3.5h-12.5v6.119c1.271,-1.304 3.04,-2.119 5,-2.119c2.584,0 4.84,1.411 6.053,3.5h3.947v10.348c0,1.738 -1.414,3.152 -3.152,3.152h-13.696c-1.738,0 -3.152,-1.414 -3.152,-3.152v-10.348v-3.348v-3.094c-0.617,0.632 -1,1.492 -1,2.442v0.652v3.348v10.348c0,2.289 1.863,4.152 4.152,4.152h13.695c2.29,0 4.153,-1.863 4.153,-4.152Zm-1.5,-11.848h-3c-0.276,0 -0.5,-0.224 -0.5,-0.5v-3c0,-0.276 0.224,-0.5 0.5,-0.5h3c0.276,0 0.5,0.224 0.5,0.5v1.652v1.348c0,0.276 -0.224,0.5 -0.5,0.5Z" class="b"></path><path d="M0,0h24v24h-24Z" class="c"></path></svg>