<?xml version="1.0" encoding="UTF-8"?><svg version="1.1" viewBox="0 0 24 24" xmlns="http://www.w3.org/2000/svg" xmlns:xlink="http://www.w3.org/1999/xlink" class="a"><!--Generated by IJSVG (https://github.com/iconjar/IJSVG)--><style>.b{fill: #FFE211;}.a{}</style><path d="M9.928,3.932l2.64294e-08,-7.56957e-10c-5.34628,0.153121 -9.56185,4.6012 -9.428,9.948v1.243l-1.01153e-07,0.000999153c-4.12127e-07,2.72939 2.21261,4.942 4.942,4.942c2.72939,4.12127e-07 4.942,-2.21261 4.942,-4.942c4.12127e-07,-2.72939 -2.21261,-4.942 -4.942,-4.942c-0.000666599,-1.00654e-10 -0.0013332,1.3467e-07 -0.0019998,4.04311e-07l-2.49057e-07,6.70997e-10c-0.375985,0.00101297 -0.750434,0.0480289 -1.115,0.14l2.3602e-08,-5.91606e-09c-0.133928,0.0335702 -0.269712,-0.0477858 -0.303282,-0.181714c-0.0158288,-0.0631489 -0.00639973,-0.129982 0.0262822,-0.186286l-2.20372e-07,3.98019e-07c1.18672,-2.14337 3.43028,-3.48721 5.88,-3.522l-5.46392e-08,-1.77636e-15c0.690356,3.01764e-08 1.25,-0.559644 1.25,-1.25c3.01764e-08,-0.690356 -0.559644,-1.25 -1.25,-1.25Z" class="b"></path><path d="M22.25,6.432l-5.46392e-08,-1.77636e-15c0.690356,3.01764e-08 1.25,-0.559644 1.25,-1.25c3.01764e-08,-0.690356 -0.559644,-1.25 -1.25,-1.25l-2.48606e-07,7.14581e-09c-5.34604,0.153664 -9.5613,4.60142 -9.428,9.948v1.243l-1.01174e-07,0.000999254c-4.12127e-07,2.72939 2.21261,4.942 4.942,4.942c2.72939,4.12127e-07 4.942,-2.21261 4.942,-4.942c4.12127e-07,-2.72939 -2.21261,-4.942 -4.942,-4.942c-0.0003333,-5.03277e-11 -0.000666599,3.36171e-08 -0.000999899,1.01002e-07l-2.65202e-08,6.70504e-11c-0.376319,0.000951424 -0.751106,0.0479677 -1.116,0.14l1.3865e-08,-3.4936e-09c-0.0972867,0.0245137 -0.199782,-0.0117539 -0.26,-0.092l4.95664e-10,6.62576e-10c-0.0601444,-0.0803981 -0.0668231,-0.188829 -0.017,-0.276l-2.13429e-07,3.85479e-07c1.18672,-2.14337 3.43028,-3.48721 5.88,-3.522Z" class="b"></path></svg>