<svg xmlns="http://www.w3.org/2000/svg" width="31.375" height="31.64627" viewBox="0 0 31.375 31.64627">
  <defs>
    <style>
      .e96efc88-5f24-4588-88ec-f4a32ce84004 {
        fill: #ffe211;
      }

      .a70fda87-79eb-4194-8f64-b7429e766e4a, .b344f379-30a1-4256-8c32-2c2977c9b602, .e96efc88-5f24-4588-88ec-f4a32ce84004 {
        stroke: #2a2a2a;
        stroke-linecap: round;
        stroke-linejoin: round;
      }

      .a70fda87-79eb-4194-8f64-b7429e766e4a {
        fill: #fff;
      }

      .b344f379-30a1-4256-8c32-2c2977c9b602 {
        fill: none;
      }
    </style>
  </defs>
  <title>Asset 20-rea</title>
  <g id="bc88c43a-3cce-4c10-9ca0-298b6c36183d" data-name="Layer 2">
    <g id="a4e0ad72-dff2-488c-a8d5-d10baa50af33" data-name="Layer 1">
      <g>
        <g>
          <path class="e96efc88-5f24-4588-88ec-f4a32ce84004" d="M20.5,12.14627h0a1,1,0,0,0-1-1H1.5a1,1,0,0,0-1,1h0v18h0a1,1,0,0,0,1,1h18a1,1,0,0,0,1-1Z"/>
          <path class="a70fda87-79eb-4194-8f64-b7429e766e4a" d="M18,27.14627l-2.657-7.089h0a.5.5,0,0,0-.884-.1L11,25.14627l-2.049-2.459h0a.5.5,0,0,0-.813.063L5.5,27.14627"/>
          <path class="a70fda87-79eb-4194-8f64-b7429e766e4a" d="M8.0607,15.58261a1.5,1.5,0,1,1-2.12132,0,1.5,1.5,0,0,1,2.12132,0"/>
          <path class="b344f379-30a1-4256-8c32-2c2977c9b602" d="M20.5,27.14627H.5"/>
        </g>
        <g>
          <path class="a70fda87-79eb-4194-8f64-b7429e766e4a" d="M29.875,23.5h0a1,1,0,0,0,1-1V6.475h0A5.975,5.975,0,0,0,24.9.5H12.875a1,1,0,0,0-1,1h0v21h0a1,1,0,0,0,1,1Z"/>
          <path class="e96efc88-5f24-4588-88ec-f4a32ce84004" d="M25.875.5864V4.5a.99993.99993,0,0,0,1,1h3.91357A5.97,5.97,0,0,0,25.875.5864Z"/>
        </g>
        <g>
          <path class="e96efc88-5f24-4588-88ec-f4a32ce84004" d="M20.875,3.5245h0a3,3,0,0,1,3,3c0,1.294-1.829,3.768-2.631,4.791h0a.47.47,0,0,1-.738,0c-.802-1.022-2.631-3.497-2.631-4.791h0A3,3,0,0,1,20.875,3.5245Z"/>
          <path class="b344f379-30a1-4256-8c32-2c2977c9b602" d="M11.875,8.953l18.92,12.1933"/>
          <path class="b344f379-30a1-4256-8c32-2c2977c9b602" d="M20.875,6.1495h0a.375.375,0,0,1,.375.375"/>
          <path class="b344f379-30a1-4256-8c32-2c2977c9b602" d="M20.5,6.5245h0a.375.375,0,0,1,.375-.375"/>
          <path class="b344f379-30a1-4256-8c32-2c2977c9b602" d="M20.875,6.8995h0a.375.375,0,0,1-.375-.375h0"/>
          <path class="b344f379-30a1-4256-8c32-2c2977c9b602" d="M21.25,6.5245h0a.375.375,0,0,1-.375.375"/>
          <path class="b344f379-30a1-4256-8c32-2c2977c9b602" d="M20.875,23.5V14.7955"/>
          <path class="b344f379-30a1-4256-8c32-2c2977c9b602" d="M25.725,17.8555l5.07-6.12"/>
          <path class="b344f379-30a1-4256-8c32-2c2977c9b602" d="M11.875,18.12l4.951-5.9763"/>
        </g>
      </g>
    </g>
  </g>
</svg>
