<svg id="f3b59088-3102-4743-8962-978294f15339" data-name="Layer 1" xmlns="http://www.w3.org/2000/svg" width="939" height="499" viewBox="0 0 939 499">
  <defs>
    <style>
      .a635a206-eed5-4e5c-8ec1-571e55d5a649, .a699e6fd-7b01-496c-ae27-b8015a8fd727, .b60b38be-cd09-47d6-a5f6-58b6870ecfe6, .befc3976-7f3d-4199-96fa-8c3c61d8c69a, .e747497e-8c74-47d8-9820-658e472d7c75 {
        fill: #ffe211;
      }

      .a017865a-b9f2-42d1-8f9e-c62297f20899, .aff08e21-4e6c-4e06-817b-d562e8a39ead {
        fill: #ffea83;
      }

      .a1f8a776-fa4a-466e-803e-b5b93be73344, .b20377b8-3954-41f2-b646-52ee0b0bdfab {
        fill: #474747;
      }

      .aa7bc969-f30a-4f45-a08b-f6d5d66497e1, .b05045d6-b6f3-4da6-b1d8-9fedb81b124a, .bc8d0c40-7920-460e-8fd9-22404ca1ae43, .e2807193-a8c8-4a7b-90d5-1001f69aece2, .f0bbce12-9e2f-477c-bdd9-832645e258e3 {
        fill: none;
      }

      .a017865a-b9f2-42d1-8f9e-c62297f20899, .b05045d6-b6f3-4da6-b1d8-9fedb81b124a, .e747497e-8c74-47d8-9820-658e472d7c75 {
        stroke: #4a4a4a;
      }

      .a017865a-b9f2-42d1-8f9e-c62297f20899, .a635a206-eed5-4e5c-8ec1-571e55d5a649, .aa7bc969-f30a-4f45-a08b-f6d5d66497e1, .b05045d6-b6f3-4da6-b1d8-9fedb81b124a, .b20377b8-3954-41f2-b646-52ee0b0bdfab, .b637a1fc-b70d-4045-9199-184142ea78f0, .bc8d0c40-7920-460e-8fd9-22404ca1ae43, .befc3976-7f3d-4199-96fa-8c3c61d8c69a, .e002a182-c338-4142-883f-a04d792362fe, .e2807193-a8c8-4a7b-90d5-1001f69aece2, .e747497e-8c74-47d8-9820-658e472d7c75, .f0bbce12-9e2f-477c-bdd9-832645e258e3, .fb40f264-4a0c-46ba-b5ad-d0df0766019d {
        stroke-linecap: round;
        stroke-linejoin: round;
      }

      .a017865a-b9f2-42d1-8f9e-c62297f20899, .a635a206-eed5-4e5c-8ec1-571e55d5a649, .a699e6fd-7b01-496c-ae27-b8015a8fd727, .aa7bc969-f30a-4f45-a08b-f6d5d66497e1, .b05045d6-b6f3-4da6-b1d8-9fedb81b124a, .b637a1fc-b70d-4045-9199-184142ea78f0, .b68f23b3-c24e-49ee-adf8-1a1dc0fef8df, .e747497e-8c74-47d8-9820-658e472d7c75 {
        stroke-width: 3.61663px;
      }

      .a2be9f3f-f15a-4750-8755-291c3f8ec8dc, .ae3610d4-f556-4b3b-814a-b812783aa4c2, .b637a1fc-b70d-4045-9199-184142ea78f0, .b68f23b3-c24e-49ee-adf8-1a1dc0fef8df, .badbd078-d827-491a-a289-be4a21b8f65a, .e002a182-c338-4142-883f-a04d792362fe, .fb40f264-4a0c-46ba-b5ad-d0df0766019d {
        fill: #fff;
      }

      .a2be9f3f-f15a-4750-8755-291c3f8ec8dc, .a635a206-eed5-4e5c-8ec1-571e55d5a649, .a699e6fd-7b01-496c-ae27-b8015a8fd727, .aa7bc969-f30a-4f45-a08b-f6d5d66497e1, .b637a1fc-b70d-4045-9199-184142ea78f0, .b68f23b3-c24e-49ee-adf8-1a1dc0fef8df, .e2807193-a8c8-4a7b-90d5-1001f69aece2, .fb40f264-4a0c-46ba-b5ad-d0df0766019d {
        stroke: #474747;
      }

      .a2be9f3f-f15a-4750-8755-291c3f8ec8dc, .a699e6fd-7b01-496c-ae27-b8015a8fd727, .b68f23b3-c24e-49ee-adf8-1a1dc0fef8df {
        stroke-miterlimit: 10;
      }

      .a2be9f3f-f15a-4750-8755-291c3f8ec8dc, .b20377b8-3954-41f2-b646-52ee0b0bdfab, .bc8d0c40-7920-460e-8fd9-22404ca1ae43, .befc3976-7f3d-4199-96fa-8c3c61d8c69a, .e002a182-c338-4142-883f-a04d792362fe, .e2807193-a8c8-4a7b-90d5-1001f69aece2, .f0bbce12-9e2f-477c-bdd9-832645e258e3, .fb40f264-4a0c-46ba-b5ad-d0df0766019d {
        stroke-width: 3.3px;
      }

      .b20377b8-3954-41f2-b646-52ee0b0bdfab, .f0bbce12-9e2f-477c-bdd9-832645e258e3 {
        stroke: #fff;
      }

      .a9f76509-70d9-4f82-bf62-06b2552330e1 {
        fill: #bcbcbc;
      }

      .bc8d0c40-7920-460e-8fd9-22404ca1ae43, .befc3976-7f3d-4199-96fa-8c3c61d8c69a, .e002a182-c338-4142-883f-a04d792362fe {
        stroke: #2a2a2a;
      }

      .a38d59d2-f94a-415a-851c-18b936791c97 {
        fill: #2a2a2a;
      }

      .badbd078-d827-491a-a289-be4a21b8f65a {
        opacity: 0.5;
      }
    </style>
  </defs>
  <title>Rea -Artboard 115553</title>
  <rect class="b60b38be-cd09-47d6-a5f6-58b6870ecfe6" width="939" height="499"/>
  <g>
    <g>
      <g>
        <rect class="aff08e21-4e6c-4e06-817b-d562e8a39ead" x="212.41543" y="242.32474" width="145.87026" height="81.57336"/>
        <path class="a1f8a776-fa4a-466e-803e-b5b93be73344" d="M337.56368,308.72806h-6.3381v-24.1034c0-.15305.00107-.25259.00214-.32a6.7875,6.7875,0,0,0,.07064-1.48018,1.08209,1.08209,0,0,0-.27987-.71473c-.01017-.01793-.01071-.03833-.022-.05586L320.7568,266.07077a1.08194,1.08194,0,0,0-.26543-.41426l-4.71611-7.36141c-.02087-.03244-.05352-.05-.07706-.07953a1.03231,1.03231,0,0,0-.3275-.27821,1.03346,1.03346,0,0,0-.40992-.12562,1.02722,1.02722,0,0,0-.10809-.0218H254.29824a1.08042,1.08042,0,0,0-1.059.9128l-6.1,10.32276a1.0672,1.0672,0,0,0-.37647.63694l-7.44823,12.60442c-.01659.02823-.02381.0596-.03773.08884-.01418.02956-.02622.05826-.03772.08923a1.086,1.086,0,0,0-.076.37727l-.00054.00227v25.90359h-8.10189a1.09595,1.09595,0,1,0,0,2.1919h106.503a1.09595,1.09595,0,1,0,0-2.1919ZM328.186,281.72852h-7.73586l-4.24574-6.62707h7.73587Zm-66.83314-12.87908-.77327-1.30833h9.98609l3.41629,5.36844H263.75188l-1.69851-2.87439v-.16944A1.09025,1.09025,0,0,0,261.35289,268.84944Zm11.81142-1.30833H283.525l3.41628,5.36844H276.5806Zm26.4109,5.36844H289.53988l-3.41628-5.36844H296.145Zm-.82945-5.36844h10.01338l3.43929,5.36844H302.176Zm-10.40992,7.56034,4.21737,6.62707H282.19279l-4.21737-6.62707Zm2.5986,0h10.04121l4.234,6.62707h-10.0578Zm12.642,0h10.02623l4.24574,6.62707h-10.038Zm18.95972-2.1919h-7.73586l-3.4393-5.36844h7.73587Zm-8.28223-12.92771,3.43875,5.36737h-7.73586l-3.43876-5.36737Zm-10.33768,0,3.43876,5.36737H297.34532l-3.42913-5.36737Zm-12.60075,0,3.42913,5.36737H284.729l-3.41575-5.36737Zm-12.60075,0,3.41548,5.36737h-10.361l-3.41548-5.36737Zm-12.95982,0,3.41575,5.36737h-9.886l-3.17173-5.36737Zm-16.84113,10.35051,4.28854-7.25752v9.83472h-4.28854Zm-4.3517,38.39571h-3.20758V283.92042h3.20758Zm2.1598-26.99954h-4.5422l3.91609-6.62707h.62611Zm2.15979,26.99954H246.754V283.92042h2.12769Zm.03211-26.99954v-6.62707h4.28854v6.62707h-4.28854Zm8.78793,26.99954h-6.62814V283.92042h6.62814Zm2.15979-26.99954h-4.46728v-6.62707h4.46728Zm0-8.819h-4.46728v-9.83472l4.46728,7.56Zm2.15979,35.81851h-2.12768V283.92042h2.12768Zm1.096-26.99954h-1.06384v-6.62707h.44737l3.9161,6.62707Zm4.12373,26.99954h-3.02778V283.92042h3.02778Zm-2.194-33.62661h10.32992l4.21737,6.62707H268.96273Zm63.98678,33.62661H269.50027v-3.20865h59.53341Zm0-5.40055H269.50027v-3.20758h59.53341Zm0-5.39948H269.50027v-3.20758h59.53341Zm0-5.39948H269.50027V289.321h59.53341Zm0-7.90389v2.50441H269.50027v-3.20865h59.56231A4.95019,4.95019,0,0,0,329.03368,284.62466Z"/>
      </g>
      <g>
        <path id="b8069dc1-85de-4393-8d21-90b8aeed374b" data-name="e" class="b60b38be-cd09-47d6-a5f6-58b6870ecfe6" d="M348.15765,265.10008H461.47421a3.101,3.101,0,0,1,3.101,3.10094v71.30017H345.05673V268.201h0A3.10094,3.10094,0,0,1,348.15765,265.10008Z"/>
        <path class="aff08e21-4e6c-4e06-817b-d562e8a39ead" d="M348.15765,265.10008h0a3.10094,3.10094,0,0,0-3.101,3.10094v71.30017h2.72507l91.704-74.40111Z"/>
        <path class="b05045d6-b6f3-4da6-b1d8-9fedb81b124a" d="M348.15765,265.10008H461.47421a3.101,3.101,0,0,1,3.101,3.10094v71.30017H345.05673V268.201h0A3.10094,3.10094,0,0,1,348.15765,265.10008Z"/>
        <path class="a017865a-b9f2-42d1-8f9e-c62297f20899" d="M413.18166,351.10623H400.8249a12.35681,12.35681,0,0,1-4.69839,11.746H417.8331A12.4038,12.4038,0,0,1,413.18166,351.10623Z"/>
        <path class="a017865a-b9f2-42d1-8f9e-c62297f20899" d="M345.05673,339.50119H464.57517v8.5041h0a3.101,3.101,0,0,1-3.101,3.10094H348.15762a3.101,3.101,0,0,1-3.101-3.10094v-8.5041Z"/>
        <path class="a017865a-b9f2-42d1-8f9e-c62297f20899" d="M240.16305,348.757h11.746v14.09518h-11.746Z"/>
        <path class="b05045d6-b6f3-4da6-b1d8-9fedb81b124a" d="M254.25823,360.503H251.909v-9.39678h2.3492a4.69839,4.69839,0,0,1,4.69839,4.69839h0a4.69839,4.69839,0,0,1-4.69839,4.69839Z"/>
        <path class="a017865a-b9f2-42d1-8f9e-c62297f20899" d="M268.35341,348.757h30.91542a3.24187,3.24187,0,0,1,3.24188,3.24188v7.6114h0a3.24189,3.24189,0,0,1-3.24188,3.24188H268.35339Z"/>
        <path class="a017865a-b9f2-42d1-8f9e-c62297f20899" d="M303.59136,345.23323v0a3.57081,3.57081,0,0,0-3.52378-3.52381H280.09941V348.757h19.96817A3.57077,3.57077,0,0,0,303.59136,345.23323Z"/>
        <path class="b05045d6-b6f3-4da6-b1d8-9fedb81b124a" d="M268.35341,355.80462h22.92816"/>
        <path class="a017865a-b9f2-42d1-8f9e-c62297f20899" d="M469.27357,393.39177h7.04759a4.6984,4.6984,0,0,1,4.69839,4.69839v25.84116H464.57517V398.09016h0A4.6984,4.6984,0,0,1,469.27357,393.39177Z"/>
        <path class="e747497e-8c74-47d8-9820-658e472d7c75" d="M464.57517,402.78855h16.44438v9.39679H464.57517Z"/>
        <path class="b05045d6-b6f3-4da6-b1d8-9fedb81b124a" d="M445.7816,351.95194v2.34923a8.50406,8.50406,0,0,0,8.45687,8.551q.0471.00027.09424,0h6.43681a10.85327,10.85327,0,0,1,10.85328,10.8533h0v19.68628"/>
        <path class="e747497e-8c74-47d8-9820-658e472d7c75" d="M457.52758,372.249H233.11544a4.6984,4.6984,0,0,1-4.69839-4.6984h0a4.69839,4.69839,0,0,1,4.69839-4.69839H457.52758a4.6984,4.6984,0,0,1,4.6984,4.69839h0A4.69841,4.69841,0,0,1,457.52758,372.249Z"/>
        <path id="e7fd955a-3af0-427a-8fa1-69475dc4e335" data-name="g" class="aff08e21-4e6c-4e06-817b-d562e8a39ead" d="M233.11546,372.249h9.39678v51.68232h-9.39678Z"/>
        <path class="b05045d6-b6f3-4da6-b1d8-9fedb81b124a" d="M233.11546,372.249h9.39678v51.68232h-9.39678Z"/>
        <path id="a4f99ba1-bac7-4bbe-8be4-25bda1104635" data-name="h" class="aff08e21-4e6c-4e06-817b-d562e8a39ead" d="M445.7816,372.249h9.39679v51.68232H445.7816Z"/>
        <path class="b05045d6-b6f3-4da6-b1d8-9fedb81b124a" d="M445.7816,372.249h9.39679v51.68232H445.7816Z"/>
        <path class="a017865a-b9f2-42d1-8f9e-c62297f20899" d="M242.51224,402.78855H445.7816v9.39679H242.51223Z"/>
      </g>
    </g>
    <g>
      <g>
        <rect class="ae3610d4-f556-4b3b-814a-b812783aa4c2" x="2" y="22.86064" width="556.64835" height="141.52733" rx="25.06467"/>
        <polygon class="ae3610d4-f556-4b3b-814a-b812783aa4c2" points="172.964 162.555 132.487 203.032 132.487 162.555 172.964 162.555"/>
      </g>
      <g>
        <path class="a1f8a776-fa4a-466e-803e-b5b93be73344" d="M37.66914,73.59331l1.97167-2.36718a3.52192,3.52192,0,0,0,2.84864,1.6875c1.4248,0,2.16992-.8545,2.16992-2.542V63.07574H39.26874V60.2271h8.918v9.94727c0,3.791-1.90625,5.65332-5.52148,5.65332A6.17132,6.17132,0,0,1,37.66914,73.59331Z"/>
        <path class="a1f8a776-fa4a-466e-803e-b5b93be73344" d="M62.93671,70.63531h-8.918a3.14265,3.14265,0,0,0,3.374,2.36621,3.99707,3.99707,0,0,0,2.958-1.13965l1.81836,1.97168a6.17162,6.17162,0,0,1-4.86426,1.90625c-4.0752,0-6.72657-2.56348-6.72657-6.06934a6.00183,6.00183,0,0,1,6.28907-6.06933,5.83519,5.83519,0,0,1,6.13476,6.11328C63.00214,69.9771,62.9582,70.35015,62.93671,70.63531ZM53.9748,68.64117h5.80664a2.94443,2.94443,0,0,0-5.80664,0Z"/>
        <path class="a1f8a776-fa4a-466e-803e-b5b93be73344" d="M78.80585,63.60113V66.7564c-.28515-.02148-.5039-.04394-.76757-.04394-1.88379,0-3.13282,1.03027-3.13282,3.2871V75.565h-3.418V63.77691h3.26465v1.55566A4.75545,4.75545,0,0,1,78.80585,63.60113Z"/>
        <path class="a1f8a776-fa4a-466e-803e-b5b93be73344" d="M92.218,70.63531H83.3a3.14265,3.14265,0,0,0,3.374,2.36621,3.99707,3.99707,0,0,0,2.958-1.13965l1.81836,1.97168a6.17162,6.17162,0,0,1-4.86426,1.90625c-4.0752,0-6.72657-2.56348-6.72657-6.06934a6.00183,6.00183,0,0,1,6.28907-6.06933,5.83519,5.83519,0,0,1,6.13476,6.11328C92.28339,69.9771,92.23945,70.35015,92.218,70.63531Zm-8.96191-1.99414h5.80664a2.94443,2.94443,0,0,0-5.80664,0Z"/>
        <path class="a1f8a776-fa4a-466e-803e-b5b93be73344" d="M106.61738,68.816v6.749h-3.418V69.34234c0-1.90625-.87695-2.78321-2.38867-2.78321-1.64356,0-2.82618,1.00782-2.82618,3.17774V75.565H94.56562V63.77691h3.26562v1.37988a5.16114,5.16114,0,0,1,3.9004-1.55566C104.51386,63.60113,106.61738,65.22222,106.61738,68.816Z"/>
        <path class="a1f8a776-fa4a-466e-803e-b5b93be73344" d="M117.31367,74.99566a4.88345,4.88345,0,0,1-2.78223.74414c-2.7832,0-4.4043-1.42383-4.4043-4.22852V66.66851h-1.81933V64.0396h1.81933V61.16949h3.418V64.0396h2.93653v2.62891h-2.93653v4.79883a1.37482,1.37482,0,0,0,1.46778,1.55566,2.31027,2.31027,0,0,0,1.38085-.4375Z"/>
        <path class="a1f8a776-fa4a-466e-803e-b5b93be73344" d="M126.56367,63.60113V66.7564c-.28516-.02148-.50391-.04394-.76758-.04394-1.88379,0-3.13281,1.03027-3.13281,3.2871V75.565h-3.418V63.77691H122.51v1.55566A4.75544,4.75544,0,0,1,126.56367,63.60113Z"/>
        <path class="a1f8a776-fa4a-466e-803e-b5b93be73344" d="M139.97675,70.63531h-8.918a3.14265,3.14265,0,0,0,3.374,2.36621,3.997,3.997,0,0,0,2.958-1.13965l1.81836,1.97168a6.17158,6.17158,0,0,1-4.86425,1.90625c-4.0752,0-6.72657-2.56348-6.72657-6.06934a6.00183,6.00183,0,0,1,6.28907-6.06933,5.83519,5.83519,0,0,1,6.13476,6.11328C140.04218,69.9771,139.99824,70.35015,139.97675,70.63531Zm-8.96191-1.99414h5.80664a2.94443,2.94443,0,0,0-5.80664,0Z"/>
        <path class="a1f8a776-fa4a-466e-803e-b5b93be73344" d="M148.52656,59.30621h3.41894V75.565h-3.41894Z"/>
        <path class="a1f8a776-fa4a-466e-803e-b5b93be73344" d="M166.60566,70.63531h-8.918a3.14264,3.14264,0,0,0,3.374,2.36621,3.99705,3.99705,0,0,0,2.958-1.13965l1.81836,1.97168a6.1716,6.1716,0,0,1-4.86426,1.90625c-4.07519,0-6.72656-2.56348-6.72656-6.06934a6.00182,6.00182,0,0,1,6.28906-6.06933,5.8352,5.8352,0,0,1,6.13477,6.11328C166.67109,69.9771,166.62714,70.35015,166.60566,70.63531Zm-8.96192-1.99414h5.80665a2.94443,2.94443,0,0,0-5.80665,0Z"/>
        <path class="a1f8a776-fa4a-466e-803e-b5b93be73344" d="M187.16328,59.30621V75.565h-3.26465V74.2066a4.53547,4.53547,0,0,1-3.68067,1.5332,6.07193,6.07193,0,0,1,0-12.13867,4.527,4.527,0,0,1,3.52735,1.4248V59.30621Zm-3.35254,10.36425a3.02242,3.02242,0,1,0-3.002,3.26465A2.98684,2.98684,0,0,0,183.81074,69.67046Z"/>
        <path class="a1f8a776-fa4a-466e-803e-b5b93be73344" d="M201.80488,70.63531h-8.918a3.14264,3.14264,0,0,0,3.374,2.36621,3.99705,3.99705,0,0,0,2.958-1.13965l1.81836,1.97168A6.1716,6.1716,0,0,1,196.173,75.7398c-4.07519,0-6.72656-2.56348-6.72656-6.06934a6.00182,6.00182,0,0,1,6.28906-6.06933,5.8352,5.8352,0,0,1,6.13477,6.11328C201.87031,69.9771,201.82636,70.35015,201.80488,70.63531ZM192.843,68.64117h5.80664a2.94443,2.94443,0,0,0-5.80664,0Z"/>
        <path class="a1f8a776-fa4a-466e-803e-b5b93be73344" d="M203.01386,74.46929l1.13965-2.4541a8.05517,8.05517,0,0,0,4.09668,1.13965c1.57812,0,2.16992-.416,2.16992-1.07422,0-1.92774-7.12207.04394-7.12207-4.667,0-2.23438,2.0166-3.8125,5.45606-3.8125a9.694,9.694,0,0,1,4.53613,1.03027L212.15058,67.063a6.76889,6.76889,0,0,0-3.39648-.876c-1.53321,0-2.19043.48145-2.19043,1.09571,0,2.01562,7.12109.06543,7.12109,4.71094,0,2.19042-2.03809,3.74609-5.56543,3.74609A10.11458,10.11458,0,0,1,203.01386,74.46929Z"/>
        <path class="a1f8a776-fa4a-466e-803e-b5b93be73344" d="M214.91425,69.67046c0-3.5498,2.73926-6.06933,6.57324-6.06933,2.47657,0,4.42676,1.07422,5.28125,3.002l-2.65136,1.42383a2.94061,2.94061,0,0,0-2.65137-1.6211,3.2696,3.2696,0,0,0,0,6.5293,2.90016,2.90016,0,0,0,2.65137-1.62109l2.65136,1.44629a5.4681,5.4681,0,0,1-5.28125,2.97949C217.65351,75.7398,214.91425,73.22027,214.91425,69.67046Z"/>
        <path class="a1f8a776-fa4a-466e-803e-b5b93be73344" d="M236.06269,63.60113V66.7564c-.28516-.02148-.50391-.04394-.76758-.04394-1.88379,0-3.13281,1.03027-3.13281,3.2871V75.565h-3.41895V63.77691H232.009v1.55566A4.75544,4.75544,0,0,1,236.06269,63.60113Z"/>
        <path class="a1f8a776-fa4a-466e-803e-b5b93be73344" d="M237.68671,60.2271a1.95359,1.95359,0,0,1,2.126-1.90625,1.91809,1.91809,0,0,1,2.125,1.83985,2.1347,2.1347,0,0,1-4.251.0664Zm.416,3.54981h3.41894V75.565h-3.41894Z"/>
        <path class="a1f8a776-fa4a-466e-803e-b5b93be73344" d="M257.54023,69.67046a5.72521,5.72521,0,0,1-5.87207,6.06934,4.57572,4.57572,0,0,1-3.54981-1.42383v5.5h-3.418V63.77691H247.965v1.3584a4.57852,4.57852,0,0,1,3.70313-1.53418A5.72521,5.72521,0,0,1,257.54023,69.67046Zm-3.46192,0a3.01252,3.01252,0,1,0-3.00195,3.26465A2.97534,2.97534,0,0,0,254.07831,69.67046Z"/>
        <path class="a1f8a776-fa4a-466e-803e-b5b93be73344" d="M267.426,74.99566a4.88343,4.88343,0,0,1-2.78223.74414c-2.7832,0-4.40429-1.42383-4.40429-4.22852V66.66851h-1.81836V64.0396h1.81836V61.16949h3.418V64.0396h2.93652v2.62891h-2.93652v4.79883a1.37482,1.37482,0,0,0,1.46777,1.55566,2.30817,2.30817,0,0,0,1.38086-.4375Z"/>
        <path class="a1f8a776-fa4a-466e-803e-b5b93be73344" d="M268.94062,60.2271a1.95359,1.95359,0,0,1,2.126-1.90625,1.9181,1.9181,0,0,1,2.125,1.83985,2.1347,2.1347,0,0,1-4.251.0664Zm.416,3.54981h3.41894V75.565h-3.41894Z"/>
        <path class="a1f8a776-fa4a-466e-803e-b5b93be73344" d="M279.70039,64.0396h3.02441v2.62891h-2.93652V75.565h-3.418V66.66851h-1.81836V64.0396h1.81836v-.52636c0-2.65137,1.62109-4.38184,4.55761-4.38184a4.84441,4.84441,0,0,1,2.60743.63574l-.89844,2.47559a2.39421,2.39421,0,0,0-1.38086-.416c-1.00781,0-1.55566.54785-1.55566,1.709Z"/>
        <path class="a1f8a776-fa4a-466e-803e-b5b93be73344" d="M302.6457,59.30621V75.565h-3.26465V74.2066a4.53546,4.53546,0,0,1-3.68066,1.5332,6.07193,6.07193,0,0,1,0-12.13867,4.527,4.527,0,0,1,3.52734,1.4248V59.30621Zm-3.35254,10.36425a3.02242,3.02242,0,1,0-3.002,3.26465A2.98683,2.98683,0,0,0,299.29316,69.67046Z"/>
        <path class="a1f8a776-fa4a-466e-803e-b5b93be73344" d="M317.2873,70.63531h-8.918a3.14265,3.14265,0,0,0,3.374,2.36621,3.99705,3.99705,0,0,0,2.958-1.13965l1.81836,1.97168a6.1716,6.1716,0,0,1-4.86426,1.90625c-4.07519,0-6.72656-2.56348-6.72656-6.06934a6.00182,6.00182,0,0,1,6.28906-6.06933,5.8352,5.8352,0,0,1,6.13477,6.11328C317.35273,69.9771,317.30878,70.35015,317.2873,70.63531Zm-8.96191-1.99414H314.132a2.94443,2.94443,0,0,0-5.80664,0Z"/>
        <path class="a1f8a776-fa4a-466e-803e-b5b93be73344" d="M318.49531,74.46929l1.13867-2.4541a8.06433,8.06433,0,0,0,4.09766,1.13965c1.57812,0,2.16992-.416,2.16992-1.07422,0-1.92774-7.12207.04394-7.12207-4.667,0-2.23438,2.0166-3.8125,5.45605-3.8125a9.694,9.694,0,0,1,4.53613,1.03027L327.632,67.063a6.76892,6.76892,0,0,0-3.39649-.876c-1.5332,0-2.19043.48145-2.19043,1.09571,0,2.01562,7.1211.06543,7.1211,4.71094,0,2.19042-2.03809,3.74609-5.56543,3.74609A10.11458,10.11458,0,0,1,318.49531,74.46929Z"/>
        <path class="a1f8a776-fa4a-466e-803e-b5b93be73344" d="M345.07831,74.99566a4.88339,4.88339,0,0,1-2.78222.74414c-2.7832,0-4.4043-1.42383-4.4043-4.22852V66.66851h-1.81836V64.0396h1.81836V61.16949h3.418V64.0396h2.93652v2.62891h-2.93652v4.79883a1.37482,1.37482,0,0,0,1.46777,1.55566,2.30817,2.30817,0,0,0,1.38086-.4375Z"/>
        <path class="a1f8a776-fa4a-466e-803e-b5b93be73344" d="M354.32831,63.60113V66.7564c-.28515-.02148-.5039-.04394-.76757-.04394-1.88379,0-3.13282,1.03027-3.13282,3.2871V75.565H347.009V63.77691h3.26562v1.55566A4.75547,4.75547,0,0,1,354.32831,63.60113Z"/>
        <path class="a1f8a776-fa4a-466e-803e-b5b93be73344" d="M366.73261,68.83843V75.565h-3.19922V74.09722a3.8696,3.8696,0,0,1-3.59375,1.64258c-2.76074,0-4.40429-1.5332-4.40429-3.57129,0-2.08105,1.46777-3.52734,5.06152-3.52734h2.7168c0-1.46875-.876-2.32325-2.7168-2.32325a5.67435,5.67435,0,0,0-3.39648,1.09571l-1.22657-2.3877a9.05749,9.05749,0,0,1,5.083-1.4248C364.65058,63.60113,366.73261,65.26617,366.73261,68.83843Zm-3.41894,3.00195V70.63531h-2.34375c-1.59961,0-2.10352.59082-2.10352,1.37988,0,.85449.72266,1.4248,1.92774,1.4248A2.5179,2.5179,0,0,0,363.31367,71.84038Z"/>
        <path class="a1f8a776-fa4a-466e-803e-b5b93be73344" d="M381.30683,63.77691,376.3332,75.565h-3.52832l-4.95215-11.78808h3.52832l3.26465,8.01953,3.375-8.01953Z"/>
        <path class="a1f8a776-fa4a-466e-803e-b5b93be73344" d="M392.74921,68.83843V75.565H389.55V74.09722a3.8696,3.8696,0,0,1-3.59375,1.64258c-2.76074,0-4.40429-1.5332-4.40429-3.57129,0-2.08105,1.46875-3.52734,5.06152-3.52734h2.71777c0-1.46875-.87695-2.32325-2.71777-2.32325a5.67219,5.67219,0,0,0-3.39648,1.09571l-1.22657-2.3877a9.05749,9.05749,0,0,1,5.083-1.4248C390.66718,63.60113,392.74921,65.26617,392.74921,68.83843Zm-3.418,3.00195V70.63531h-2.34472c-1.59961,0-2.10352.59082-2.10352,1.37988,0,.85449.72266,1.4248,1.92774,1.4248A2.52,2.52,0,0,0,389.33124,71.84038Z"/>
        <path class="a1f8a776-fa4a-466e-803e-b5b93be73344" d="M407.718,63.77691V75.565H404.4748V74.16265a4.76741,4.76741,0,0,1-3.65918,1.57715c-2.958,0-5.04-1.665-5.04-5.30176V63.77691h3.418v6.15722c0,1.97168.87695,2.84766,2.38867,2.84766,1.57813,0,2.7168-1.00781,2.7168-3.17676V63.77691Z"/>
        <path class="a1f8a776-fa4a-466e-803e-b5b93be73344" d="M418.39277,75.565l-2.585-3.61523L413.134,75.565h-3.72461l4.53516-5.93847-4.38184-5.84961h3.834l2.49805,3.43945,2.56348-3.43945h3.63769l-4.38183,5.76269,4.55761,6.02539Z"/>
        <path class="a1f8a776-fa4a-466e-803e-b5b93be73344" d="M427.35761,73.59331a5.09488,5.09488,0,0,1-.5918,2.19043l-1.249,3.15528h-2.16894l.96386-3.4834a1.902,1.902,0,0,1-1.18359-1.86231,2.11477,2.11477,0,0,1,4.22949,0Z"/>
        <path class="a1f8a776-fa4a-466e-803e-b5b93be73344" d="M435.884,59.30621h3.41894V75.565H435.884Z"/>
        <path class="a1f8a776-fa4a-466e-803e-b5b93be73344" d="M453.96308,70.63531h-8.918a3.14265,3.14265,0,0,0,3.374,2.36621,3.997,3.997,0,0,0,2.958-1.13965l1.81836,1.97168a6.17159,6.17159,0,0,1-4.86426,1.90625c-4.07519,0-6.72656-2.56348-6.72656-6.06934a6.00182,6.00182,0,0,1,6.28906-6.06933,5.8352,5.8352,0,0,1,6.13477,6.11328C454.02851,69.9771,453.98456,70.35015,453.96308,70.63531Zm-8.96191-1.99414h5.80664a2.94443,2.94443,0,0,0-5.80664,0Z"/>
        <path class="a1f8a776-fa4a-466e-803e-b5b93be73344" d="M52.43769,95.97124a5.72521,5.72521,0,0,1-5.87207,6.06934,4.57572,4.57572,0,0,1-3.54981-1.42383v5.5H39.59687V90.07769h3.26562v1.3584a4.57852,4.57852,0,0,1,3.70313-1.53418A5.72521,5.72521,0,0,1,52.43769,95.97124Zm-3.46191,0a3.01252,3.01252,0,1,0-3.002,3.26465A2.97534,2.97534,0,0,0,48.97578,95.97124Z"/>
        <path class="a1f8a776-fa4a-466e-803e-b5b93be73344" d="M54.71992,85.607h3.41894v16.25879H54.71992Z"/>
        <path class="a1f8a776-fa4a-466e-803e-b5b93be73344" d="M71.74726,95.13921v6.72657H68.548V100.398a3.8696,3.8696,0,0,1-3.59375,1.64258c-2.76074,0-4.4043-1.5332-4.4043-3.57129,0-2.08105,1.46875-3.52734,5.06153-3.52734h2.71777c0-1.46875-.87695-2.32324-2.71777-2.32324a5.67221,5.67221,0,0,0-3.39649,1.0957l-1.22656-2.3877a9.05749,9.05749,0,0,1,5.083-1.4248C69.66523,89.90191,71.74726,91.567,71.74726,95.13921Zm-3.418,3.002V96.93609H65.98456c-1.5996,0-2.10351.59082-2.10351,1.37988,0,.85449.72266,1.42481,1.92773,1.42481A2.52,2.52,0,0,0,68.32929,98.14117Z"/>
        <path class="a1f8a776-fa4a-466e-803e-b5b93be73344" d="M86.89179,95.11675v6.749h-3.418V95.64312c0-1.90625-.877-2.7832-2.38867-2.7832-1.64355,0-2.82617,1.00781-2.82617,3.17773v5.82813H74.841V90.07769h3.26465v1.37988a5.1611,5.1611,0,0,1,3.90039-1.55566C84.78828,89.90191,86.89179,91.523,86.89179,95.11675Z"/>
        <path class="a1f8a776-fa4a-466e-803e-b5b93be73344" d="M102.03632,95.11675v6.749h-3.418V95.64312c0-1.90625-.877-2.7832-2.38867-2.7832-1.64355,0-2.82617,1.00781-2.82617,3.17773v5.82813h-3.418V90.07769h3.26465v1.37988a5.1611,5.1611,0,0,1,3.90039-1.55566C99.93281,89.90191,102.03632,91.523,102.03632,95.11675Z"/>
        <path class="a1f8a776-fa4a-466e-803e-b5b93be73344" d="M104.71308,86.52788a1.95359,1.95359,0,0,1,2.126-1.90625,1.9181,1.9181,0,0,1,2.125,1.83985,2.1347,2.1347,0,0,1-4.251.0664Zm.417,3.54981h3.418v11.78809h-3.418Z"/>
        <path class="a1f8a776-fa4a-466e-803e-b5b93be73344" d="M123.77851,95.11675v6.749h-3.418V95.64312c0-1.90625-.87695-2.7832-2.38867-2.7832-1.64356,0-2.82617,1.00781-2.82617,3.17773v5.82813h-3.418V90.07769h3.26465v1.37988a5.1611,5.1611,0,0,1,3.90039-1.55566C121.675,89.90191,123.77851,91.523,123.77851,95.11675Z"/>
        <path class="a1f8a776-fa4a-466e-803e-b5b93be73344" d="M139.16425,90.07769V99.8941c0,4.38183-2.36621,6.39746-6.61719,6.39746a9.71266,9.71266,0,0,1-5.78417-1.6211l1.35839-2.4541a7.04686,7.04686,0,0,0,4.16309,1.33692c2.41016,0,3.46191-1.09571,3.46191-3.22168v-.50391a4.85256,4.85256,0,0,1-3.72461,1.46875,5.70057,5.70057,0,1,1,0-11.39453,4.7315,4.7315,0,0,1,3.90039,1.6875V90.07769Zm-3.374,5.52148a3.10806,3.10806,0,1,0-3.08984,2.89258A2.86262,2.86262,0,0,0,135.79023,95.59917Z"/>
        <path class="a1f8a776-fa4a-466e-803e-b5b93be73344" d="M145.76386,99.8941a5.095,5.095,0,0,1-.5918,2.19043l-1.249,3.15527H141.7541l.96386-3.4834a1.902,1.902,0,0,1-1.18359-1.8623,2.11477,2.11477,0,0,1,4.22949,0Z"/>
        <path class="a1f8a776-fa4a-466e-803e-b5b93be73344" d="M154.29023,85.607h3.41894v16.25879h-3.41894Z"/>
        <path class="a1f8a776-fa4a-466e-803e-b5b93be73344" d="M172.36933,96.93609h-8.918a3.14265,3.14265,0,0,0,3.374,2.36621,3.997,3.997,0,0,0,2.958-1.13965l1.81836,1.97168a6.17159,6.17159,0,0,1-4.86426,1.90625c-4.07519,0-6.72656-2.56348-6.72656-6.06934A6.00182,6.00182,0,0,1,166.3,89.90191a5.8352,5.8352,0,0,1,6.13477,6.11328C172.43476,96.27788,172.39081,96.65093,172.36933,96.93609ZM163.40742,94.942h5.80664a2.94443,2.94443,0,0,0-5.80664,0Z"/>
        <path class="a1f8a776-fa4a-466e-803e-b5b93be73344" d="M173.57831,100.77007,174.718,98.316a8.05517,8.05517,0,0,0,4.09668,1.13965c1.57813,0,2.16992-.416,2.16992-1.07422,0-1.92773-7.12207.04395-7.12207-4.667,0-2.23438,2.01661-3.8125,5.45606-3.8125a9.69416,9.69416,0,0,1,4.53613,1.03027L182.715,93.36382a6.769,6.769,0,0,0-3.39648-.876c-1.5332,0-2.19043.48144-2.19043,1.0957,0,2.01562,7.12109.06543,7.12109,4.71094,0,2.19043-2.03808,3.74609-5.56543,3.74609A10.11451,10.11451,0,0,1,173.57831,100.77007Z"/>
        <path class="a1f8a776-fa4a-466e-803e-b5b93be73344" d="M205.39765,95.97124a5.72521,5.72521,0,0,1-5.87207,6.06934,4.57568,4.57568,0,0,1-3.5498-1.42383v5.5h-3.418V90.07769h3.26465v1.3584a4.5785,4.5785,0,0,1,3.70312-1.53418A5.72521,5.72521,0,0,1,205.39765,95.97124Zm-3.46191,0a3.01252,3.01252,0,1,0-3.002,3.26465A2.97534,2.97534,0,0,0,201.93574,95.97124Z"/>
        <path class="a1f8a776-fa4a-466e-803e-b5b93be73344" d="M207.68085,85.607h3.418v16.25879h-3.418Z"/>
        <path class="a1f8a776-fa4a-466e-803e-b5b93be73344" d="M224.7082,95.13921v6.72657H221.509V100.398a3.86962,3.86962,0,0,1-3.59375,1.64258c-2.76074,0-4.4043-1.5332-4.4043-3.57129,0-2.08105,1.46875-3.52734,5.06153-3.52734h2.71777c0-1.46875-.877-2.32324-2.71777-2.32324a5.67219,5.67219,0,0,0-3.39649,1.0957l-1.22656-2.3877a9.05749,9.05749,0,0,1,5.083-1.4248C222.62617,89.90191,224.7082,91.567,224.7082,95.13921Zm-3.418,3.002V96.93609H218.9455c-1.59961,0-2.10351.59082-2.10351,1.37988,0,.85449.72265,1.42481,1.92773,1.42481A2.52,2.52,0,0,0,221.29023,98.14117Z"/>
        <path class="a1f8a776-fa4a-466e-803e-b5b93be73344" d="M239.85175,95.11675v6.749h-3.418V95.64312c0-1.90625-.877-2.7832-2.38867-2.7832-1.64355,0-2.82617,1.00781-2.82617,3.17773v5.82813H227.8V90.07769h3.26563v1.37988a5.1611,5.1611,0,0,1,3.90039-1.55566C237.74824,89.90191,239.85175,91.523,239.85175,95.11675Z"/>
        <path class="a1f8a776-fa4a-466e-803e-b5b93be73344" d="M241.80585,100.77007l1.13868-2.4541a8.06429,8.06429,0,0,0,4.09765,1.13965c1.57813,0,2.16992-.416,2.16992-1.07422,0-1.92773-7.12207.04395-7.12207-4.667,0-2.23438,2.01661-3.8125,5.45606-3.8125a9.69416,9.69416,0,0,1,4.53613,1.03027l-1.13965,2.43164a6.769,6.769,0,0,0-3.39648-.876c-1.5332,0-2.19043.48144-2.19043,1.0957,0,2.01562,7.12109.06543,7.12109,4.71094,0,2.19043-2.03808,3.74609-5.56543,3.74609A10.11451,10.11451,0,0,1,241.80585,100.77007Z"/>
        <path class="a1f8a776-fa4a-466e-803e-b5b93be73344" d="M272.26777,96.93609h-8.918a3.14264,3.14264,0,0,0,3.374,2.36621,3.99705,3.99705,0,0,0,2.958-1.13965l1.81836,1.97168a6.1716,6.1716,0,0,1-4.86426,1.90625c-4.07519,0-6.72656-2.56348-6.72656-6.06934a6.00182,6.00182,0,0,1,6.28906-6.06933,5.8352,5.8352,0,0,1,6.13477,6.11328C272.3332,96.27788,272.28925,96.65093,272.26777,96.93609ZM263.30585,94.942h5.80664a2.94443,2.94443,0,0,0-5.80664,0Z"/>
        <path class="a1f8a776-fa4a-466e-803e-b5b93be73344" d="M282.21894,101.29644a4.88335,4.88335,0,0,1-2.78223.74414c-2.7832,0-4.40429-1.42383-4.40429-4.22852V92.96929h-1.81836V90.34038h1.81836V87.47027h3.418v2.87011h2.93652v2.62891h-2.93652v4.79883a1.37482,1.37482,0,0,0,1.46777,1.55566,2.30819,2.30819,0,0,0,1.38086-.4375Z"/>
        <path class="a1f8a776-fa4a-466e-803e-b5b93be73344" d="M300.78242,95.13921v6.72657H297.5832V100.398a3.86962,3.86962,0,0,1-3.59375,1.64258c-2.76074,0-4.4043-1.5332-4.4043-3.57129,0-2.08105,1.46875-3.52734,5.06152-3.52734h2.71778c0-1.46875-.877-2.32324-2.71778-2.32324a5.67218,5.67218,0,0,0-3.39648,1.0957l-1.22656-2.3877a9.05749,9.05749,0,0,1,5.083-1.4248C298.70039,89.90191,300.78242,91.567,300.78242,95.13921Zm-3.418,3.002V96.93609h-2.34473c-1.59961,0-2.10351.59082-2.10351,1.37988,0,.85449.72265,1.42481,1.92773,1.42481A2.52,2.52,0,0,0,297.36445,98.14117Z"/>
        <path class="a1f8a776-fa4a-466e-803e-b5b93be73344" d="M315.75214,90.07769v11.78809H312.509v-1.40235a4.76738,4.76738,0,0,1-3.65918,1.57715c-2.958,0-5.04-1.665-5.04-5.30176V90.07769h3.418v6.15723c0,1.97168.87695,2.84765,2.38867,2.84765,1.57813,0,2.7168-1.00781,2.7168-3.17676V90.07769Z"/>
        <path class="a1f8a776-fa4a-466e-803e-b5b93be73344" d="M326.53535,101.29644a4.88337,4.88337,0,0,1-2.78223.74414c-2.7832,0-4.4043-1.42383-4.4043-4.22852V92.96929h-1.81836V90.34038h1.81836V87.47027h3.418v2.87011h2.93652v2.62891h-2.93652v4.79883a1.37482,1.37482,0,0,0,1.46777,1.55566,2.30817,2.30817,0,0,0,1.38086-.4375Z"/>
        <path class="a1f8a776-fa4a-466e-803e-b5b93be73344" d="M335.78535,89.90191v3.15527c-.28516-.02148-.50391-.04394-.76758-.04394-1.88379,0-3.13281,1.03027-3.13281,3.28711v5.56543H328.466V90.07769h3.26563v1.55566A4.75547,4.75547,0,0,1,335.78535,89.90191Z"/>
        <path class="a1f8a776-fa4a-466e-803e-b5b93be73344" d="M349.19843,96.93609h-8.918a3.14265,3.14265,0,0,0,3.374,2.36621,3.997,3.997,0,0,0,2.958-1.13965l1.81836,1.97168a6.17158,6.17158,0,0,1-4.86425,1.90625c-4.0752,0-6.72657-2.56348-6.72657-6.06934a6.00183,6.00183,0,0,1,6.28907-6.06933,5.83519,5.83519,0,0,1,6.13476,6.11328C349.26386,96.27788,349.21992,96.65093,349.19843,96.93609ZM340.23652,94.942h5.80664a2.94443,2.94443,0,0,0-5.80664,0Z"/>
        <path class="a1f8a776-fa4a-466e-803e-b5b93be73344" d="M350.40644,100.77007l1.13965-2.4541a8.05517,8.05517,0,0,0,4.09668,1.13965c1.57812,0,2.16992-.416,2.16992-1.07422,0-1.92773-7.12207.04395-7.12207-4.667,0-2.23438,2.0166-3.8125,5.456-3.8125a9.6942,9.6942,0,0,1,4.53614,1.03027l-1.13965,2.43164a6.769,6.769,0,0,0-3.39649-.876c-1.5332,0-2.19043.48144-2.19043,1.0957,0,2.01562,7.1211.06543,7.1211,4.71094,0,2.19043-2.03809,3.74609-5.56543,3.74609A10.11448,10.11448,0,0,1,350.40644,100.77007Z"/>
        <path class="a1f8a776-fa4a-466e-803e-b5b93be73344" d="M381.39374,85.607v16.25879H378.1291v-1.3584a4.53548,4.53548,0,0,1-3.68067,1.5332,6.07193,6.07193,0,0,1,0-12.13867,4.527,4.527,0,0,1,3.52735,1.4248V85.607Zm-3.35253,10.36425a3.02242,3.02242,0,1,0-3.002,3.26465A2.98683,2.98683,0,0,0,378.04121,95.97124Z"/>
        <path class="a1f8a776-fa4a-466e-803e-b5b93be73344" d="M383.67695,95.97124c0-3.5498,2.73926-6.06933,6.48633-6.06933,3.74609,0,6.46386,2.51953,6.46386,6.06933s-2.71777,6.06934-6.46386,6.06934C386.41621,102.04058,383.67695,99.52105,383.67695,95.97124Zm9.4873,0a3.02242,3.02242,0,1,0-3.001,3.26465A2.97462,2.97462,0,0,0,393.16425,95.97124Z"/>
        <path class="a1f8a776-fa4a-466e-803e-b5b93be73344" d="M398.03242,95.97124c0-3.5498,2.73925-6.06933,6.57324-6.06933,2.47656,0,4.42676,1.07422,5.28125,3.00195l-2.65137,1.42383a2.94059,2.94059,0,0,0-2.65137-1.62109,3.26959,3.26959,0,0,0,0,6.52929,2.90015,2.90015,0,0,0,2.65137-1.62109l2.65137,1.44629a5.4681,5.4681,0,0,1-5.28125,2.97949C400.77167,102.04058,398.03242,99.52105,398.03242,95.97124Z"/>
        <path class="a1f8a776-fa4a-466e-803e-b5b93be73344" d="M423.73847,90.07769v11.78809h-3.24316v-1.40235a4.76738,4.76738,0,0,1-3.65918,1.57715c-2.958,0-5.04-1.665-5.04-5.30176V90.07769h3.418v6.15723c0,1.97168.87695,2.84765,2.38867,2.84765,1.57812,0,2.7168-1.00781,2.7168-3.17676V90.07769Z"/>
        <path class="a1f8a776-fa4a-466e-803e-b5b93be73344" d="M446.8371,95.11675v6.749h-3.418V95.64312c0-1.90625-.8545-2.7832-2.23536-2.7832-1.5332,0-2.60742.98632-2.60742,3.08984v5.916h-3.418V95.64312c0-1.90625-.81054-2.7832-2.23535-2.7832-1.51172,0-2.585.98632-2.585,3.08984v5.916h-3.41894V90.07769h3.26562v1.3584a4.7732,4.7732,0,0,1,3.70313-1.53418,4.40077,4.40077,0,0,1,3.87792,1.92871,5.301,5.301,0,0,1,4.251-1.92871C444.82148,89.90191,446.8371,91.523,446.8371,95.11675Z"/>
        <path class="a1f8a776-fa4a-466e-803e-b5b93be73344" d="M461.52363,96.93609h-8.918a3.14264,3.14264,0,0,0,3.374,2.36621,3.99705,3.99705,0,0,0,2.958-1.13965l1.81836,1.97168a6.1716,6.1716,0,0,1-4.86426,1.90625c-4.07519,0-6.72656-2.56348-6.72656-6.06934a6.00182,6.00182,0,0,1,6.28906-6.06933,5.8352,5.8352,0,0,1,6.13477,6.11328C461.58906,96.27788,461.54511,96.65093,461.52363,96.93609ZM452.56171,94.942h5.80664a2.94443,2.94443,0,0,0-5.80664,0Z"/>
        <path class="a1f8a776-fa4a-466e-803e-b5b93be73344" d="M475.923,95.11675v6.749h-3.418V95.64312c0-1.90625-.87695-2.7832-2.38867-2.7832-1.64355,0-2.82617,1.00781-2.82617,3.17773v5.82813h-3.418V90.07769h3.26465v1.37988a5.1611,5.1611,0,0,1,3.90039-1.55566C473.81953,89.90191,475.923,91.523,475.923,95.11675Z"/>
        <path class="a1f8a776-fa4a-466e-803e-b5b93be73344" d="M486.62031,101.29644a4.88335,4.88335,0,0,1-2.78223.74414c-2.7832,0-4.4043-1.42383-4.4043-4.22852V92.96929h-1.81933V90.34038h1.81933V87.47027h3.418v2.87011h2.93653v2.62891h-2.93653v4.79883a1.37482,1.37482,0,0,0,1.46778,1.55566,2.31033,2.31033,0,0,0,1.38086-.4375Z"/>
        <path class="a1f8a776-fa4a-466e-803e-b5b93be73344" d="M487.4123,100.77007,488.552,98.316a8.05517,8.05517,0,0,0,4.09668,1.13965c1.57812,0,2.16992-.416,2.16992-1.07422,0-1.92773-7.12207.04395-7.12207-4.667,0-2.23438,2.0166-3.8125,5.45605-3.8125a9.6942,9.6942,0,0,1,4.53614,1.03027L496.549,93.36382a6.769,6.769,0,0,0-3.39649-.876c-1.5332,0-2.19043.48144-2.19043,1.0957,0,2.01562,7.1211.06543,7.1211,4.71094,0,2.19043-2.03809,3.74609-5.56543,3.74609A10.11448,10.11448,0,0,1,487.4123,100.77007Z"/>
        <path class="a1f8a776-fa4a-466e-803e-b5b93be73344" d="M499.35664,99.8941a2.1256,2.1256,0,0,1,4.251,0,2.12559,2.12559,0,1,1-4.251,0Z"/>
        <path class="a1f8a776-fa4a-466e-803e-b5b93be73344" d="M37.66914,126.19585l1.97167-2.36718a3.52192,3.52192,0,0,0,2.84864,1.6875c1.4248,0,2.16992-.8545,2.16992-2.542v-7.29589H39.26874v-2.84864h8.918v9.94727c0,3.791-1.90625,5.65332-5.52148,5.65332A6.16847,6.16847,0,0,1,37.66914,126.19585Z"/>
        <path class="a1f8a776-fa4a-466e-803e-b5b93be73344" d="M62.93671,123.23785h-8.918a3.14265,3.14265,0,0,0,3.374,2.36621,3.99707,3.99707,0,0,0,2.958-1.13965l1.81836,1.97168a6.17213,6.17213,0,0,1-4.86426,1.90722c-4.0752,0-6.72657-2.56445-6.72657-6.07031a6.00183,6.00183,0,0,1,6.28907-6.06933,5.83573,5.83573,0,0,1,6.13476,6.11328C63.00214,122.57964,62.9582,122.95269,62.93671,123.23785Zm-8.96191-1.99414h5.80664a2.94443,2.94443,0,0,0-5.80664,0Z"/>
        <path class="a1f8a776-fa4a-466e-803e-b5b93be73344" d="M84.32734,122.273a5.726,5.726,0,0,1-5.87207,6.07031,4.57639,4.57639,0,0,1-3.54981-1.4248v5.5h-3.418V116.37945h3.26465v1.3584a4.57852,4.57852,0,0,1,3.70313-1.53418A5.72521,5.72521,0,0,1,84.32734,122.273Zm-3.46192,0a3.0126,3.0126,0,1,0-3.00195,3.26563A2.97534,2.97534,0,0,0,80.86542,122.273Z"/>
        <path class="a1f8a776-fa4a-466e-803e-b5b93be73344" d="M98.092,123.23785H89.174a3.14264,3.14264,0,0,0,3.374,2.36621,3.99707,3.99707,0,0,0,2.958-1.13965l1.81836,1.97168a6.17212,6.17212,0,0,1-4.86426,1.90722c-4.07519,0-6.72656-2.56445-6.72656-6.07031a6.00182,6.00182,0,0,1,6.28906-6.06933,5.83574,5.83574,0,0,1,6.13477,6.11328C98.15742,122.57964,98.11347,122.95269,98.092,123.23785Zm-8.96192-1.99414h5.80664a2.94443,2.94443,0,0,0-5.80664,0Z"/>
        <path class="a1f8a776-fa4a-466e-803e-b5b93be73344" d="M112.31562,116.37945v11.78808h-3.24316v-1.40234a4.76823,4.76823,0,0,1-3.65918,1.57812c-2.958,0-5.04-1.666-5.04-5.30273v-6.66113h3.418v6.15722c0,1.97168.87695,2.84766,2.38867,2.84766,1.57812,0,2.71679-1.00781,2.71679-3.17676v-5.82812Z"/>
        <path class="a1f8a776-fa4a-466e-803e-b5b93be73344" d="M122.99042,128.16753l-2.585-3.61523-2.67382,3.61523H114.007l4.53515-5.93847-4.38183-5.84961h3.834l2.498,3.43945,2.56347-3.43945h3.6377l-4.38184,5.76269,4.55762,6.02539Z"/>
        <path class="a1f8a776-fa4a-466e-803e-b5b93be73344" d="M147.58027,122.273a5.726,5.726,0,0,1-5.87207,6.07031,4.57639,4.57639,0,0,1-3.54981-1.4248v5.5h-3.41894V116.37945h3.26562v1.3584a4.57851,4.57851,0,0,1,3.70313-1.53418A5.72521,5.72521,0,0,1,147.58027,122.273Zm-3.46192,0a3.0126,3.0126,0,1,0-3.00195,3.26563A2.97534,2.97534,0,0,0,144.11835,122.273Z"/>
        <path class="a1f8a776-fa4a-466e-803e-b5b93be73344" d="M149.44648,112.82964a1.95359,1.95359,0,0,1,2.126-1.90625,1.9181,1.9181,0,0,1,2.125,1.83985,2.1347,2.1347,0,0,1-4.251.0664Zm.416,3.54981h3.41895v11.78808h-3.41895Z"/>
        <path class="a1f8a776-fa4a-466e-803e-b5b93be73344" d="M156.46015,111.90874h3.418v16.25879h-3.418Z"/>
        <path class="a1f8a776-fa4a-466e-803e-b5b93be73344" d="M162.18085,122.273c0-3.5498,2.73926-6.06933,6.48633-6.06933,3.7461,0,6.46387,2.51953,6.46387,6.06933s-2.71777,6.07031-6.46387,6.07031C164.92011,128.34331,162.18085,125.82281,162.18085,122.273Zm9.48731,0a3.02249,3.02249,0,1,0-3.001,3.26563A2.97463,2.97463,0,0,0,171.66816,122.273Z"/>
        <path class="a1f8a776-fa4a-466e-803e-b5b93be73344" d="M185.01581,127.5982a4.8837,4.8837,0,0,1-2.78222.74511c-2.7832,0-4.4043-1.4248-4.4043-4.22949v-4.84277h-1.81836v-2.62891h1.81836V113.772h3.418v2.87011h2.93652v2.62891h-2.93652v4.79883a1.37482,1.37482,0,0,0,1.46777,1.55566,2.30237,2.30237,0,0,0,1.38086-.43848Z"/>
        <path class="a1f8a776-fa4a-466e-803e-b5b93be73344" d="M198.05585,123.23785h-8.918a3.14263,3.14263,0,0,0,3.374,2.36621,3.99707,3.99707,0,0,0,2.958-1.13965l1.81836,1.97168a6.17213,6.17213,0,0,1-4.86426,1.90722c-4.0752,0-6.72656-2.56445-6.72656-6.07031a6.00182,6.00182,0,0,1,6.28906-6.06933,5.83573,5.83573,0,0,1,6.13476,6.11328C198.12128,122.57964,198.07734,122.95269,198.05585,123.23785Zm-8.96191-1.99414h5.80664a2.94443,2.94443,0,0,0-5.80664,0Z"/>
        <path class="a1f8a776-fa4a-466e-803e-b5b93be73344" d="M207.72285,116.20367v3.15527c-.28516-.02148-.50391-.044-.76758-.044-1.88379,0-3.13281,1.03028-3.13281,3.28711v5.56543h-3.41895V116.37945h3.26563v1.55566A4.75544,4.75544,0,0,1,207.72285,116.20367Z"/>
        <path class="a1f8a776-fa4a-466e-803e-b5b93be73344" d="M216.0539,111.90874h3.418v16.25879h-3.418Z"/>
        <path class="a1f8a776-fa4a-466e-803e-b5b93be73344" d="M234.132,123.23785h-8.918a3.14264,3.14264,0,0,0,3.374,2.36621,3.99707,3.99707,0,0,0,2.958-1.13965l1.81836,1.97168a6.17212,6.17212,0,0,1-4.86426,1.90722c-4.0752,0-6.72656-2.56445-6.72656-6.07031a6.00182,6.00182,0,0,1,6.28906-6.06933,5.83574,5.83574,0,0,1,6.13477,6.11328C234.19746,122.57964,234.15351,122.95269,234.132,123.23785Zm-8.96192-1.99414h5.80664a2.94443,2.94443,0,0,0-5.80664,0Z"/>
        <path class="a1f8a776-fa4a-466e-803e-b5b93be73344" d="M241.80585,122.273c0-3.5498,2.73926-6.06933,6.57325-6.06933,2.47656,0,4.42675,1.07421,5.28125,3.00195l-2.65137,1.4248a2.93982,2.93982,0,0,0-2.65137-1.62207,3.27011,3.27011,0,0,0,0,6.53028,2.90114,2.90114,0,0,0,2.65137-1.62207l2.65137,1.44629a5.4688,5.4688,0,0,1-5.28125,2.98046C244.54511,128.34331,241.80585,125.82281,241.80585,122.273Z"/>
        <path class="a1f8a776-fa4a-466e-803e-b5b93be73344" d="M267.59882,121.41851v6.749h-3.418v-6.22265c0-1.90625-.877-2.78321-2.38867-2.78321-1.64355,0-2.82617,1.00782-2.82617,3.17774v5.82812h-3.418V111.90874h3.418V117.606a5.18149,5.18149,0,0,1,3.74707-1.40234C265.49531,116.20367,267.59882,117.82574,267.59882,121.41851Z"/>
        <path class="a1f8a776-fa4a-466e-803e-b5b93be73344" d="M281.12324,121.441v6.72656H277.924v-1.46777a3.87011,3.87011,0,0,1-3.59375,1.64355c-2.76074,0-4.4043-1.53418-4.4043-3.57226,0-2.08106,1.46777-3.52734,5.06152-3.52734h2.7168c0-1.46875-.876-2.32325-2.7168-2.32325a5.67437,5.67437,0,0,0-3.39648,1.09571l-1.22656-2.3877a9.05749,9.05749,0,0,1,5.083-1.4248C279.04121,116.20367,281.12324,117.86871,281.12324,121.441Zm-3.41895,3.002v-1.20507h-2.34375c-1.59961,0-2.10351.59082-2.10351,1.37988,0,.85449.72265,1.4248,1.92773,1.4248A2.51788,2.51788,0,0,0,277.70429,124.44292Z"/>
        <path class="a1f8a776-fa4a-466e-803e-b5b93be73344" d="M296.26679,121.41851v6.749h-3.418v-6.22265c0-1.90625-.87695-2.78321-2.38867-2.78321-1.64355,0-2.82617,1.00782-2.82617,3.17774v5.82812h-3.418V116.37945h3.26465v1.37988a5.1611,5.1611,0,0,1,3.90039-1.55566C294.16328,116.20367,296.26679,117.82574,296.26679,121.41851Z"/>
        <path class="a1f8a776-fa4a-466e-803e-b5b93be73344" d="M306.96406,127.5982a4.88374,4.88374,0,0,1-2.78223.74511c-2.7832,0-4.4043-1.4248-4.4043-4.22949v-4.84277H297.9582v-2.62891h1.81933V113.772h3.418v2.87011H306.132v2.62891H303.1955v4.79883a1.37482,1.37482,0,0,0,1.46778,1.55566,2.30451,2.30451,0,0,0,1.38086-.43848Z"/>
        <path class="a1f8a776-fa4a-466e-803e-b5b93be73344" d="M308.47871,112.82964a1.95358,1.95358,0,0,1,2.126-1.90625,1.91809,1.91809,0,0,1,2.125,1.83985,2.13469,2.13469,0,0,1-4.251.0664Zm.417,3.54981h3.418v11.78808h-3.418Z"/>
        <path class="a1f8a776-fa4a-466e-803e-b5b93be73344" d="M326.97382,123.23785h-8.918a3.14265,3.14265,0,0,0,3.374,2.36621,3.99707,3.99707,0,0,0,2.958-1.13965l1.81835,1.97168a6.17209,6.17209,0,0,1-4.86425,1.90722c-4.0752,0-6.72657-2.56445-6.72657-6.07031a6.00183,6.00183,0,0,1,6.28907-6.06933,5.83573,5.83573,0,0,1,6.13476,6.11328C327.03925,122.57964,326.99531,122.95269,326.97382,123.23785Zm-8.96191-1.99414h5.80664a2.94443,2.94443,0,0,0-5.80664,0Z"/>
        <path class="a1f8a776-fa4a-466e-803e-b5b93be73344" d="M336.64081,116.20367v3.15527c-.28515-.02148-.5039-.044-.76757-.044-1.88379,0-3.13282,1.03028-3.13282,3.28711v5.56543h-3.41894V116.37945h3.26562v1.55566A4.75547,4.75547,0,0,1,336.64081,116.20367Z"/>
        <path class="a1f8a776-fa4a-466e-803e-b5b93be73344" d="M343.83124,127.07183l1.13868-2.4541a8.06429,8.06429,0,0,0,4.09765,1.13965c1.57813,0,2.16992-.416,2.16992-1.07422,0-1.92774-7.12207.04394-7.12207-4.667,0-2.23438,2.01661-3.8125,5.45606-3.8125a9.694,9.694,0,0,1,4.53613,1.03027l-1.13965,2.43164a6.76886,6.76886,0,0,0-3.39648-.876c-1.5332,0-2.19043.48145-2.19043,1.09571,0,2.01562,7.12109.06543,7.12109,4.71093,0,2.19043-2.03808,3.74707-5.56543,3.74707A10.11423,10.11423,0,0,1,343.83124,127.07183Z"/>
        <path class="a1f8a776-fa4a-466e-803e-b5b93be73344" d="M368.091,123.23785h-8.918a3.14265,3.14265,0,0,0,3.374,2.36621,3.997,3.997,0,0,0,2.958-1.13965l1.81836,1.97168a6.1721,6.1721,0,0,1-4.86426,1.90722c-4.07519,0-6.72656-2.56445-6.72656-6.07031a6.00182,6.00182,0,0,1,6.28906-6.06933,5.83573,5.83573,0,0,1,6.13477,6.11328C368.15644,122.57964,368.11249,122.95269,368.091,123.23785Zm-8.96191-1.99414h5.80664a2.94443,2.94443,0,0,0-5.80664,0Z"/>
        <path class="a1f8a776-fa4a-466e-803e-b5b93be73344" d="M377.757,116.20367v3.15527c-.28516-.02148-.50391-.044-.76758-.044-1.88379,0-3.13281,1.03028-3.13281,3.28711v5.56543h-3.418V116.37945h3.26464v1.55566A4.75547,4.75547,0,0,1,377.757,116.20367Z"/>
        <path class="a1f8a776-fa4a-466e-803e-b5b93be73344" d="M391.17011,123.23785h-8.918a3.14265,3.14265,0,0,0,3.374,2.36621,3.997,3.997,0,0,0,2.958-1.13965l1.81836,1.97168a6.17209,6.17209,0,0,1-4.86425,1.90722c-4.0752,0-6.72657-2.56445-6.72657-6.07031a6.00183,6.00183,0,0,1,6.28907-6.06933,5.83573,5.83573,0,0,1,6.13476,6.11328C391.23554,122.57964,391.1916,122.95269,391.17011,123.23785Zm-8.96191-1.99414h5.80664a2.94443,2.94443,0,0,0-5.80664,0Z"/>
        <path class="a1f8a776-fa4a-466e-803e-b5b93be73344" d="M393.10175,112.82964a1.95359,1.95359,0,0,1,2.126-1.90625,1.91809,1.91809,0,0,1,2.125,1.83985,2.1347,2.1347,0,0,1-4.251.0664Zm.417,3.54981h3.418v11.78808h-3.418Z"/>
        <path class="a1f8a776-fa4a-466e-803e-b5b93be73344" d="M412.16621,121.41851v6.749h-3.418v-6.22265c0-1.90625-.877-2.78321-2.38868-2.78321-1.64355,0-2.82617,1.00782-2.82617,3.17774v5.82812h-3.41894V116.37945h3.26562v1.37988a5.1611,5.1611,0,0,1,3.90039-1.55566C410.06269,116.20367,412.16621,117.82574,412.16621,121.41851Z"/>
        <path class="a1f8a776-fa4a-466e-803e-b5b93be73344" d="M426.87324,123.23785h-8.918a3.14264,3.14264,0,0,0,3.374,2.36621,3.99707,3.99707,0,0,0,2.958-1.13965l1.81836,1.97168a6.17212,6.17212,0,0,1-4.86426,1.90722c-4.07519,0-6.72656-2.56445-6.72656-6.07031a6.00182,6.00182,0,0,1,6.28906-6.06933,5.83574,5.83574,0,0,1,6.13477,6.11328C426.93867,122.57964,426.89472,122.95269,426.87324,123.23785Zm-8.96192-1.99414H423.718a2.94443,2.94443,0,0,0-5.80664,0Z"/>
        <path class="a1f8a776-fa4a-466e-803e-b5b93be73344" d="M449.13886,121.41851v6.749h-3.418v-6.22265c0-1.90625-.85449-2.78321-2.23535-2.78321-1.5332,0-2.60742.98633-2.60742,3.08985v5.916h-3.418v-6.22265c0-1.90625-.81055-2.78321-2.23535-2.78321-1.51172,0-2.585.98633-2.585,3.08985v5.916h-3.418V116.37945h3.26465v1.3584a4.77314,4.77314,0,0,1,3.70312-1.53418,4.40079,4.40079,0,0,1,3.87793,1.92871,5.30237,5.30237,0,0,1,4.251-1.92871C447.12324,116.20367,449.13886,117.82574,449.13886,121.41851Z"/>
        <path class="a1f8a776-fa4a-466e-803e-b5b93be73344" d="M463.82636,123.23785h-8.918a3.14265,3.14265,0,0,0,3.374,2.36621,3.997,3.997,0,0,0,2.958-1.13965l1.81836,1.97168a6.17209,6.17209,0,0,1-4.86425,1.90722c-4.0752,0-6.72657-2.56445-6.72657-6.07031a6.00183,6.00183,0,0,1,6.28907-6.06933,5.83573,5.83573,0,0,1,6.13476,6.11328C463.89179,122.57964,463.84785,122.95269,463.82636,123.23785Zm-8.96191-1.99414h5.80664a2.94443,2.94443,0,0,0-5.80664,0Z"/>
        <path class="a1f8a776-fa4a-466e-803e-b5b93be73344" d="M478.22578,121.41851v6.749h-3.418v-6.22265c0-1.90625-.877-2.78321-2.38867-2.78321-1.64356,0-2.82618,1.00782-2.82618,3.17774v5.82812h-3.418V116.37945h3.26465v1.37988a5.1611,5.1611,0,0,1,3.90039-1.55566C476.12226,116.20367,478.22578,117.82574,478.22578,121.41851Z"/>
        <path class="a1f8a776-fa4a-466e-803e-b5b93be73344" d="M488.92206,127.5982a4.8837,4.8837,0,0,1-2.78222.74511c-2.7832,0-4.4043-1.4248-4.4043-4.22949v-4.84277h-1.81836v-2.62891h1.81836V113.772h3.418v2.87011H488.09v2.62891h-2.93652v4.79883a1.37482,1.37482,0,0,0,1.46777,1.55566,2.30237,2.30237,0,0,0,1.38086-.43848Z"/>
        <path class="a1f8a776-fa4a-466e-803e-b5b93be73344" d="M490.23945,126.19585a2.1256,2.1256,0,0,1,4.251,0,2.1256,2.1256,0,1,1-4.251,0Z"/>
      </g>
    </g>
  </g>
  <g>
    <g>
      <path id="b7df9939-8e0d-4ae7-978f-4e15272b43fa" data-name="a" class="a2be9f3f-f15a-4750-8755-291c3f8ec8dc" d="M573.05262,464.0515h0a17.83281,17.83281,0,0,0,17.03783,18.56825l306.9531,13.187h0a17.83161,17.83161,0,0,0,18.56754-17.03861h0l15.5343-361.59091h0l.7121-16.57554,3.11213-72.44086h0a9.04965,9.04965,0,0,0-8.813-9.6042h0L610.60945,5.00042h0A17.83158,17.83158,0,0,0,592.04192,22.039h0Z"/>
      <path id="a4c4ca49-f8cb-400e-9e54-cd79a4c18aae" data-name="b" class="a2be9f3f-f15a-4750-8755-291c3f8ec8dc" d="M610.60943,5.00079h0A17.83159,17.83159,0,0,0,592.0419,22.0394l-1.16046,27.012,342.56,14.71671,1.52969-35.60648h0a9.04966,9.04966,0,0,0-8.813-9.60421h0L610.60943,5.00079Z"/>
      <path class="e2807193-a8c8-4a7b-90d5-1001f69aece2" d="M573.05262,464.0515h0a17.83281,17.83281,0,0,0,17.03783,18.56825l306.9531,13.187h0a17.83161,17.83161,0,0,0,18.56754-17.03861h0l15.5343-361.59091h0l.73847-17.1893,3.1385-73.05461h0a9.04965,9.04965,0,0,0-8.813-9.6042h0L610.63582,4.38666h0a17.83161,17.83161,0,0,0-18.56754,17.03861h0Z"/>
      <path class="e2807193-a8c8-4a7b-90d5-1001f69aece2" d="M610.60943,5.00079h0A17.83159,17.83159,0,0,0,592.0419,22.0394l-1.16046,27.012,342.56,14.71671,1.52969-35.60648h0a9.04966,9.04966,0,0,0-8.813-9.60421h0L610.60943,5.00079Z"/>
      <path class="b60b38be-cd09-47d6-a5f6-58b6870ecfe6" d="M629.8928,28.58575h0c-.211,4.91118-4.07965,9.05033-8.9897,8.83939s-8.43585-4.0525-8.19848-9.57781c.211-4.91117,4.07965-9.05032,8.9897-8.83938h0c4.91005.21094,8.40948,4.66625,8.19848,9.5778Z"/>
      <path class="b60b38be-cd09-47d6-a5f6-58b6870ecfe6" d="M655.67656,29.69345h0c-.211,4.91117-4.07965,9.05032-8.9897,8.83938s-8.43585-4.0525-8.19848-9.5778c.211-4.91118,4.07965-9.05032,8.9897-8.83938h0a8.93247,8.93247,0,0,1,8.19848,9.5778Z"/>
    </g>
    <path class="b60b38be-cd09-47d6-a5f6-58b6870ecfe6" d="M888.96012,290.59582,640.94261,279.94074a11.66627,11.66627,0,0,1-11.16251-12.16545l6.63782-154.508A11.66678,11.66678,0,0,1,648.58265,102.104L896.60016,112.759a11.66628,11.66628,0,0,1,11.16251,12.16545l-6.63782,154.508A12.08588,12.08588,0,0,1,888.96012,290.59582Z"/>
    <g>
      <path id="f561c617-ea27-41d5-a0b2-d1e7c29e4308" data-name="c" class="ae3610d4-f556-4b3b-814a-b812783aa4c2" d="M683.997,236.9479s8.76814,24.97826,48.05754,26.66617,39.73135-22.89467,74.1092-21.41777h0a58.11748,58.11748,0,0,1,39.88543,16.47461h0a4.38429,4.38429,0,0,0,6.77993-.32361,4.69,4.69,0,0,0,1.35938-3.0168L859.938,121.499s-8.76814-24.97826-48.05754-26.66617-39.73135,22.89467-74.1092,21.41777h0A58.11744,58.11744,0,0,1,697.88581,99.776h0a4.3843,4.3843,0,0,0-6.77994.32361,4.69,4.69,0,0,0-1.35938,3.0168Z"/>
      <path class="b20377b8-3954-41f2-b646-52ee0b0bdfab" d="M699.25758,225.30272s2.33107,17.32117,33.64088,18.66627,52.62248-22.34085,74.1092-21.41776h0A48.93605,48.93605,0,0,1,840.754,238.7621l4.51-104.97781s-2.33107-17.32117-33.64088-18.66627-52.62248,22.34085-74.1092,21.41776h0a48.93605,48.93605,0,0,1-33.74637-16.21087Z"/>
      <path class="f0bbce12-9e2f-477c-bdd9-832645e258e3" d="M791.84655,117.34322,790.07948,158.475"/>
      <path class="f0bbce12-9e2f-477c-bdd9-832645e258e3" d="M702.5016,149.792s16.55669,15.47239,33.74637,16.21087,24.97822-8.76739,24.97822-8.76739"/>
      <path class="f0bbce12-9e2f-477c-bdd9-832645e258e3" d="M717.44574,145.51374l-.6066,14.11977"/>
      <path class="f0bbce12-9e2f-477c-bdd9-832645e258e3" d="M731.9694,151.05793l-.6066,14.11977"/>
      <path class="f0bbce12-9e2f-477c-bdd9-832645e258e3" d="M746.08954,151.66454l-.58023,13.506"/>
      <path class="f0bbce12-9e2f-477c-bdd9-832645e258e3" d="M700.629,193.37953s17.7842,15.52512,33.74636,16.21087c7.36657.31647,18.09279-5.988,24.41647-10.02168h0c1.89477-1.14875,3.71041-.45549,4.8588,1.43889-.02637.61376.56175,1.25429.53539,1.86805l-1.52969,35.60648"/>
      <path class="f0bbce12-9e2f-477c-bdd9-832645e258e3" d="M792.14264,224.98781l1.18683-27.62578s7.78856-9.50587,15.15513-9.1894h0A67.76,67.76,0,0,1,842.442,199.472"/>
      <path class="e2807193-a8c8-4a7b-90d5-1001f69aece2" d="M683.997,236.9479s8.76814,24.97826,48.05754,26.66617,39.73135-22.89467,74.1092-21.41777h0a58.11748,58.11748,0,0,1,39.88543,16.47461h0a4.38429,4.38429,0,0,0,6.77993-.32361,4.69,4.69,0,0,0,1.35938-3.0168L859.938,121.499s-8.76814-24.97826-48.05754-26.66617-39.73135,22.89467-74.1092,21.41777h0A58.11744,58.11744,0,0,1,697.88581,99.776h0a4.3843,4.3843,0,0,0-6.77994.32361,4.69,4.69,0,0,0-1.35938,3.0168Z"/>
    </g>
    <g>
      <path class="fb40f264-4a0c-46ba-b5ad-d0df0766019d" d="M709.71453,96.4338c-10.40973-1.0621-19.80293,2.83933-20.09306,9.59253l-5.77591,134.44561,38.57089,4.11735,5.77591-134.44561C728.45462,104.00418,720.09789,98.11,709.71453,96.4338Z"/>
      <ellipse class="fb40f264-4a0c-46ba-b5ad-d0df0766019d" cx="702.28877" cy="243.17587" rx="11.67422" ry="19.04824" transform="translate(386.18849 915.80106) rotate(-83.92784)"/>
    </g>
    <g>
      <path class="ae3610d4-f556-4b3b-814a-b812783aa4c2" d="M632.883,453.21268a5.50687,5.50687,0,0,1-5.28719-5.76265l5.75007-133.844a5.50688,5.50688,0,0,1,5.76193-5.288l248.01751,10.65508a5.50688,5.50688,0,0,1,5.28718,5.76265l-5.75007,133.844a5.50688,5.50688,0,0,1-5.76193,5.288Z"/>
      <path class="b60b38be-cd09-47d6-a5f6-58b6870ecfe6" d="M886.888,324.49886,881.16428,457.7287,633.75978,447.1l5.72369-133.22983L886.888,324.49886m1.142-12.25172-248.0175-10.65508a11.66627,11.66627,0,0,0-12.16473,11.16329l-5.75007,133.844a11.66677,11.66677,0,0,0,11.1625,12.16545l248.01751,10.65508a11.66627,11.66627,0,0,0,12.16473-11.16329l5.75007-133.844A12.0856,12.0856,0,0,0,888.03,312.24714Z"/>
    </g>
    <g>
      <polygon class="a9f76509-70d9-4f82-bf62-06b2552330e1" points="717.366 362.114 728.417 362.589 729.031 362.615 740.082 363.09 740.695 363.116 751.745 363.591 751.745 363.591 763.409 364.092 763.725 356.725 752.062 356.224 752.062 356.224 741.011 355.749 740.398 355.723 729.348 355.248 728.733 355.222 717.682 354.747 717.682 354.747 706.019 354.246 705.702 361.613 717.366 362.114"/>
      <polygon class="a9f76509-70d9-4f82-bf62-06b2552330e1" points="786.738 365.094 800.243 365.674 800.243 365.674 813.75 366.255 814.363 366.281 827.869 366.861 827.869 366.861 841.376 367.441 841.989 367.468 855.495 368.048 855.811 360.681 842.306 360.101 841.693 360.074 828.186 359.494 828.186 359.494 814.68 358.914 814.067 358.888 800.56 358.307 800.56 358.307 787.054 357.727 786.441 357.701 772.934 357.121 772.618 364.487 786.125 365.068 786.738 365.094"/>
      <polygon class="a9f76509-70d9-4f82-bf62-06b2552330e1" points="728.345 378.576 739.396 379.051 740.009 379.077 751.06 379.552 751.06 379.552 762.723 380.053 762.723 380.053 773.774 380.528 774.388 380.554 785.439 381.029 786.052 381.056 797.103 381.53 797.419 374.163 786.368 373.689 785.755 373.662 774.705 373.187 774.09 373.161 763.04 372.686 763.04 372.686 751.376 372.185 751.376 372.185 740.325 371.711 739.712 371.684 728.662 371.209 728.047 371.183 705.333 370.207 705.017 377.574 727.731 378.55 728.345 378.576"/>
      <polygon class="a9f76509-70d9-4f82-bf62-06b2552330e1" points="851.443 376.484 851.443 376.484 836.708 375.851 836.095 375.825 821.361 375.192 820.748 375.166 806.013 374.533 805.697 381.899 820.431 382.532 821.044 382.559 835.779 383.192 836.392 383.218 851.127 383.851 851.127 383.851 866.474 384.511 866.791 377.144 851.443 376.484"/>
      <polygon class="a9f76509-70d9-4f82-bf62-06b2552330e1" points="717.713 411.332 731.218 411.912 731.833 411.938 745.338 412.519 745.951 412.545 759.458 413.125 760.072 413.152 774.192 413.758 774.508 406.391 760.388 405.785 759.775 405.758 746.268 405.178 745.655 405.152 732.149 404.572 731.535 404.545 718.029 403.965 718.029 403.965 703.909 403.358 703.592 410.725 717.713 411.332"/>
      <polygon class="a9f76509-70d9-4f82-bf62-06b2552330e1" points="807.658 407.815 795.995 407.314 795.995 407.314 784.331 406.813 784.015 414.18 795.678 414.681 795.678 414.681 807.342 415.182 807.342 415.182 818.393 415.657 819.007 415.684 830.058 416.158 830.671 416.185 841.721 416.659 841.721 416.659 853.385 417.16 853.701 409.794 842.038 409.292 842.038 409.292 830.987 408.818 830.374 408.791 819.324 408.317 818.709 408.29 807.658 407.815"/>
      <polygon class="a9f76509-70d9-4f82-bf62-06b2552330e1" points="713.957 427.161 718.869 427.372 718.869 427.372 724.393 427.61 724.393 427.61 729.305 427.821 729.918 427.847 734.83 428.058 734.83 428.058 740.356 428.295 740.356 428.295 745.88 428.533 746.197 421.166 740.672 420.929 740.672 420.929 735.146 420.691 735.146 420.691 730.234 420.48 729.621 420.454 724.71 420.243 724.71 420.243 719.185 420.005 719.185 420.005 714.274 419.794 713.659 419.768 703.223 419.32 702.907 426.687 713.343 427.135 713.957 427.161"/>
      <polygon class="a9f76509-70d9-4f82-bf62-06b2552330e1" points="774.12 429.746 782.715 430.115 783.329 430.142 791.923 430.511 792.538 430.537 801.132 430.906 801.132 430.906 810.34 431.302 810.34 431.302 818.934 431.671 819.549 431.698 828.757 432.093 829.074 424.726 819.865 424.331 819.251 424.304 810.657 423.935 810.657 423.935 801.448 423.54 801.448 423.54 792.854 423.17 792.24 423.144 783.646 422.775 783.031 422.748 774.437 422.379 774.437 422.379 756.02 421.588 755.703 428.955 774.12 429.746"/>
      <polygon class="a9f76509-70d9-4f82-bf62-06b2552330e1" points="857.314 425.94 850.561 425.649 850.561 425.649 843.807 425.359 843.194 425.333 836.441 425.043 836.124 432.41 842.878 432.7 843.491 432.726 850.244 433.016 850.244 433.016 856.998 433.307 857.611 433.333 864.364 433.623 864.681 426.256 857.927 425.966 857.314 425.94"/>
    </g>
    <path class="b60b38be-cd09-47d6-a5f6-58b6870ecfe6" d="M666.95475,375.939l15.34766.65936a4.20022,4.20022,0,0,0,4.48166-4.11282l.65935-15.34765a4.20022,4.20022,0,0,0-4.11242-4.482l-15.34765-.65935a4.20023,4.20023,0,0,0-4.48167,4.11282l-.65935,15.34765A4.19933,4.19933,0,0,0,666.95475,375.939Z"/>
    <path class="b60b38be-cd09-47d6-a5f6-58b6870ecfe6" d="M664.84483,425.05147l15.34766.65935a4.20022,4.20022,0,0,0,4.48166-4.11281l.65935-15.34766a4.20022,4.20022,0,0,0-4.11242-4.482l-15.34766-.65935a4.20022,4.20022,0,0,0-4.48166,4.11281l-.65935,15.34766A4.19934,4.19934,0,0,0,664.84483,425.05147Z"/>
    <g>
      <g>
        <path class="befc3976-7f3d-4199-96fa-8c3c61d8c69a" d="M610.18972,337.2132c-.1055,2.45578,4.13881,3.86789,8.46222,3.43874s7.47208-2.1393,7.57756-4.5947c-4.73333-18.65452-3.88936-38.2996-6.07008-73.45059l-16.04128,1.15589C608.62351,302.0886,610.52469,315.086,610.18972,337.2132Z"/>
        <path class="e002a182-c338-4142-883f-a04d792362fe" d="M611.69721,259.1679c4.32341-.42915,7.95471.95664,7.84921,3.41241s-3.25416,4.16555-7.57757,4.5947-7.95471-.95663-7.84921-3.41241S607.37379,259.59705,611.69721,259.1679Z"/>
      </g>
      <g>
        <path class="befc3976-7f3d-4199-96fa-8c3c61d8c69a" d="M620.283,345.64225c1.14839,1.89438,4.83243,2.05265,9.20859.39561,3.76316-1.68337,6.35-4.64743,5.20166-6.54181C623.689,323.64731,617.7266,304.94,603.724,272.97157l-14.43664,6.76033C606.2804,313.67346,612.55922,325.01421,620.283,345.64225Z"/>
        <path class="e002a182-c338-4142-883f-a04d792362fe" d="M594.51544,272.57559c3.76315-1.68338,8.0602-1.49877,8.59409.36921,1.14839,1.89438-1.43851,4.85844-5.20166,6.54181s-8.0602,1.49877-8.59409-.36921C588.16539,277.223,590.75228,274.259,594.51544,272.57559Z"/>
      </g>
      <g>
        <path class="e002a182-c338-4142-883f-a04d792362fe" d="M650.34947,318.64191h0a4.62078,4.62078,0,0,0-2.88491-4.42929l.10549-2.4554h0a20.27789,20.27789,0,0,0-40.51841-1.74071l-.1055,2.45577h0c-2.455-.10547-3.78954,2.29751-3.895,4.75291-.07912,1.84164,1.71015,3.14866,3.5258,3.84156h0A19.86016,19.86016,0,0,0,629.8593,337.443c8.0602-1.49877,14.463-7.37409,16.007-14.6883h0C648.3492,322.24644,650.27034,320.48393,650.34947,318.64191Z"/>
        <path class="b60b38be-cd09-47d6-a5f6-58b6870ecfe6" d="M617.78576,317.8582c.58814.64016.509,2.48218-.15824,3.68329s-2.48139.50829-3.684-.15827c-.58814-.64015-.509-2.48217.15823-3.68329a2.3048,2.3048,0,0,1,3.684.15827"/>
        <path class="b60b38be-cd09-47d6-a5f6-58b6870ecfe6" d="M639.27248,318.78129c.58814.64016.509,2.48218-.15824,3.68329s-2.48139.50829-3.684-.15827c-.58813-.64015-.509-2.48217.15824-3.68329,1.28176-1.17508,3.12378-1.096,3.684.15827"/>
        <path id="b9672a53-4818-4d34-a737-d36915752aa1" data-name="k" class="b60b38be-cd09-47d6-a5f6-58b6870ecfe6" d="M649.00855,306.89878h0c-.11339-11.69077-9.513-21.93506-21.2045-21.82245-11.05061-.47475-21.29419,8.92566-21.76893,19.97627l-.29011,6.75282h0a15.91416,15.91416,0,0,0,12.0856-9.32127C626.80334,308.40475,639.1342,307.70472,649.00855,306.89878Z"/>
        <path class="bc8d0c40-7920-460e-8fd9-22404ca1ae43" d="M649.00855,306.89878h0c-.11339-11.69077-9.513-21.93506-21.2045-21.82245-11.05061-.47475-21.29419,8.92566-21.76893,19.97627l-.29011,6.75282h0a15.91416,15.91416,0,0,0,12.0856-9.32127C626.80334,308.40475,639.1342,307.70472,649.00855,306.89878Z"/>
        <path class="bc8d0c40-7920-460e-8fd9-22404ca1ae43" d="M614.30632,298.64228h0a16.30691,16.30691,0,0,0,2.9113,3.81516"/>
        <path class="bc8d0c40-7920-460e-8fd9-22404ca1ae43" d="M622.3017,327.2778l7.36658.31648"/>
        <path class="a38d59d2-f94a-415a-851c-18b936791c97" d="M634.06441,311.177h0a2.458,2.458,0,1,0,2.34953,2.56125h0a2.643,2.643,0,0,0-2.34953-2.56125Z"/>
        <path class="a38d59d2-f94a-415a-851c-18b936791c97" d="M619.94427,310.57039h0a2.458,2.458,0,1,0,2.34952,2.56124h0c.66726-1.20148-.5075-2.48211-2.34952-2.56124Z"/>
      </g>
    </g>
    <g>
      <g>
        <path class="befc3976-7f3d-4199-96fa-8c3c61d8c69a" d="M618.73354,138.33923c-.1055,2.45577,4.13881,3.86789,8.46222,3.43874s7.47208-2.1393,7.57756-4.5947c-4.73333-18.65453-3.88936-38.2996-6.07007-73.4506L612.662,64.88856C617.16732,103.215,619.0685,116.21235,618.73354,138.33923Z"/>
        <path class="e002a182-c338-4142-883f-a04d792362fe" d="M620.241,60.2943c4.32341-.42915,7.95472.95663,7.84921,3.41241s-3.25415,4.16555-7.57756,4.5947-7.95471-.95663-7.84921-3.41241C612.74257,63.04736,615.9176,60.72345,620.241,60.2943Z"/>
      </g>
      <g>
        <path class="befc3976-7f3d-4199-96fa-8c3c61d8c69a" d="M628.80041,147.38241c1.14839,1.89438,4.83243,2.05265,9.20859.39561,3.76316-1.68338,6.35005-4.64744,5.20166-6.54182-11.00427-15.84873-16.96662-34.55606-30.9692-66.52447l-14.43664,6.76033C614.8242,114.79986,621.103,126.14024,628.80041,147.38241Z"/>
        <path class="e002a182-c338-4142-883f-a04d792362fe" d="M603.05925,73.702c3.76315-1.68337,8.0602-1.49876,8.59408.36921,1.1484,1.89438-1.4385,4.85844-5.20165,6.54182s-8.0602,1.49877-8.59409-.36921C596.70919,78.34942,599.29609,75.38536,603.05925,73.702Z"/>
      </g>
      <g>
        <path class="e002a182-c338-4142-883f-a04d792362fe" d="M658.89328,119.76831h0a4.62077,4.62077,0,0,0-2.88491-4.42929l.1055-2.45578h0a20.27789,20.27789,0,0,0-40.51841-1.74071l-.1055,2.45578h0c-2.455-.10547-3.78954,2.2975-3.895,4.7529-.07912,1.84165,1.71014,3.14867,3.5258,3.84156h0A19.86015,19.86015,0,0,0,638.40313,138.569c8.0602-1.49877,14.463-7.37409,16.007-14.68831h0C656.893,123.37283,658.81416,121.61,658.89328,119.76831Z"/>
        <path class="b60b38be-cd09-47d6-a5f6-58b6870ecfe6" d="M626.32957,118.9846c.58814.64016.509,2.48218-.15824,3.68329-.64087.58736-2.48139.50829-3.684-.15827-.58813-.64016-.509-2.48217.15824-3.68329a2.30479,2.30479,0,0,1,3.684.15827"/>
        <path class="b60b38be-cd09-47d6-a5f6-58b6870ecfe6" d="M647.81629,119.90769c.58813.64016.509,2.48218-.15824,3.68329-.64088.58736-2.48139.50829-3.684-.15827-.58814-.64016-.509-2.48217.15824-3.68329,1.28176-1.17508,3.12378-1.096,3.684.15827"/>
        <path id="a60e369b-bcb8-4f89-a64e-a0c5152bca10" data-name="k" class="b60b38be-cd09-47d6-a5f6-58b6870ecfe6" d="M657.55236,108.02518h0c-.11339-11.69077-9.513-21.93506-21.2045-21.82245-11.05061-.47475-21.29419,8.92566-21.76894,19.97627l-.2901,6.75282h0a15.91416,15.91416,0,0,0,12.08559-9.32127C635.34715,109.53115,647.678,108.83075,657.55236,108.02518Z"/>
        <path class="bc8d0c40-7920-460e-8fd9-22404ca1ae43" d="M657.55236,108.02518h0c-.11339-11.69077-9.513-21.93506-21.2045-21.82245-11.05061-.47475-21.29419,8.92566-21.76894,19.97627l-.2901,6.75282h0a15.91416,15.91416,0,0,0,12.08559-9.32127C635.34715,109.53115,647.678,108.83075,657.55236,108.02518Z"/>
        <path class="bc8d0c40-7920-460e-8fd9-22404ca1ae43" d="M622.85013,99.76868h0a16.30657,16.30657,0,0,0,2.91129,3.81516"/>
        <path class="bc8d0c40-7920-460e-8fd9-22404ca1ae43" d="M630.84551,128.4042l7.36657.31648"/>
        <path class="a38d59d2-f94a-415a-851c-18b936791c97" d="M642.60822,112.3034h0a2.458,2.458,0,1,0,2.34952,2.56125h0a2.643,2.643,0,0,0-2.34952-2.56125Z"/>
        <path class="a38d59d2-f94a-415a-851c-18b936791c97" d="M628.48808,111.69679h0a2.458,2.458,0,1,0,2.34952,2.56124h0c.66726-1.20148-.5075-2.48211-2.34952-2.56124Z"/>
      </g>
    </g>
  </g>
  <g>
    <path class="ae3610d4-f556-4b3b-814a-b812783aa4c2" d="M189.86281,425.38585H506.661a0,0,0,0,1,0,0v13.67307a22.43695,22.43695,0,0,1-22.43695,22.43695H212.29976a22.43695,22.43695,0,0,1-22.43695-22.43695V425.38585A0,0,0,0,1,189.86281,425.38585Z"/>
    <g>
      <path class="a1f8a776-fa4a-466e-803e-b5b93be73344" d="M238.37421,435.27788v14.00293H235.133V437.87847h-2.80078v-2.60059Z"/>
      <path class="a1f8a776-fa4a-466e-803e-b5b93be73344" d="M240.7121,447.48a1.94054,1.94054,0,0,1,3.88086,0,1.94054,1.94054,0,1,1-3.88086,0Z"/>
      <path class="a1f8a776-fa4a-466e-803e-b5b93be73344" d="M264.73456,440.35894c0,3.12109-2.33984,5.06152-6.08105,5.06152H255.8332v3.86035H252.592V435.27788h6.06152C262.39472,435.27788,264.73456,437.21831,264.73456,440.35894Zm-3.28027,0c0-1.54-1-2.44043-2.98047-2.44043H255.8332v4.86133h2.64062C260.45429,442.77984,261.45429,441.87945,261.45429,440.35894Z"/>
      <path class="a1f8a776-fa4a-466e-803e-b5b93be73344" d="M273.49433,438.35894v2.87988c-.26074-.01953-.46-.04-.70019-.04-1.72071,0-2.86133.94043-2.86133,3.001v5.081h-3.12012V438.51812h2.98047v1.4209A4.34286,4.34286,0,0,1,273.49433,438.35894Z"/>
      <path class="a1f8a776-fa4a-466e-803e-b5b93be73344" d="M285.73554,444.77984h-8.1416A2.86894,2.86894,0,0,0,280.674,446.94a3.649,3.649,0,0,0,2.70117-1.04l1.66016,1.80078a5.6393,5.6393,0,0,1-4.44141,1.74023c-3.7207,0-6.1416-2.34082-6.1416-5.541a5.47944,5.47944,0,0,1,5.74219-5.541,5.32732,5.32732,0,0,1,5.60058,5.58105C285.79511,444.17925,285.75507,444.52007,285.73554,444.77984Zm-8.18164-1.82031h5.30078a2.68793,2.68793,0,0,0-5.30078,0Zm3.2002-5.82129h-2.44043l2.70019-2.88086h3.36133Z"/>
      <path class="a1f8a776-fa4a-466e-803e-b5b93be73344" d="M299.59589,443.9a5.22716,5.22716,0,0,1-5.36133,5.541,4.17749,4.17749,0,0,1-3.24121-1.30078v5.02148h-3.12011V438.51812h2.98047v1.24023a4.18351,4.18351,0,0,1,3.38085-1.39941A5.22716,5.22716,0,0,1,299.59589,443.9Zm-3.16113,0a2.75037,2.75037,0,1,0-2.74023,2.98046A2.71557,2.71557,0,0,0,296.43476,443.9Z"/>
      <path class="a1f8a776-fa4a-466e-803e-b5b93be73344" d="M311.01386,443.13921v6.1416h-2.91992V447.941a3.53354,3.53354,0,0,1-3.28125,1.5c-2.52051,0-4.02051-1.40039-4.02051-3.26074,0-1.90039,1.33985-3.2207,4.6211-3.2207h2.48046c0-1.34082-.80078-2.12012-2.48046-2.12012a5.17386,5.17386,0,0,0-3.10059,1l-1.12012-2.18067a8.27223,8.27223,0,0,1,4.64063-1.2998C309.11347,438.35894,311.01386,439.87847,311.01386,443.13921Zm-3.12012,2.74121v-1.10058h-2.14062c-1.46,0-1.91992.54-1.91992,1.26074,0,.7793.66015,1.2998,1.75976,1.2998A2.30078,2.30078,0,0,0,307.89374,445.88042Z"/>
      <path class="a1f8a776-fa4a-466e-803e-b5b93be73344" d="M320.51386,438.35894v2.87988c-.26074-.01953-.46-.04-.70019-.04-1.72071,0-2.86133.94043-2.86133,3.001v5.081h-3.12012V438.51812h2.98047v1.4209A4.34287,4.34287,0,0,1,320.51386,438.35894Z"/>
      <path class="a1f8a776-fa4a-466e-803e-b5b93be73344" d="M332.75507,444.77984h-8.1416a2.869,2.869,0,0,0,3.08008,2.16015,3.649,3.649,0,0,0,2.70117-1.04l1.66016,1.80078a5.6393,5.6393,0,0,1-4.44141,1.74023c-3.7207,0-6.1416-2.34082-6.1416-5.541a5.47944,5.47944,0,0,1,5.74219-5.541,5.32732,5.32732,0,0,1,5.60058,5.58105C332.81464,444.17925,332.7746,444.52007,332.75507,444.77984Zm-8.18164-1.82031h5.30078a2.68793,2.68793,0,0,0-5.30078,0Z"/>
      <path class="a1f8a776-fa4a-466e-803e-b5b93be73344" d="M343.65449,446.88042v2.40039h-9.60157V447.4l5.48145-6.48047h-5.3418v-2.40137h9.28223V440.399l-5.48145,6.48144Z"/>
      <path class="a1f8a776-fa4a-466e-803e-b5b93be73344" d="M361.99531,438.51812l-4.541,10.76269h-3.2207l-4.52149-10.76269h3.22071l2.98047,7.32226,3.08105-7.32226Z"/>
      <path class="a1f8a776-fa4a-466e-803e-b5b93be73344" d="M362.173,443.9c0-3.24122,2.5-5.541,5.9209-5.541s5.90137,2.2998,5.90137,5.541c0,3.24023-2.48047,5.541-5.90137,5.541S362.173,447.14019,362.173,443.9Zm8.66113,0a2.75936,2.75936,0,1,0-2.74023,2.98046A2.71557,2.71557,0,0,0,370.83417,443.9Z"/>
      <path class="a1f8a776-fa4a-466e-803e-b5b93be73344" d="M375.03242,448.28081l1.04-2.24023a7.36039,7.36039,0,0,0,3.74023,1.04c1.44043,0,1.98047-.37988,1.98047-.98047,0-1.76074-6.501.04-6.501-4.26074,0-2.041,1.84082-3.48047,4.98145-3.48047a8.85812,8.85812,0,0,1,4.14062.93945l-1.04,2.22071a6.18746,6.18746,0,0,0-3.10058-.79981c-1.40039,0-2.001.43945-2.001,1,0,1.83984,6.502.05957,6.502,4.30078,0,2-1.86035,3.4209-5.08105,3.4209A9.23627,9.23627,0,0,1,375.03242,448.28081Z"/>
      <path class="a1f8a776-fa4a-466e-803e-b5b93be73344" d="M404.07441,443.9a5.22716,5.22716,0,0,1-5.36133,5.541,4.17747,4.17747,0,0,1-3.24121-1.30078v5.02148h-3.12012V438.51812h2.98047v1.24023a4.18352,4.18352,0,0,1,3.38086-1.39941A5.22716,5.22716,0,0,1,404.07441,443.9Zm-3.16113,0a2.75037,2.75037,0,1,0-2.74024,2.98046A2.71558,2.71558,0,0,0,400.91328,443.9Z"/>
      <path class="a1f8a776-fa4a-466e-803e-b5b93be73344" d="M412.8332,438.35894v2.87988c-.26074-.01953-.46-.04-.7002-.04-1.7207,0-2.86133.94043-2.86133,3.001v5.081h-3.12011V438.51812H409.132v1.4209A4.34285,4.34285,0,0,1,412.8332,438.35894Z"/>
      <path class="a1f8a776-fa4a-466e-803e-b5b93be73344" d="M413.79218,443.9c0-3.24122,2.5-5.541,5.9209-5.541s5.90137,2.2998,5.90137,5.541c0,3.24023-2.48047,5.541-5.90137,5.541S413.79218,447.14019,413.79218,443.9Zm8.66113,0a2.75936,2.75936,0,1,0-2.74023,2.98046A2.71557,2.71557,0,0,0,422.45331,443.9Z"/>
      <path class="a1f8a776-fa4a-466e-803e-b5b93be73344" d="M424.39179,452.72124l.83985-2.25976a2.29755,2.29755,0,0,0,1.32031.37988c.78027,0,1.28027-.5,1.28027-1.56055V438.51812h3.12109v10.74316a3.73357,3.73357,0,0,1-4.06152,4.06055A4.54347,4.54347,0,0,1,424.39179,452.72124Zm3.06055-17.44336a1.78355,1.78355,0,0,1,1.94043-1.74023,1.7515,1.7515,0,0,1,1.94043,1.67969,1.94884,1.94884,0,0,1-3.88086.06054Z"/>
      <path class="a1f8a776-fa4a-466e-803e-b5b93be73344" d="M444.31464,444.77984H436.173a2.869,2.869,0,0,0,3.08008,2.16015,3.649,3.649,0,0,0,2.70117-1.04l1.66016,1.80078A5.6393,5.6393,0,0,1,439.173,449.441c-3.7207,0-6.14062-2.34082-6.14062-5.541a5.47862,5.47862,0,0,1,5.74121-5.541,5.32732,5.32732,0,0,1,5.60058,5.58105C444.37421,444.17925,444.33417,444.52007,444.31464,444.77984Zm-8.18164-1.82031h5.30078a2.68793,2.68793,0,0,0-5.30078,0Z"/>
      <path class="a1f8a776-fa4a-466e-803e-b5b93be73344" d="M453.39374,448.76031a4.45451,4.45451,0,0,1-2.541.68066c-2.54,0-4.02051-1.30078-4.02051-3.86133v-4.4209h-1.66016v-2.40039h1.66016v-2.62011h3.12109v2.62011H452.634v2.40039h-2.68067v4.38086a1.25518,1.25518,0,0,0,1.33985,1.4209,2.10871,2.10871,0,0,0,1.26074-.40039Z"/>
      <path class="a1f8a776-fa4a-466e-803e-b5b93be73344" d="M454.11152,448.28081l1.04-2.24023a7.36039,7.36039,0,0,0,3.74023,1.04c1.44043,0,1.98047-.37988,1.98047-.98047,0-1.76074-6.501.04-6.501-4.26074,0-2.041,1.84082-3.48047,4.98145-3.48047a8.85809,8.85809,0,0,1,4.14062.93945l-1.04,2.22071a6.18746,6.18746,0,0,0-3.10058-.79981c-1.40039,0-2.001.43945-2.001,1,0,1.83984,6.502.05957,6.502,4.30078,0,2-1.86036,3.4209-5.08106,3.4209A9.23627,9.23627,0,0,1,454.11152,448.28081Z"/>
    </g>
    <g>
      <path class="b05045d6-b6f3-4da6-b1d8-9fedb81b124a" d="M34.95109,423.93132h486.608"/>
      <path class="b05045d6-b6f3-4da6-b1d8-9fedb81b124a" d="M13.80832,423.93132h11.746"/>
      <path class="b05045d6-b6f3-4da6-b1d8-9fedb81b124a" d="M530.95589,423.93132h11.746"/>
    </g>
  </g>
  <g>
    <path class="badbd078-d827-491a-a289-be4a21b8f65a" d="M155.72425,455.80143c21.08571,2.54485,21.08571,6.54374,0,8.725-21.0857,2.54485-55.62234,2.54485-76.708,0s-21.08571-6.54374,0-8.725,55.25844-2.18128,76.708,0"/>
    <path class="b637a1fc-b70d-4045-9199-184142ea78f0" d="M133.91164,347.46538h14.54174v11.63344h0A9.31363,9.31363,0,0,0,157.542,368.551h.3639a7.292,7.292,0,0,1,7.27087,7.27087h0a7.292,7.292,0,0,1-7.27087,7.27087h0a23.74323,23.74323,0,0,1-23.99423-23.9939h0Z"/>
    <path id="b7c575e8-5414-46a4-a191-e3ed614fa74d" data-name="n" class="b68f23b3-c24e-49ee-adf8-1a1dc0fef8df" d="M69.20071,341.28521h0a39.82861,39.82861,0,0,1,79.61657-2.54474v8.72514H138.27487v31.26476H84.10724V347.46561H69.56549v-6.18029l-.36478-.00011Z"/>
    <path class="aa7bc969-f30a-4f45-a08b-f6d5d66497e1" d="M69.20071,341.28521h0a39.82861,39.82861,0,0,1,79.61657-2.54474v8.72514H138.27487v31.26476H84.10724V347.46561H69.56549v-6.18029l-.36478-.00011Z"/>
    <path id="fe2a94ba-2443-4a73-9c8f-bd91369772b8" data-name="o" class="a699e6fd-7b01-496c-ae27-b8015a8fd727" d="M83.74245,378.73015V452.166h0a4.36523,4.36523,0,0,0,3.99934,4.36256h14.54174l1.45382-51.62323h0a6.65963,6.65963,0,0,1,5.08925-6.54374h0a6.73619,6.73619,0,0,1,8.36168,4.726c0,.36357.3639,1.09059.3639,1.45416l1.45382,47.98779h0a4.03456,4.03456,0,0,0,3.99933,3.999H137.911V379.09383Z"/>
    <path class="aa7bc969-f30a-4f45-a08b-f6d5d66497e1" d="M83.74245,378.73015V452.166h0a4.36523,4.36523,0,0,0,3.99934,4.36256h14.54174l1.45382-51.62323h0a6.65963,6.65963,0,0,1,5.08925-6.54374h0a6.73619,6.73619,0,0,1,8.36168,4.726c0,.36357.3639,1.09059.3639,1.45416l1.45382,47.98779h0a4.03456,4.03456,0,0,0,3.99933,3.999H137.911V379.09383Z"/>
    <path class="aa7bc969-f30a-4f45-a08b-f6d5d66497e1" d="M83.74245,347.46538V335.10492"/>
    <path class="aa7bc969-f30a-4f45-a08b-f6d5d66497e1" d="M137.91009,347.46538V335.10492"/>
    <path class="a635a206-eed5-4e5c-8ec1-571e55d5a649" d="M148.08948,456.16489h0a12.64486,12.64486,0,0,0-12.724-12.724H118.6421v8.36146h0a4.36524,4.36524,0,0,0,3.99933,4.36257h25.44805Z"/>
    <path class="a635a206-eed5-4e5c-8ec1-571e55d5a649" d="M112.82594,456.16489h0a12.64487,12.64487,0,0,0-12.724-12.724H83.74245v8.36146h0a4.36524,4.36524,0,0,0,3.99934,4.36257h25.08415Z"/>
    <path class="a635a206-eed5-4e5c-8ec1-571e55d5a649" d="M189.5331,305.29431l-20.3588-5.45316c-11.99711,45.07938-15.26865,70.52743-26.53886,93.43074-.72691,2.90831,3.27154,6.18029,8.72469,7.63444s10.90631.36357,11.63322-2.18128C168.08438,370.36869,173.90143,354.00923,189.5331,305.29431Z"/>
    <path class="b637a1fc-b70d-4045-9199-184142ea78f0" d="M189.5331,305.29431c-.72691,2.9083-5.81706,3.999-11.27021,2.54485s-9.45249-4.726-8.72469-7.63444c.72691-2.9083,5.81705-3.999,11.2702-2.54485S190.26089,302.386,189.5331,305.29431Z"/>
    <path class="b637a1fc-b70d-4045-9199-184142ea78f0" d="M161.17741,367.09671h0a8.30605,8.30605,0,0,0-6.544,15.26888,1.26714,1.26714,0,0,1,.72691.36356l7.63477,2.90831h0a2.65583,2.65583,0,0,0,3.63543-1.45415v-.36357l3.63544-10.17918h0a2.65606,2.65606,0,0,0-1.45382-3.63543h0Z"/>
    <path class="b637a1fc-b70d-4045-9199-184142ea78f0" d="M125.55,322.3809V305.29431h0a37.552,37.552,0,0,0-31.2651-.72713v18.17717l16.72336-6.18028Z"/>
    <path class="b637a1fc-b70d-4045-9199-184142ea78f0" d="M99.0111,302.74957l11.99712,13.45116,10.90631-12.36046h0A41.1701,41.1701,0,0,0,108.8266,301.659h0A45.11379,45.11379,0,0,0,99.0111,302.74957Z"/>
    <path class="aa7bc969-f30a-4f45-a08b-f6d5d66497e1" d="M111.00822,316.20061v62.52954"/>
    <path class="a635a206-eed5-4e5c-8ec1-571e55d5a649" d="M90.64942,390.36359a3.95539,3.95539,0,0,1-3.99933-3.27187L83.37855,346.3748a3.95476,3.95476,0,0,1,3.27154-3.999l26.175-2.18129a3.95539,3.95539,0,0,1,3.99933,3.27187l3.27154,40.71693a3.95477,3.95477,0,0,1-3.27154,3.999Z"/>
    <path class="b637a1fc-b70d-4045-9199-184142ea78f0" d="M105.19117,361.28011l10.17939,10.54274,5.45316-5.81672h0a7.19784,7.19784,0,0,0-10.1794-10.17918l-5.45315,5.45316Z"/>
    <path class="b637a1fc-b70d-4045-9199-184142ea78f0" d="M83.37855,348.55608l.72691,5.08959h0a12.10347,12.10347,0,0,0,11.99712,11.99689h0a12.24133,12.24133,0,0,0,9.45248-4.36257l10.1794,10.54275h0c-9.8155,10.9063-26.90187,11.26987-37.44516,1.45415a26.36131,26.36131,0,0,1-8.36168-19.63133V348.556"/>
    <path class="b637a1fc-b70d-4045-9199-184142ea78f0" d="M104.82816,345.2841l-10.1794.72713a2.81,2.81,0,0,1-2.90853-2.54485l-.3639-3.27187a2.80965,2.80965,0,0,1,2.54463-2.9083l10.1794-.72713a2.80993,2.80993,0,0,1,2.90852,2.54485l.3639,3.27187C107.73579,344.19351,106.64587,345.2841,104.82816,345.2841Z"/>
    <path class="b637a1fc-b70d-4045-9199-184142ea78f0" d="M139.0009,269.66708h0a5.1274,5.1274,0,0,0-3.99934-5.08958v-3.27187h0a25.08415,25.08415,0,1,0-50.1683,0v3.27187h0a5.0284,5.0284,0,0,0-4.36235,5.81671,5.41947,5.41947,0,0,0,4.72625,4.36257h0a25.099,25.099,0,0,0,49.07838,0h0A5.429,5.429,0,0,0,139.0009,269.66708Z"/>
    <path class="b60b38be-cd09-47d6-a5f6-58b6870ecfe6" d="M98.28419,270.39421a3.08472,3.08472,0,1,1-4.36234,0,3.317,3.317,0,0,1,4.36234,0"/>
    <path class="b60b38be-cd09-47d6-a5f6-58b6870ecfe6" d="M125.18606,270.39421a3.08472,3.08472,0,1,1-4.36234,0,3.317,3.317,0,0,1,4.36234,0"/>
    <path id="fbd82b26-5341-41b3-a826-1cd63cec7548" data-name="k" class="a699e6fd-7b01-496c-ae27-b8015a8fd727" d="M136.81928,255.12534h0c-.72691-14.90531-13.08792-26.9022-27.99268-26.17518a27.04218,27.04218,0,0,0-26.175,26.17518v8.36146h0a21.63722,21.63722,0,0,0,14.54175-12.36046C108.8266,258.76078,124.09525,256.94306,136.81928,255.12534Z"/>
    <path class="aa7bc969-f30a-4f45-a08b-f6d5d66497e1" d="M136.81928,255.12534h0c-.72691-14.90531-13.08792-26.9022-27.99268-26.17518a27.04218,27.04218,0,0,0-26.175,26.17518v8.36146h0a21.63722,21.63722,0,0,0,14.54175-12.36046C108.8266,258.76078,124.09525,256.94306,136.81928,255.12534Z"/>
    <path class="aa7bc969-f30a-4f45-a08b-f6d5d66497e1" d="M92.831,246.76388h0a15.49432,15.49432,0,0,0,3.99933,4.36257"/>
    <path class="aa7bc969-f30a-4f45-a08b-f6d5d66497e1" d="M104.82816,282.02754a41.09561,41.09561,0,0,0,9.45248,0"/>
    <path class="a38d59d2-f94a-415a-851c-18b936791c97" d="M118.27909,261.66908h0a3.27187,3.27187,0,1,0,3.27154,3.27187h0a3.258,3.258,0,0,0-3.27154-3.27187Z"/>
    <path class="a38d59d2-f94a-415a-851c-18b936791c97" d="M100.82882,261.66908h0a3.27187,3.27187,0,1,0,3.27154,3.27187h0a3.258,3.258,0,0,0-3.27154-3.27187Z"/>
  </g>
</svg>
