<svg id="Layer_1" data-name="Layer 1" xmlns="http://www.w3.org/2000/svg" xmlns:xlink="http://www.w3.org/1999/xlink" width="302.88533" height="1662.61034" viewBox="0 0 302.88533 1662.61034">
  <defs>
    <clipPath id="clip-path">
      <path d="M70.563,1068.24335c-3.56564,0-7.12983-2.37686-7.12983-5.94177V892.36712c0-3.56491,2.97088-5.94177,7.12983-5.94177H295.75549c3.56565,0,7.12984,2.37686,7.12984,5.94177v169.93446c0,3.56491-2.97089,5.94177-7.12984,5.94177Z" style="fill: none"/>
    </clipPath>
  </defs>
  <title>rea-timeline</title>
  <g>
    <g>
      <path id="a" d="M45.60643,1068.24335c-4.159,0-7.72459-3.56492-7.72459-7.1302V851.36877c0-4.15931,3.56564-7.13019,7.72459-7.13019H295.16074c4.159,0,7.72459,3.56491,7.72459,7.13019v209.74438c0,4.15931-3.56564,7.1302-7.72459,7.1302Z" style="fill: #c6c6c6"/>
      <g style="clip-path: url(#clip-path)">
        <g>
          <path d="M178.70293,915.53981v78.43142" style="fill: none;stroke: #444;stroke-linecap: round;stroke-linejoin: round;stroke-width: 5.94176925966015px"/>
          <path d="M130.574,994.56526h96.85113v89.12654H130.574Z" style="fill: none;stroke: #444;stroke-linecap: round;stroke-linejoin: round;stroke-width: 5.94176925966015px"/>
          <path d="M148.99409,994.56526h14.85442v89.12654H148.99409Z" style="fill: #7f7f7f;stroke: #444;stroke-linejoin: round;stroke-width: 5.94176925966015px"/>
          <path d="M194.15066,994.56526h14.85442v89.12654H194.15066Z" style="fill: #7f7f7f;stroke: #444;stroke-linejoin: round;stroke-width: 5.94176925966015px"/>
          <path d="M228.01991,994.56526H329.62474a5.6134,5.6134,0,0,1,5.94177,5.94177v11.88354H227.4266l.59331-17.82531Z" style="fill: #7f7f7f;stroke: #444;stroke-linejoin: round;stroke-width: 5.94176925966015px"/>
          <path d="M228.01991,1012.39057h108.1399v17.82531H228.01991Z" style="fill: #7f7f7f;stroke: #444;stroke-linejoin: round;stroke-width: 5.94176925966015px"/>
          <path d="M228.01991,1030.21588h108.1399v17.82531H228.01991Z" style="fill: #7f7f7f;stroke: #444;stroke-linejoin: round;stroke-width: 5.94176925966015px"/>
          <path d="M228.01991,1048.04119h108.1399v17.8253H228.01991Z" style="fill: #7f7f7f;stroke: #444;stroke-linejoin: round;stroke-width: 5.94176925966015px"/>
          <path d="M228.01991,1065.86649h108.1399v17.82531H228.01991Z" style="fill: #7f7f7f;stroke: #444;stroke-linejoin: round;stroke-width: 5.94176925966015px"/>
          <path d="M130.574,994.56526l48.12891-78.43142,48.12891,78.43142Z" style="fill: none;stroke: #444;stroke-linecap: round;stroke-linejoin: round;stroke-width: 5.94176925966015px"/>
          <path d="M178.70293,915.53981H305.85621" style="fill: none;stroke: #444;stroke-linecap: round;stroke-linejoin: round;stroke-width: 5.94176925966015px"/>
          <path d="M194.15066,940.49531H317.145" style="fill: none;stroke: #444;stroke-linecap: round;stroke-linejoin: round;stroke-width: 5.94176925966015px"/>
          <path d="M148.39933,965.45081H331.99942" style="fill: none;stroke: #444;stroke-linecap: round;stroke-linejoin: round;stroke-width: 5.94176925966015px"/>
          <path d="M220.29532,915.53981l52.28785,78.43142" style="fill: none;stroke: #444;stroke-linecap: round;stroke-linejoin: round;stroke-width: 5.94176925966015px"/>
          <path d="M264.85858,915.53981l52.28786,78.43142" style="fill: none;stroke: #444;stroke-linecap: round;stroke-linejoin: round;stroke-width: 5.94176925966015px"/>
          <path d="M156.71868,951.78482v42.18641" style="fill: none;stroke: #444;stroke-linecap: round;stroke-linejoin: round;stroke-width: 5.94176925966015px"/>
          <path d="M201.87525,951.78482v42.18641" style="fill: none;stroke: #444;stroke-linecap: round;stroke-linejoin: round;stroke-width: 5.94176925966015px"/>
        </g>
      </g>
      <path d="M162.06569,963.074c-11.28878-7.1302-26.14321-5.94177-38.6215-1.78246-11.88354,4.15931-22.579,11.28951-29.11409,21.39022-6.53653,10.10108-8.3179,23.76708-2.37613,33.86816,7.12983,12.47757,21.98426,18.41934,36.83868,18.41934,16.63724.594,33.27449-5.94177,45.75133-16.63688s19.60813-26.738,20.20144-42.78081c0-4.75334,0-9.50669-2.37613-13.666a24.6223,24.6223,0,0,0-11.28878-10.69511c-15.44918-8.91265-35.05586-11.28951-52.28786-7.1302" style="fill: none;stroke: #ffe211;stroke-linecap: round;stroke-linejoin: round;stroke-width: 11.8835385193203px"/>
      <path d="M128.7912,888.20781h0c-1.18806,0-2.37613.594-4.159.594h0c-1.78282-9.50668-10.69547-15.44845-20.20143-14.26039a17.70869,17.70869,0,0,0-14.25967,14.26039h0a8.80974,8.80974,0,0,0-4.15895-.594h0c-5.94177.594-10.10072,5.34774-9.50741,11.28951.59476,5.34774,4.159,9.50668,9.50741,9.50668h41.59239c5.94177.594,10.69547-4.15931,11.28878-9.50668.59475-5.94177-4.159-10.69511-9.50741-11.28951Z" style="fill: #fff;opacity: 0.75;isolation: isolate"/>
    </g>
    <g>
      <path d="M39.66466,868.29681h0a18.513,18.513,0,0,1,18.42007,18.41934h0v5.94176A18.49246,18.49246,0,0,1,43.2303,911.07725c-10.10071,1.78246-20.20143-4.75334-21.98425-14.85442h0c-1.78282,0-2.97089-1.18843-3.56564-2.97088,0-1.78246,1.18806-4.15931,2.97088-4.15931h0v-2.37686c.59476-10.10035,8.91265-18.419,19.01337-18.419Z" style="fill: #fff;stroke: #2a2a2a;stroke-linecap: round;stroke-linejoin: round;stroke-width: 2.74985079042134px"/>
      <path d="M37.28853,886.71651a2.55565,2.55565,0,0,0-2.37612,2.37685h0a2.37613,2.37613,0,1,0,2.37612-2.37685Z" style="fill: #2a2a2a"/>
      <path d="M49.17207,886.71651c-1.18806,0-1.78282,1.18842-1.78282,2.37685s1.18807,1.78246,2.37613,1.78246h.59476c1.18806,0,1.78282-1.18843,1.78282-2.37685,0-.5944-1.18807-1.78246-2.97089-1.78246Z" style="fill: #2a2a2a"/>
      <path d="M33.72289,895.62916a2.55566,2.55566,0,0,0-2.37612-2.37685h0a2.37685,2.37685,0,0,0,0,4.7537c1.18806-.59439,2.37612-1.78282,2.37612-2.37685Z" style="fill: #ffe211"/>
      <path d="M47.38925,900.97654c-2.37613,1.78245-5.94177,1.78245-8.91265,0h0" style="fill: none;stroke: #2a2a2a;stroke-linecap: round;stroke-linejoin: round;stroke-width: 2.74985079042134px"/>
      <path id="a-2" data-name="a" d="M20.058,880.77474v2.97088H59.86755v-4.15931a20.42751,20.42751,0,0,0-20.79619-19.60776c-11.29024.594-19.60813,9.50668-19.01338,20.79619Z" style="fill: #ffe211"/>
      <path d="M20.058,880.77474v2.97088H59.86755v-4.15931a20.42751,20.42751,0,0,0-20.79619-19.60776c-11.29024.594-19.60813,9.50668-19.01338,20.79619Z" style="fill: none;stroke: #2a2a2a;stroke-linecap: round;stroke-linejoin: round;stroke-width: 2.74985079042134px"/>
      <path id="b" d="M33.72289,859.97855c4.15895-1.78246,10.69548,0,10.69548,0,6.53652,3.56491,10.10071,16.63688,9.50741,23.76707H44.41837C45.60643,874.23858,41.44748,862.355,33.72289,859.97855Z" style="fill: #ffe211"/>
      <path d="M16.49234,883.74562H62.83843" style="fill: none;stroke: #2a2a2a;stroke-linecap: round;stroke-linejoin: round;stroke-width: 2.74985079042134px"/>
      <path d="M33.72289,859.97855c4.15895-1.78246,10.69548,0,10.69548,0,6.53652,3.56491,10.10071,16.63688,9.50741,23.76707H44.41837C45.60643,874.23858,41.44748,862.355,33.72289,859.97855Z" style="fill: none;stroke: #2a2a2a;stroke-linecap: round;stroke-linejoin: round;stroke-width: 2.74985079042134px"/>
      <path d="M36.69378,877.80385s-1.18807-10.69511-7.72459-13.666" style="fill: none;stroke: #2a2a2a;stroke-linecap: round;stroke-linejoin: round;stroke-width: 2.74985079042134px"/>
    </g>
    <path d="M291.59655,562.2067H51.54965a11.28094,11.28094,0,0,1-11.28878-11.28951V361.37461A11.28143,11.28143,0,0,1,51.54965,350.0851h240.0469a11.281,11.281,0,0,1,11.28878,11.28951V550.91719A11.68669,11.68669,0,0,1,291.59655,562.2067Z" style="fill: #ffe211"/>
    <g>
      <path id="c" d="M91.35921,515.861s9.50742,23.76708,47.53416,23.76708S176.3268,515.861,209.59984,515.861h0a56.19789,56.19789,0,0,1,39.21626,14.26039h0a4.23948,4.23948,0,0,0,6.53652-.594,4.535,4.535,0,0,0,1.18807-2.97088V397.026s-9.50741-23.76708-47.53416-23.76708S171.5731,397.026,138.30006,397.026h0A56.1979,56.1979,0,0,1,99.0838,382.76556h0a4.23948,4.23948,0,0,0-6.53652.594,4.535,4.535,0,0,0-1.18807,2.97089Z" style="fill: #fff"/>
      <path d="M105.61888,503.97743s2.97088,16.63688,33.27449,16.63688,49.91028-23.76707,70.70647-23.76707h0a47.31975,47.31975,0,0,1,33.27449,14.26039V409.50352s-2.97089-16.63688-33.27449-16.63688-49.91028,23.76708-70.70647,23.76708h0a47.31974,47.31974,0,0,1-33.27449-14.26039Z" style="fill: #282828;stroke: #fff;stroke-linecap: round;stroke-linejoin: round;stroke-width: 5.94176925966015px"/>
      <path d="M190.58647,395.83716v39.80993" style="fill: none;stroke: #fff;stroke-linecap: round;stroke-linejoin: round;stroke-width: 5.94176925966015px"/>
      <path d="M105.61888,430.89338s16.63724,14.26039,33.27449,14.26039,23.76707-9.50668,23.76707-9.50668" style="fill: none;stroke: #fff;stroke-linecap: round;stroke-linejoin: round;stroke-width: 5.94176925966015px"/>
      <path d="M119.87855,426.14v13.666" style="fill: none;stroke: #fff;stroke-linecap: round;stroke-linejoin: round;stroke-width: 5.94176925966015px"/>
      <path d="M134.13966,430.89338v13.666" style="fill: none;stroke: #fff;stroke-linecap: round;stroke-linejoin: round;stroke-width: 5.94176925966015px"/>
      <path d="M147.806,430.89338v13.072" style="fill: none;stroke: #fff;stroke-linecap: round;stroke-linejoin: round;stroke-width: 5.94176925966015px"/>
      <path d="M105.61888,473.08016s17.82531,14.26039,33.27449,14.26039c7.12983,0,17.23055-6.5358,23.17232-10.69511h0c1.78282-1.18843,3.56564-.594,4.7537,1.18843,0,.594.59476,1.18842.59476,1.78245v34.46219" style="fill: none;stroke: #fff;stroke-linecap: round;stroke-linejoin: round;stroke-width: 5.94176925966015px"/>
      <path d="M195.34017,499.81812v-26.738s7.12984-9.50668,14.25967-9.50668h0a65.5219,65.5219,0,0,1,33.27449,9.50668" style="fill: none;stroke: #fff;stroke-linecap: round;stroke-linejoin: round;stroke-width: 5.94176925966015px"/>
      <path d="M91.35921,515.861s9.50742,23.76708,47.53416,23.76708S176.3268,515.861,209.59984,515.861h0a56.19789,56.19789,0,0,1,39.21626,14.26039h0a4.23948,4.23948,0,0,0,6.53652-.594,4.535,4.535,0,0,0,1.18807-2.97088V397.026s-9.50741-23.76708-47.53416-23.76708S171.5731,397.026,138.30006,397.026h0A56.1979,56.1979,0,0,1,99.0838,382.76556h0a4.23948,4.23948,0,0,0-6.53652.594,4.535,4.535,0,0,0-1.18807,2.97089Z" style="fill: none;stroke: #2a2a2a;stroke-linecap: round;stroke-linejoin: round;stroke-width: 5.94176925966015px"/>
    </g>
    <g>
      <path d="M110.37259,372.07008c-10.10072-.594-19.01338,3.56492-19.01338,10.10108v130.1249l37.43344,2.37685V384.548C128.7912,378.60589,120.4733,373.25851,110.37259,372.07008Z" style="fill: #fff;stroke: #2a2a2a;stroke-linecap: round;stroke-linejoin: round;stroke-width: 5.94176925966015px"/>
      <ellipse cx="109.28905" cy="514.14281" rx="11.28863" ry="18.41909" transform="translate(-410.71786 590.82228) rotate(-86.38781)" style="fill: #fff;stroke: #2a2a2a;stroke-linecap: round;stroke-linejoin: round;stroke-width: 5.94168995135347px"/>
    </g>
    <g>
      <path d="M50.95489,803.9357a5.325,5.325,0,0,1-5.347-5.34774V609.04538a5.325,5.325,0,0,1,5.347-5.34774h240.0469a5.325,5.325,0,0,1,5.347,5.34774V798.588a5.325,5.325,0,0,1-5.347,5.34774Z" style="fill: #fff"/>
      <path d="M291.00179,609.04574V797.99393H51.5482V609.04574H291.00179m.59476-11.88354H51.54965a11.28094,11.28094,0,0,0-11.28878,11.28951V797.99429A11.28143,11.28143,0,0,0,51.54965,809.2838h240.0469a11.281,11.281,0,0,0,11.28878-11.28951V608.45171a11.68644,11.68644,0,0,0-11.28878-11.28951Z" style="fill: #ffe211"/>
    </g>
    <g>
      <polygon points="128.791 652.421 139.487 652.421 140.081 652.421 150.777 652.421 151.37 652.421 162.066 652.421 162.066 652.421 173.354 652.421 173.354 645.29 162.066 645.29 162.066 645.29 151.37 645.29 150.777 645.29 140.081 645.29 139.487 645.29 128.791 645.29 128.791 645.29 117.502 645.29 117.502 652.421 128.791 652.421" style="fill: #bcbcbc"/>
      <polygon points="195.933 652.421 209.005 652.421 209.005 652.421 222.078 652.421 222.671 652.421 235.743 652.421 235.743 652.421 248.816 652.421 249.409 652.421 262.481 652.421 262.481 645.29 249.409 645.29 248.816 645.29 235.743 645.29 235.743 645.29 222.671 645.29 222.078 645.29 209.005 645.29 209.005 645.29 195.933 645.29 195.34 645.29 182.267 645.29 182.267 652.421 195.34 652.421 195.933 652.421" style="fill: #bcbcbc"/>
      <polygon points="140.081 667.869 150.777 667.869 151.37 667.869 162.066 667.869 162.066 667.869 173.354 667.869 173.354 667.869 184.05 667.869 184.645 667.869 195.34 667.869 195.933 667.869 206.629 667.869 206.629 660.739 195.933 660.739 195.34 660.739 184.645 660.739 184.05 660.739 173.354 660.739 173.354 660.739 162.066 660.739 162.066 660.739 151.37 660.739 150.777 660.739 140.081 660.739 139.487 660.739 117.502 660.739 117.502 667.869 139.487 667.869 140.081 667.869" style="fill: #bcbcbc"/>
      <polygon points="258.917 660.739 258.917 660.739 244.656 660.739 244.062 660.739 229.801 660.739 229.208 660.739 214.947 660.739 214.947 667.869 229.208 667.869 229.801 667.869 244.062 667.869 244.656 667.869 258.917 667.869 258.917 667.869 273.771 667.869 273.771 660.739 258.917 660.739" style="fill: #bcbcbc"/>
      <polygon points="131.169 699.955 144.24 699.955 144.835 699.955 157.907 699.955 158.5 699.955 171.573 699.955 172.166 699.955 185.833 699.955 185.833 692.825 172.166 692.825 171.573 692.825 158.5 692.825 157.907 692.825 144.835 692.825 144.24 692.825 131.169 692.825 131.169 692.825 117.502 692.825 117.502 699.955 131.169 699.955" style="fill: #bcbcbc"/>
      <polygon points="217.918 692.825 206.629 692.825 206.629 692.825 195.34 692.825 195.34 699.955 206.629 699.955 206.629 699.955 217.918 699.955 217.918 699.955 228.613 699.955 229.208 699.955 239.903 699.955 240.497 699.955 251.192 699.955 251.192 699.955 262.481 699.955 262.481 692.825 251.192 692.825 251.192 692.825 240.497 692.825 239.903 692.825 229.208 692.825 228.613 692.825 217.918 692.825" style="fill: #bcbcbc"/>
      <polygon points="128.198 715.403 132.952 715.403 132.952 715.403 138.299 715.403 138.299 715.403 143.052 715.403 143.646 715.403 148.399 715.403 148.399 715.403 153.748 715.403 153.748 715.403 159.095 715.403 159.095 708.273 153.748 708.273 153.748 708.273 148.399 708.273 148.399 708.273 143.646 708.273 143.052 708.273 138.299 708.273 138.299 708.273 132.952 708.273 132.952 708.273 128.198 708.273 127.603 708.273 117.502 708.273 117.502 715.403 127.603 715.403 128.198 715.403" style="fill: #bcbcbc"/>
      <polygon points="186.428 715.403 194.745 715.403 195.34 715.403 203.658 715.403 204.253 715.403 212.571 715.403 212.571 715.403 221.483 715.403 221.483 715.403 229.801 715.403 230.396 715.403 239.309 715.403 239.309 708.273 230.396 708.273 229.801 708.273 221.483 708.273 221.483 708.273 212.571 708.273 212.571 708.273 204.253 708.273 203.658 708.273 195.34 708.273 194.745 708.273 186.428 708.273 186.428 708.273 168.602 708.273 168.602 715.403 186.428 715.403" style="fill: #bcbcbc"/>
      <polygon points="266.641 708.273 260.105 708.273 260.105 708.273 253.568 708.273 252.975 708.273 246.439 708.273 246.439 715.403 252.975 715.403 253.568 715.403 260.105 715.403 260.105 715.403 266.641 715.403 267.235 715.403 273.771 715.403 273.771 708.273 267.235 708.273 266.641 708.273" style="fill: #bcbcbc"/>
      <polygon points="119.879 747.489 122.849 747.489 122.849 747.489 125.227 747.489 125.227 747.489 128.198 747.489 128.198 747.489 130.574 747.489 130.574 740.359 128.198 740.359 128.198 740.359 125.227 740.359 125.227 740.359 122.849 740.359 122.849 740.359 119.879 740.359 119.879 740.359 117.502 740.359 117.502 747.489 119.879 747.489" style="fill: #bcbcbc"/>
      <polygon points="171.573 747.489 182.267 747.489 182.862 747.489 193.557 747.489 193.557 747.489 204.846 747.489 204.846 740.359 193.557 740.359 193.557 740.359 182.862 740.359 182.267 740.359 171.573 740.359 170.978 740.359 160.283 740.359 159.69 740.359 148.994 740.359 148.994 740.359 137.704 740.359 137.704 747.489 148.994 747.489 148.994 747.489 159.69 747.489 160.283 747.489 170.978 747.489 171.573 747.489" style="fill: #bcbcbc"/>
      <polygon points="166.225 755.807 159.69 755.807 159.095 755.807 152.558 755.807 152.558 755.807 145.428 755.807 145.428 755.807 138.299 755.807 138.299 755.807 131.762 755.807 131.169 755.807 117.502 755.807 117.502 762.937 131.169 762.937 131.762 762.937 138.299 762.937 138.299 762.937 145.428 762.937 145.428 762.937 152.558 762.937 152.558 762.937 159.095 762.937 159.69 762.937 166.225 762.937 166.225 762.937 173.354 762.937 173.354 755.807 166.225 755.807" style="fill: #bcbcbc"/>
    </g>
    <path d="M80.66374,667.869H95.51816a4.06149,4.06149,0,0,0,4.159-4.15931V648.8553a4.06149,4.06149,0,0,0-4.159-4.15931H80.66374a4.06149,4.06149,0,0,0-4.159,4.15931v14.85443A4.06064,4.06064,0,0,0,80.66374,667.869Z" style="fill: #ffe211"/>
    <path d="M80.66374,715.40319H95.51816a4.06149,4.06149,0,0,0,4.159-4.15931V696.38946a4.06149,4.06149,0,0,0-4.159-4.15931H80.66374a4.06149,4.06149,0,0,0-4.159,4.15931v14.85442A4.06064,4.06064,0,0,0,80.66374,715.40319Z" style="fill: #ffe211"/>
    <path d="M80.66374,762.34331H95.51816a4.06149,4.06149,0,0,0,4.159-4.15931V743.32958a4.06149,4.06149,0,0,0-4.159-4.15931H80.66374a4.06149,4.06149,0,0,0-4.159,4.15931V758.184A4.06064,4.06064,0,0,0,80.66374,762.34331Z" style="fill: #ffe211"/>
    <g>
      <path d="M50.95489,1308.78392a5.325,5.325,0,0,1-5.347-5.34774V1113.894a5.325,5.325,0,0,1,5.347-5.34774h240.0469a5.325,5.325,0,0,1,5.347,5.34774v189.54258a5.325,5.325,0,0,1-5.347,5.34774l-240.0469-.00036Z" style="fill: #fff"/>
      <path d="M291.00179,1113.894v188.94819H51.5482V1113.894H291.00179m.59476-11.88354H51.54965a11.28094,11.28094,0,0,0-11.28878,11.28951v189.54258A11.28143,11.28143,0,0,0,51.54965,1314.132h240.0469a11.281,11.281,0,0,0,11.28878-11.28951V1113.29993a11.68669,11.68669,0,0,0-11.28878-11.28951Z" style="fill: #ffe211"/>
    </g>
    <path d="M80.66374,1267.19153H95.51816a4.06149,4.06149,0,0,0,4.159-4.15931V1248.1778a4.06149,4.06149,0,0,0-4.159-4.15931H80.66374a4.06149,4.06149,0,0,0-4.159,4.15931v14.85442A4.06063,4.06063,0,0,0,80.66374,1267.19153Z" style="fill: #ffe211"/>
    <g>
      <path d="M39.66466,1126.66269h0A18.51294,18.51294,0,0,1,58.08473,1145.082h0v5.94177a18.49246,18.49246,0,0,1-14.85443,18.41934c-10.10071,1.78246-20.20143-4.75334-21.98425-14.85442h0c-1.78282,0-2.97089-1.18843-3.56564-2.97088,0-1.78246,1.18806-4.15931,2.97088-4.15931h0v-2.37686c.59476-10.10035,8.91265-18.419,19.01337-18.419Z" style="fill: #fff;stroke: #2a2a2a;stroke-linecap: round;stroke-linejoin: round;stroke-width: 2.74985079042134px"/>
      <path d="M37.28853,1145.08239a2.55565,2.55565,0,0,0-2.37612,2.37685h0a2.37613,2.37613,0,1,0,2.37612-2.37685Z" style="fill: #2a2a2a"/>
      <path d="M49.17207,1145.08239c-1.18806,0-1.78282,1.18842-1.78282,2.37685s1.18807,1.78246,2.37613,1.78246h.59476c1.18806,0,1.78282-1.18843,1.78282-2.37685,0-.594-1.18807-1.78246-2.97089-1.78246Z" style="fill: #2a2a2a"/>
      <path d="M33.72289,1153.40065a2.55566,2.55566,0,0,0-2.37612-2.37686h0a2.37686,2.37686,0,0,0,0,4.75371,2.55566,2.55566,0,0,0,2.37612-2.37685Z" style="fill: #ffe211"/>
      <path d="M47.38925,1159.34242c-2.37613,1.78245-5.94177,1.78245-8.91265,0h0" style="fill: none;stroke: #2a2a2a;stroke-linecap: round;stroke-linejoin: round;stroke-width: 2.74985079042134px"/>
      <path id="a-3" data-name="a" d="M20.058,1139.14062v2.97088H59.86755v-4.15931a20.42751,20.42751,0,0,0-20.79619-19.60776c-11.29024.594-19.60813,9.50668-19.01338,20.79619Z" style="fill: #ffe211"/>
      <path d="M20.058,1139.14062v2.97088H59.86755v-4.15931a20.42751,20.42751,0,0,0-20.79619-19.60776c-11.29024.594-19.60813,9.50668-19.01338,20.79619Z" style="fill: none;stroke: #2a2a2a;stroke-linecap: round;stroke-linejoin: round;stroke-width: 2.74985079042134px"/>
      <path id="b-2" data-name="b" d="M33.72289,1118.34443c4.15895-1.78246,10.69548,0,10.69548,0,6.53652,3.56491,10.10071,16.63688,9.50741,23.76707H44.41837C45.60643,1132.60445,41.44748,1120.72092,33.72289,1118.34443Z" style="fill: #ffe211"/>
      <path d="M16.49234,1142.1115H62.83843" style="fill: none;stroke: #2a2a2a;stroke-linecap: round;stroke-linejoin: round;stroke-width: 2.74985079042134px"/>
      <path d="M33.72289,1118.34443c4.15895-1.78246,10.69548,0,10.69548,0,6.53652,3.56491,10.10071,16.63688,9.50741,23.76707H44.41837C45.60643,1132.60445,41.44748,1120.72092,33.72289,1118.34443Z" style="fill: none;stroke: #2a2a2a;stroke-linecap: round;stroke-linejoin: round;stroke-width: 2.74985079042134px"/>
      <path d="M36.69378,1136.16973s-1.18807-10.69511-7.72459-13.666" style="fill: none;stroke: #2a2a2a;stroke-linecap: round;stroke-linejoin: round;stroke-width: 2.74985079042134px"/>
    </g>
    <polyline points="110.966 1141.226 88.388 1163.211 72.939 1148.356" style="fill: none;stroke: #66bb6a;stroke-linecap: round;stroke-linejoin: round;stroke-width: 11.8835385193203px"/>
    <polyline points="110.966 1189.949 88.388 1211.933 72.939 1197.079" style="fill: none;stroke: #66bb6a;stroke-linecap: round;stroke-linejoin: round;stroke-width: 11.8835385193203px"/>
    <g>
      <g>
        <path d="M24.21693,669.81282c0,2.37685,4.15895,3.56491,8.3179,2.97088s7.12983-2.37685,7.12983-4.75334c-5.347-17.82531-5.347-36.839-8.91265-70.7072l-15.44918,1.78246C21.24605,635.94466,23.62218,648.42223,24.21693,669.81282Z" style="fill: #ffe211;stroke: #2a2a2a;stroke-linecap: round;stroke-linejoin: round;stroke-width: 2.65775331306474px"/>
        <path d="M22.43411,594.35228c4.159-.594,7.72459.594,7.72459,2.97088s-2.97088,4.15931-7.12983,4.75334-7.72459-.594-7.72459-2.97088S18.27516,594.94631,22.43411,594.35228Z" style="fill: #fff;stroke: #2a2a2a;stroke-linecap: round;stroke-linejoin: round;stroke-width: 2.65775331306474px"/>
      </g>
      <g>
        <path d="M34.31765,677.537c1.18806,1.78246,4.75371,1.78246,8.91265,0,3.56565-1.78245,5.94177-4.75334,4.75371-6.5358-11.28878-14.85442-17.82531-32.67973-32.67973-62.9826L1.63792,615.14883C19.46323,647.2338,25.99975,657.92928,34.31765,677.537Z" style="fill: #ffe211;stroke: #2a2a2a;stroke-linecap: round;stroke-linejoin: round;stroke-width: 2.65775331306474px"/>
        <path d="M6.39162,608.01827c3.56565-1.78246,7.72459-1.78246,8.3179,0,1.18806,1.78246-1.18806,4.75335-4.7537,6.5358s-7.72459,1.78246-8.3179,0C.44986,612.77162,2.826,609.80073,6.39162,608.01827Z" style="fill: #fff;stroke: #2a2a2a;stroke-linecap: round;stroke-linejoin: round;stroke-width: 2.65775331306474px"/>
      </g>
      <g>
        <path d="M62.24367,650.20469h0a4.46816,4.46816,0,0,0-2.97088-4.15931v-2.37649h0a19.60813,19.60813,0,0,0-39.21626,0v2.37685h0c-2.37612,0-3.56564,2.37685-3.56564,4.75334,0,1.78246,1.78282,2.97089,3.56564,3.56492h0a19.20419,19.20419,0,0,0,23.17232,14.85442c7.72459-1.78246,13.66636-7.72422,14.85443-14.85442h0C60.46085,653.77,62.24367,651.98751,62.24367,650.20469Z" style="fill: #fff;stroke: #2a2a2a;stroke-linecap: round;stroke-linejoin: round;stroke-width: 2.81521029619308px"/>
        <path d="M30.752,650.79908c.59476.594.59476,2.37686,0,3.56492s-2.37613.594-3.56564,0c-.59476-.594-.59476-2.37685,0-3.56492a2.22867,2.22867,0,0,1,3.56564,0" style="fill: #ffe211"/>
        <path d="M51.5482,650.79908c.59476.594.59476,2.37686,0,3.56492s-2.37613.594-3.56564,0c-.59476-.594-.59476-2.37685,0-3.56492,1.18951-1.18842,2.97233-1.18842,3.56564,0" style="fill: #ffe211"/>
        <path id="k" d="M60.46085,638.91554h0c-.59475-11.2895-10.10071-20.79619-21.391-20.20216-10.69547,0-20.20143,9.50669-20.20143,20.20216v6.53581h0a15.38853,15.38853,0,0,0,11.28878-9.50669C39.07136,641.292,50.95489,640.104,60.46085,638.91554Z" style="fill: #ffe211"/>
        <path d="M60.46085,638.91554h0c-.59475-11.2895-10.10071-20.79619-21.391-20.20216-10.69547,0-20.20143,9.50669-20.20143,20.20216v6.53581h0a15.38853,15.38853,0,0,0,11.28878-9.50669C39.07136,641.292,50.95489,640.104,60.46085,638.91554Z" style="fill: none;stroke: #2a2a2a;stroke-linecap: round;stroke-linejoin: round;stroke-width: 2.81521029619308px"/>
        <path d="M26.59306,632.37938h0a15.7684,15.7684,0,0,0,2.97088,3.56492" style="fill: none;stroke: #2a2a2a;stroke-linecap: round;stroke-linejoin: round;stroke-width: 2.81521029619308px"/>
        <path d="M35.50571,659.71174h7.12984" style="fill: none;stroke: #2a2a2a;stroke-linecap: round;stroke-linejoin: round;stroke-width: 2.81521029619308px"/>
        <path d="M46.20119,643.66889h0a2.37685,2.37685,0,1,0,2.37613,2.37685h0a2.55566,2.55566,0,0,0-2.37613-2.37685Z" style="fill: #2a2a2a"/>
        <path d="M32.53483,643.66889h0a2.37685,2.37685,0,0,0,0,4.7537,2.55566,2.55566,0,0,0,2.37613-2.37685h0c.59475-1.18843-.59331-2.37685-2.37613-2.37685Z" style="fill: #2a2a2a"/>
      </g>
    </g>
    <g>
      <g>
        <path d="M24.21693,423.33011c0,2.37686,4.15895,3.56492,8.3179,2.97089s7.12983-2.37685,7.12983-4.75335c-5.347-17.8253-5.347-36.839-8.91265-70.70719l-15.44918,1.78245C21.24605,389.46232,23.62218,401.93989,24.21693,423.33011Z" style="fill: #ffe211;stroke: #2a2a2a;stroke-linecap: round;stroke-linejoin: round;stroke-width: 2.65775331306474px"/>
        <path d="M22.43411,347.86993c4.159-.594,7.72459.594,7.72459,2.97089s-2.97088,4.15931-7.12983,4.75334-7.72459-.594-7.72459-2.97088C15.30428,350.84082,18.27516,348.464,22.43411,347.86993Z" style="fill: #fff;stroke: #2a2a2a;stroke-linecap: round;stroke-linejoin: round;stroke-width: 2.65775331306474px"/>
      </g>
      <g>
        <path d="M34.31765,431.64874c1.18806,1.78245,4.75371,1.78245,8.91265,0,3.56565-1.78246,5.94177-4.75335,4.75371-6.53581-11.28878-14.85442-17.82531-32.67973-32.67973-62.9826L1.63792,369.26052C19.46323,400.75146,25.99975,411.44657,34.31765,431.64874Z" style="fill: #ffe211;stroke: #2a2a2a;stroke-linecap: round;stroke-linejoin: round;stroke-width: 2.65775331306474px"/>
        <path d="M6.39162,361.53593c3.56565-1.78246,7.72459-1.78246,8.3179,0,1.18806,1.78246-1.18806,4.75334-4.7537,6.5358s-7.72459,1.78246-8.3179,0C.44986,366.28927,2.826,363.31839,6.39162,361.53593Z" style="fill: #fff;stroke: #2a2a2a;stroke-linecap: round;stroke-linejoin: round;stroke-width: 2.65775331306474px"/>
      </g>
      <g>
        <path d="M62.24367,403.72235h0a4.46816,4.46816,0,0,0-2.97088-4.15931v-2.37686h0a19.60813,19.60813,0,0,0-39.21626,0V399.563h0c-2.37612,0-3.56564,2.37685-3.56564,4.75334,0,1.78246,1.78282,2.97088,3.56564,3.56492h0a19.2042,19.2042,0,0,0,23.17232,14.85442c7.72459-1.78246,13.66636-7.72423,14.85443-14.85442h0C60.46085,407.28763,62.24367,405.50481,62.24367,403.72235Z" style="fill: #fff;stroke: #2a2a2a;stroke-linecap: round;stroke-linejoin: round;stroke-width: 2.81521029619308px"/>
        <path d="M30.752,404.31674c.59476.594.59476,2.37685,0,3.56492-.59476.594-2.37613.594-3.56564,0-.59476-.594-.59476-2.37685,0-3.56492a2.22867,2.22867,0,0,1,3.56564,0" style="fill: #ffe211"/>
        <path d="M51.5482,404.31674c.59476.594.59476,2.37685,0,3.56492-.59476.594-2.37613.594-3.56564,0-.59476-.594-.59476-2.37685,0-3.56492,1.18951-1.18842,2.97233-1.18842,3.56564,0" style="fill: #ffe211"/>
        <path id="k-2" data-name="k" d="M60.46085,392.4332h0C59.8661,381.1437,50.36014,371.637,39.0699,372.231c-10.69547,0-20.20143,9.50669-20.20143,20.20216v6.5358h0a15.3885,15.3885,0,0,0,11.28878-9.50668C39.07136,394.80969,50.95489,393.62127,60.46085,392.4332Z" style="fill: #ffe211"/>
        <path d="M60.46085,392.4332h0C59.8661,381.1437,50.36014,371.637,39.0699,372.231c-10.69547,0-20.20143,9.50669-20.20143,20.20216v6.5358h0a15.3885,15.3885,0,0,0,11.28878-9.50668C39.07136,394.80969,50.95489,393.62127,60.46085,392.4332Z" style="fill: none;stroke: #2a2a2a;stroke-linecap: round;stroke-linejoin: round;stroke-width: 2.81521029619308px"/>
        <path d="M26.59306,385.897h0a15.7684,15.7684,0,0,0,2.97088,3.56492" style="fill: none;stroke: #2a2a2a;stroke-linecap: round;stroke-linejoin: round;stroke-width: 2.81521029619308px"/>
        <path d="M35.50571,413.2294h7.12984" style="fill: none;stroke: #2a2a2a;stroke-linecap: round;stroke-linejoin: round;stroke-width: 2.81521029619308px"/>
        <path d="M46.20119,397.18655h0a2.37685,2.37685,0,1,0,2.37613,2.37685h0a2.55566,2.55566,0,0,0-2.37613-2.37685Z" style="fill: #2a2a2a"/>
        <path d="M32.53483,397.18655h0a2.37685,2.37685,0,0,0,0,4.7537A2.55566,2.55566,0,0,0,34.911,399.5634h0c.59475-1.18843-.59331-2.37685-2.37613-2.37685Z" style="fill: #2a2a2a"/>
      </g>
    </g>
    <g>
      <polygon points="128.791 1157.269 139.487 1157.269 140.081 1157.269 150.777 1157.269 151.37 1157.269 162.066 1157.269 162.066 1157.269 173.354 1157.269 173.354 1149.545 162.066 1149.545 162.066 1149.545 151.37 1149.545 150.777 1149.545 140.081 1149.545 139.487 1149.545 128.791 1149.545 128.791 1149.545 117.502 1149.545 117.502 1157.269 128.791 1157.269" style="fill: #bcbcbc"/>
      <polygon points="195.933 1157.269 209.005 1157.269 209.005 1157.269 222.078 1157.269 222.671 1157.269 235.743 1157.269 235.743 1157.269 248.816 1157.269 249.409 1157.269 262.481 1157.269 262.481 1149.545 249.409 1149.545 248.816 1149.545 235.743 1149.545 235.743 1149.545 222.671 1149.545 222.078 1149.545 209.005 1149.545 209.005 1149.545 195.933 1149.545 195.34 1149.545 182.267 1149.545 182.267 1157.269 195.34 1157.269 195.933 1157.269" style="fill: #bcbcbc"/>
      <polygon points="140.081 1172.718 150.777 1172.718 151.37 1172.718 162.066 1172.718 162.066 1172.718 173.354 1172.718 173.354 1172.718 184.05 1172.718 184.645 1172.718 195.34 1172.718 195.933 1172.718 206.629 1172.718 206.629 1164.993 195.933 1164.993 195.34 1164.993 184.645 1164.993 184.05 1164.993 173.354 1164.993 173.354 1164.993 162.066 1164.993 162.066 1164.993 151.37 1164.993 150.777 1164.993 140.081 1164.993 139.487 1164.993 117.502 1164.993 117.502 1172.718 139.487 1172.718 140.081 1172.718" style="fill: #bcbcbc"/>
      <polygon points="258.917 1164.993 258.917 1164.993 244.656 1164.993 244.062 1164.993 229.801 1164.993 229.208 1164.993 214.947 1164.993 214.947 1172.718 229.208 1172.718 229.801 1172.718 244.062 1172.718 244.656 1172.718 258.917 1172.718 258.917 1172.718 273.771 1172.718 273.771 1164.993 258.917 1164.993" style="fill: #bcbcbc"/>
      <polygon points="131.169 1204.803 144.24 1204.803 144.835 1204.803 157.907 1204.803 158.5 1204.803 171.573 1204.803 172.166 1204.803 185.833 1204.803 185.833 1197.079 172.166 1197.079 171.573 1197.079 158.5 1197.079 157.907 1197.079 144.835 1197.079 144.24 1197.079 131.169 1197.079 131.169 1197.079 117.502 1197.079 117.502 1204.803 131.169 1204.803" style="fill: #bcbcbc"/>
      <polygon points="217.918 1197.079 206.629 1197.079 206.629 1197.079 195.34 1197.079 195.34 1204.803 206.629 1204.803 206.629 1204.803 217.918 1204.803 217.918 1204.803 228.613 1204.803 229.208 1204.803 239.903 1204.803 240.497 1204.803 251.192 1204.803 251.192 1204.803 262.481 1204.803 262.481 1197.079 251.192 1197.079 251.192 1197.079 240.497 1197.079 239.903 1197.079 229.208 1197.079 228.613 1197.079 217.918 1197.079" style="fill: #bcbcbc"/>
      <polygon points="128.198 1220.252 132.952 1220.252 132.952 1220.252 138.299 1220.252 138.299 1220.252 143.052 1220.252 143.646 1220.252 148.399 1220.252 148.399 1220.252 153.748 1220.252 153.748 1220.252 159.095 1220.252 159.095 1212.527 153.748 1212.527 153.748 1212.527 148.399 1212.527 148.399 1212.527 143.646 1212.527 143.052 1212.527 138.299 1212.527 138.299 1212.527 132.952 1212.527 132.952 1212.527 128.198 1212.527 127.603 1212.527 117.502 1212.527 117.502 1220.252 127.603 1220.252 128.198 1220.252" style="fill: #bcbcbc"/>
      <polygon points="186.428 1220.252 194.745 1220.252 195.34 1220.252 203.658 1220.252 204.253 1220.252 212.571 1220.252 212.571 1220.252 221.483 1220.252 221.483 1220.252 229.801 1220.252 230.396 1220.252 239.309 1220.252 239.309 1212.527 230.396 1212.527 229.801 1212.527 221.483 1212.527 221.483 1212.527 212.571 1212.527 212.571 1212.527 204.253 1212.527 203.658 1212.527 195.34 1212.527 194.745 1212.527 186.428 1212.527 186.428 1212.527 168.602 1212.527 168.602 1220.252 186.428 1220.252" style="fill: #bcbcbc"/>
      <polygon points="266.641 1212.527 260.105 1212.527 260.105 1212.527 253.568 1212.527 252.975 1212.527 246.439 1212.527 246.439 1220.252 252.975 1220.252 253.568 1220.252 260.105 1220.252 260.105 1220.252 266.641 1220.252 267.235 1220.252 273.771 1220.252 273.771 1212.527 267.235 1212.527 266.641 1212.527" style="fill: #bcbcbc"/>
      <polygon points="119.879 1252.337 122.849 1252.337 122.849 1252.337 125.227 1252.337 125.227 1252.337 128.198 1252.337 128.198 1252.337 130.574 1252.337 130.574 1244.613 128.198 1244.613 128.198 1244.613 125.227 1244.613 125.227 1244.613 122.849 1244.613 122.849 1244.613 119.879 1244.613 119.879 1244.613 117.502 1244.613 117.502 1252.337 119.879 1252.337" style="fill: #bcbcbc"/>
      <polygon points="171.573 1252.337 182.267 1252.337 182.862 1252.337 193.557 1252.337 193.557 1252.337 204.846 1252.337 204.846 1244.613 193.557 1244.613 193.557 1244.613 182.862 1244.613 182.267 1244.613 171.573 1244.613 170.978 1244.613 160.283 1244.613 159.69 1244.613 148.994 1244.613 148.994 1244.613 137.704 1244.613 137.704 1252.337 148.994 1252.337 148.994 1252.337 159.69 1252.337 160.283 1252.337 170.978 1252.337 171.573 1252.337" style="fill: #bcbcbc"/>
      <polygon points="166.225 1260.061 159.69 1260.061 159.095 1260.061 152.558 1260.061 152.558 1260.061 145.428 1260.061 145.428 1260.061 138.299 1260.061 138.299 1260.061 131.762 1260.061 131.169 1260.061 117.502 1260.061 117.502 1267.786 131.169 1267.786 131.762 1267.786 138.299 1267.786 138.299 1267.786 145.428 1267.786 145.428 1267.786 152.558 1267.786 152.558 1267.786 159.095 1267.786 159.69 1267.786 166.225 1267.786 166.225 1267.786 173.354 1267.786 173.354 1260.061 166.225 1260.061" style="fill: #bcbcbc"/>
    </g>
    <g>
      <g>
        <path d="M51.54959,1421.54761a8.35546,8.35546,0,0,1-8.28906-8.37891v-53.29785a8.35036,8.35036,0,0,1,8.28906-8.37793H291.59647a8.35465,8.35465,0,0,1,8.28906,8.37793v53.29785a8.7796,8.7796,0,0,1-8.28906,8.37891Z" style="fill: #fff"/>
        <path d="M291.59647,1354.49273a5.34842,5.34842,0,0,1,5.28906,5.37836V1413.169a5.77749,5.77749,0,0,1-5.28906,5.37836H51.54959A5.34832,5.34832,0,0,1,46.261,1413.169v-53.29791a5.34369,5.34369,0,0,1,5.28857-5.37836H291.59647m0-6H51.54959A11.325,11.325,0,0,0,40.261,1359.87109V1413.169a11.32622,11.32622,0,0,0,11.28857,11.37836H291.59647a11.73286,11.73286,0,0,0,11.28906-11.37836v-53.29791a11.32665,11.32665,0,0,0-11.28906-11.37836Z" style="fill: #66bb6a"/>
      </g>
      <g>
        <path d="M86.01075,1372.85424h8.2533v7.72422h-8.2533Z" style="fill: #444"/>
        <path d="M94.26279,1372.85424h8.2533v7.72422h-8.2533Z" style="fill: #444"/>
        <path d="M118.50513,1372.85424h8.2533v7.72422h-8.2533Z" style="fill: #444"/>
        <path d="M126.24213,1372.85424h8.2533v7.72422h-8.2533Z" style="fill: #444"/>
        <path d="M134.49543,1372.85424h8.2533v7.72422h-8.2533Z" style="fill: #444"/>
        <path d="M142.74873,1372.85424h8.2533v7.72422h-8.2533Z" style="fill: #444"/>
        <path d="M150.48573,1372.85424h8.2533v7.72422h-8.2533Z" style="fill: #444"/>
        <path d="M174.72807,1372.85424h8.2533v7.72422h-8.2533Z" style="fill: #444"/>
        <path d="M182.98011,1372.85424h8.2533v7.72422h-8.2533Z" style="fill: #444"/>
        <path d="M190.71711,1372.85424h8.2533v7.72422h-8.2533Z" style="fill: #444"/>
        <path d="M198.97041,1372.85424h8.2533v7.72422h-8.2533Z" style="fill: #444"/>
        <path d="M86.01075,1394.24446h8.2533v7.72423h-8.2533Z" style="fill: #444"/>
        <path d="M94.26279,1394.24446h8.2533v7.72423h-8.2533Z" style="fill: #444"/>
        <path d="M101.99979,1394.24446h8.2533v7.72423h-8.2533Z" style="fill: #444"/>
        <path d="M126.24213,1394.24446h8.2533v7.72423h-8.2533Z" style="fill: #444"/>
        <path d="M134.49543,1394.24446h8.2533v7.72423h-8.2533Z" style="fill: #444"/>
        <path d="M142.74873,1394.24446h8.2533v7.72423h-8.2533Z" style="fill: #444"/>
        <path d="M150.48573,1394.24446h8.2533v7.72423h-8.2533Z" style="fill: #444"/>
        <path d="M158.73777,1394.24446h8.2533v7.72423h-8.2533Z" style="fill: #444"/>
        <path d="M166.47477,1394.24446h8.2533v7.72423h-8.2533Z" style="fill: #444"/>
        <path d="M174.72807,1394.24446h8.2533v7.72423h-8.2533Z" style="fill: #444"/>
        <path d="M198.97041,1394.24446h8.2533v7.72423h-8.2533Z" style="fill: #444"/>
      </g>
      <path d="M291.59655,1348.49276H226.83184v76.05458h64.76471a11.281,11.281,0,0,0,11.28878-11.28951v-52.88189C302.88533,1353.24611,297.53831,1348.49276,291.59655,1348.49276Z" style="fill: #66bb6a"/>
      <g>
        <path d="M244.6557,1386.52023c0-3.56491,2.37613-5.34774,5.94177-5.34774,2.97088,0,5.94177,2.37686,5.94177,5.34774a5.6134,5.6134,0,0,1-5.94177,5.94177C247.62658,1391.86761,244.6557,1389.49112,244.6557,1386.52023Z" style="fill: #444"/>
        <path d="M258.91682,1386.52023c0-3.56491,2.37612-5.34774,5.94176-5.34774,2.97089,0,5.94177,2.37686,5.94177,5.34774a5.61339,5.61339,0,0,1-5.94177,5.94177C261.29294,1391.86761,258.91682,1389.49112,258.91682,1386.52023Z" style="fill: #444"/>
        <path d="M273.17648,1386.52023c0-3.56491,2.37613-5.34774,5.94177-5.34774,2.97088,0,5.94177,2.37686,5.94177,5.34774a5.6134,5.6134,0,0,1-5.94177,5.94177C275.55406,1391.86761,273.17648,1389.49112,273.17648,1386.52023Z" style="fill: #444"/>
      </g>
    </g>
    <g>
      <g>
        <path d="M51.54959,1549.78882a8.34568,8.34568,0,0,1-8.28906-8.36133v-71.15723a8.342,8.342,0,0,1,8.28906-8.36133H291.59647a8.34568,8.34568,0,0,1,8.28906,8.36133v71.15723a8.342,8.342,0,0,1-8.28906,8.36133Z" style="fill: #fff"/>
        <path d="M291.59647,1464.90881a5.33927,5.33927,0,0,1,5.28906,5.36133v71.15723a5.3358,5.3358,0,0,1-5.28906,5.36132H51.54959a5.33916,5.33916,0,0,1-5.28857-5.36132v-71.15723a5.33541,5.33541,0,0,1,5.28857-5.36133H291.59647m0-6H51.54959A11.31653,11.31653,0,0,0,40.261,1470.27014v71.15723a11.3175,11.3175,0,0,0,11.28857,11.36132H291.59647a11.31672,11.31672,0,0,0,11.28906-11.36132v-71.15723a11.31793,11.31793,0,0,0-11.28906-11.36133Z" style="fill: #ffe211"/>
      </g>
      <g>
        <path d="M86.01075,1483.86431h8.2533v7.72423h-8.2533Z" style="fill: #444"/>
        <path d="M94.26279,1483.86431h8.2533v7.72423h-8.2533Z" style="fill: #444"/>
        <path d="M118.50513,1483.86431h8.2533v7.72423h-8.2533Z" style="fill: #444"/>
        <path d="M126.24213,1483.86431h8.2533v7.72423h-8.2533Z" style="fill: #444"/>
        <path d="M134.49543,1483.86431h8.2533v7.72423h-8.2533Z" style="fill: #444"/>
        <path d="M142.74873,1483.86431h8.2533v7.72423h-8.2533Z" style="fill: #444"/>
        <path d="M150.48573,1483.86431h8.2533v7.72423h-8.2533Z" style="fill: #444"/>
        <path d="M174.72807,1483.86431h8.2533v7.72423h-8.2533Z" style="fill: #444"/>
        <path d="M182.98011,1483.86431h8.2533v7.72423h-8.2533Z" style="fill: #444"/>
        <path d="M190.71711,1483.86431h8.2533v7.72423h-8.2533Z" style="fill: #444"/>
        <path d="M198.97041,1483.86431h8.2533v7.72423h-8.2533Z" style="fill: #444"/>
        <path d="M86.01075,1505.25454h8.2533v7.72422h-8.2533Z" style="fill: #444"/>
        <path d="M94.26279,1505.25454h8.2533v7.72422h-8.2533Z" style="fill: #444"/>
        <path d="M101.99979,1505.25454h8.2533v7.72422h-8.2533Z" style="fill: #444"/>
        <path d="M126.24213,1505.25454h8.2533v7.72422h-8.2533Z" style="fill: #444"/>
        <path d="M134.49543,1505.25454h8.2533v7.72422h-8.2533Z" style="fill: #444"/>
        <path d="M142.74873,1505.25454h8.2533v7.72422h-8.2533Z" style="fill: #444"/>
        <path d="M150.48573,1505.25454h8.2533v7.72422h-8.2533Z" style="fill: #444"/>
        <path d="M158.73777,1505.25454h8.2533v7.72422h-8.2533Z" style="fill: #444"/>
        <path d="M166.47477,1505.25454h8.2533v7.72422h-8.2533Z" style="fill: #444"/>
        <path d="M174.72807,1505.25454h8.2533v7.72422h-8.2533Z" style="fill: #444"/>
        <path d="M198.97041,1505.25454h8.2533v7.72422h-8.2533Z" style="fill: #444"/>
        <path d="M86.01075,1529.02161h8.2533v7.72423h-8.2533Z" style="fill: #444"/>
        <path d="M94.26279,1529.02161h8.2533v7.72423h-8.2533Z" style="fill: #444"/>
        <path d="M115.41109,1529.02161h19.08434v7.72423H115.41109Z" style="fill: #444"/>
        <path d="M134.49543,1529.02161h8.2533v7.72423h-8.2533Z" style="fill: #444"/>
        <path d="M142.74873,1529.02161h8.2533v7.72423h-8.2533Z" style="fill: #444"/>
        <path d="M150.48573,1529.02161h8.2533v7.72423h-8.2533Z" style="fill: #444"/>
        <path d="M158.73777,1529.02161h8.2533v7.72423h-8.2533Z" style="fill: #444"/>
      </g>
      <path d="M291.59655,1458.90881H226.83184v93.87988h64.76471a11.281,11.281,0,0,0,11.28878-11.28951V1470.792C302.88533,1464.25618,297.53831,1458.90881,291.59655,1458.90881Z" style="fill: #ffe211"/>
      <g style="isolation: isolate">
        <path d="M267.7869,1498.84839c0-2.00977-1.8584-3.21485-4.41993-3.21485a7.07492,7.07492,0,0,0-6.27929,3.61719l-7.48438-4.01953c2.66211-4.4707,7.53516-7.43359,14.91895-7.43359,7.73535,0,13.26074,3.31445,13.26074,9.44335,0,7.83594-8.23731,8.99122-8.23731,13.61329h-8.9414C260.60428,1504.27319,267.7869,1502.616,267.7869,1498.84839Zm-8.38868,19.99218c0-2.96386,2.31055-5.17382,5.67676-5.17382,3.36524,0,5.72656,2.21,5.72656,5.17382a5.719,5.719,0,0,1-11.40332,0Z" style="fill: #444"/>
      </g>
    </g>
    <g>
      <path id="g" d="M68.99027,1499.20557h0c.59475-1.18843.59475-2.37685,1.18806-3.56492h0a6.59406,6.59406,0,0,0-6.53653-6.5358h0a22.05826,22.05826,0,0,0-24.95514-19.01373,21.48445,21.48445,0,0,0-19.01337,19.01373h0a6.71335,6.71335,0,0,0-5.347,7.72423,4.512,4.512,0,0,0,1.18806,2.37685h0c-5.347,1.18843-8.31789,6.5358-7.12983,11.88354a9.633,9.633,0,0,0,9.50741,7.1302h0a7.543,7.543,0,0,0,3.56564-.594h0a7.41557,7.41557,0,0,0,10.10072,4.15931,7.95793,7.95793,0,0,0,4.75371-8.31863h0a20.22375,20.22375,0,0,0,11.88354,0h0c-.59476,4.15932,1.78282,8.31863,5.94176,8.91266s8.3179-1.78246,8.91266-5.94177h0a9.47889,9.47889,0,0,0,10.10072-16.04285,11.01885,11.01885,0,0,0-4.1604-1.18879Zm-10.69548,8.31826-.59476-.594c.59476-.594.59476-.594,1.18807-1.18843h0a4.60394,4.60394,0,0,0-.59331,1.78246Z" style="fill: #ffe211"/>
      <path d="M68.99027,1499.20557h0c.59475-1.18843.59475-2.37685,1.18806-3.56492h0a6.59406,6.59406,0,0,0-6.53653-6.5358h0a22.05826,22.05826,0,0,0-24.95514-19.01373,21.48445,21.48445,0,0,0-19.01337,19.01373h0a6.71335,6.71335,0,0,0-5.347,7.72423,4.512,4.512,0,0,0,1.18806,2.37685h0c-5.347,1.18843-8.31789,6.5358-7.12983,11.88354a9.633,9.633,0,0,0,9.50741,7.1302h0a7.543,7.543,0,0,0,3.56564-.594h0a7.41557,7.41557,0,0,0,10.10072,4.15931,7.95793,7.95793,0,0,0,4.75371-8.31863h0a20.22375,20.22375,0,0,0,11.88354,0h0c-.59476,4.15932,1.78282,8.31863,5.94176,8.91266s8.3179-1.78246,8.91266-5.94177h0a9.47889,9.47889,0,0,0,10.10072-16.04285,11.01885,11.01885,0,0,0-4.1604-1.18879Zm-10.69548,8.31826-.59476-.594c.59476-.594.59476-.594,1.18807-1.18843h0a4.60394,4.60394,0,0,0-.59331,1.78246Z" style="fill: none;stroke: #2a2a2a;stroke-linecap: round;stroke-linejoin: round;stroke-width: 2.73321390902566px"/>
      <path d="M62.45374,1504.553h0a3.83407,3.83407,0,0,1-3.56564,3.56491h0a18.58277,18.58277,0,0,1-20.79619,15.44846,18.2757,18.2757,0,0,1-15.44918-15.44846h0a3.56492,3.56492,0,1,1,0-7.12983s4.7537-6.5358,8.91265-5.34774c4.75371,1.18843,7.12983-.594,10.69547-6.5358h0c2.37613-3.56492,5.94177-5.94177,10.10072-5.94177h0a30.18924,30.18924,0,0,0,1.78282,10.10108h0c1.18807,2.97089,2.37613,5.94177,4.75371,8.31862h0c1.78282-1.18879,3.56564.594,3.56564,2.97053Z" style="fill: #fff;stroke: #2a2a2a;stroke-linecap: round;stroke-linejoin: round;stroke-width: 2.73321390902566px"/>
      <path d="M35.121,1512.87157h0a32.318,32.318,0,0,0,10.69548,0" style="fill: none;stroke: #2a2a2a;stroke-linecap: round;stroke-linejoin: round;stroke-width: 2.73321390902566px"/>
      <path d="M31.55683,1506.9298a1.68369,1.68369,0,0,1,0,2.97088,1.68345,1.68345,0,0,1-2.97088,0c-.59476-1.18842-.59476-2.37685,0-2.97088a1.68345,1.68345,0,0,1,2.97088,0" style="fill: #ffe211"/>
      <path d="M52.94633,1506.9298a2.69634,2.69634,0,0,1,0,2.97088c-1.18806,1.18843-2.37613,1.18843-2.97089,0s-.59475-2.37685,0-2.97088c.59476-1.18843,1.78283-1.18843,2.97089,0" style="fill: #ffe211"/>
      <path d="M16.465,1514.89163l4.15894-4.15931,4.159,4.15931-4.159,4.15931Z" style="fill: #fff;stroke: #2a2a2a;stroke-linecap: round;stroke-linejoin: round;stroke-width: 2.73321390902566px"/>
      <path d="M57.75974,1515.01054l4.15895-4.15931,4.159,4.15931-4.159,4.15931Z" style="fill: #fff;stroke: #2a2a2a;stroke-linecap: round;stroke-linejoin: round;stroke-width: 2.73321390902566px"/>
      <path d="M20.2666,1507.52383v4.15931" style="fill: none;stroke: #2a2a2a;stroke-linecap: round;stroke-linejoin: round;stroke-width: 2.73321390902566px"/>
      <path d="M61.26568,1506.9298v4.75334" style="fill: none;stroke: #2a2a2a;stroke-linecap: round;stroke-linejoin: round;stroke-width: 2.73321390902566px"/>
      <circle cx="33.33965" cy="1502.17646" r="2.37649" style="fill: #2d2d2d"/>
      <circle cx="48.19407" cy="1502.17646" r="2.37649" style="fill: #2d2d2d"/>
    </g>
    <g>
      <g>
        <path d="M51.54959,1659.61011a8.35465,8.35465,0,0,1-8.28906-8.37793v-53.29786a8.35058,8.35058,0,0,1,8.28906-8.3789H291.59647a8.35547,8.35547,0,0,1,8.28906,8.3789v53.29786a8.77869,8.77869,0,0,1-8.28906,8.37793Z" style="fill: #fff"/>
        <path d="M291.59647,1592.55575a5.34843,5.34843,0,0,1,5.28906,5.37833V1651.232a5.77747,5.77747,0,0,1-5.28906,5.37836H51.54959A5.34832,5.34832,0,0,1,46.261,1651.232v-53.29791a5.34366,5.34366,0,0,1,5.28857-5.37833H291.59647m0-6H51.54959A11.325,11.325,0,0,0,40.261,1597.93408V1651.232a11.32624,11.32624,0,0,0,11.28857,11.37836H291.59647a11.73287,11.73287,0,0,0,11.28906-11.37836v-53.29791a11.32664,11.32664,0,0,0-11.28906-11.37833Z" style="fill: #66bb6a"/>
      </g>
      <g>
        <path d="M86.01075,1610.91687h8.2533v7.72423h-8.2533Z" style="fill: #444"/>
        <path d="M94.26279,1610.91687h8.2533v7.72423h-8.2533Z" style="fill: #444"/>
        <path d="M118.50513,1610.91687h8.2533v7.72423h-8.2533Z" style="fill: #444"/>
        <path d="M126.24213,1610.91687h8.2533v7.72423h-8.2533Z" style="fill: #444"/>
        <path d="M134.49543,1610.91687h8.2533v7.72423h-8.2533Z" style="fill: #444"/>
        <path d="M142.74873,1610.91687h8.2533v7.72423h-8.2533Z" style="fill: #444"/>
        <path d="M150.48573,1610.91687h8.2533v7.72423h-8.2533Z" style="fill: #444"/>
        <path d="M174.72807,1610.91687h8.2533v7.72423h-8.2533Z" style="fill: #444"/>
        <path d="M182.98011,1610.91687h8.2533v7.72423h-8.2533Z" style="fill: #444"/>
        <path d="M190.71711,1610.91687h8.2533v7.72423h-8.2533Z" style="fill: #444"/>
        <path d="M198.97041,1610.91687h8.2533v7.72423h-8.2533Z" style="fill: #444"/>
        <path d="M86.01075,1632.30746h8.2533v7.72423h-8.2533Z" style="fill: #444"/>
        <path d="M94.26279,1632.30746h8.2533v7.72423h-8.2533Z" style="fill: #444"/>
        <path d="M101.99979,1632.30746h8.2533v7.72423h-8.2533Z" style="fill: #444"/>
        <path d="M126.24213,1632.30746h8.2533v7.72423h-8.2533Z" style="fill: #444"/>
        <path d="M134.49543,1632.30746h8.2533v7.72423h-8.2533Z" style="fill: #444"/>
        <path d="M142.74873,1632.30746h8.2533v7.72423h-8.2533Z" style="fill: #444"/>
        <path d="M150.48573,1632.30746h8.2533v7.72423h-8.2533Z" style="fill: #444"/>
        <path d="M158.73777,1632.30746h8.2533v7.72423h-8.2533Z" style="fill: #444"/>
        <path d="M166.47477,1632.30746h8.2533v7.72423h-8.2533Z" style="fill: #444"/>
        <path d="M174.72807,1632.30746h8.2533v7.72423h-8.2533Z" style="fill: #444"/>
        <path d="M198.97041,1632.30746h8.2533v7.72423h-8.2533Z" style="fill: #444"/>
      </g>
      <path d="M291.59655,1586.55577H226.83184v76.05457h64.76471a11.281,11.281,0,0,0,11.28878-11.28951v-52.88189C302.88533,1591.30911,297.53831,1586.55577,291.59655,1586.55577Z" style="fill: #66bb6a"/>
      <g>
        <path d="M244.6557,1624.58323c0-3.56491,2.37613-5.34773,5.94177-5.34773,2.97088,0,5.94177,2.37685,5.94177,5.34773a5.6134,5.6134,0,0,1-5.94177,5.94177C247.62658,1629.93061,244.6557,1627.55412,244.6557,1624.58323Z" style="fill: #444"/>
        <path d="M258.91682,1624.58323c0-3.56491,2.37612-5.34773,5.94176-5.34773,2.97089,0,5.94177,2.37685,5.94177,5.34773a5.61339,5.61339,0,0,1-5.94177,5.94177C261.29294,1629.93061,258.91682,1627.55412,258.91682,1624.58323Z" style="fill: #444"/>
        <path d="M273.17648,1624.58323c0-3.56491,2.37613-5.34773,5.94177-5.34773,2.97088,0,5.94177,2.37685,5.94177,5.34773a5.6134,5.6134,0,0,1-5.94177,5.94177C275.55406,1629.93061,273.17648,1627.55412,273.17648,1624.58323Z" style="fill: #444"/>
      </g>
    </g>
    <g>
      <path d="M39.66466,1609.614h0a18.513,18.513,0,0,1,18.42007,18.41934h0v5.94177a18.49245,18.49245,0,0,1-14.85443,18.41933c-10.10071,1.78246-20.20143-4.75334-21.98425-14.85442h0c-1.78282,0-2.97089-1.18842-3.56564-2.97088,0-1.78246,1.18806-4.15931,2.97088-4.15931h0V1628.033c.59476-10.10035,8.91265-18.419,19.01337-18.419Z" style="fill: #fff;stroke: #2a2a2a;stroke-linecap: round;stroke-linejoin: round;stroke-width: 2.74985079042134px"/>
      <path d="M37.28853,1628.03334a2.55565,2.55565,0,0,0-2.37612,2.37685h0a2.37613,2.37613,0,1,0,2.37612-2.37685Z" style="fill: #2a2a2a"/>
      <path d="M49.17207,1628.03334c-1.18806,0-1.78282,1.18842-1.78282,2.37685s1.18807,1.78246,2.37613,1.78246h.59476c1.18806,0,1.78282-1.18843,1.78282-2.37686,0-.594-1.18807-1.78245-2.97089-1.78245Z" style="fill: #2a2a2a"/>
      <path d="M33.72289,1636.946a2.55565,2.55565,0,0,0-2.37612-2.37685h0a2.37685,2.37685,0,0,0,0,4.7537,2.55565,2.55565,0,0,0,2.37612-2.37685Z" style="fill: #ffe211"/>
      <path d="M47.38925,1642.29373c-2.37613,1.78246-5.94177,1.78246-8.91265,0h0" style="fill: none;stroke: #2a2a2a;stroke-linecap: round;stroke-linejoin: round;stroke-width: 2.74985079042134px"/>
      <path id="a-4" data-name="a" d="M20.058,1622.09157v2.97088H59.86755v-4.15931a20.42752,20.42752,0,0,0-20.79619-19.60777c-11.29024.5944-19.60813,9.507-19.01338,20.7962Z" style="fill: #ffe211"/>
      <path d="M20.058,1622.09157v2.97088H59.86755v-4.15931a20.42752,20.42752,0,0,0-20.79619-19.60777c-11.29024.5944-19.60813,9.507-19.01338,20.7962Z" style="fill: none;stroke: #2a2a2a;stroke-linecap: round;stroke-linejoin: round;stroke-width: 2.74985079042134px"/>
      <path id="b-3" data-name="b" d="M33.72289,1601.88977c4.15895-1.78246,10.69548,0,10.69548,0,6.53652,3.56492,10.10071,16.63688,9.50741,23.76708H44.41837C45.60643,1616.1498,41.44748,1603.67223,33.72289,1601.88977Z" style="fill: #ffe211"/>
      <path d="M16.49234,1625.65685H62.83843" style="fill: none;stroke: #2a2a2a;stroke-linecap: round;stroke-linejoin: round;stroke-width: 2.74985079042134px"/>
      <path d="M33.72289,1601.88977c4.15895-1.78246,10.69548,0,10.69548,0,6.53652,3.56492,10.10071,16.63688,9.50741,23.76708H44.41837C45.60643,1616.1498,41.44748,1603.67223,33.72289,1601.88977Z" style="fill: none;stroke: #2a2a2a;stroke-linecap: round;stroke-linejoin: round;stroke-width: 2.74985079042134px"/>
      <path d="M36.69378,1619.12068s-1.18807-10.69511-7.72459-13.666" style="fill: none;stroke: #2a2a2a;stroke-linecap: round;stroke-linejoin: round;stroke-width: 2.74985079042134px"/>
    </g>
    <g>
      <path d="M39.66466,1373.14539h0a18.513,18.513,0,0,1,18.42007,18.41934h0v5.94177a18.49247,18.49247,0,0,1-14.85443,18.41934c-10.10071,1.78246-20.20143-4.75335-21.98425-14.85443h0c-1.78282,0-2.97089-1.18842-3.56564-2.97088,0-1.78246,1.18806-4.15931,2.97088-4.15931h0v-2.37649c.59476-10.69511,8.91265-18.41934,19.01337-18.41934Z" style="fill: #fff;stroke: #2a2a2a;stroke-linecap: round;stroke-linejoin: round;stroke-width: 2.74985079042134px"/>
      <path d="M37.28853,1391.56473a2.55566,2.55566,0,0,0-2.37612,2.37685h0a2.37613,2.37613,0,1,0,2.37612-2.37685Z" style="fill: #2a2a2a"/>
      <path d="M49.17207,1391.56473c-1.18806,0-1.78282,1.18843-1.78282,2.37685s1.18807,1.78246,2.37613,1.78246h.59476c1.18806,0,1.78282-1.18843,1.78282-2.37685s-1.18807-1.78246-2.97089-1.78246Z" style="fill: #2a2a2a"/>
      <path d="M33.72289,1399.88335a2.55565,2.55565,0,0,0-2.37612-2.37685h0a2.37685,2.37685,0,0,0,0,4.7537,2.55624,2.55624,0,0,0,2.37612-2.37685Z" style="fill: #ffe211"/>
      <path d="M47.38925,1405.23073c-2.37613,1.78245-5.94177,1.78245-8.91265,0h0" style="fill: none;stroke: #2a2a2a;stroke-linecap: round;stroke-linejoin: round;stroke-width: 2.74985079042134px"/>
      <path id="a-5" data-name="a" d="M20.058,1385.02893v2.97088H59.86755v-4.15931a20.42751,20.42751,0,0,0-20.79619-19.60776c-11.29024.594-19.60813,9.50668-19.01338,20.79619Z" style="fill: #ffe211"/>
      <path d="M20.058,1385.02893v2.97088H59.86755v-4.15931a20.42751,20.42751,0,0,0-20.79619-19.60776c-11.29024.594-19.60813,9.50668-19.01338,20.79619Z" style="fill: none;stroke: #2a2a2a;stroke-linecap: round;stroke-linejoin: round;stroke-width: 2.74985079042134px"/>
      <path id="b-4" data-name="b" d="M33.72289,1364.82677c4.15895-1.78246,10.69548,0,10.69548,0,6.53652,3.56491,10.10071,16.63688,9.50741,23.76707H44.41837C45.60643,1379.08716,41.44748,1366.60923,33.72289,1364.82677Z" style="fill: #ffe211"/>
      <path d="M16.49234,1388.59384H62.83843" style="fill: none;stroke: #2a2a2a;stroke-linecap: round;stroke-linejoin: round;stroke-width: 2.74985079042134px"/>
      <path d="M33.72289,1364.82677c4.15895-1.78246,10.69548,0,10.69548,0,6.53652,3.56491,10.10071,16.63688,9.50741,23.76707H44.41837C45.60643,1379.08716,41.44748,1366.60923,33.72289,1364.82677Z" style="fill: none;stroke: #2a2a2a;stroke-linecap: round;stroke-linejoin: round;stroke-width: 2.74985079042134px"/>
      <path d="M36.69378,1382.058s-1.18807-10.69511-7.72459-13.666" style="fill: none;stroke: #2a2a2a;stroke-linecap: round;stroke-linejoin: round;stroke-width: 2.74985079042134px"/>
    </g>
    <g>
      <g>
        <path d="M51.54959,73.05444A8.35505,8.35505,0,0,1,43.26053,64.676V11.37817a8.35036,8.35036,0,0,1,8.28906-8.37793H291.59647a8.35465,8.35465,0,0,1,8.28906,8.37793V64.676a8.77914,8.77914,0,0,1-8.28906,8.37842Z" style="fill: #fff"/>
        <path d="M291.59647,6a5.3484,5.3484,0,0,1,5.28906,5.37829v53.298a5.77746,5.77746,0,0,1-5.28906,5.37829H51.54959A5.3483,5.3483,0,0,1,46.261,64.67627v-53.298A5.34365,5.34365,0,0,1,51.54959,6H291.59647m0-6H51.54959A11.325,11.325,0,0,0,40.261,11.37829v53.298A11.32619,11.32619,0,0,0,51.54959,76.05456H291.59647a11.73281,11.73281,0,0,0,11.28906-11.37829v-53.298A11.32661,11.32661,0,0,0,291.59647,0Z" style="fill: #66bb6a"/>
      </g>
      <g>
        <path d="M86.01075,24.36147h8.2533V32.0857h-8.2533Z" style="fill: #444"/>
        <path d="M94.26279,24.36147h8.2533V32.0857h-8.2533Z" style="fill: #444"/>
        <path d="M118.50513,24.36147h8.2533V32.0857h-8.2533Z" style="fill: #444"/>
        <path d="M126.24213,24.36147h8.2533V32.0857h-8.2533Z" style="fill: #444"/>
        <path d="M134.49543,24.36147h8.2533V32.0857h-8.2533Z" style="fill: #444"/>
        <path d="M142.74873,24.36147h8.2533V32.0857h-8.2533Z" style="fill: #444"/>
        <path d="M150.48573,24.36147h8.2533V32.0857h-8.2533Z" style="fill: #444"/>
        <path d="M174.72807,24.36147h8.2533V32.0857h-8.2533Z" style="fill: #444"/>
        <path d="M182.98011,24.36147h8.2533V32.0857h-8.2533Z" style="fill: #444"/>
        <path d="M190.71711,24.36147h8.2533V32.0857h-8.2533Z" style="fill: #444"/>
        <path d="M198.97041,24.36147h8.2533V32.0857h-8.2533Z" style="fill: #444"/>
        <path d="M86.01075,45.7517h8.2533v7.72422h-8.2533Z" style="fill: #444"/>
        <path d="M94.26279,45.7517h8.2533v7.72422h-8.2533Z" style="fill: #444"/>
        <path d="M101.99979,45.7517h8.2533v7.72422h-8.2533Z" style="fill: #444"/>
        <path d="M126.24213,45.7517h8.2533v7.72422h-8.2533Z" style="fill: #444"/>
        <path d="M134.49543,45.7517h8.2533v7.72422h-8.2533Z" style="fill: #444"/>
        <path d="M142.74873,45.7517h8.2533v7.72422h-8.2533Z" style="fill: #444"/>
        <path d="M150.48573,45.7517h8.2533v7.72422h-8.2533Z" style="fill: #444"/>
        <path d="M158.73777,45.7517h8.2533v7.72422h-8.2533Z" style="fill: #444"/>
        <path d="M166.47477,45.7517h8.2533v7.72422h-8.2533Z" style="fill: #444"/>
        <path d="M174.72807,45.7517h8.2533v7.72422h-8.2533Z" style="fill: #444"/>
        <path d="M198.97041,45.7517h8.2533v7.72422h-8.2533Z" style="fill: #444"/>
      </g>
      <path d="M291.59655,0H226.83184V76.05457h64.76471a11.28094,11.28094,0,0,0,11.28878-11.2895V11.88318C302.88533,4.75334,297.53831,0,291.59655,0Z" style="fill: #66bb6a"/>
      <g>
        <path d="M244.6557,38.02747c0-3.56492,2.37613-5.34774,5.94177-5.34774,2.97088,0,5.94177,2.37685,5.94177,5.34774a5.6134,5.6134,0,0,1-5.94177,5.94177C247.62658,43.37484,244.6557,40.99835,244.6557,38.02747Z" style="fill: #444"/>
        <path d="M258.91682,38.02747c0-3.56492,2.37612-5.34774,5.94176-5.34774,2.97089,0,5.94177,2.37685,5.94177,5.34774a5.6134,5.6134,0,0,1-5.94177,5.94177C261.29294,43.37484,258.91682,40.99835,258.91682,38.02747Z" style="fill: #444"/>
        <path d="M273.17648,38.02747c0-3.56492,2.37613-5.34774,5.94177-5.34774,2.97088,0,5.94177,2.37685,5.94177,5.34774a5.6134,5.6134,0,0,1-5.94177,5.94177C275.55406,43.37484,273.17648,40.99835,273.17648,38.02747Z" style="fill: #444"/>
      </g>
    </g>
    <g>
      <g>
        <path d="M51.54959,201.29614a8.346,8.346,0,0,1-8.28906-8.36133V121.77759a8.34235,8.34235,0,0,1,8.28906-8.36133H291.59647a8.346,8.346,0,0,1,8.28906,8.36133v71.15722a8.34235,8.34235,0,0,1-8.28906,8.36133Z" style="fill: #fff"/>
        <path d="M291.59647,116.41607a5.33929,5.33929,0,0,1,5.28906,5.36133v71.15717a5.33581,5.33581,0,0,1-5.28906,5.36133H51.54959a5.33918,5.33918,0,0,1-5.28857-5.36133V121.7774a5.33541,5.33541,0,0,1,5.28857-5.36133H291.59647m0-6H51.54959A11.31653,11.31653,0,0,0,40.261,121.7774v71.15717A11.31745,11.31745,0,0,0,51.54959,204.2959H291.59647a11.3167,11.3167,0,0,0,11.28906-11.36133V121.7774a11.31787,11.31787,0,0,0-11.28906-11.36133Z" style="fill: #ffe211"/>
      </g>
      <g>
        <path d="M86.01075,135.37155h8.2533v7.72422h-8.2533Z" style="fill: #444"/>
        <path d="M94.26279,135.37155h8.2533v7.72422h-8.2533Z" style="fill: #444"/>
        <path d="M118.50513,135.37155h8.2533v7.72422h-8.2533Z" style="fill: #444"/>
        <path d="M126.24213,135.37155h8.2533v7.72422h-8.2533Z" style="fill: #444"/>
        <path d="M134.49543,135.37155h8.2533v7.72422h-8.2533Z" style="fill: #444"/>
        <path d="M142.74873,135.37155h8.2533v7.72422h-8.2533Z" style="fill: #444"/>
        <path d="M150.48573,135.37155h8.2533v7.72422h-8.2533Z" style="fill: #444"/>
        <path d="M174.72807,135.37155h8.2533v7.72422h-8.2533Z" style="fill: #444"/>
        <path d="M182.98011,135.37155h8.2533v7.72422h-8.2533Z" style="fill: #444"/>
        <path d="M190.71711,135.37155h8.2533v7.72422h-8.2533Z" style="fill: #444"/>
        <path d="M198.97041,135.37155h8.2533v7.72422h-8.2533Z" style="fill: #444"/>
        <path d="M86.01075,156.76177h8.2533V164.486h-8.2533Z" style="fill: #444"/>
        <path d="M94.26279,156.76177h8.2533V164.486h-8.2533Z" style="fill: #444"/>
        <path d="M101.99979,156.76177h8.2533V164.486h-8.2533Z" style="fill: #444"/>
        <path d="M126.24213,156.76177h8.2533V164.486h-8.2533Z" style="fill: #444"/>
        <path d="M134.49543,156.76177h8.2533V164.486h-8.2533Z" style="fill: #444"/>
        <path d="M142.74873,156.76177h8.2533V164.486h-8.2533Z" style="fill: #444"/>
        <path d="M150.48573,156.76177h8.2533V164.486h-8.2533Z" style="fill: #444"/>
        <path d="M158.73777,156.76177h8.2533V164.486h-8.2533Z" style="fill: #444"/>
        <path d="M166.47477,156.76177h8.2533V164.486h-8.2533Z" style="fill: #444"/>
        <path d="M174.72807,156.76177h8.2533V164.486h-8.2533Z" style="fill: #444"/>
        <path d="M198.97041,156.76177h8.2533V164.486h-8.2533Z" style="fill: #444"/>
        <path d="M86.01075,180.52885h8.2533v7.72423h-8.2533Z" style="fill: #444"/>
        <path d="M94.26279,180.52885h8.2533v7.72423h-8.2533Z" style="fill: #444"/>
        <path d="M115.41109,180.52885h19.08434v7.72423H115.41109Z" style="fill: #444"/>
        <path d="M134.49543,180.52885h8.2533v7.72423h-8.2533Z" style="fill: #444"/>
        <path d="M142.74873,180.52885h8.2533v7.72423h-8.2533Z" style="fill: #444"/>
        <path d="M150.48573,180.52885h8.2533v7.72423h-8.2533Z" style="fill: #444"/>
        <path d="M158.73777,180.52885h8.2533v7.72423h-8.2533Z" style="fill: #444"/>
      </g>
      <path d="M291.59655,110.416H226.83184v93.87989h64.76471a11.281,11.281,0,0,0,11.28878-11.28951v-70.7072C302.88533,115.76342,297.53831,110.416,291.59655,110.416Z" style="fill: #ffe211"/>
      <g style="isolation: isolate">
        <path d="M267.7869,150.35571c0-2.00928-1.8584-3.21484-4.41993-3.21484a7.0764,7.0764,0,0,0-6.27929,3.6167L249.6033,146.739c2.66211-4.4707,7.53516-7.43457,14.91895-7.43457,7.73535,0,13.26074,3.31543,13.26074,9.44385,0,7.83594-8.23731,8.99121-8.23731,13.61279h-8.9414C260.60428,155.78052,267.7869,154.1228,267.7869,150.35571Zm-8.38868,19.99219c0-2.96387,2.31055-5.17383,5.67676-5.17383,3.36524,0,5.72656,2.21,5.72656,5.17383a5.719,5.719,0,0,1-11.40332,0Z" style="fill: #444"/>
      </g>
    </g>
    <g>
      <path id="g-2" data-name="g" d="M68.99027,150.71281h0c.59475-1.18843.59475-2.37686,1.18806-3.56492h0a6.594,6.594,0,0,0-6.53653-6.5358h0a22.05826,22.05826,0,0,0-24.95514-19.01373,21.48444,21.48444,0,0,0-19.01337,19.01373h0a6.71334,6.71334,0,0,0-5.347,7.72423,4.512,4.512,0,0,0,1.18806,2.37685h0c-5.347,1.18843-8.31789,6.5358-7.12983,11.88354a9.633,9.633,0,0,0,9.50741,7.13019h0a7.543,7.543,0,0,0,3.56564-.594h0a7.41556,7.41556,0,0,0,10.10072,4.15931,7.95791,7.95791,0,0,0,4.75371-8.31862h0a20.22375,20.22375,0,0,0,11.88354,0h0c-.59476,4.15931,1.78282,8.31862,5.94176,8.91265s8.3179-1.78245,8.91266-5.94176h0A9.47889,9.47889,0,0,0,73.15067,151.9016a11.01885,11.01885,0,0,0-4.1604-1.18879Zm-10.69548,8.31826L57.7,158.437c.59476-.594.59476-.594,1.18807-1.18842h0a4.60389,4.60389,0,0,0-.59331,1.78246Z" style="fill: #ffe211"/>
      <path d="M68.99027,150.71281h0c.59475-1.18843.59475-2.37686,1.18806-3.56492h0a6.594,6.594,0,0,0-6.53653-6.5358h0a22.05826,22.05826,0,0,0-24.95514-19.01373,21.48444,21.48444,0,0,0-19.01337,19.01373h0a6.71334,6.71334,0,0,0-5.347,7.72423,4.512,4.512,0,0,0,1.18806,2.37685h0c-5.347,1.18843-8.31789,6.5358-7.12983,11.88354a9.633,9.633,0,0,0,9.50741,7.13019h0a7.543,7.543,0,0,0,3.56564-.594h0a7.41556,7.41556,0,0,0,10.10072,4.15931,7.95791,7.95791,0,0,0,4.75371-8.31862h0a20.22375,20.22375,0,0,0,11.88354,0h0c-.59476,4.15931,1.78282,8.31862,5.94176,8.91265s8.3179-1.78245,8.91266-5.94176h0A9.47889,9.47889,0,0,0,73.15067,151.9016a11.01885,11.01885,0,0,0-4.1604-1.18879Zm-10.69548,8.31826L57.7,158.437c.59476-.594.59476-.594,1.18807-1.18842h0a4.60389,4.60389,0,0,0-.59331,1.78246Z" style="fill: none;stroke: #2a2a2a;stroke-linecap: round;stroke-linejoin: round;stroke-width: 2.73321390902566px"/>
      <path d="M62.45374,156.06018h0a3.83407,3.83407,0,0,1-3.56564,3.56492h0a18.58275,18.58275,0,0,1-20.79619,15.44845A18.27568,18.27568,0,0,1,22.64273,159.6251h0a3.56492,3.56492,0,1,1,0-7.12984s4.7537-6.5358,8.91265-5.34773c4.75371,1.18842,7.12983-.594,10.69547-6.5358h0C44.627,137.04681,48.19262,134.67,52.35157,134.67h0A30.18928,30.18928,0,0,0,54.13439,144.771h0c1.18807,2.97088,2.37613,5.94177,4.75371,8.31862h0c1.78282-1.18879,3.56564.594,3.56564,2.97052Z" style="fill: #fff;stroke: #2a2a2a;stroke-linecap: round;stroke-linejoin: round;stroke-width: 2.73321390902566px"/>
      <path d="M35.121,164.3788h0a32.31749,32.31749,0,0,0,10.69548,0" style="fill: none;stroke: #2a2a2a;stroke-linecap: round;stroke-linejoin: round;stroke-width: 2.73321390902566px"/>
      <path d="M31.55683,158.437a1.6837,1.6837,0,0,1,0,2.97089,1.68345,1.68345,0,0,1-2.97088,0c-.59476-1.18843-.59476-2.37685,0-2.97089a1.68345,1.68345,0,0,1,2.97088,0" style="fill: #ffe211"/>
      <path d="M52.94633,158.437a2.69635,2.69635,0,0,1,0,2.97089c-1.18806,1.18843-2.37613,1.18843-2.97089,0s-.59475-2.37685,0-2.97089c.59476-1.18842,1.78283-1.18842,2.97089,0" style="fill: #ffe211"/>
      <path d="M16.465,166.39887l4.15894-4.15931,4.159,4.15931-4.159,4.15931Z" style="fill: #fff;stroke: #2a2a2a;stroke-linecap: round;stroke-linejoin: round;stroke-width: 2.73321390902566px"/>
      <path d="M57.75974,166.51778l4.15895-4.15932,4.159,4.15932-4.159,4.15931Z" style="fill: #fff;stroke: #2a2a2a;stroke-linecap: round;stroke-linejoin: round;stroke-width: 2.73321390902566px"/>
      <path d="M20.2666,159.03107v4.15931" style="fill: none;stroke: #2a2a2a;stroke-linecap: round;stroke-linejoin: round;stroke-width: 2.73321390902566px"/>
      <path d="M61.26568,158.437v4.75335" style="fill: none;stroke: #2a2a2a;stroke-linecap: round;stroke-linejoin: round;stroke-width: 2.73321390902566px"/>
      <circle cx="33.33965" cy="153.68369" r="2.37649" style="fill: #2d2d2d"/>
      <circle cx="48.19407" cy="153.68369" r="2.37649" style="fill: #2d2d2d"/>
    </g>
    <g>
      <g>
        <path d="M51.54959,311.11743a8.35505,8.35505,0,0,1-8.28906-8.37842V249.44116a8.35036,8.35036,0,0,1,8.28906-8.37793H291.59647a8.35465,8.35465,0,0,1,8.28906,8.37793V302.739a8.77914,8.77914,0,0,1-8.28906,8.37842Z" style="fill: #fff"/>
        <path d="M291.59647,244.063a5.34841,5.34841,0,0,1,5.28906,5.37835v53.29792a5.77746,5.77746,0,0,1-5.28906,5.37829H51.54959a5.3483,5.3483,0,0,1-5.28857-5.37829V249.44134a5.34366,5.34366,0,0,1,5.28857-5.37835H291.59647m0-6H51.54959A11.325,11.325,0,0,0,40.261,249.44134v53.29792a11.32619,11.32619,0,0,0,11.28857,11.37829H291.59647a11.73281,11.73281,0,0,0,11.28906-11.37829V249.44134A11.32666,11.32666,0,0,0,291.59647,238.063Z" style="fill: #66bb6a"/>
      </g>
      <g>
        <path d="M86.01075,262.42411h8.2533v7.72423h-8.2533Z" style="fill: #444"/>
        <path d="M94.26279,262.42411h8.2533v7.72423h-8.2533Z" style="fill: #444"/>
        <path d="M118.50513,262.42411h8.2533v7.72423h-8.2533Z" style="fill: #444"/>
        <path d="M126.24213,262.42411h8.2533v7.72423h-8.2533Z" style="fill: #444"/>
        <path d="M134.49543,262.42411h8.2533v7.72423h-8.2533Z" style="fill: #444"/>
        <path d="M142.74873,262.42411h8.2533v7.72423h-8.2533Z" style="fill: #444"/>
        <path d="M150.48573,262.42411h8.2533v7.72423h-8.2533Z" style="fill: #444"/>
        <path d="M174.72807,262.42411h8.2533v7.72423h-8.2533Z" style="fill: #444"/>
        <path d="M182.98011,262.42411h8.2533v7.72423h-8.2533Z" style="fill: #444"/>
        <path d="M190.71711,262.42411h8.2533v7.72423h-8.2533Z" style="fill: #444"/>
        <path d="M198.97041,262.42411h8.2533v7.72423h-8.2533Z" style="fill: #444"/>
        <path d="M86.01075,283.8147h8.2533v7.72422h-8.2533Z" style="fill: #444"/>
        <path d="M94.26279,283.8147h8.2533v7.72422h-8.2533Z" style="fill: #444"/>
        <path d="M101.99979,283.8147h8.2533v7.72422h-8.2533Z" style="fill: #444"/>
        <path d="M126.24213,283.8147h8.2533v7.72422h-8.2533Z" style="fill: #444"/>
        <path d="M134.49543,283.8147h8.2533v7.72422h-8.2533Z" style="fill: #444"/>
        <path d="M142.74873,283.8147h8.2533v7.72422h-8.2533Z" style="fill: #444"/>
        <path d="M150.48573,283.8147h8.2533v7.72422h-8.2533Z" style="fill: #444"/>
        <path d="M158.73777,283.8147h8.2533v7.72422h-8.2533Z" style="fill: #444"/>
        <path d="M166.47477,283.8147h8.2533v7.72422h-8.2533Z" style="fill: #444"/>
        <path d="M174.72807,283.8147h8.2533v7.72422h-8.2533Z" style="fill: #444"/>
        <path d="M198.97041,283.8147h8.2533v7.72422h-8.2533Z" style="fill: #444"/>
      </g>
      <path d="M291.59655,238.063H226.83184v76.05457h64.76471a11.28094,11.28094,0,0,0,11.28878-11.2895V249.94618C302.88533,242.81634,297.53831,238.063,291.59655,238.063Z" style="fill: #66bb6a"/>
      <g>
        <path d="M244.6557,276.09047c0-3.56492,2.37613-5.34774,5.94177-5.34774,2.97088,0,5.94177,2.37686,5.94177,5.34774a5.6134,5.6134,0,0,1-5.94177,5.94177C247.62658,281.43784,244.6557,279.06135,244.6557,276.09047Z" style="fill: #444"/>
        <path d="M258.91682,276.09047c0-3.56492,2.37612-5.34774,5.94176-5.34774,2.97089,0,5.94177,2.37686,5.94177,5.34774a5.61339,5.61339,0,0,1-5.94177,5.94177C261.29294,281.43784,258.91682,279.06135,258.91682,276.09047Z" style="fill: #444"/>
        <path d="M273.17648,276.09047c0-3.56492,2.37613-5.34774,5.94177-5.34774,2.97088,0,5.94177,2.37686,5.94177,5.34774a5.6134,5.6134,0,0,1-5.94177,5.94177C275.55406,281.43784,273.17648,279.06135,273.17648,276.09047Z" style="fill: #444"/>
      </g>
    </g>
    <g>
      <path d="M39.66466,261.12123h0a18.513,18.513,0,0,1,18.42007,18.41934h0v5.94177A18.49246,18.49246,0,0,1,43.2303,303.90168c-10.10071,1.78246-20.20143-4.75334-21.98425-14.85442h0c-1.78282,0-2.97089-1.18843-3.56564-2.97089,0-1.78246,1.18806-4.15931,2.97088-4.15931h0v-2.37685c.59476-10.10036,8.91265-18.419,19.01337-18.419Z" style="fill: #fff;stroke: #2a2a2a;stroke-linecap: round;stroke-linejoin: round;stroke-width: 2.74985079042134px"/>
      <path d="M37.28853,279.54057a2.55566,2.55566,0,0,0-2.37612,2.37685h0a2.37613,2.37613,0,1,0,2.37612-2.37685Z" style="fill: #2a2a2a"/>
      <path d="M49.17207,279.54057c-1.18806,0-1.78282,1.18843-1.78282,2.37685s1.18807,1.78246,2.37613,1.78246h.59476c1.18806,0,1.78282-1.18842,1.78282-2.37685,0-.594-1.18807-1.78246-2.97089-1.78246Z" style="fill: #2a2a2a"/>
      <path d="M33.72289,288.45323a2.55566,2.55566,0,0,0-2.37612-2.37686h0a2.37686,2.37686,0,0,0,0,4.75371,2.55566,2.55566,0,0,0,2.37612-2.37685Z" style="fill: #ffe211"/>
      <path d="M47.38925,293.801c-2.37613,1.78246-5.94177,1.78246-8.91265,0h0" style="fill: none;stroke: #2a2a2a;stroke-linecap: round;stroke-linejoin: round;stroke-width: 2.74985079042134px"/>
      <path id="a-6" data-name="a" d="M20.058,273.5988v2.97089H59.86755v-4.15931a20.42752,20.42752,0,0,0-20.79619-19.60777c-11.29024.5944-19.60813,9.50705-19.01338,20.79619Z" style="fill: #ffe211"/>
      <path d="M20.058,273.5988v2.97089H59.86755v-4.15931a20.42752,20.42752,0,0,0-20.79619-19.60777c-11.29024.5944-19.60813,9.50705-19.01338,20.79619Z" style="fill: none;stroke: #2a2a2a;stroke-linecap: round;stroke-linejoin: round;stroke-width: 2.74985079042134px"/>
      <path id="b-5" data-name="b" d="M33.72289,253.397c4.15895-1.78246,10.69548,0,10.69548,0,6.53652,3.56491,10.10071,16.63688,9.50741,23.76707H44.41837C45.60643,267.657,41.44748,255.17946,33.72289,253.397Z" style="fill: #ffe211"/>
      <path d="M16.49234,277.16408H62.83843" style="fill: none;stroke: #2a2a2a;stroke-linecap: round;stroke-linejoin: round;stroke-width: 2.74985079042134px"/>
      <path d="M33.72289,253.397c4.15895-1.78246,10.69548,0,10.69548,0,6.53652,3.56491,10.10071,16.63688,9.50741,23.76707H44.41837C45.60643,267.657,41.44748,255.17946,33.72289,253.397Z" style="fill: none;stroke: #2a2a2a;stroke-linecap: round;stroke-linejoin: round;stroke-width: 2.74985079042134px"/>
      <path d="M36.69378,270.62792s-1.18807-10.69511-7.72459-13.666" style="fill: none;stroke: #2a2a2a;stroke-linecap: round;stroke-linejoin: round;stroke-width: 2.74985079042134px"/>
    </g>
    <g>
      <path d="M39.66466,24.65263h0A18.51294,18.51294,0,0,1,58.08473,43.072h0v5.94177A18.49246,18.49246,0,0,1,43.2303,67.43307c-10.10071,1.78246-20.20143-4.75334-21.98425-14.85442h0c-1.78282,0-2.97089-1.18843-3.56564-2.97088,0-1.78246,1.18806-4.15932,2.97088-4.15932h0V43.072c.59476-10.69511,8.91265-18.41933,19.01337-18.41933Z" style="fill: #fff;stroke: #2a2a2a;stroke-linecap: round;stroke-linejoin: round;stroke-width: 2.74985079042134px"/>
      <path d="M37.28853,43.072a2.55566,2.55566,0,0,0-2.37612,2.37686h0A2.37613,2.37613,0,1,0,37.28853,43.072Z" style="fill: #2a2a2a"/>
      <path d="M49.17207,43.072c-1.18806,0-1.78282,1.18843-1.78282,2.37686s1.18807,1.78246,2.37613,1.78246h.59476c1.18806,0,1.78282-1.18843,1.78282-2.37686S50.95489,43.072,49.17207,43.072Z" style="fill: #2a2a2a"/>
      <path d="M33.72289,51.39059a2.55566,2.55566,0,0,0-2.37612-2.37686h0a2.37686,2.37686,0,0,0,0,4.75371,2.55624,2.55624,0,0,0,2.37612-2.37685Z" style="fill: #ffe211"/>
      <path d="M47.38925,56.738c-2.37613,1.78246-5.94177,1.78246-8.91265,0h0" style="fill: none;stroke: #2a2a2a;stroke-linecap: round;stroke-linejoin: round;stroke-width: 2.74985079042134px"/>
      <path id="a-7" data-name="a" d="M20.058,36.53616v2.97089H59.86755V35.34774A20.42752,20.42752,0,0,0,39.07136,15.74c-11.29024.594-19.60813,9.50669-19.01338,20.79619Z" style="fill: #ffe211"/>
      <path d="M20.058,36.53616v2.97089H59.86755V35.34774A20.42752,20.42752,0,0,0,39.07136,15.74c-11.29024.594-19.60813,9.50669-19.01338,20.79619Z" style="fill: none;stroke: #2a2a2a;stroke-linecap: round;stroke-linejoin: round;stroke-width: 2.74985079042134px"/>
      <path id="b-6" data-name="b" d="M33.72289,16.334c4.15895-1.78245,10.69548,0,10.69548,0,6.53652,3.56492,10.10071,16.63688,9.50741,23.76708H44.41837C45.60643,30.59439,41.44748,18.11646,33.72289,16.334Z" style="fill: #ffe211"/>
      <path d="M16.49234,40.10108H62.83843" style="fill: none;stroke: #2a2a2a;stroke-linecap: round;stroke-linejoin: round;stroke-width: 2.74985079042134px"/>
      <path d="M33.72289,16.334c4.15895-1.78245,10.69548,0,10.69548,0,6.53652,3.56492,10.10071,16.63688,9.50741,23.76708H44.41837C45.60643,30.59439,41.44748,18.11646,33.72289,16.334Z" style="fill: none;stroke: #2a2a2a;stroke-linecap: round;stroke-linejoin: round;stroke-width: 2.74985079042134px"/>
      <path d="M36.69378,33.56528s-1.18807-10.69511-7.72459-13.666" style="fill: none;stroke: #2a2a2a;stroke-linecap: round;stroke-linejoin: round;stroke-width: 2.74985079042134px"/>
    </g>
  </g>
</svg>
