<svg id="a7bc3863-7e28-4c80-9bbc-8b4e6c6ee5bd" data-name="Calque 1" xmlns="http://www.w3.org/2000/svg" width="226.77" height="226.77" viewBox="0 0 226.77 226.77">
  <defs>
    <style>
      .b56416fc-de49-4931-ba1b-8080324c563e {
        fill: #ffe211;
      }

      .b7418c3e-9bad-4660-b97a-2cd9757383de {
        fill: #fff;
      }
    </style>
  </defs>
  <title>Rea logo - Plan de travail 1</title>
  <rect class="b56416fc-de49-4931-ba1b-8080324c563e" x="0.92" y="-1.54" width="226.77" height="226.77"/>
  <path class="b7418c3e-9bad-4660-b97a-2cd9757383de" d="M104.01868,142.12958,89.42263,116.73284H81.96411v25.39674H70.65531V79.60673H92.38373a22.52575,22.52575,0,0,1,10.32864,2.29506,16.86678,16.86678,0,0,1,7.10147,6.674,19.06357,19.06357,0,0,1,2.441,9.63514,17.21428,17.21428,0,0,1-4.04768,11.43926,18.9181,18.9181,0,0,1-7.41046,5.33l15.63972,27.14937ZM91.53917,106.52092c3.06066,0,5.29049-.73126,6.81481-2.235a8.08032,8.08032,0,0,0,2.25387-6.075A8.20948,8.20948,0,0,0,98.342,92.08452c-1.52432-1.52432-3.75071-2.26588-6.80279-2.26588H81.96411v16.70228Z"/>
  <path class="b7418c3e-9bad-4660-b97a-2cd9757383de" d="M138.02921,143.47881a21.92682,21.92682,0,0,1-11.49763-3.05551A21.34279,21.34279,0,0,1,118.613,131.94a25.57422,25.57422,0,0,1-2.81862-12.04521,25.88863,25.88863,0,0,1,2.76713-12.028,21.13466,21.13466,0,0,1,7.83617-8.4919,20.55917,20.55917,0,0,1,6.03719-2.465l-3.71467-6.31871,19.97408-11.91991,5.56171,9.48237L135.20029,96.4429a24.85981,24.85981,0,0,1,2.57486-.13217,20.71187,20.71187,0,0,1,10.91228,2.97654,21.07452,21.07452,0,0,1,7.64734,8.07134,23.38631,23.38631,0,0,1,2.74653,11.271c0,1.14839-.0309,2.029-.09613,2.68988l-.218,2.24871h-31.918a13.96463,13.96463,0,0,0,3.04348,6.27924,9.77651,9.77651,0,0,0,7.96663,3.41942,14.46733,14.46733,0,0,0,7.16328-1.57239,12.024,12.024,0,0,0,4.4528-4.38928l1.34407-2.24185,8.75626,5.83979-1.30288,2.05474a22.3421,22.3421,0,0,1-8.25158,7.728A24.7291,24.7291,0,0,1,138.02921,143.47881Zm9.77246-29.61781a10.61773,10.61773,0,0,0-2.786-4.92829c-1.73031-1.62044-4.09918-2.40835-7.24052-2.40835a9.67374,9.67374,0,0,0-7.22163,2.77227,12.78516,12.78516,0,0,0-2.9508,4.56437Z"/>
  <path class="b7418c3e-9bad-4660-b97a-2cd9757383de" d="M185.23963,143.47881a21.77074,21.77074,0,0,1-11.41352-3.05551,21.34279,21.34279,0,0,1-7.91857-8.48332,27.43049,27.43049,0,0,1-.04806-24.12476,21.21226,21.21226,0,0,1,7.83274-8.4404,21.51683,21.51683,0,0,1,11.37746-3.06409,19.14325,19.14325,0,0,1,9.05494,2.18692,19.69275,19.69275,0,0,1,2.37575,1.48827V97.66167h10.72v44.46791h-10.72v-2.30193a19.88694,19.88694,0,0,1-2.32082,1.45909A18.72591,18.72591,0,0,1,185.23963,143.47881Zm-.17-36.95445a10.19153,10.19153,0,0,0-5.72821,1.62388,11.26355,11.26355,0,0,0-4.01851,4.62445,15.7693,15.7693,0,0,0-1.514,7.038,16.22956,16.22956,0,0,0,1.51917,7.17528,11.19132,11.19132,0,0,0,4.00993,4.65536,10.19827,10.19827,0,0,0,5.73164,1.6256,10.551,10.551,0,0,0,5.87069-1.63247,11.09857,11.09857,0,0,0,4.04083-4.64849,17.30565,17.30565,0,0,0,0-14.18063,11.09145,11.09145,0,0,0-4.03911-4.64677A10.54791,10.54791,0,0,0,185.06968,106.52436Z"/>
  <path class="b7418c3e-9bad-4660-b97a-2cd9757383de" d="M48.81545,61H22.1736L8.85274,84,22.1736,107H48.81545L62.13631,84ZM35.49452,94.25262A9.37445,9.37445,0,1,1,44.869,84.87817,9.37445,9.37445,0,0,1,35.49452,94.25262Z"/>
  <path class="b7418c3e-9bad-4660-b97a-2cd9757383de" d="M78.48836,46H65.1675L58.507,58,65.1675,70H78.48836l6.66046-12ZM71.8279,63.48163a4.68723,4.68723,0,1,1,4.68725-4.68726A4.68723,4.68723,0,0,1,71.8279,63.48163Z"/>
  <path class="b7418c3e-9bad-4660-b97a-2cd9757383de" d="M50.17116,21H32.66561L23.91286,36.5,32.66561,52H50.17116l8.75275-15.5ZM41.41841,43.25427a6.15967,6.15967,0,1,1,6.15967-6.15967A6.15967,6.15967,0,0,1,41.41841,43.25427Z"/>
  <circle class="b7418c3e-9bad-4660-b97a-2cd9757383de" cx="215.01801" cy="137.69824" r="4.43134"/>
</svg>
