<svg id="bd084c3a-3548-4e1d-9641-03d1b13efd2c" data-name="Layer 1" xmlns="http://www.w3.org/2000/svg" width="939" height="499" viewBox="0 0 939 499">
  <defs>
    <style>
      .b9119940-92a8-4409-8d15-417c86ffce58, .bbecb6e5-f8e6-4586-a72e-714c60665a38, .ef833f45-3d5a-4468-a8ac-3cb7f5192956, .f9321eda-23f7-4a2d-930a-30175fe6235b {
        fill: #ffe211;
      }

      .a4edd6ab-f3db-4d98-bd80-52c39a461110, .b9119940-92a8-4409-8d15-417c86ffce58, .bbecb6e5-f8e6-4586-a72e-714c60665a38, .bc379641-0f53-48be-b908-d8e72ddd5aff, .bc8ad372-ff56-46bc-9faa-f934c903afb2, .bd1af923-065b-4657-889b-ef45ee7b01f2, .e7564e86-e202-46d4-8484-b0ad8aa24cc6, .e83d6449-9602-4088-a4a8-a9c8b8fbdb5e, .f40460e7-6bb8-413c-822c-66006b75e0b1, .f5782acc-3744-4b01-88de-d3c0ce2177c2 {
        stroke: #474747;
      }

      .bbecb6e5-f8e6-4586-a72e-714c60665a38, .bc379641-0f53-48be-b908-d8e72ddd5aff, .bc8ad372-ff56-46bc-9faa-f934c903afb2, .bd1af923-065b-4657-889b-ef45ee7b01f2, .f5782acc-3744-4b01-88de-d3c0ce2177c2 {
        stroke-miterlimit: 10;
      }

      .bbecb6e5-f8e6-4586-a72e-714c60665a38, .bc8ad372-ff56-46bc-9faa-f934c903afb2, .bd1af923-065b-4657-889b-ef45ee7b01f2, .f5782acc-3744-4b01-88de-d3c0ce2177c2 {
        stroke-width: 1.74018px;
      }

      .bc8ad372-ff56-46bc-9faa-f934c903afb2, .e7564e86-e202-46d4-8484-b0ad8aa24cc6 {
        fill: #ffea83;
      }

      .a4edd6ab-f3db-4d98-bd80-52c39a461110, .a8196eb4-ad1e-45fb-a1b2-ecbecada7c3c, .a919b1ad-1b54-47d3-b219-954df88ae90f, .b26f4523-bee1-4488-babd-3a66653e677b, .ea20dce0-5ac7-4b55-9821-c623aa7bfdf3, .f40460e7-6bb8-413c-822c-66006b75e0b1 {
        fill: none;
      }

      .a4edd6ab-f3db-4d98-bd80-52c39a461110, .a8196eb4-ad1e-45fb-a1b2-ecbecada7c3c, .a919b1ad-1b54-47d3-b219-954df88ae90f, .aaa2bf5f-7a7d-4eba-91c1-79e6066f8a09, .b0e52d1e-7f17-46cb-985c-bd835ef21fbc, .b26f4523-bee1-4488-babd-3a66653e677b, .b9119940-92a8-4409-8d15-417c86ffce58, .bf88934e-dffe-401e-9cbd-07e41144922f, .e7564e86-e202-46d4-8484-b0ad8aa24cc6, .e83d6449-9602-4088-a4a8-a9c8b8fbdb5e, .ea20dce0-5ac7-4b55-9821-c623aa7bfdf3, .ef833f45-3d5a-4468-a8ac-3cb7f5192956, .f0905c49-170b-4b61-a155-54faecaee25d, .f40460e7-6bb8-413c-822c-66006b75e0b1 {
        stroke-linecap: round;
        stroke-linejoin: round;
      }

      .a4edd6ab-f3db-4d98-bd80-52c39a461110, .b9119940-92a8-4409-8d15-417c86ffce58, .e7564e86-e202-46d4-8484-b0ad8aa24cc6, .e83d6449-9602-4088-a4a8-a9c8b8fbdb5e {
        stroke-width: 3.68625px;
      }

      .f5782acc-3744-4b01-88de-d3c0ce2177c2 {
        fill: #3a3a3a;
      }

      .aaa2bf5f-7a7d-4eba-91c1-79e6066f8a09, .b0e52d1e-7f17-46cb-985c-bd835ef21fbc, .b6b67f75-c2c7-49a1-913c-62120e2cfd3f, .bc379641-0f53-48be-b908-d8e72ddd5aff, .bd1af923-065b-4657-889b-ef45ee7b01f2, .bf88934e-dffe-401e-9cbd-07e41144922f, .e83d6449-9602-4088-a4a8-a9c8b8fbdb5e, .f0905c49-170b-4b61-a155-54faecaee25d {
        fill: #fff;
      }

      .b843819c-af39-449d-bc5c-d0772657fef4 {
        fill: #474747;
      }

      .bc379641-0f53-48be-b908-d8e72ddd5aff, .f40460e7-6bb8-413c-822c-66006b75e0b1 {
        stroke-width: 3.3px;
      }

      .e603790e-73c8-48dc-8c80-7b85a05bd83d {
        fill: #66bb6a;
      }

      .f438f8ed-94ff-4191-8c3a-7104b6c697e2 {
        fill: #444;
      }

      .b45e1d51-3d94-4d1d-94de-45423e0192be {
        fill: #d3d3d3;
      }

      .a53713f6-2d02-4d78-a75f-d10906ebe437 {
        isolation: isolate;
      }

      .a8196eb4-ad1e-45fb-a1b2-ecbecada7c3c, .a919b1ad-1b54-47d3-b219-954df88ae90f, .aaa2bf5f-7a7d-4eba-91c1-79e6066f8a09, .b0e52d1e-7f17-46cb-985c-bd835ef21fbc, .bf88934e-dffe-401e-9cbd-07e41144922f, .ea20dce0-5ac7-4b55-9821-c623aa7bfdf3, .ef833f45-3d5a-4468-a8ac-3cb7f5192956, .f0905c49-170b-4b61-a155-54faecaee25d {
        stroke: #2a2a2a;
      }

      .a919b1ad-1b54-47d3-b219-954df88ae90f, .bf88934e-dffe-401e-9cbd-07e41144922f {
        stroke-width: 2.82657px;
      }

      .e5eaf082-95e8-4917-b608-e4b7c03c5a85 {
        fill: #2d2d2d;
      }

      .aaa2bf5f-7a7d-4eba-91c1-79e6066f8a09, .ef833f45-3d5a-4468-a8ac-3cb7f5192956 {
        stroke-width: 2.74854px;
      }

      .b0e52d1e-7f17-46cb-985c-bd835ef21fbc, .ea20dce0-5ac7-4b55-9821-c623aa7bfdf3 {
        stroke-width: 2.91137px;
      }

      .b70233a2-27b2-4512-8b5a-18a2fda70cfe {
        fill: #2a2a2a;
      }

      .a8196eb4-ad1e-45fb-a1b2-ecbecada7c3c, .f0905c49-170b-4b61-a155-54faecaee25d {
        stroke-width: 2.84378px;
      }

      .b26f4523-bee1-4488-babd-3a66653e677b {
        stroke: #4a4a4a;
        stroke-width: 3.61663px;
      }
    </style>
  </defs>
  <title>Rea -Artboard 125554</title>
  <rect class="f9321eda-23f7-4a2d-930a-30175fe6235b" width="939" height="499"/>
  <g>
    <g>
      <g>
        <path id="b1ee6f53-d418-43df-a2cf-8d6f0ad120eb" data-name="b" class="bbecb6e5-f8e6-4586-a72e-714c60665a38" d="M383.2817,409.92362h25.80377v11.05876h0a3.48247,3.48247,0,0,1-3.68625,3.68625H386.96795a3.48247,3.48247,0,0,1-3.68625-3.68625h0Z"/>
        <path id="fad2ad9b-e315-4f35-ace2-b0e3afeca650" data-name="c" class="bc8ad372-ff56-46bc-9faa-f934c903afb2" d="M385.12483,326.98292c3.68625,2.58036,9.21563,11.42741,7.00352,14.37636s-11.79583-.73724-15.114-3.3176h0a7.09071,7.09071,0,1,1,6.63544-12.5333C384.01877,325.877,384.38776,326.24568,385.12483,326.98292Z"/>
        <path class="a4edd6ab-f3db-4d98-bd80-52c39a461110" d="M385.12483,326.98292c3.68625,2.58036,9.21563,11.42741,7.00352,14.37636s-11.79583-.73724-15.114-3.3176h0a7.09071,7.09071,0,1,1,6.63544-12.5333C384.01877,325.877,384.38776,326.24568,385.12483,326.98292Z"/>
        <path id="a0ed9d2a-8bae-476b-9864-8db5252a9a56" data-name="d" class="bc8ad372-ff56-46bc-9faa-f934c903afb2" d="M400.23793,326.98292c-3.68626,2.58036-9.21564,11.42741-7.00353,14.37636s11.79583-.73724,15.114-3.3176h0c3.68626-1.84313,5.1604-5.898,3.31727-9.21563-1.84313-3.68626-5.89836-5.16074-9.21563-3.31761a3.38614,3.38614,0,0,0-2.21211,1.47448Z"/>
        <path class="a4edd6ab-f3db-4d98-bd80-52c39a461110" d="M400.23793,326.98292c-3.68626,2.58036-9.21564,11.42741-7.00353,14.37636s11.79583-.73724,15.114-3.3176h0c3.68626-1.84313,5.1604-5.898,3.31727-9.21563-1.84313-3.68626-5.89836-5.16074-9.21563-3.31761a3.38614,3.38614,0,0,0-2.21211,1.47448Z"/>
        <path id="ebc748ca-3733-4970-a57f-60be81d87933" data-name="e" class="bc8ad372-ff56-46bc-9faa-f934c903afb2" d="M414.61485,350.94357c-4.42332.73723-13.27087,6.63526-12.5329,10.32152.73707,3.68625,11.05876,4.0549,15.114,3.3176h0a7.04261,7.04261,0,1,0-1.475-14.00777C415.35192,350.57492,414.98294,350.94357,414.61485,350.94357Z"/>
        <path class="a4edd6ab-f3db-4d98-bd80-52c39a461110" d="M414.61485,350.94357c-4.42332.73723-13.27087,6.63526-12.5329,10.32152.73707,3.68625,11.05876,4.0549,15.114,3.3176h0a7.04261,7.04261,0,1,0-1.475-14.00777C415.35192,350.57492,414.98294,350.94357,414.61485,350.94357Z"/>
        <path class="a4edd6ab-f3db-4d98-bd80-52c39a461110" d="M392.49733,375.64145s4.05524-12.16465,9.58462-14.00777"/>
        <path class="a4edd6ab-f3db-4d98-bd80-52c39a461110" d="M392.49733,371.9552s-1.84312-25.43513.369-31.33316"/>
        <path class="a4edd6ab-f3db-4d98-bd80-52c39a461110" d="M393.60339,406.606s-.73707-32.07039-1.84313-41.286c-.73707-5.16074-6.63543-7.00386-6.63543-7.00386"/>
        <path class="e7564e86-e202-46d4-8484-b0ad8aa24cc6" d="M372.591,347.626c4.42332.73724,13.27087,6.63527,12.16481,10.32152s-11.05876,4.0549-15.114,3.31761h0a7.04261,7.04261,0,1,1,1.475-14.00778A2.78435,2.78435,0,0,1,372.591,347.626Z"/>
        <path class="a4edd6ab-f3db-4d98-bd80-52c39a461110" d="M383.2817,409.92362h25.80377v11.05876h0a3.48247,3.48247,0,0,1-3.68625,3.68625H386.96795a3.48247,3.48247,0,0,1-3.68625-3.68625h0Z"/>
        <path id="a729fb40-7cad-4a0d-98be-8a8b2849b80b" data-name="f" class="bbecb6e5-f8e6-4586-a72e-714c60665a38" d="M409.08547,409.92362h0a3.68625,3.68625,0,1,0,0-7.37251H383.2817a3.68626,3.68626,0,0,0,0,7.37251Z"/>
        <path class="a4edd6ab-f3db-4d98-bd80-52c39a461110" d="M409.08547,409.92362h0a3.68625,3.68625,0,1,0,0-7.37251H383.2817a3.68626,3.68626,0,0,0,0,7.37251Z"/>
      </g>
      <g>
        <path id="b4f98d94-6bbb-463a-ba25-16e1c4bb47c3" data-name="g" class="bc8ad372-ff56-46bc-9faa-f934c903afb2" d="M388.79067,200.25435c8.47856,8.47839,8.47856,22.48617,0,31.33315-8.47856,8.4784-22.48651,8.4784-31.33315,0-8.47857-8.47839-8.47857-22.48616,0-31.33315,8.84664-8.47839,22.85459-8.47839,31.33315,0"/>
        <path class="a4edd6ab-f3db-4d98-bd80-52c39a461110" d="M388.79067,200.25435c8.47856,8.47839,8.47856,22.48617,0,31.33315-8.47856,8.4784-22.48651,8.4784-31.33315,0-8.47857-8.47839-8.47857-22.48616,0-31.33315,8.84664-8.47839,22.85459-8.47839,31.33315,0"/>
        <path class="a4edd6ab-f3db-4d98-bd80-52c39a461110" d="M351.19107,216.10525h7.3725"/>
        <path class="a4edd6ab-f3db-4d98-bd80-52c39a461110" d="M388.0536,216.10525h7.37251"/>
        <path class="a4edd6ab-f3db-4d98-bd80-52c39a461110" d="M373.30859,193.98773v7.37251"/>
        <path class="a4edd6ab-f3db-4d98-bd80-52c39a461110" d="M373.30859,230.85026v7.37251"/>
        <path class="a4edd6ab-f3db-4d98-bd80-52c39a461110" d="M367.77921,212.419l5.52938,5.52938,9.21563-9.21564"/>
      </g>
      <g>
        <path class="b9119940-92a8-4409-8d15-417c86ffce58" d="M258.85761,358.69939a3.48248,3.48248,0,0,1-3.68626-3.68626V349.8524a3.48247,3.48247,0,0,1,3.68626-3.68625h73.35608a3.48247,3.48247,0,0,1,3.68625,3.68625v5.16073a3.48247,3.48247,0,0,1-3.68625,3.68626Z"/>
        <path id="ffc15649-d381-46ed-93b9-dc70539b8829" data-name="h" class="bc8ad372-ff56-46bc-9faa-f934c903afb2" d="M259.59468,358.69939H331.8456V376.762h0a7.39393,7.39393,0,0,1-7.37251,7.3725H266.96718a7.39392,7.39392,0,0,1-7.3725-7.3725h0Z"/>
        <path class="a4edd6ab-f3db-4d98-bd80-52c39a461110" d="M259.59468,358.69939H331.8456V376.762h0a7.39393,7.39393,0,0,1-7.37251,7.3725H266.96718a7.39392,7.39392,0,0,1-7.3725-7.3725h0Z"/>
        <path class="b9119940-92a8-4409-8d15-417c86ffce58" d="M274.70867,419.52257h0a3.22724,3.22724,0,0,1-3.31726,2.949h0a3.3035,3.3035,0,0,1-3.31727-3.3176V384.50316h10.68977Z"/>
        <path class="b9119940-92a8-4409-8d15-417c86ffce58" d="M319.68079,422.47164h0a3.30351,3.30351,0,0,0,3.31726-3.31761V384.50327H312.30828l4.05524,35.01941h0A3.24954,3.24954,0,0,0,319.68079,422.47164Z"/>
        <path id="b9ca3749-5ce8-4feb-bb69-ee7a5d86eeaf" data-name="i" class="bbecb6e5-f8e6-4586-a72e-714c60665a38" d="M314.52039,295.29584H281.7131a2.37871,2.37871,0,0,0-2.21212,2.21178c0,.36864,0,.73724.369.73724l4.79231,9.58428v23.592h0a6.45982,6.45982,0,0,0,6.26645,6.26662h16.95712a6.45983,6.45983,0,0,0,6.26646-6.26662h0v-36.1253Z"/>
        <path class="bc8ad372-ff56-46bc-9faa-f934c903afb2" d="M314.52039,314.09576h-29.859v16.95678h0a6.45982,6.45982,0,0,0,6.26645,6.26662H307.885a6.45982,6.45982,0,0,0,6.26646-6.26662V314.09576Z"/>
        <path class="a4edd6ab-f3db-4d98-bd80-52c39a461110" d="M314.52039,295.29584H281.7131a2.37871,2.37871,0,0,0-2.21212,2.21178c0,.36864,0,.73724.369.73724l4.79231,9.58428v23.592h0a6.45982,6.45982,0,0,0,6.26645,6.26662h16.95712a6.45983,6.45983,0,0,0,6.26646-6.26662h0v-36.1253Z"/>
        <path class="a4edd6ab-f3db-4d98-bd80-52c39a461110" d="M314.52039,295.29584h0a16.95679,16.95679,0,1,1,0,33.91358"/>
        <path class="a4edd6ab-f3db-4d98-bd80-52c39a461110" d="M293.508,295.29584v50.87031"/>
        <path class="a4edd6ab-f3db-4d98-bd80-52c39a461110" d="M306.04183,295.29584v50.87031"/>
        <path class="e7564e86-e202-46d4-8484-b0ad8aa24cc6" d="M285.03036,295.29584h0a14.745,14.745,0,0,1,29.49,0h-29.49Z"/>
        <path class="a4edd6ab-f3db-4d98-bd80-52c39a461110" d="M299.77538,280.18224v-8.4784"/>
        <path class="f5782acc-3744-4b01-88de-d3c0ce2177c2" d="M299.77538,271.3352h0c.369,0,.369.36864.369.73724h0a.36127.36127,0,0,1-.369.36864h0a1.2848,1.2848,0,0,1-.73707-.36864h0a.79165.79165,0,0,1,.73707-.73724h0m0-3.68626h0a4.482,4.482,0,0,0-4.42333,4.4235,4.18366,4.18366,0,0,0,4.42333,4.0549h0a4.091,4.091,0,0,0,4.05524-4.0549A4.18487,4.18487,0,0,0,299.77538,267.64894Z"/>
      </g>
    </g>
    <g>
      <g>
        <rect class="b6b67f75-c2c7-49a1-913c-62120e2cfd3f" x="2" y="22.82506" width="556.64835" height="141.52733" rx="25.06467"/>
        <polygon class="b6b67f75-c2c7-49a1-913c-62120e2cfd3f" points="188.584 162.52 148.108 202.996 148.108 162.52 188.584 162.52"/>
      </g>
      <g>
        <path class="b843819c-af39-449d-bc5c-d0772657fef4" d="M37.66946,73.55816,39.64114,71.191a3.52192,3.52192,0,0,0,2.84863,1.6875c1.42481,0,2.16992-.85449,2.16992-2.542v-7.2959H39.26907V60.192h8.918v9.94726c0,3.791-1.90625,5.65332-5.52149,5.65332A6.17136,6.17136,0,0,1,37.66946,73.55816Z"/>
        <path class="b843819c-af39-449d-bc5c-d0772657fef4" d="M62.937,70.60015h-8.918a3.14264,3.14264,0,0,0,3.374,2.36621,3.99705,3.99705,0,0,0,2.958-1.13965l1.81836,1.97168a6.17157,6.17157,0,0,1-4.86426,1.90625c-4.07519,0-6.72656-2.56347-6.72656-6.06933A6.00182,6.00182,0,0,1,56.8677,63.566a5.8352,5.8352,0,0,1,6.13477,6.11328C63.00247,69.942,62.95852,70.315,62.937,70.60015ZM53.97512,68.606h5.80664a2.94443,2.94443,0,0,0-5.80664,0Z"/>
        <path class="b843819c-af39-449d-bc5c-d0772657fef4" d="M83.188,63.74175,78.21438,75.52984H74.68606L69.73489,63.74175h3.52734l3.26465,8.01953,3.374-8.01953Z"/>
        <path class="b843819c-af39-449d-bc5c-d0772657fef4" d="M83.38821,69.63531c0-3.54981,2.73926-6.06934,6.48535-6.06934,3.74707,0,6.46484,2.51953,6.46484,6.06934s-2.71777,6.06933-6.46484,6.06933C86.12747,75.70464,83.38821,73.18511,83.38821,69.63531Zm9.4873,0A3.02242,3.02242,0,1,0,89.87356,72.9,2.97483,2.97483,0,0,0,92.87551,69.63531Z"/>
        <path class="b843819c-af39-449d-bc5c-d0772657fef4" d="M98.20462,60.192a1.95358,1.95358,0,0,1,2.126-1.90625,1.91809,1.91809,0,0,1,2.125,1.83984,2.13469,2.13469,0,0,1-4.251.06641Zm.417,3.5498h3.418V75.52984h-3.418Z"/>
        <path class="b843819c-af39-449d-bc5c-d0772657fef4" d="M104.07864,74.43413l1.13867-2.4541a8.06436,8.06436,0,0,0,4.09766,1.13965c1.57812,0,2.16992-.416,2.16992-1.07422,0-1.92773-7.12207.04395-7.12207-4.667,0-2.23437,2.0166-3.8125,5.45605-3.8125a9.6942,9.6942,0,0,1,4.53614,1.03027l-1.13965,2.43164a6.769,6.769,0,0,0-3.39649-.876c-1.5332,0-2.19043.48144-2.19043,1.0957,0,2.01563,7.1211.06543,7.1211,4.71094,0,2.19043-2.03809,3.74609-5.56543,3.74609A10.11448,10.11448,0,0,1,104.07864,74.43413Z"/>
        <path class="b843819c-af39-449d-bc5c-d0772657fef4" d="M142.9761,68.78081v6.749h-3.418V69.30718c0-1.90625-.85449-2.7832-2.23535-2.7832-1.5332,0-2.60742.98633-2.60742,3.08984v5.916h-3.418V69.30718c0-1.90625-.81055-2.7832-2.23535-2.7832-1.51172,0-2.585.98633-2.585,3.08984v5.916h-3.418V63.74175h3.26465v1.3584a4.77318,4.77318,0,0,1,3.70312-1.53418,4.40079,4.40079,0,0,1,3.87793,1.92871,5.30234,5.30234,0,0,1,4.251-1.92871C140.96048,63.566,142.9761,65.18706,142.9761,68.78081Z"/>
        <path class="b843819c-af39-449d-bc5c-d0772657fef4" d="M157.6636,70.60015h-8.918a3.14265,3.14265,0,0,0,3.374,2.36621,3.997,3.997,0,0,0,2.958-1.13965l1.81836,1.97168a6.17156,6.17156,0,0,1-4.86426,1.90625c-4.07519,0-6.72656-2.56347-6.72656-6.06933a6.00182,6.00182,0,0,1,6.28906-6.06934,5.8352,5.8352,0,0,1,6.13477,6.11328C157.729,69.942,157.68508,70.315,157.6636,70.60015ZM148.70169,68.606h5.80664a2.94443,2.94443,0,0,0-5.80664,0Z"/>
        <path class="b843819c-af39-449d-bc5c-d0772657fef4" d="M158.87161,74.43413l1.13867-2.4541a8.06433,8.06433,0,0,0,4.09766,1.13965c1.57812,0,2.16992-.416,2.16992-1.07422,0-1.92773-7.12207.04395-7.12207-4.667,0-2.23437,2.0166-3.8125,5.45605-3.8125a9.6942,9.6942,0,0,1,4.53614,1.03027l-1.13965,2.43164a6.769,6.769,0,0,0-3.39649-.876c-1.5332,0-2.19043.48144-2.19043,1.0957,0,2.01563,7.1211.06543,7.1211,4.71094,0,2.19043-2.03809,3.74609-5.56543,3.74609A10.11448,10.11448,0,0,1,158.87161,74.43413Z"/>
        <path class="b843819c-af39-449d-bc5c-d0772657fef4" d="M185.45462,74.9605a4.88337,4.88337,0,0,1-2.78223.74414c-2.7832,0-4.4043-1.42383-4.4043-4.22851V66.63335h-1.81836v-2.6289h1.81836V61.13433h3.418v2.87012h2.93652v2.6289h-2.93652v4.79883a1.37483,1.37483,0,0,0,1.46777,1.55567,2.30817,2.30817,0,0,0,1.38086-.4375Z"/>
        <path class="b843819c-af39-449d-bc5c-d0772657fef4" d="M194.70462,63.566v3.15527c-.28516-.02148-.50391-.04394-.76758-.04394-1.88379,0-3.13281,1.03027-3.13281,3.28711v5.56543h-3.41895V63.74175h3.26562v1.55567A4.75548,4.75548,0,0,1,194.70462,63.566Z"/>
        <path class="b843819c-af39-449d-bc5c-d0772657fef4" d="M207.10891,68.80328v6.72656h-3.19922V74.06206a3.86958,3.86958,0,0,1-3.59375,1.64258c-2.76074,0-4.40429-1.5332-4.40429-3.57129,0-2.081,1.46777-3.52734,5.06152-3.52734H203.69c0-1.46875-.876-2.32324-2.7168-2.32324a5.67434,5.67434,0,0,0-3.39648,1.0957l-1.22657-2.38769a9.05749,9.05749,0,0,1,5.083-1.42481C205.02688,63.566,207.10891,65.231,207.10891,68.80328ZM203.69,71.80523V70.60015h-2.34375c-1.59961,0-2.10352.59082-2.10352,1.37988,0,.8545.72266,1.42481,1.92774,1.42481A2.51791,2.51791,0,0,0,203.69,71.80523Z"/>
        <path class="b843819c-af39-449d-bc5c-d0772657fef4" d="M221.68313,63.74175,216.7095,75.52984h-3.52832L208.229,63.74175h3.52832l3.26465,8.01953,3.375-8.01953Z"/>
        <path class="b843819c-af39-449d-bc5c-d0772657fef4" d="M233.12551,68.80328v6.72656H229.9263V74.06206a3.86961,3.86961,0,0,1-3.59375,1.64258c-2.76075,0-4.4043-1.5332-4.4043-3.57129,0-2.081,1.46875-3.52734,5.06152-3.52734h2.71778c0-1.46875-.877-2.32324-2.71778-2.32324a5.67218,5.67218,0,0,0-3.39648,1.0957l-1.22656-2.38769a9.05743,9.05743,0,0,1,5.083-1.42481C231.04348,63.566,233.12551,65.231,233.12551,68.80328Zm-3.418,3.00195V70.60015h-2.34473c-1.59961,0-2.10352.59082-2.10352,1.37988,0,.8545.72266,1.42481,1.92774,1.42481A2.52,2.52,0,0,0,229.70755,71.80523Z"/>
        <path class="b843819c-af39-449d-bc5c-d0772657fef4" d="M248.09426,63.74175V75.52984H244.8511V74.12749a4.76738,4.76738,0,0,1-3.65918,1.57715c-2.958,0-5.04-1.665-5.04-5.30176V63.74175h3.418V69.899c0,1.97168.87695,2.84765,2.38867,2.84765,1.57813,0,2.7168-1.00781,2.7168-3.17675V63.74175Z"/>
        <path class="b843819c-af39-449d-bc5c-d0772657fef4" d="M258.76907,75.52984l-2.585-3.61524-2.67383,3.61524h-3.72461l4.53516-5.93848L249.939,63.74175h3.834l2.498,3.43946,2.56348-3.43946h3.63769l-4.38183,5.7627,4.55762,6.02539Z"/>
        <path class="b843819c-af39-449d-bc5c-d0772657fef4" d="M269.37942,74.43413l1.13867-2.4541a8.06436,8.06436,0,0,0,4.09766,1.13965c1.57812,0,2.16992-.416,2.16992-1.07422,0-1.92773-7.12207.04395-7.12207-4.667,0-2.23437,2.0166-3.8125,5.45605-3.8125a9.69417,9.69417,0,0,1,4.53614,1.03027l-1.13965,2.43164a6.769,6.769,0,0,0-3.39649-.876c-1.5332,0-2.19042.48144-2.19042,1.0957,0,2.01563,7.12109.06543,7.12109,4.71094,0,2.19043-2.03809,3.74609-5.56543,3.74609A10.11448,10.11448,0,0,1,269.37942,74.43413Z"/>
        <path class="b843819c-af39-449d-bc5c-d0772657fef4" d="M293.63821,70.60015h-8.918a3.14265,3.14265,0,0,0,3.374,2.36621,3.997,3.997,0,0,0,2.958-1.13965l1.81836,1.97168a6.17157,6.17157,0,0,1-4.86426,1.90625c-4.07519,0-6.72656-2.56347-6.72656-6.06933a6.00182,6.00182,0,0,1,6.28906-6.06934,5.8352,5.8352,0,0,1,6.13477,6.11328C293.70364,69.942,293.65969,70.315,293.63821,70.60015ZM284.6763,68.606h5.80664a2.94443,2.94443,0,0,0-5.80664,0Z"/>
        <path class="b843819c-af39-449d-bc5c-d0772657fef4" d="M301.312,69.63531c0-3.54981,2.73926-6.06934,6.57324-6.06934,2.47656,0,4.42676,1.07422,5.28125,3.002l-2.65137,1.42383a2.94058,2.94058,0,0,0-2.65136-1.62109,3.26959,3.26959,0,0,0,0,6.5293,2.90015,2.90015,0,0,0,2.65136-1.6211l2.65137,1.44629a5.46809,5.46809,0,0,1-5.28125,2.97949C304.0513,75.70464,301.312,73.18511,301.312,69.63531Z"/>
        <path class="b843819c-af39-449d-bc5c-d0772657fef4" d="M314.11184,69.63531c0-3.54981,2.73926-6.06934,6.48633-6.06934,3.74609,0,6.46387,2.51953,6.46387,6.06934s-2.71778,6.06933-6.46387,6.06933C316.8511,75.70464,314.11184,73.18511,314.11184,69.63531Zm9.48731,0a3.02242,3.02242,0,1,0-3.001,3.26465A2.97464,2.97464,0,0,0,323.59915,69.63531Z"/>
        <path class="b843819c-af39-449d-bc5c-d0772657fef4" d="M341.396,68.78081v6.749h-3.418V69.30718c0-1.90625-.877-2.7832-2.38867-2.7832-1.64355,0-2.82617,1.00781-2.82617,3.17773v5.82813h-3.41895V63.74175h3.26563v1.37988a5.1611,5.1611,0,0,1,3.90039-1.55566C339.29251,63.566,341.396,65.18706,341.396,68.78081Z"/>
        <path class="b843819c-af39-449d-bc5c-d0772657fef4" d="M343.74465,69.63531c0-3.54981,2.73926-6.06934,6.57325-6.06934,2.47656,0,4.42675,1.07422,5.28125,3.002l-2.65137,1.42383a2.9406,2.9406,0,0,0-2.65137-1.62109,3.2696,3.2696,0,0,0,0,6.5293,2.90017,2.90017,0,0,0,2.65137-1.6211l2.65137,1.44629a5.4681,5.4681,0,0,1-5.28125,2.97949C346.48391,75.70464,343.74465,73.18511,343.74465,69.63531Z"/>
        <path class="b843819c-af39-449d-bc5c-d0772657fef4" d="M364.89309,63.566v3.15527c-.28515-.02148-.5039-.04394-.76758-.04394-1.88378,0-3.13281,1.03027-3.13281,3.28711v5.56543h-3.418V63.74175h3.26465v1.55567A4.75546,4.75546,0,0,1,364.89309,63.566Z"/>
        <path class="b843819c-af39-449d-bc5c-d0772657fef4" d="M378.3052,70.60015h-8.918a3.14265,3.14265,0,0,0,3.374,2.36621,3.997,3.997,0,0,0,2.958-1.13965l1.81836,1.97168a6.17155,6.17155,0,0,1-4.86425,1.90625c-4.0752,0-6.72657-2.56347-6.72657-6.06933a6.00183,6.00183,0,0,1,6.28907-6.06934,5.8352,5.8352,0,0,1,6.13476,6.11328C378.37063,69.942,378.32669,70.315,378.3052,70.60015ZM369.34329,68.606h5.80664a2.94443,2.94443,0,0,0-5.80664,0Zm3.50586-6.377h-2.67383l2.958-3.15528H376.815Z"/>
        <path class="b843819c-af39-449d-bc5c-d0772657fef4" d="M388.25637,74.9605a4.88334,4.88334,0,0,1-2.78222.74414c-2.78321,0-4.4043-1.42383-4.4043-4.22851V66.63335h-1.81934v-2.6289h1.81934V61.13433h3.418v2.87012h2.93652v2.6289h-2.93652v4.79883a1.37483,1.37483,0,0,0,1.46777,1.55567,2.3103,2.3103,0,0,0,1.38086-.4375Z"/>
        <path class="b843819c-af39-449d-bc5c-d0772657fef4" d="M389.771,60.192a1.95359,1.95359,0,0,1,2.126-1.90625,1.91809,1.91809,0,0,1,2.125,1.83984,2.1347,2.1347,0,0,1-4.251.06641Zm.417,3.5498h3.418V75.52984h-3.418Z"/>
        <path class="b843819c-af39-449d-bc5c-d0772657fef4" d="M395.64505,74.43413l1.13867-2.4541a8.06429,8.06429,0,0,0,4.09765,1.13965c1.57813,0,2.16993-.416,2.16993-1.07422,0-1.92773-7.12207.04395-7.12207-4.667,0-2.23437,2.0166-3.8125,5.45605-3.8125a9.69413,9.69413,0,0,1,4.53613,1.03027l-1.13965,2.43164a6.769,6.769,0,0,0-3.39648-.876c-1.5332,0-2.19043.48144-2.19043,1.0957,0,2.01563,7.12109.06543,7.12109,4.71094,0,2.19043-2.03808,3.74609-5.56543,3.74609A10.11444,10.11444,0,0,1,395.64505,74.43413Z"/>
        <path class="b843819c-af39-449d-bc5c-d0772657fef4" d="M419.90383,70.60015h-8.918a3.14263,3.14263,0,0,0,3.374,2.36621,3.99707,3.99707,0,0,0,2.958-1.13965l1.81836,1.97168a6.17157,6.17157,0,0,1-4.86426,1.90625c-4.0752,0-6.72656-2.56347-6.72656-6.06933A6.00182,6.00182,0,0,1,413.8345,63.566a5.8352,5.8352,0,0,1,6.13476,6.11328C419.96926,69.942,419.92532,70.315,419.90383,70.60015ZM410.94192,68.606h5.80664a2.94443,2.94443,0,0,0-5.80664,0Z"/>
        <path class="b843819c-af39-449d-bc5c-d0772657fef4" d="M429.57083,63.566v3.15527c-.28516-.02148-.50391-.04394-.76758-.04394-1.88379,0-3.13281,1.03027-3.13281,3.28711v5.56543h-3.418V63.74175h3.26465v1.55567A4.75545,4.75545,0,0,1,429.57083,63.566Z"/>
        <path class="b843819c-af39-449d-bc5c-d0772657fef4" d="M434.898,73.55816a5.0951,5.0951,0,0,1-.5918,2.19043l-1.249,3.15527h-2.16894l.96387-3.4834a1.902,1.902,0,0,1-1.1836-1.8623,2.11478,2.11478,0,0,1,4.2295,0Z"/>
        <path class="b843819c-af39-449d-bc5c-d0772657fef4" d="M454.90676,70.60015h-8.918a3.14263,3.14263,0,0,0,3.374,2.36621,3.99707,3.99707,0,0,0,2.958-1.13965l1.81836,1.97168a6.17158,6.17158,0,0,1-4.86426,1.90625c-4.0752,0-6.72656-2.56347-6.72656-6.06933a6.00182,6.00182,0,0,1,6.28906-6.06934,5.8352,5.8352,0,0,1,6.13476,6.11328C454.97219,69.942,454.92825,70.315,454.90676,70.60015ZM445.94485,68.606h5.80664a2.94443,2.94443,0,0,0-5.80664,0Z"/>
        <path class="b843819c-af39-449d-bc5c-d0772657fef4" d="M464.857,74.9605a4.88335,4.88335,0,0,1-2.78223.74414c-2.7832,0-4.40429-1.42383-4.40429-4.22851V66.63335h-1.81836v-2.6289h1.81836V61.13433h3.418v2.87012h2.93653v2.6289H461.0884v4.79883a1.37484,1.37484,0,0,0,1.46778,1.55567,2.30819,2.30819,0,0,0,1.38086-.4375Z"/>
        <path class="b843819c-af39-449d-bc5c-d0772657fef4" d="M469.37551,79.29839l.9209-2.47558a2.50657,2.50657,0,0,0,1.44629.416c.85449,0,1.40235-.54785,1.40235-1.709V63.74175h3.418v11.7666a4.08887,4.08887,0,0,1-4.44824,4.44727A4.98034,4.98034,0,0,1,469.37551,79.29839ZM472.72805,60.192a1.95359,1.95359,0,0,1,2.126-1.90625,1.91809,1.91809,0,0,1,2.125,1.83984,2.1347,2.1347,0,0,1-4.251.06641Z"/>
        <path class="b843819c-af39-449d-bc5c-d0772657fef4" d="M491.20169,70.60015h-8.918a3.14264,3.14264,0,0,0,3.374,2.36621,3.99707,3.99707,0,0,0,2.958-1.13965l1.81836,1.97168a6.17157,6.17157,0,0,1-4.86426,1.90625c-4.0752,0-6.72656-2.56347-6.72656-6.06933a6.00182,6.00182,0,0,1,6.28906-6.06934,5.83521,5.83521,0,0,1,6.13477,6.11328C491.26712,69.942,491.22317,70.315,491.20169,70.60015ZM482.23977,68.606h5.80664a2.94443,2.94443,0,0,0-5.80664,0Z"/>
        <path class="b843819c-af39-449d-bc5c-d0772657fef4" d="M52.438,95.93609a5.7252,5.7252,0,0,1-5.87207,6.06933,4.57572,4.57572,0,0,1-3.5498-1.42382v5.5h-3.418V90.04253h3.26465v1.3584a4.57853,4.57853,0,0,1,3.70312-1.53418A5.7252,5.7252,0,0,1,52.438,95.93609Zm-3.46191,0a3.01252,3.01252,0,1,0-3.002,3.26465A2.97535,2.97535,0,0,0,48.9761,95.93609Z"/>
        <path class="b843819c-af39-449d-bc5c-d0772657fef4" d="M66.20266,96.90093h-8.918a3.14264,3.14264,0,0,0,3.374,2.36621,3.997,3.997,0,0,0,2.958-1.13965l1.81835,1.97168a6.17155,6.17155,0,0,1-4.86425,1.90625c-4.0752,0-6.72657-2.56347-6.72657-6.06933a6.00183,6.00183,0,0,1,6.28907-6.06934A5.8352,5.8352,0,0,1,66.26809,95.98C66.26809,96.24273,66.22415,96.61578,66.20266,96.90093Zm-8.96191-1.99414h5.80664a2.94443,2.94443,0,0,0-5.80664,0Z"/>
        <path class="b843819c-af39-449d-bc5c-d0772657fef4" d="M80.42727,90.04253v11.78809H77.18411v-1.40234a4.7674,4.7674,0,0,1-3.65918,1.57714c-2.958,0-5.04-1.665-5.04-5.30175V90.04253h3.418v6.15723c0,1.97168.87695,2.84766,2.38867,2.84766,1.57812,0,2.7168-1.00782,2.7168-3.17676V90.04253Z"/>
        <path class="b843819c-af39-449d-bc5c-d0772657fef4" d="M91.1011,101.83062l-2.585-3.61524-2.67383,3.61524H82.1177l4.53516-5.93848L82.271,90.04253h3.834l2.498,3.43946,2.56348-3.43946h3.6377l-4.38184,5.7627L94.98,101.83062Z"/>
        <path class="b843819c-af39-449d-bc5c-d0772657fef4" d="M115.69094,95.93609a5.7252,5.7252,0,0,1-5.87207,6.06933,4.57572,4.57572,0,0,1-3.5498-1.42382v5.5h-3.41895V90.04253h3.26563v1.3584a4.57853,4.57853,0,0,1,3.70312-1.53418A5.7252,5.7252,0,0,1,115.69094,95.93609Zm-3.46191,0a3.01252,3.01252,0,1,0-3.00195,3.26465A2.97535,2.97535,0,0,0,112.229,95.93609Z"/>
        <path class="b843819c-af39-449d-bc5c-d0772657fef4" d="M117.09719,95.93609c0-3.54981,2.73926-6.06934,6.48536-6.06934,3.74707,0,6.46484,2.51953,6.46484,6.06934s-2.71777,6.06933-6.46484,6.06933C119.83645,102.00542,117.09719,99.48589,117.09719,95.93609Zm9.48731,0a3.02242,3.02242,0,1,0-3.002,3.26465A2.97483,2.97483,0,0,0,126.5845,95.93609Z"/>
        <path class="b843819c-af39-449d-bc5c-d0772657fef4" d="M131.19,100.73492l1.13867-2.45411a8.06433,8.06433,0,0,0,4.09766,1.13965c1.57812,0,2.16992-.416,2.16992-1.07422,0-1.92773-7.12207.044-7.12207-4.667,0-2.23437,2.0166-3.8125,5.45605-3.8125a9.694,9.694,0,0,1,4.53613,1.03028l-1.13964,2.43164a6.76892,6.76892,0,0,0-3.39649-.876c-1.5332,0-2.19043.48144-2.19043,1.0957,0,2.01563,7.1211.06543,7.1211,4.71094,0,2.19043-2.03809,3.74609-5.56543,3.74609A10.11459,10.11459,0,0,1,131.19,100.73492Z"/>
        <path class="b843819c-af39-449d-bc5c-d0772657fef4" d="M155.44973,96.90093h-8.918a3.14264,3.14264,0,0,0,3.374,2.36621,3.997,3.997,0,0,0,2.958-1.13965l1.81835,1.97168a6.17155,6.17155,0,0,1-4.86425,1.90625c-4.0752,0-6.72657-2.56347-6.72657-6.06933a6.00183,6.00183,0,0,1,6.28907-6.06934A5.8352,5.8352,0,0,1,155.51516,95.98C155.51516,96.24273,155.47122,96.61578,155.44973,96.90093Zm-8.96191-1.99414h5.80664a2.94443,2.94443,0,0,0-5.80664,0Z"/>
        <path class="b843819c-af39-449d-bc5c-d0772657fef4" d="M165.11673,89.86675V93.022c-.28516-.02149-.50391-.04395-.76758-.04395-1.88379,0-3.13282,1.03027-3.13282,3.28711v5.56543h-3.41894V90.04253H161.063V91.5982A4.75548,4.75548,0,0,1,165.11673,89.86675Z"/>
        <path class="b843819c-af39-449d-bc5c-d0772657fef4" d="M185.32278,90.04253v11.78809h-3.24316v-1.40234a4.7674,4.7674,0,0,1-3.65918,1.57714c-2.958,0-5.04-1.665-5.04-5.30175V90.04253h3.418v6.15723c0,1.97168.87695,2.84766,2.38867,2.84766,1.57812,0,2.71679-1.00782,2.71679-3.17676V90.04253Z"/>
        <path class="b843819c-af39-449d-bc5c-d0772657fef4" d="M200.5552,95.0816v6.749h-3.418V95.608c0-1.90625-.87695-2.7832-2.38867-2.7832-1.64355,0-2.82617,1.00781-2.82617,3.17773v5.82813h-3.418V90.04253h3.26465v1.37989a5.16107,5.16107,0,0,1,3.90039-1.55567C198.45169,89.86675,200.5552,91.48785,200.5552,95.0816Z"/>
        <path class="b843819c-af39-449d-bc5c-d0772657fef4" d="M215.26223,96.90093h-8.918a3.14264,3.14264,0,0,0,3.374,2.36621,3.997,3.997,0,0,0,2.958-1.13965l1.81835,1.97168a6.17155,6.17155,0,0,1-4.86425,1.90625c-4.0752,0-6.72657-2.56347-6.72657-6.06933a6.00183,6.00183,0,0,1,6.28907-6.06934A5.8352,5.8352,0,0,1,215.32766,95.98C215.32766,96.24273,215.28372,96.61578,215.26223,96.90093Zm-8.96191-1.99414H212.107a2.94443,2.94443,0,0,0-5.80664,0Z"/>
        <path class="b843819c-af39-449d-bc5c-d0772657fef4" d="M235.7759,90.04253V106.0816h-3.418v-5.5a4.52825,4.52825,0,0,1-3.52735,1.42382,6.07193,6.07193,0,0,1,0-12.13867,4.53314,4.53314,0,0,1,3.68067,1.53418v-1.3584Zm-3.35253,5.89356a3.02242,3.02242,0,1,0-3.001,3.26465A2.98665,2.98665,0,0,0,232.42337,95.93609Z"/>
        <path class="b843819c-af39-449d-bc5c-d0772657fef4" d="M250.812,90.04253v11.78809h-3.24317v-1.40234a4.76739,4.76739,0,0,1-3.65918,1.57714c-2.958,0-5.04-1.665-5.04-5.30175V90.04253h3.418v6.15723c0,1.97168.877,2.84766,2.38868,2.84766,1.57812,0,2.71679-1.00782,2.71679-3.17676V90.04253Z"/>
        <path class="b843819c-af39-449d-bc5c-d0772657fef4" d="M265.47415,96.90093h-8.918a3.14263,3.14263,0,0,0,3.374,2.36621,3.997,3.997,0,0,0,2.958-1.13965l1.81836,1.97168a6.17157,6.17157,0,0,1-4.86426,1.90625c-4.07519,0-6.72656-2.56347-6.72656-6.06933a6.00182,6.00182,0,0,1,6.28906-6.06934A5.8352,5.8352,0,0,1,265.53958,95.98C265.53958,96.24273,265.49563,96.61578,265.47415,96.90093Zm-8.96192-1.99414h5.80664a2.94443,2.94443,0,0,0-5.80664,0Z"/>
        <path class="b843819c-af39-449d-bc5c-d0772657fef4" d="M266.68313,100.73492l1.13965-2.45411a8.05517,8.05517,0,0,0,4.09668,1.13965c1.57812,0,2.16992-.416,2.16992-1.07422,0-1.92773-7.12207.044-7.12207-4.667,0-2.23437,2.0166-3.8125,5.45606-3.8125A9.694,9.694,0,0,1,276.9595,90.897l-1.13965,2.43164a6.76889,6.76889,0,0,0-3.39648-.876c-1.53321,0-2.19043.48144-2.19043,1.0957,0,2.01563,7.12109.06543,7.12109,4.71094,0,2.19043-2.03809,3.74609-5.56543,3.74609A10.11459,10.11459,0,0,1,266.68313,100.73492Z"/>
        <path class="b843819c-af39-449d-bc5c-d0772657fef4" d="M287.063,101.26128a4.88331,4.88331,0,0,1-2.78222.74414c-2.78321,0-4.4043-1.42382-4.4043-4.22851V92.93413h-1.81934v-2.6289h1.81934V87.43511h3.418v2.87012H286.231v2.6289h-2.93652V97.733a1.37483,1.37483,0,0,0,1.46777,1.55567,2.31028,2.31028,0,0,0,1.38086-.4375Z"/>
        <path class="b843819c-af39-449d-bc5c-d0772657fef4" d="M288.57766,86.49273a1.95359,1.95359,0,0,1,2.126-1.90625,1.91809,1.91809,0,0,1,2.125,1.83984,2.1347,2.1347,0,0,1-4.251.06641Zm.417,3.5498h3.418v11.78809h-3.418Z"/>
        <path class="b843819c-af39-449d-bc5c-d0772657fef4" d="M294.71536,95.93609c0-3.54981,2.73926-6.06934,6.48633-6.06934,3.74609,0,6.46386,2.51953,6.46386,6.06934s-2.71777,6.06933-6.46386,6.06933C297.45462,102.00542,294.71536,99.48589,294.71536,95.93609Zm9.4873,0a3.02242,3.02242,0,1,0-3.001,3.26465A2.97463,2.97463,0,0,0,304.20266,95.93609Z"/>
        <path class="b843819c-af39-449d-bc5c-d0772657fef4" d="M321.99856,95.0816v6.749h-3.418V95.608c0-1.90625-.87695-2.7832-2.38867-2.7832-1.64355,0-2.82617,1.00781-2.82617,3.17773v5.82813h-3.418V90.04253h3.26465v1.37989a5.16107,5.16107,0,0,1,3.90039-1.55567C319.89505,89.86675,321.99856,91.48785,321.99856,95.0816Z"/>
        <path class="b843819c-af39-449d-bc5c-d0772657fef4" d="M330.15579,100.73492l1.13965-2.45411a8.05517,8.05517,0,0,0,4.09668,1.13965c1.57812,0,2.16992-.416,2.16992-1.07422,0-1.92773-7.12207.044-7.12207-4.667,0-2.23437,2.0166-3.8125,5.45605-3.8125a9.694,9.694,0,0,1,4.53613,1.03028l-1.13964,2.43164a6.76892,6.76892,0,0,0-3.39649-.876c-1.5332,0-2.19043.48144-2.19043,1.0957,0,2.01563,7.1211.06543,7.1211,4.71094,0,2.19043-2.03809,3.74609-5.56543,3.74609A10.11459,10.11459,0,0,1,330.15579,100.73492Z"/>
        <path class="b843819c-af39-449d-bc5c-d0772657fef4" d="M342.51614,86.49273a1.95359,1.95359,0,0,1,2.126-1.90625,1.91809,1.91809,0,0,1,2.125,1.83984,2.1347,2.1347,0,0,1-4.251.06641Zm.416,3.5498h3.41895v11.78809h-3.41895Z"/>
        <path class="b843819c-af39-449d-bc5c-d0772657fef4" d="M368.57278,95.93609a5.72521,5.72521,0,0,1-5.87207,6.06933,4.5809,4.5809,0,0,1-3.70313-1.5332v1.3584h-3.26464V85.57183h3.418v5.71973a4.573,4.573,0,0,1,3.54981-1.42481A5.72521,5.72521,0,0,1,368.57278,95.93609Zm-3.46191,0a3.01252,3.01252,0,1,0-3.002,3.26465A2.97535,2.97535,0,0,0,365.11087,95.93609Z"/>
        <path class="b843819c-af39-449d-bc5c-d0772657fef4" d="M382.33743,96.90093h-8.918a3.14263,3.14263,0,0,0,3.374,2.36621,3.997,3.997,0,0,0,2.958-1.13965l1.81836,1.97168a6.17157,6.17157,0,0,1-4.86426,1.90625c-4.07519,0-6.72656-2.56347-6.72656-6.06933a6.00182,6.00182,0,0,1,6.28906-6.06934A5.8352,5.8352,0,0,1,382.40286,95.98C382.40286,96.24273,382.35891,96.61578,382.33743,96.90093Zm-8.96192-1.99414h5.80664a2.94443,2.94443,0,0,0-5.80664,0Z"/>
        <path class="b843819c-af39-449d-bc5c-d0772657fef4" d="M383.54641,100.73492l1.13965-2.45411a8.05517,8.05517,0,0,0,4.09668,1.13965c1.57813,0,2.16992-.416,2.16992-1.07422,0-1.92773-7.12207.044-7.12207-4.667,0-2.23437,2.0166-3.8125,5.45606-3.8125a9.694,9.694,0,0,1,4.53613,1.03028l-1.13965,2.43164a6.76886,6.76886,0,0,0-3.39648-.876c-1.53321,0-2.19043.48144-2.19043,1.0957,0,2.01563,7.12109.06543,7.12109,4.71094,0,2.19043-2.03808,3.74609-5.56543,3.74609A10.11462,10.11462,0,0,1,383.54641,100.73492Z"/>
        <path class="b843819c-af39-449d-bc5c-d0772657fef4" d="M395.4468,95.93609c0-3.54981,2.73926-6.06934,6.48535-6.06934,3.74708,0,6.46485,2.51953,6.46485,6.06934s-2.71777,6.06933-6.46485,6.06933C398.18606,102.00542,395.4468,99.48589,395.4468,95.93609Zm9.48731,0a3.02242,3.02242,0,1,0-3.002,3.26465A2.97483,2.97483,0,0,0,404.93411,95.93609Z"/>
        <path class="b843819c-af39-449d-bc5c-d0772657fef4" d="M410.26223,86.49273a1.95359,1.95359,0,0,1,2.126-1.90625,1.91809,1.91809,0,0,1,2.125,1.83984,2.1347,2.1347,0,0,1-4.251.06641Zm.416,3.5498h3.41894v11.78809h-3.41894Z"/>
        <path class="b843819c-af39-449d-bc5c-d0772657fef4" d="M429.32766,95.0816v6.749h-3.418V95.608c0-1.90625-.877-2.7832-2.38867-2.7832-1.64355,0-2.82617,1.00781-2.82617,3.17773v5.82813H417.2759V90.04253h3.26563v1.37989a5.16107,5.16107,0,0,1,3.90039-1.55567C427.22415,89.86675,429.32766,91.48785,429.32766,95.0816Z"/>
        <path class="b843819c-af39-449d-bc5c-d0772657fef4" d="M431.5884,99.85894a2.1256,2.1256,0,0,1,4.251,0,2.12559,2.12559,0,1,1-4.251,0Z"/>
        <path class="b843819c-af39-449d-bc5c-d0772657fef4" d="M38.87454,120.46343c0-4.62305,3.5498-7.93262,8.32617-7.93262a7.91894,7.91894,0,0,1,6.31055,2.71778l-2.27832,2.10351a4.93525,4.93525,0,0,0-3.85645-1.79687,4.9082,4.9082,0,1,0,0,9.8164,4.88935,4.88935,0,0,0,3.85645-1.81835l2.27832,2.10351a7.88154,7.88154,0,0,1-6.332,2.73828C42.42434,128.39507,38.87454,125.08648,38.87454,120.46343Z"/>
        <path class="b843819c-af39-449d-bc5c-d0772657fef4" d="M55.15872,112.79449h2.915l-.24121,6.22265H55.37844Z"/>
        <path class="b843819c-af39-449d-bc5c-d0772657fef4" d="M72.18606,123.20269h-8.918a3.14265,3.14265,0,0,0,3.374,2.36621,3.997,3.997,0,0,0,2.958-1.13965l1.81836,1.97168a6.17207,6.17207,0,0,1-4.86425,1.90723c-4.0752,0-6.72657-2.56445-6.72657-6.07031a6.00183,6.00183,0,0,1,6.28907-6.06934,5.83573,5.83573,0,0,1,6.13476,6.11328C72.25149,122.54449,72.20755,122.91753,72.18606,123.20269Zm-8.96191-1.99414h5.80664a2.94443,2.94443,0,0,0-5.80664,0Z"/>
        <path class="b843819c-af39-449d-bc5c-d0772657fef4" d="M73.39505,127.03667l1.13867-2.4541a8.06429,8.06429,0,0,0,4.09765,1.13965c1.57813,0,2.16993-.416,2.16993-1.07422,0-1.92773-7.12207.044-7.12207-4.667,0-2.23438,2.0166-3.8125,5.456-3.8125a9.69413,9.69413,0,0,1,4.53613,1.03027l-1.13965,2.43164a6.769,6.769,0,0,0-3.39648-.876c-1.5332,0-2.19043.48144-2.19043,1.0957,0,2.01563,7.12109.06543,7.12109,4.71094,0,2.19043-2.03808,3.74707-5.56543,3.74707A10.11405,10.11405,0,0,1,73.39505,127.03667Z"/>
        <path class="b843819c-af39-449d-bc5c-d0772657fef4" d="M93.77493,127.563a4.88366,4.88366,0,0,1-2.78223.74512c-2.7832,0-4.4043-1.42481-4.4043-4.22949v-4.84278H84.77005V116.607H86.5884v-2.87012h3.418V116.607H92.9429v2.6289H90.00637v4.79883a1.37483,1.37483,0,0,0,1.46778,1.55566,2.30245,2.30245,0,0,0,1.38086-.43847Z"/>
        <path class="b843819c-af39-449d-bc5c-d0772657fef4" d="M113.60891,116.34429l-4.97363,11.78809H105.107l-4.95215-11.78809h3.52832l3.26465,8.01953,3.375-8.01953Z"/>
        <path class="b843819c-af39-449d-bc5c-d0772657fef4" d="M122.33352,116.16851v3.15527c-.28515-.02148-.5039-.04394-.76758-.04394-1.88379,0-3.13281,1.03027-3.13281,3.28711v5.56543h-3.41894V116.34429h3.26562V117.9A4.75546,4.75546,0,0,1,122.33352,116.16851Z"/>
        <path class="b843819c-af39-449d-bc5c-d0772657fef4" d="M134.7388,121.40581v6.72657h-3.19922V126.6646a3.87011,3.87011,0,0,1-3.59375,1.64356c-2.76075,0-4.4043-1.53418-4.4043-3.57227,0-2.08105,1.46875-3.52734,5.06152-3.52734h2.71778c0-1.46875-.877-2.32324-2.71778-2.32324a5.67218,5.67218,0,0,0-3.39648,1.0957l-1.22656-2.3877a9.05756,9.05756,0,0,1,5.083-1.4248C132.65676,116.16851,134.7388,117.83355,134.7388,121.40581Zm-3.418,3.002v-1.20508H128.9761c-1.59961,0-2.10352.59082-2.10352,1.37988,0,.85449.72266,1.42481,1.92774,1.42481A2.52,2.52,0,0,0,131.32083,124.40777Z"/>
        <path class="b843819c-af39-449d-bc5c-d0772657fef4" d="M137.41458,112.79449a1.95358,1.95358,0,0,1,2.126-1.90625,1.91809,1.91809,0,0,1,2.125,1.83984,2.13469,2.13469,0,0,1-4.251.06641Zm.416,3.5498h3.41895v11.78809h-3.41895Z"/>
        <path class="b843819c-af39-449d-bc5c-d0772657fef4" d="M164.34524,121.38335v6.749h-3.418v-6.22266c0-1.90625-.85449-2.7832-2.23535-2.7832-1.5332,0-2.60742.98633-2.60742,3.08984v5.916h-3.418v-6.22266c0-1.90625-.81055-2.7832-2.23535-2.7832-1.51172,0-2.585.98633-2.585,3.08984v5.916h-3.418V116.34429h3.26465v1.3584a4.77318,4.77318,0,0,1,3.70312-1.53418,4.40079,4.40079,0,0,1,3.87793,1.92871,5.30234,5.30234,0,0,1,4.251-1.92871C162.32962,116.16851,164.34524,117.79058,164.34524,121.38335Z"/>
        <path class="b843819c-af39-449d-bc5c-d0772657fef4" d="M179.03274,123.20269h-8.918a3.14265,3.14265,0,0,0,3.374,2.36621,3.997,3.997,0,0,0,2.958-1.13965l1.81836,1.97168a6.17207,6.17207,0,0,1-4.86426,1.90723c-4.07519,0-6.72656-2.56445-6.72656-6.07031a6.00182,6.00182,0,0,1,6.28906-6.06934,5.83573,5.83573,0,0,1,6.13477,6.11328C179.09817,122.54449,179.05423,122.91753,179.03274,123.20269Zm-8.96191-1.99414h5.80664a2.94443,2.94443,0,0,0-5.80664,0Z"/>
        <path class="b843819c-af39-449d-bc5c-d0772657fef4" d="M193.43215,121.38335v6.749h-3.418v-6.22266c0-1.90625-.877-2.7832-2.38868-2.7832-1.64355,0-2.82617,1.00781-2.82617,3.17773v5.82813h-3.418V116.34429H184.646v1.37988a5.1611,5.1611,0,0,1,3.90039-1.55566C191.32864,116.16851,193.43215,117.79058,193.43215,121.38335Z"/>
        <path class="b843819c-af39-449d-bc5c-d0772657fef4" d="M204.12844,127.563a4.88363,4.88363,0,0,1-2.78222.74512c-2.78321,0-4.4043-1.42481-4.4043-4.22949v-4.84278h-1.81836V116.607h1.81836v-2.87012h3.418V116.607h2.93652v2.6289h-2.93652v4.79883a1.37482,1.37482,0,0,0,1.46777,1.55566,2.30243,2.30243,0,0,0,1.38086-.43847Z"/>
        <path class="b843819c-af39-449d-bc5c-d0772657fef4" d="M225.10305,122.23785a5.726,5.726,0,0,1-5.87207,6.07031,4.57636,4.57636,0,0,1-3.5498-1.42481v5.5h-3.419V116.34429h3.26563v1.3584a4.57853,4.57853,0,0,1,3.70312-1.53418A5.7252,5.7252,0,0,1,225.10305,122.23785Zm-3.46191,0a3.0126,3.0126,0,1,0-3.00195,3.26562A2.97535,2.97535,0,0,0,221.64114,122.23785Z"/>
        <path class="b843819c-af39-449d-bc5c-d0772657fef4" d="M234.70364,116.16851v3.15527c-.28516-.02148-.50391-.04394-.76758-.04394-1.88379,0-3.13281,1.03027-3.13281,3.28711v5.56543h-3.418V116.34429h3.26465V117.9A4.75545,4.75545,0,0,1,234.70364,116.16851Z"/>
        <path class="b843819c-af39-449d-bc5c-d0772657fef4" d="M235.75833,122.23785c0-3.54981,2.73925-6.06934,6.48632-6.06934,3.7461,0,6.46387,2.51953,6.46387,6.06934s-2.71777,6.07031-6.46387,6.07031C238.49758,128.30816,235.75833,125.78765,235.75833,122.23785Zm9.4873,0a3.02249,3.02249,0,1,0-3.001,3.26562A2.97463,2.97463,0,0,0,245.24563,122.23785Z"/>
        <path class="b843819c-af39-449d-bc5c-d0772657fef4" d="M256.689,126.314a2.10954,2.10954,0,0,1,4.207,0,2.10651,2.10651,0,0,1-4.207,0Zm.06641-13.51953h4.07519l-.67871,10.01367h-2.71777Z"/>
      </g>
    </g>
  </g>
  <g>
    <g>
      <path id="b69bbf56-e83c-43f0-89a9-0dc4b85de3b0" data-name="a" class="bc379641-0f53-48be-b908-d8e72ddd5aff" d="M573.05262,464.0515h0a17.83281,17.83281,0,0,0,17.03783,18.56825l306.9531,13.187h0a17.83161,17.83161,0,0,0,18.56754-17.03861h0l15.5343-361.59091h0l.7121-16.57554,3.11213-72.44086h0a9.04965,9.04965,0,0,0-8.813-9.6042h0L610.60945,5.00042h0A17.83158,17.83158,0,0,0,592.04192,22.039h0Z"/>
      <path id="a6f072cd-c377-4c75-a28c-fba24d059195" data-name="b" class="bc379641-0f53-48be-b908-d8e72ddd5aff" d="M610.60943,5.00079h0A17.83159,17.83159,0,0,0,592.0419,22.0394l-1.16046,27.012,342.56,14.71671,1.52969-35.60648h0a9.04966,9.04966,0,0,0-8.813-9.60421h0L610.60943,5.00079Z"/>
      <path class="f40460e7-6bb8-413c-822c-66006b75e0b1" d="M573.05262,464.0515h0a17.83281,17.83281,0,0,0,17.03783,18.56825l306.9531,13.187h0a17.83161,17.83161,0,0,0,18.56754-17.03861h0l15.5343-361.59091h0l.73847-17.1893,3.1385-73.05461h0a9.04965,9.04965,0,0,0-8.813-9.6042h0L610.63582,4.38666h0a17.83161,17.83161,0,0,0-18.56754,17.03861h0Z"/>
      <path class="f40460e7-6bb8-413c-822c-66006b75e0b1" d="M610.60943,5.00079h0A17.83159,17.83159,0,0,0,592.0419,22.0394l-1.16046,27.012,342.56,14.71671,1.52969-35.60648h0a9.04966,9.04966,0,0,0-8.813-9.60421h0L610.60943,5.00079Z"/>
      <path class="f9321eda-23f7-4a2d-930a-30175fe6235b" d="M629.8928,28.58575h0c-.211,4.91118-4.07965,9.05033-8.9897,8.83939s-8.43585-4.0525-8.19848-9.57781c.211-4.91117,4.07965-9.05032,8.9897-8.83938h0c4.91005.21094,8.40948,4.66625,8.19848,9.5778Z"/>
      <path class="f9321eda-23f7-4a2d-930a-30175fe6235b" d="M655.67656,29.69345h0c-.211,4.91117-4.07965,9.05032-8.9897,8.83938s-8.43585-4.0525-8.19848-9.5778c.211-4.91118,4.07965-9.05032,8.9897-8.83938h0a8.93247,8.93247,0,0,1,8.19848,9.5778Z"/>
    </g>
    <g>
      <path class="b6b67f75-c2c7-49a1-913c-62120e2cfd3f" d="M887.38333,293.83062,639.36575,283.17535a8.95749,8.95749,0,0,1-6.38672-3.01954,9.22745,9.22745,0,0,1-2.30371-6.45117L633.023,219.067a9.08176,9.08176,0,0,1,9.08691-8.69922c.127,0,.25488.00195.38281.00781l248.01758,10.6543a9.10114,9.10114,0,0,1,8.69141,9.47168L896.854,285.13921a9.57512,9.57512,0,0,1-9.14063,8.69825C887.60305,293.83746,887.49368,293.8355,887.38333,293.83062Z"/>
      <path class="e603790e-73c8-48dc-8c80-7b85a05bd83d" d="M642.1094,212.95235h0q.13623,0,.27246.0058l248.01758,10.65512a6.51873,6.51873,0,0,1,6.21875,6.7775L894.271,285.02865a6.95467,6.95467,0,0,1-6.55713,6.22375c-.07324,0-.146-.00149-.21924-.00464L639.47708,280.5927a6.51874,6.51874,0,0,1-6.21875-6.77755l2.34716-54.63779a6.50007,6.50007,0,0,1,6.50391-6.225m0-5.1708a11.66345,11.66345,0,0,0-11.66992,11.17392l-2.34717,54.63778a11.66619,11.66619,0,0,0,11.1626,12.16547l248.01758,10.655c.14746.00635.29394.00946.4414.00946a12.1118,12.1118,0,0,0,11.72315-11.1727l2.34717-54.63782a11.66615,11.66615,0,0,0-11.1626-12.16543L642.604,207.79217q-.24756-.01067-.49463-.01062Z"/>
    </g>
    <g>
      <path class="f438f8ed-94ff-4191-8c3a-7104b6c697e2" d="M658.12446,233.06088l9.8231.422-.34286,7.9807-9.82309-.422Z"/>
      <path class="f438f8ed-94ff-4191-8c3a-7104b6c697e2" d="M667.94606,233.48282l9.8231.422-.34286,7.98071-9.82309-.422Z"/>
      <path class="f438f8ed-94ff-4191-8c3a-7104b6c697e2" d="M696.79936,234.72239l9.8231.422-.34286,7.98071-9.8231-.422Z"/>
      <path class="f438f8ed-94ff-4191-8c3a-7104b6c697e2" d="M706.008,235.118l9.8231.422-.34286,7.98071-9.8231-.422Z"/>
      <path class="f438f8ed-94ff-4191-8c3a-7104b6c697e2" d="M715.83105,235.54l9.8231.422-.34286,7.98071-9.8231-.422Z"/>
      <path class="f438f8ed-94ff-4191-8c3a-7104b6c697e2" d="M725.65415,235.962l9.8231.422-.34286,7.98071-9.8231-.422Z"/>
      <path class="f438f8ed-94ff-4191-8c3a-7104b6c697e2" d="M734.86274,236.35763l9.8231.422-.34286,7.98071-9.8231-.422Z"/>
      <path class="f438f8ed-94ff-4191-8c3a-7104b6c697e2" d="M763.716,237.5972l9.8231.422-.34286,7.9807-9.8231-.422Z"/>
      <path class="f438f8ed-94ff-4191-8c3a-7104b6c697e2" d="M773.53763,238.01914l9.8231.422-.34286,7.98071-9.8231-.422Z"/>
      <path class="f438f8ed-94ff-4191-8c3a-7104b6c697e2" d="M782.74623,238.41475l9.82309.422-.34285,7.98071-9.8231-.422Z"/>
      <path class="f438f8ed-94ff-4191-8c3a-7104b6c697e2" d="M792.56932,238.83676l9.8231.422-.34286,7.98071-9.82309-.422Z"/>
      <path class="f438f8ed-94ff-4191-8c3a-7104b6c697e2" d="M657.175,255.16173l9.8231.422-.34286,7.9807-9.8231-.422Z"/>
      <path class="f438f8ed-94ff-4191-8c3a-7104b6c697e2" d="M666.99659,255.58367l9.8231.422-.34286,7.98071-9.8231-.422Z"/>
      <path class="f438f8ed-94ff-4191-8c3a-7104b6c697e2" d="M676.20518,255.97928l9.8231.422-.34286,7.98071-9.8231-.422Z"/>
      <path class="f438f8ed-94ff-4191-8c3a-7104b6c697e2" d="M705.05848,257.21885l9.82309.422-.34285,7.9807-9.8231-.422Z"/>
      <path class="f438f8ed-94ff-4191-8c3a-7104b6c697e2" d="M714.88157,257.64086l9.8231.422-.34286,7.9807-9.82309-.422Z"/>
      <path class="f438f8ed-94ff-4191-8c3a-7104b6c697e2" d="M724.70467,258.06287l9.8231.422-.34286,7.9807-9.8231-.422Z"/>
      <path class="f438f8ed-94ff-4191-8c3a-7104b6c697e2" d="M733.91327,258.45848l9.82309.422-.34285,7.9807-9.8231-.422Z"/>
      <path class="f438f8ed-94ff-4191-8c3a-7104b6c697e2" d="M743.73487,258.88042l9.82309.422-.34285,7.98071-9.8231-.422Z"/>
      <path class="f438f8ed-94ff-4191-8c3a-7104b6c697e2" d="M752.94346,259.276l9.8231.422-.34286,7.98071-9.8231-.422Z"/>
      <path class="f438f8ed-94ff-4191-8c3a-7104b6c697e2" d="M762.76656,259.698l9.8231.422-.34286,7.98071-9.8231-.422Z"/>
      <path class="f438f8ed-94ff-4191-8c3a-7104b6c697e2" d="M791.61985,260.93761l9.8231.422-.34286,7.98071-9.8231-.422Z"/>
    </g>
    <path class="e603790e-73c8-48dc-8c80-7b85a05bd83d" d="M890.64813,217.83387,823.733,214.95912,820.35708,293.539l66.91518,2.87475A11.66627,11.66627,0,0,0,899.437,285.2505l2.3473-54.6378C902.10076,223.24612,896.78719,218.09761,890.64813,217.83387Z"/>
    <g>
      <path class="f438f8ed-94ff-4191-8c3a-7104b6c697e2" d="M840.4607,255.04043c.15824-3.68329,2.6924-5.41984,6.37643-5.26157,3.06954.13187,6.03356,2.71952,5.90169,5.78905a5.80513,5.80513,0,0,1-6.4028,5.87532C843.29287,260.69723,840.32883,258.11,840.4607,255.04043Z"/>
      <path class="f438f8ed-94ff-4191-8c3a-7104b6c697e2" d="M855.19535,255.67344c.15824-3.68329,2.6924-5.41983,6.37643-5.26156,3.06953.13187,6.03356,2.71951,5.90169,5.789a5.80513,5.80513,0,0,1-6.4028,5.87532C857.413,261.30384,855.06348,258.743,855.19535,255.67344Z"/>
      <path class="f438f8ed-94ff-4191-8c3a-7104b6c697e2" d="M869.9285,256.30639c.15823-3.68328,2.6924-5.41983,6.37643-5.26156,3.06953.13187,6.03356,2.71951,5.90169,5.789a5.80513,5.80513,0,0,1-6.4028,5.87532C872.14766,261.93686,869.79663,259.37592,869.9285,256.30639Z"/>
    </g>
    <g>
      <path class="b6b67f75-c2c7-49a1-913c-62120e2cfd3f" d="M882.95266,396.96734,634.93508,386.31206a9.09979,9.09979,0,0,1-8.69043-9.47168l2.34668-54.63769a9.082,9.082,0,0,1,9.0879-8.69922c.127,0,.25488.002.38281.00781l248.01758,10.65528a8.96137,8.96137,0,0,1,6.38769,3.01953,9.23111,9.23111,0,0,1,2.30274,6.45117l-2.34668,54.6377a9.576,9.576,0,0,1-9.14063,8.69921C883.17239,396.97417,883.063,396.97222,882.95266,396.96734Z"/>
      <path class="e603790e-73c8-48dc-8c80-7b85a05bd83d" d="M637.67874,316.08855q.13623,0,.27246.0058l248.01758,10.65506a6.51875,6.51875,0,0,1,6.21875,6.7775l-2.34717,54.63751a6.9558,6.9558,0,0,1-6.55762,6.22418c-.07324,0-.146-.00146-.21924-.00464l-248.01758-10.655a6.30853,6.30853,0,0,1-4.562-2.14932,6.62543,6.62543,0,0,1-1.65625-4.62829l2.34717-54.63776a6.49974,6.49974,0,0,1,6.50391-6.225m0-5.1708a11.66312,11.66312,0,0,0-11.66993,11.17392l-2.34716,54.63775a11.66577,11.66577,0,0,0,11.16211,12.16547L882.84133,399.55c.14747.00635.29395.00946.44141.00946a12.11234,12.11234,0,0,0,11.72363-11.17279l2.34717-54.63779a11.66652,11.66652,0,0,0-11.1626-12.16546l-248.01757-10.655q-.24756-.01066-.49463-.01062Z"/>
    </g>
    <g>
      <path class="f438f8ed-94ff-4191-8c3a-7104b6c697e2" d="M653.69362,336.19742l9.8231.422-.34286,7.98071-9.8231-.422Z"/>
      <path class="f438f8ed-94ff-4191-8c3a-7104b6c697e2" d="M663.51522,336.61937l9.8231.422-.34286,7.9807-9.8231-.422Z"/>
      <path class="f438f8ed-94ff-4191-8c3a-7104b6c697e2" d="M692.36851,337.85893l9.8231.422-.34286,7.98071-9.8231-.422Z"/>
      <path class="f438f8ed-94ff-4191-8c3a-7104b6c697e2" d="M701.5771,338.25454l9.8231.422-.34286,7.98071-9.8231-.422Z"/>
      <path class="f438f8ed-94ff-4191-8c3a-7104b6c697e2" d="M711.4002,338.67655l9.8231.422-.34286,7.98071-9.8231-.422Z"/>
      <path class="f438f8ed-94ff-4191-8c3a-7104b6c697e2" d="M721.2233,339.09856l9.8231.422-.34286,7.98071-9.8231-.422Z"/>
      <path class="f438f8ed-94ff-4191-8c3a-7104b6c697e2" d="M730.43189,339.49417l9.8231.422-.34286,7.98071-9.8231-.422Z"/>
      <path class="f438f8ed-94ff-4191-8c3a-7104b6c697e2" d="M759.28518,340.73374l9.8231.422-.34286,7.9807-9.82309-.422Z"/>
      <path class="f438f8ed-94ff-4191-8c3a-7104b6c697e2" d="M769.10678,341.15568l9.8231.422-.34286,7.98071-9.82309-.422Z"/>
      <path class="f438f8ed-94ff-4191-8c3a-7104b6c697e2" d="M778.31538,341.55129l9.8231.422-.34286,7.98071-9.8231-.422Z"/>
      <path class="f438f8ed-94ff-4191-8c3a-7104b6c697e2" d="M788.13848,341.9733l9.8231.422-.34286,7.98071-9.8231-.422Z"/>
      <path class="f438f8ed-94ff-4191-8c3a-7104b6c697e2" d="M652.74416,358.29789l9.8231.422-.34286,7.98071-9.8231-.422Z"/>
      <path class="f438f8ed-94ff-4191-8c3a-7104b6c697e2" d="M662.56576,358.71984l9.8231.422-.34286,7.98071-9.8231-.422Z"/>
      <path class="f438f8ed-94ff-4191-8c3a-7104b6c697e2" d="M671.77435,359.11545l9.8231.422-.34286,7.98071-9.8231-.422Z"/>
      <path class="f438f8ed-94ff-4191-8c3a-7104b6c697e2" d="M700.62764,360.355l9.8231.422-.34286,7.9807-9.8231-.422Z"/>
      <path class="f438f8ed-94ff-4191-8c3a-7104b6c697e2" d="M710.45074,360.777l9.8231.422-.34286,7.9807-9.8231-.422Z"/>
      <path class="f438f8ed-94ff-4191-8c3a-7104b6c697e2" d="M720.27384,361.199l9.8231.422-.34286,7.9807-9.8231-.422Z"/>
      <path class="f438f8ed-94ff-4191-8c3a-7104b6c697e2" d="M729.48243,361.59465l9.8231.422-.34286,7.9807-9.82309-.422Z"/>
      <path class="f438f8ed-94ff-4191-8c3a-7104b6c697e2" d="M739.304,362.01659l9.8231.422-.34286,7.98071-9.82309-.422Z"/>
      <path class="f438f8ed-94ff-4191-8c3a-7104b6c697e2" d="M748.51263,362.4122l9.8231.422-.34286,7.98071-9.8231-.422Z"/>
      <path class="f438f8ed-94ff-4191-8c3a-7104b6c697e2" d="M758.33573,362.83421l9.82309.422-.34285,7.98071-9.8231-.422Z"/>
      <path class="f438f8ed-94ff-4191-8c3a-7104b6c697e2" d="M787.189,364.07378l9.8231.422-.34286,7.9807-9.8231-.422Z"/>
    </g>
    <path class="e603790e-73c8-48dc-8c80-7b85a05bd83d" d="M886.2173,320.97l-66.91518-2.87474-3.37587,78.57992L882.84143,399.55a11.66627,11.66627,0,0,0,12.16473-11.16328l2.34729-54.63781C897.66993,326.38229,892.35636,321.23377,886.2173,320.97Z"/>
    <g>
      <path class="f438f8ed-94ff-4191-8c3a-7104b6c697e2" d="M836.02987,358.17659c.15824-3.68328,2.6924-5.41983,6.37643-5.26156,3.06953.13187,6.03356,2.71951,5.90169,5.789a5.80514,5.80514,0,0,1-6.4028,5.87533C838.862,363.8334,835.898,361.24613,836.02987,358.17659Z"/>
      <path class="f438f8ed-94ff-4191-8c3a-7104b6c697e2" d="M850.76452,358.80961c.15823-3.68329,2.69239-5.41984,6.37643-5.26157,3.06953.13187,6.03356,2.71952,5.90169,5.789a5.80514,5.80514,0,0,1-6.4028,5.87532C852.98218,364.44,850.63265,361.87914,850.76452,358.80961Z"/>
      <path class="f438f8ed-94ff-4191-8c3a-7104b6c697e2" d="M865.49767,359.44256c.15823-3.68329,2.69239-5.41984,6.37643-5.26157,3.06953.13187,6.03356,2.71952,5.90169,5.789a5.80514,5.80514,0,0,1-6.4028,5.87532C867.71683,365.073,865.3658,362.51209,865.49767,359.44256Z"/>
    </g>
    <g>
      <path class="b45e1d51-3d94-4d1d-94de-45423e0192be" d="M726.10466,430.89676c.15824-3.68329,2.6924-5.41984,6.37643-5.26157,3.06954.13187,6.03356,2.71951,5.90169,5.789a5.80513,5.80513,0,0,1-6.4028,5.87532C728.93683,436.55356,725.97279,433.96629,726.10466,430.89676Z"/>
      <path class="b45e1d51-3d94-4d1d-94de-45423e0192be" d="M740.83931,431.52977c.15824-3.68329,2.6924-5.41983,6.37643-5.26157,3.06953.13188,6.03356,2.71952,5.90169,5.78905a5.80513,5.80513,0,0,1-6.4028,5.87532C743.057,437.16017,740.70744,434.5993,740.83931,431.52977Z"/>
      <path class="b45e1d51-3d94-4d1d-94de-45423e0192be" d="M755.57246,432.16272c.15824-3.68329,2.6924-5.41983,6.37643-5.26156,3.06953.13187,6.03356,2.71951,5.90169,5.789a5.80513,5.80513,0,0,1-6.4028,5.87532C757.79163,437.79319,755.44059,435.23225,755.57246,432.16272Z"/>
    </g>
    <g>
      <path class="b6b67f75-c2c7-49a1-913c-62120e2cfd3f" d="M892.19778,190.70269c-.12793,0-.25586-.00195-.38379-.00781L643.79739,180.0396a8.95783,8.95783,0,0,1-6.3877-3.01953,9.22752,9.22752,0,0,1-2.30371-6.45117l3.13867-73.05566a9.08177,9.08177,0,0,1,9.08692-8.69922c.12793,0,.25586.00195.38379.00781L895.73294,99.4771a8.95749,8.95749,0,0,1,6.38671,3.01953,9.2275,9.2275,0,0,1,2.30372,6.45118l-3.13868,73.05566A9.08176,9.08176,0,0,1,892.19778,190.70269Z"/>
      <path class="f9321eda-23f7-4a2d-930a-30175fe6235b" d="M647.33157,91.399q.13623,0,.27246.00582L895.62161,102.0599a6.51874,6.51874,0,0,1,6.21875,6.77749l-3.13867,73.05506a6.49969,6.49969,0,0,1-6.50391,6.22494q-.13623,0-.27246-.0058l-248.01758-10.655A6.51877,6.51877,0,0,1,637.689,170.679l3.13867-73.055a6.49974,6.49974,0,0,1,6.50391-6.225m0-5.1708a11.66314,11.66314,0,0,0-11.66992,11.17392l-3.13867,73.055a11.6665,11.6665,0,0,0,11.16259,12.16544l248.01758,10.65506c.16553.00711.33008.01062.49463.01062a11.66348,11.66348,0,0,0,11.66992-11.17389l3.13867-73.055A11.66651,11.66651,0,0,0,895.84378,96.8939L647.8262,86.23881q-.24756-.01066-.49463-.01062Z"/>
    </g>
    <g>
      <path class="f438f8ed-94ff-4191-8c3a-7104b6c697e2" d="M663.32013,112.12166l9.8231.422-.34286,7.9807-9.8231-.422Z"/>
      <path class="f438f8ed-94ff-4191-8c3a-7104b6c697e2" d="M673.14173,112.5436l9.8231.422-.34286,7.98071-9.8231-.422Z"/>
      <path class="f438f8ed-94ff-4191-8c3a-7104b6c697e2" d="M701.995,113.78317l9.82309.422-.34285,7.9807-9.8231-.422Z"/>
      <path class="f438f8ed-94ff-4191-8c3a-7104b6c697e2" d="M711.20362,114.17878l9.8231.422-.34286,7.9807-9.8231-.422Z"/>
      <path class="f438f8ed-94ff-4191-8c3a-7104b6c697e2" d="M721.02672,114.60079l9.8231.422-.34286,7.9807-9.8231-.422Z"/>
      <path class="f438f8ed-94ff-4191-8c3a-7104b6c697e2" d="M730.84982,115.0228l9.82309.422-.34285,7.9807-9.8231-.422Z"/>
      <path class="f438f8ed-94ff-4191-8c3a-7104b6c697e2" d="M740.05841,115.41841l9.8231.422-.34286,7.9807-9.8231-.422Z"/>
      <path class="f438f8ed-94ff-4191-8c3a-7104b6c697e2" d="M768.9117,116.658l9.8231.422-.34286,7.98071-9.8231-.422Z"/>
      <path class="f438f8ed-94ff-4191-8c3a-7104b6c697e2" d="M778.7333,117.07992l9.8231.422-.34286,7.98071-9.8231-.422Z"/>
      <path class="f438f8ed-94ff-4191-8c3a-7104b6c697e2" d="M787.94189,117.47553l9.8231.422-.34286,7.98071-9.82309-.422Z"/>
      <path class="f438f8ed-94ff-4191-8c3a-7104b6c697e2" d="M797.765,117.89754l9.8231.422-.34286,7.98071-9.8231-.422Z"/>
      <path class="f438f8ed-94ff-4191-8c3a-7104b6c697e2" d="M662.37068,134.22213l9.82309.422-.34286,7.98071-9.82309-.422Z"/>
      <path class="f438f8ed-94ff-4191-8c3a-7104b6c697e2" d="M672.19228,134.64407l9.82309.422-.34286,7.98071-9.82309-.422Z"/>
      <path class="f438f8ed-94ff-4191-8c3a-7104b6c697e2" d="M681.40087,135.03969l9.8231.422-.34286,7.9807-9.8231-.422Z"/>
      <path class="f438f8ed-94ff-4191-8c3a-7104b6c697e2" d="M710.25416,136.27925l9.8231.422-.34286,7.98071-9.8231-.422Z"/>
      <path class="f438f8ed-94ff-4191-8c3a-7104b6c697e2" d="M720.07726,136.70126l9.8231.422-.34286,7.98071-9.8231-.422Z"/>
      <path class="f438f8ed-94ff-4191-8c3a-7104b6c697e2" d="M729.90036,137.12327l9.8231.422-.34286,7.98071-9.8231-.422Z"/>
      <path class="f438f8ed-94ff-4191-8c3a-7104b6c697e2" d="M739.109,137.51888l9.8231.422-.34286,7.98071-9.8231-.422Z"/>
      <path class="f438f8ed-94ff-4191-8c3a-7104b6c697e2" d="M748.93055,137.94083l9.8231.422-.34286,7.9807-9.8231-.422Z"/>
      <path class="f438f8ed-94ff-4191-8c3a-7104b6c697e2" d="M758.13914,138.33644l9.8231.422-.34286,7.9807-9.8231-.422Z"/>
      <path class="f438f8ed-94ff-4191-8c3a-7104b6c697e2" d="M767.96224,138.75845l9.8231.422-.34286,7.9807-9.8231-.422Z"/>
      <path class="f438f8ed-94ff-4191-8c3a-7104b6c697e2" d="M796.81553,139.998l9.8231.422-.34286,7.98071-9.82309-.422Z"/>
      <path class="f438f8ed-94ff-4191-8c3a-7104b6c697e2" d="M661.31571,158.77838l9.8231.422-.34286,7.9807-9.82309-.422Z"/>
      <path class="f438f8ed-94ff-4191-8c3a-7104b6c697e2" d="M671.13731,159.20032l9.8231.422-.34286,7.98071-9.82309-.422Z"/>
      <path class="f438f8ed-94ff-4191-8c3a-7104b6c697e2" d="M696.30807,160.28168l22.71423.97583-.34286,7.98071-22.71423-.97583Z"/>
      <path class="f438f8ed-94ff-4191-8c3a-7104b6c697e2" d="M719.0223,161.25751l9.8231.422-.34286,7.98071-9.8231-.422Z"/>
      <path class="f438f8ed-94ff-4191-8c3a-7104b6c697e2" d="M728.8454,161.67952l9.8231.422-.34286,7.98071-9.8231-.422Z"/>
      <path class="f438f8ed-94ff-4191-8c3a-7104b6c697e2" d="M738.054,162.07513l9.8231.422-.34286,7.98071-9.8231-.422Z"/>
      <path class="f438f8ed-94ff-4191-8c3a-7104b6c697e2" d="M747.87559,162.49708l9.8231.422-.34286,7.9807-9.8231-.422Z"/>
    </g>
    <path class="f9321eda-23f7-4a2d-930a-30175fe6235b" d="M895.87018,96.28051,828.955,93.40577l-4.16709,96.99711,66.91517,2.87474a11.66627,11.66627,0,0,0,12.16473-11.16329l3.13852-73.055C907.29645,102.30652,902.00925,96.54425,895.87018,96.28051Z"/>
    <g class="a53713f6-2d02-4d78-a75f-d10906ebe437">
      <path class="f438f8ed-94ff-4191-8c3a-7104b6c697e2" d="M869.50247,136.48687c.08886-2.07715-1.77735-3.40527-4.42578-3.51856a7.31709,7.31709,0,0,0-6.64844,3.457l-7.55567-4.48438c2.94922-4.50195,8.11524-7.34766,15.7461-7.02051,7.99414.34375,13.55762,4.01465,13.28515,10.34766-.34765,8.09766-8.91308,8.92676-9.11816,13.70215l-9.23926-.39746C861.8384,141.773,869.33548,140.37945,869.50247,136.48687ZM859.94583,156.772c.13183-3.06153,2.61816-5.24317,6.0957-5.09375s5.81934,2.53906,5.6875,5.60058c-.12891,3.01074-2.67383,5.3457-6.15137,5.19629A5.53017,5.53017,0,0,1,859.94583,156.772Z"/>
    </g>
    <g>
      <path id="fd1bf34c-6a01-4b82-a620-f7eff2e8bf59" data-name="g" class="f9321eda-23f7-4a2d-930a-30175fe6235b" d="M663.84761,99.84353h0c.66726-1.20149.72-2.42937,1.38575-3.63055h0a6.81929,6.81929,0,0,0-6.46346-7.043h0a22.81172,22.81172,0,0,0-24.93979-20.75277,22.2183,22.2183,0,0,0-20.48867,18.80112h0a6.94265,6.94265,0,0,0-5.86741,7.74336,4.66605,4.66605,0,0,0,1.122,2.50851h0c-5.57731.99055-8.8842,6.38361-7.89406,11.96165a9.962,9.962,0,0,0,9.50661,7.789h0a7.80075,7.80075,0,0,0,3.71041-.45548h0a7.66885,7.66885,0,0,0,10.25148,4.74576,8.22972,8.22972,0,0,0,5.28079-8.38383h0a20.91462,20.91462,0,0,0,12.27813.52748h0c-.79913,4.271,1.47277,8.674,5.74345,9.47233s8.6732-1.47243,9.47233-5.74345h0a9.80267,9.80267,0,0,0,11.14821-16.1272,11.39537,11.39537,0,0,0-4.24578-1.41293Zm-11.41983,8.11972-.58814-.64016c.64087-.58735.64087-.58735,1.28026-1.17515h0a4.761,4.761,0,0,0-.69212,1.81531Z"/>
      <path class="a919b1ad-1b54-47d3-b219-954df88ae90f" d="M663.84761,99.84353h0c.66726-1.20149.72-2.42937,1.38575-3.63055h0a6.81929,6.81929,0,0,0-6.46346-7.043h0a22.81172,22.81172,0,0,0-24.93979-20.75277,22.2183,22.2183,0,0,0-20.48867,18.80112h0a6.94265,6.94265,0,0,0-5.86741,7.74336,4.66605,4.66605,0,0,0,1.122,2.50851h0c-5.57731.99055-8.8842,6.38361-7.89406,11.96165a9.962,9.962,0,0,0,9.50661,7.789h0a7.80075,7.80075,0,0,0,3.71041-.45548h0a7.66885,7.66885,0,0,0,10.25148,4.74576,8.22972,8.22972,0,0,0,5.28079-8.38383h0a20.91462,20.91462,0,0,0,12.27813.52748h0c-.79913,4.271,1.47277,8.674,5.74345,9.47233s8.6732-1.47243,9.47233-5.74345h0a9.80267,9.80267,0,0,0,11.14821-16.1272,11.39537,11.39537,0,0,0-4.24578-1.41293Zm-11.41983,8.11972-.58814-.64016c.64087-.58735.64087-.58735,1.28026-1.17515h0a4.761,4.761,0,0,0-.69212,1.81531Z"/>
      <path class="bf88934e-dffe-401e-9cbd-07e41144922f" d="M656.85669,105.07832h0a3.965,3.965,0,0,1-3.84227,3.525h0A19.2175,19.2175,0,0,1,630.842,123.64166a18.89994,18.89994,0,0,1-15.27644-16.64716h0a3.68669,3.68669,0,1,1,.31647-7.36658s5.20166-6.54181,9.446-5.12969c4.8588,1.43889,7.39294-.29728,11.34072-6.27807h0c2.61326-3.57782,6.4028-5.87533,10.69984-5.69072h0a31.22045,31.22045,0,0,0,1.39366,10.51561h0c1.09564,3.12227,2.19129,6.24454,4.54231,8.80585h0c1.89478-1.14913,3.65767.772,3.55218,3.22742Z"/>
      <path class="a919b1ad-1b54-47d3-b219-954df88ae90f" d="M628.24716,112.45993h0a33.42159,33.42159,0,0,0,11.05061.47474"/>
      <path class="f9321eda-23f7-4a2d-930a-30175fe6235b" d="M624.82836,106.16266a2.17249,2.17249,0,1,1-3.2014,2.93766c-.56175-1.25428-.509-2.48217.13187-3.06953a1.741,1.741,0,0,1,3.06953.13187"/>
      <path class="f9321eda-23f7-4a2d-930a-30175fe6235b" d="M646.92809,107.11209a2.78846,2.78846,0,0,1-.13187,3.06953c-1.28027,1.17515-2.50778,1.12242-3.06953-.13187s-.509-2.48218.13187-3.06953c.66725-1.20149,1.89477-1.14876,3.06953.13187"/>
      <path class="bf88934e-dffe-401e-9cbd-07e41144922f" d="M608.882,113.719l4.48166-4.11282,4.11243,4.482-4.48167,4.11281Z"/>
      <path class="bf88934e-dffe-401e-9cbd-07e41144922f" d="M651.54264,115.6748l4.48167-4.11281,4.11242,4.482-4.48166,4.11281Z"/>
      <path class="a919b1ad-1b54-47d3-b219-954df88ae90f" d="M613.13688,106.27527l-.18462,4.29742"/>
      <path class="a919b1ad-1b54-47d3-b219-954df88ae90f" d="M655.52367,107.48136l-.211,4.91118"/>
      <circle class="e5eaf082-95e8-4917-b608-e4b7c03c5a85" cx="626.88137" cy="101.33062" r="2.45804" transform="translate(498.73751 723.28504) rotate(-87.54003)"/>
      <circle class="e5eaf082-95e8-4917-b608-e4b7c03c5a85" cx="642.22903" cy="101.98997" r="2.45804" transform="translate(512.76767 739.2496) rotate(-87.54003)"/>
    </g>
    <g>
      <g>
        <path class="ef833f45-3d5a-4468-a8ac-3cb7f5192956" d="M608.32432,347.164c-.10551,2.45578,4.1388,3.8679,8.46221,3.43875s7.47208-2.1393,7.57757-4.5947c-4.73334-18.65453-3.88937-38.2996-6.07008-73.4506l-16.04128,1.15589C606.1436,312.013,608.65927,325.03711,608.32432,347.164Z"/>
        <path class="aaa2bf5f-7a7d-4eba-91c1-79e6066f8a09" d="M609.2173,269.09229c4.32341-.42915,7.95471.95663,7.84921,3.4124s-3.25416,4.16555-7.57757,4.5947-7.95471-.95663-7.84921-3.4124C601.74522,271.23159,604.89387,269.52181,609.2173,269.09229Z"/>
      </g>
      <g>
        <path class="ef833f45-3d5a-4468-a8ac-3cb7f5192956" d="M617.80306,355.56664c1.14839,1.89438,4.83243,2.05265,9.20859.39561,3.76316-1.68338,6.35005-4.64744,5.20166-6.54182-11.00427-15.84873-16.96662-34.55606-30.9692-66.52448l-14.43664,6.76034C603.80047,323.59822,610.69381,334.965,617.80306,355.56664Z"/>
        <path class="aaa2bf5f-7a7d-4eba-91c1-79e6066f8a09" d="M592.03553,282.5c3.76315-1.68337,8.0602-1.49877,8.59409.36921,1.14839,1.89438-1.43851,4.85844-5.20166,6.54181s-8.0602,1.49877-8.59409-.36921C585.68546,287.14778,588.27386,284.18378,592.03553,282.5Z"/>
      </g>
      <g>
        <path class="b0e52d1e-7f17-46cb-985c-bd835ef21fbc" d="M647.89743,327.9526h0a4.6208,4.6208,0,0,0-2.88491-4.42929l.10549-2.4554h0a20.27789,20.27789,0,0,0-40.51841-1.74071l-.10551,2.45578h0c-2.455-.10547-3.78953,2.2975-3.895,4.7529-.07912,1.84164,1.71015,3.14867,3.5258,3.84156h0a19.86015,19.86015,0,0,0,23.28239,16.37621c8.0602-1.49877,14.463-7.37409,16.007-14.6883h0A4.20058,4.20058,0,0,0,647.89743,327.9526Z"/>
        <path class="f9321eda-23f7-4a2d-930a-30175fe6235b" d="M615.33372,327.1689c.58814.64015.509,2.48217-.15824,3.68328-.64087.58736-2.48139.50829-3.684-.15827-.58814-.64015-.509-2.48217.15824-3.68328a3.91718,3.91718,0,0,1,3.684.15827"/>
        <path class="f9321eda-23f7-4a2d-930a-30175fe6235b" d="M636.82043,328.092c.58814.64015.509,2.48217-.15823,3.68328s-2.4814.50829-3.684-.15827c-.58814-.64015-.509-2.48217.15824-3.68328q2.8026-.8025,3.684.15827"/>
        <path id="eb424f4a-1b16-47a4-9bf3-bdf40a05603d" data-name="k" class="f9321eda-23f7-4a2d-930a-30175fe6235b" d="M646.55651,316.20947h0c-.11339-11.69077-9.513-21.93506-21.2045-21.82245-11.05061-.47474-21.29419,8.92566-21.76894,19.97627l-.2901,6.75282h0a15.91416,15.91416,0,0,0,12.08559-9.32127C624.32342,318.32951,636.65429,317.62911,646.55651,316.20947Z"/>
        <path class="ea20dce0-5ac7-4b55-9821-c623aa7bfdf3" d="M646.55651,316.20947h0c-.11339-11.69077-9.513-21.93506-21.2045-21.82245-11.05061-.47474-21.29419,8.92566-21.76894,19.97627l-.2901,6.75282h0a15.91416,15.91416,0,0,0,12.08559-9.32127C624.32342,318.32951,636.65429,317.62911,646.55651,316.20947Z"/>
        <path class="ea20dce0-5ac7-4b55-9821-c623aa7bfdf3" d="M611.82789,308.5671h0a16.30691,16.30691,0,0,0,2.9113,3.81516"/>
        <path class="ea20dce0-5ac7-4b55-9821-c623aa7bfdf3" d="M620.46266,336.61483l7.36658.31647"/>
        <path class="b70233a2-27b2-4512-8b5a-18a2fda70cfe" d="M631.5845,321.10139h0a2.458,2.458,0,1,0,2.34953,2.56124h0c.66725-1.20148-.50751-2.48211-2.34953-2.56124Z"/>
        <path class="b70233a2-27b2-4512-8b5a-18a2fda70cfe" d="M618.07887,320.52117h0a2.458,2.458,0,1,0,2.34952,2.56125h0a2.64174,2.64174,0,0,0-2.34952-2.56125Z"/>
      </g>
    </g>
    <g>
      <path class="f0905c49-170b-4b61-a155-54faecaee25d" d="M630.61474,200.51218h0a19.14531,19.14531,0,0,1,18.21411,19.84856h0l-.26374,6.13907a19.12413,19.12413,0,0,1-16.16525,18.37159c-10.51522,1.3933-20.66122-5.80787-22.05488-16.32348h0c-1.842-.07914-3.01678-1.35976-3.55216-3.2278.07912-1.84165,1.41213-4.24469,3.25415-4.16555h0l.1055-2.45578c1.06284-10.40933,10.02617-18.635,20.46227-18.18661Z"/>
      <path class="b70233a2-27b2-4512-8b5a-18a2fda70cfe" d="M627.34213,219.43765a2.643,2.643,0,0,0-2.56053,2.35031h0a2.45729,2.45729,0,1,0,2.56053-2.35031Z"/>
      <path class="b70233a2-27b2-4512-8b5a-18a2fda70cfe" d="M639.62025,219.96513c-1.22751-.05273-1.89477,1.14876-1.94752,2.37664s1.1484,1.89438,2.37591,1.94712h0l.6145.0264c1.22752.05273,1.89477-1.14875,1.94753-2.37664.02636-.61376-1.1484-1.89438-2.99042-1.97352Z"/>
      <path class="f9321eda-23f7-4a2d-930a-30175fe6235b" d="M623.26248,228.488a2.643,2.643,0,0,0-2.34952-2.56125h0a2.458,2.458,0,1,0,2.34952,2.56125Z"/>
      <path class="a8196eb4-ad1e-45fb-a1b2-ecbecada7c3c" d="M637.14525,234.6199c-2.53414,1.73617-6.21818,1.5779-9.20859-.39561h0"/>
      <path id="a67dc83b-a24e-45b3-ab4d-f8e9d14f53f6" data-name="a" class="f9321eda-23f7-4a2d-930a-30175fe6235b" d="M609.80319,212.53377l-.13187,3.06953,41.13141,1.76705.13187-3.06953.05276-1.22789A21.12527,21.12527,0,0,0,630.371,191.891c-11.6915.113-20.6812,8.95237-20.56779,20.64276Z"/>
      <path class="a8196eb4-ad1e-45fb-a1b2-ecbecada7c3c" d="M609.80319,212.53377l-.13187,3.06953,41.13141,1.76705.13187-3.06953.05276-1.22789A21.12527,21.12527,0,0,0,630.371,191.891c-11.6915.113-20.6812,8.95237-20.56779,20.64276Z"/>
      <path id="e778b0e7-9f6f-4b83-b8ce-8105f043dc20" data-name="b" class="f9321eda-23f7-4a2d-930a-30175fe6235b" d="M624.81854,192.26774c4.37616-1.657,11.05061.47474,11.05061.47474,6.59533,3.97343,9.69764,17.63765,8.76814,24.97826l-9.8231-.422C636.4637,207.52874,632.7205,194.45225,624.81854,192.26774Z"/>
      <path class="a8196eb4-ad1e-45fb-a1b2-ecbecada7c3c" d="M605.9609,216.05916l47.885,2.05719"/>
      <path class="a8196eb4-ad1e-45fb-a1b2-ecbecada7c3c" d="M624.81854,192.26774c4.37616-1.657,11.05061.47474,11.05061.47474,6.59533,3.97343,9.69764,17.63765,8.76814,24.97826l-9.8231-.422C636.4637,207.52874,632.7205,194.45225,624.81854,192.26774Z"/>
      <path class="a8196eb4-ad1e-45fb-a1b2-ecbecada7c3c" d="M627.12323,210.20266s-.75278-11.103-7.37448-14.46264"/>
    </g>
  </g>
  <g>
    <path class="b6b67f75-c2c7-49a1-913c-62120e2cfd3f" d="M189.86281,425.38585H506.661a0,0,0,0,1,0,0v13.67307a22.43695,22.43695,0,0,1-22.43695,22.43695H212.29976a22.43695,22.43695,0,0,1-22.43695-22.43695V425.38585A0,0,0,0,1,189.86281,425.38585Z"/>
    <g>
      <path class="b843819c-af39-449d-bc5c-d0772657fef4" d="M242.73587,444.99956c0,2.36133-1.82032,4.52149-5.80079,4.52149a9.61775,9.61775,0,0,1-5.34082-1.501l1.25977-2.48047a6.79875,6.79875,0,0,0,4.001,1.26075c1.62011,0,2.62011-.66016,2.62011-1.80079,0-1.05957-.78027-1.71972-2.62011-1.71972h-1.48047v-2.14063l2.88086-3.26074h-5.96192v-2.60059h9.80274v2.10059l-3.16114,3.60059C241.45559,441.37945,242.73587,442.939,242.73587,444.99956Z"/>
      <path class="b843819c-af39-449d-bc5c-d0772657fef4" d="M244.13333,447.48a1.94054,1.94054,0,0,1,3.88086,0,1.94054,1.94054,0,1,1-3.88086,0Z"/>
      <path class="b843819c-af39-449d-bc5c-d0772657fef4" d="M264.93508,449.28081l-2.70019-3.90039h-2.98047v3.90039h-3.24121V435.27788h6.06152c3.74121,0,6.08106,1.94043,6.08106,5.08106a4.5514,4.5514,0,0,1-2.88086,4.4209l3.1416,4.501Zm-3.04-11.3623h-2.64063v4.88086h2.64063c1.98046,0,2.98046-.91992,2.98046-2.44043C264.87551,438.8189,263.87551,437.91851,261.89505,437.91851Z"/>
      <path class="b843819c-af39-449d-bc5c-d0772657fef4" d="M279.91555,443.13921v6.1416h-2.91992V447.941a3.53353,3.53353,0,0,1-3.28125,1.5c-2.52051,0-4.02051-1.40039-4.02051-3.26074,0-1.90039,1.33985-3.2207,4.6211-3.2207h2.48047c0-1.34082-.79981-2.12012-2.48047-2.12012a5.17386,5.17386,0,0,0-3.10059,1l-1.12012-2.18067a8.27225,8.27225,0,0,1,4.64063-1.2998C278.01516,438.35894,279.91555,439.87847,279.91555,443.13921Zm-3.12011,2.74121v-1.10058h-2.14063c-1.46,0-1.91992.54-1.91992,1.26074,0,.7793.66016,1.2998,1.75976,1.2998A2.3008,2.3008,0,0,0,276.79544,445.88042Z"/>
      <path class="b843819c-af39-449d-bc5c-d0772657fef4" d="M281.69387,448.28081l1.04-2.24023a7.3604,7.3604,0,0,0,3.74024,1.04c1.44043,0,1.98047-.37988,1.98047-.98047,0-1.76074-6.501.04-6.501-4.26074,0-2.041,1.84082-3.48047,4.98144-3.48047a8.85813,8.85813,0,0,1,4.14063.93945l-1.04,2.22071a6.1875,6.1875,0,0,0-3.10059-.79981c-1.40039,0-2.001.43945-2.001,1,0,1.83984,6.502.05957,6.502,4.30078,0,2-1.86035,3.4209-5.08105,3.4209A9.23632,9.23632,0,0,1,281.69387,448.28081Z"/>
      <path class="b843819c-af39-449d-bc5c-d0772657fef4" d="M292.313,448.28081l1.04-2.24023a7.36043,7.36043,0,0,0,3.74024,1.04c1.44043,0,1.98047-.37988,1.98047-.98047,0-1.76074-6.501.04-6.501-4.26074,0-2.041,1.84082-3.48047,4.98145-3.48047a8.85812,8.85812,0,0,1,4.14062.93945l-1.04,2.22071a6.18749,6.18749,0,0,0-3.10058-.79981c-1.4004,0-2.001.43945-2.001,1,0,1.83984,6.502.05957,6.502,4.30078,0,2-1.86035,3.4209-5.08105,3.4209A9.23632,9.23632,0,0,1,292.313,448.28081Z"/>
      <path class="b843819c-af39-449d-bc5c-d0772657fef4" d="M314.815,438.51812v10.76269h-2.96v-1.28027a4.354,4.354,0,0,1-3.34082,1.44043c-2.70118,0-4.60157-1.52051-4.60157-4.84082v-6.082h3.1211v5.62207c0,1.7998.7998,2.59961,2.18066,2.59961,1.44043,0,2.48047-.91992,2.48047-2.90039v-5.32129Z"/>
      <path class="b843819c-af39-449d-bc5c-d0772657fef4" d="M324.39505,438.35894v2.87988c-.26075-.01953-.46-.04-.7002-.04-1.7207,0-2.86133.94043-2.86133,3.001v5.081H317.7134V438.51812h2.98047v1.4209A4.34288,4.34288,0,0,1,324.39505,438.35894Z"/>
      <path class="b843819c-af39-449d-bc5c-d0772657fef4" d="M336.63528,444.77984h-8.1416a2.86894,2.86894,0,0,0,3.08008,2.16015,3.649,3.649,0,0,0,2.70117-1.04l1.66015,1.80078a5.63928,5.63928,0,0,1-4.4414,1.74023c-3.7207,0-6.14063-2.34082-6.14063-5.541a5.47862,5.47862,0,0,1,5.74121-5.541,5.32733,5.32733,0,0,1,5.60059,5.58105C336.69485,444.17925,336.65481,444.52007,336.63528,444.77984Zm-8.18164-1.82031h5.30078a2.68793,2.68793,0,0,0-5.30078,0Z"/>
      <path class="b843819c-af39-449d-bc5c-d0772657fef4" d="M347.53469,446.88042v2.40039h-9.60156V447.4l5.48145-6.48047h-5.3418v-2.40137H347.355V440.399l-5.48145,6.48144Z"/>
      <path class="b843819c-af39-449d-bc5c-d0772657fef4" d="M365.87551,438.51812l-4.541,10.76269h-3.2207l-4.52149-10.76269h3.2207l2.98047,7.32226,3.08106-7.32226Z"/>
      <path class="b843819c-af39-449d-bc5c-d0772657fef4" d="M366.05227,443.9c0-3.24122,2.501-5.541,5.92188-5.541s5.90136,2.2998,5.90136,5.541c0,3.24023-2.48046,5.541-5.90136,5.541S366.05227,447.14019,366.05227,443.9Zm8.66211,0a2.75936,2.75936,0,1,0-2.74023,2.98046A2.71557,2.71557,0,0,0,374.71438,443.9Z"/>
      <path class="b843819c-af39-449d-bc5c-d0772657fef4" d="M378.91262,448.28081l1.04-2.24023a7.3604,7.3604,0,0,0,3.74024,1.04c1.44043,0,1.98047-.37988,1.98047-.98047,0-1.76074-6.501.04-6.501-4.26074,0-2.041,1.84082-3.48047,4.98144-3.48047a8.85813,8.85813,0,0,1,4.14063.93945l-1.04,2.22071a6.1875,6.1875,0,0,0-3.10059-.79981c-1.40039,0-2.001.43945-2.001,1,0,1.83984,6.502.05957,6.502,4.30078,0,2-1.86035,3.4209-5.08105,3.4209A9.23632,9.23632,0,0,1,378.91262,448.28081Z"/>
      <path class="b843819c-af39-449d-bc5c-d0772657fef4" d="M395.43313,443.9c0-3.24122,2.5-5.541,6.001-5.541a4.94356,4.94356,0,0,1,4.82129,2.74023l-2.4209,1.29981a2.68432,2.68432,0,0,0-2.4209-1.47949,2.985,2.985,0,0,0,0,5.96093A2.6484,2.6484,0,0,0,403.8345,445.4l2.4209,1.32031a4.99255,4.99255,0,0,1-4.82129,2.7207C397.93313,449.441,395.43313,447.14019,395.43313,443.9Z"/>
      <path class="b843819c-af39-449d-bc5c-d0772657fef4" d="M407.97219,434.438h3.12012v14.84277h-3.12012Z"/>
      <path class="b843819c-af39-449d-bc5c-d0772657fef4" d="M413.61282,435.27788a1.78355,1.78355,0,0,1,1.94043-1.74023,1.7515,1.7515,0,0,1,1.94043,1.67969,1.94884,1.94884,0,0,1-3.88086.06054Zm.37988,3.24024h3.12012v10.76269H413.9927Z"/>
      <path class="b843819c-af39-449d-bc5c-d0772657fef4" d="M430.49465,444.77984h-8.1416a2.869,2.869,0,0,0,3.08008,2.16015,3.64893,3.64893,0,0,0,2.70117-1.04l1.66016,1.80078a5.6393,5.6393,0,0,1-4.44141,1.74023c-3.7207,0-6.14062-2.34082-6.14062-5.541a5.47862,5.47862,0,0,1,5.74121-5.541,5.32733,5.32733,0,0,1,5.60059,5.58105C430.55423,444.17925,430.51419,444.52007,430.49465,444.77984Zm-8.18164-1.82031h5.30079a2.68794,2.68794,0,0,0-5.30079,0Z"/>
      <path class="b843819c-af39-449d-bc5c-d0772657fef4" d="M443.6343,443.11968v6.16113h-3.12011v-5.68164c0-1.74023-.80079-2.54-2.18067-2.54-1.5,0-2.58105.91993-2.58105,2.9004v5.32128h-3.12012V438.51812h2.98047v1.26074a4.7121,4.7121,0,0,1,3.56055-1.41992C441.71438,438.35894,443.6343,439.83843,443.6343,443.11968Z"/>
      <path class="b843819c-af39-449d-bc5c-d0772657fef4" d="M453.39309,448.76031a4.45453,4.45453,0,0,1-2.541.68066c-2.54,0-4.02051-1.30078-4.02051-3.86133v-4.4209h-1.66016v-2.40039h1.66016v-2.62011h3.12109v2.62011h2.68067v2.40039h-2.68067v4.38086a1.25518,1.25518,0,0,0,1.33985,1.4209,2.10871,2.10871,0,0,0,1.26074-.40039Z"/>
      <path class="b843819c-af39-449d-bc5c-d0772657fef4" d="M454.11184,448.28081l1.04-2.24023a7.3604,7.3604,0,0,0,3.74024,1.04c1.44043,0,1.98046-.37988,1.98046-.98047,0-1.76074-6.501.04-6.501-4.26074,0-2.041,1.84082-3.48047,4.98144-3.48047a8.85813,8.85813,0,0,1,4.14063.93945l-1.04,2.22071a6.1875,6.1875,0,0,0-3.10059-.79981c-1.40039,0-2.001.43945-2.001,1,0,1.83984,6.502.05957,6.502,4.30078,0,2-1.86035,3.4209-5.08105,3.4209A9.23632,9.23632,0,0,1,454.11184,448.28081Z"/>
    </g>
    <g>
      <path class="b26f4523-bee1-4488-babd-3a66653e677b" d="M34.95109,423.93132h486.608"/>
      <path class="b26f4523-bee1-4488-babd-3a66653e677b" d="M13.80832,423.93132h11.746"/>
      <path class="b26f4523-bee1-4488-babd-3a66653e677b" d="M530.95589,423.93132h11.746"/>
    </g>
  </g>
  <g>
    <path id="b81f6cc6-3b1e-48bb-bb61-8b3c2ba5d6ee" data-name="a" class="bd1af923-065b-4657-889b-ef45ee7b01f2" d="M157.30791,354.44981v2.21177h-14.745v36.1253H95.74766v-36.1253h-14.745v-2.21177h0a38.15308,38.15308,0,1,1,76.30526,0Z"/>
    <path class="b9119940-92a8-4409-8d15-417c86ffce58" d="M142.5629,392.41817H95.74766l-4.05524,10.69012h54.92482Z"/>
    <path class="e7564e86-e202-46d4-8484-b0ad8aa24cc6" d="M89.48121,415.64158a4.18376,4.18376,0,0,1-4.05524-4.42349v-4.0549a4.42621,4.42621,0,0,1,4.05524-4.4235h59.349a4.18376,4.18376,0,0,1,4.05524,4.4235v4.0549a4.4262,4.4262,0,0,1-4.05524,4.42349Z"/>
    <path class="e7564e86-e202-46d4-8484-b0ad8aa24cc6" d="M94.27352,453.97865h-.369a4.091,4.091,0,0,1-4.05524-4.0549V416.01023h10.68977L98.696,449.92375h0A4.711,4.711,0,0,1,94.27352,453.97865Z"/>
    <path class="e7564e86-e202-46d4-8484-b0ad8aa24cc6" d="M148.83025,449.92375h0a4.18366,4.18366,0,0,1-4.42332,4.0549h-.369a4.091,4.091,0,0,1-4.05524-4.0549l-1.84312-33.91352h10.68977Z"/>
    <path class="b9119940-92a8-4409-8d15-417c86ffce58" d="M138.87665,403.47693h0a9.95477,9.95477,0,0,0-11.05876-8.847,9.34405,9.34405,0,0,0-6.63544,3.68625h0a9.87074,9.87074,0,0,0-1.84313,8.4784L129.661,454.3473h14.745Z"/>
    <path class="b9119940-92a8-4409-8d15-417c86ffce58" d="M99.43392,403.47693h0a9.95477,9.95477,0,0,1,11.05876-8.847,9.34405,9.34405,0,0,1,6.63543,3.68625h0a9.87074,9.87074,0,0,1,1.84313,8.4784l-9.9527,47.5527h-14.745Z"/>
    <path class="e83d6449-9602-4088-a4a8-a9c8b8fbdb5e" d="M138.87665,403.47693h0a9.95477,9.95477,0,0,0-11.05876-8.847,9.34405,9.34405,0,0,0-6.63544,3.68625h0a9.87074,9.87074,0,0,0-1.84313,8.4784l.73708,2.949h19.53732Z"/>
    <path class="e83d6449-9602-4088-a4a8-a9c8b8fbdb5e" d="M109.38662,394.63h0a9.97161,9.97161,0,0,0-9.9527,8.847l-.73707,5.898h19.53732l.73707-2.949h0a9.10548,9.10548,0,0,0-1.84313-8.10975h0A9.74325,9.74325,0,0,0,109.38662,394.63Z"/>
    <path class="e83d6449-9602-4088-a4a8-a9c8b8fbdb5e" d="M145.144,456.19042h0a4.18377,4.18377,0,0,0,4.05524-4.42355,3.32038,3.32038,0,0,0-.369-1.84312h0a12.878,12.878,0,0,0-11.05876-6.63527h-2.21211a12.878,12.878,0,0,0-11.05876,6.63527h0c-1.10606,2.21177-.369,4.79208,1.84313,5.52938a3.323,3.323,0,0,0,1.84312.36865H145.144Z"/>
    <path class="e83d6449-9602-4088-a4a8-a9c8b8fbdb5e" d="M93.16747,456.19042h0a4.18376,4.18376,0,0,1-4.05524-4.42355,3.32046,3.32046,0,0,1,.369-1.84312h0A12.878,12.878,0,0,1,100.54,443.28848h2.21211a12.878,12.878,0,0,1,11.05876,6.63527h0c1.10606,2.21177.369,4.79208-1.84312,5.52938a3.323,3.323,0,0,1-1.84313.36865H93.16747Z"/>
    <path class="e83d6449-9602-4088-a4a8-a9c8b8fbdb5e" d="M119.34022,316.11274h0a37.51908,37.51908,0,0,0-16.58814,3.68626h0a16.99279,16.99279,0,0,0,33.17628,0h0A37.52178,37.52178,0,0,0,119.34022,316.11274Z"/>
    <path class="a4edd6ab-f3db-4d98-bd80-52c39a461110" d="M157.30791,354.44981v2.21177h-14.745v36.1253H95.74766v-36.1253h-14.745v-2.21177h0a38.15308,38.15308,0,1,1,76.30526,0Z"/>
    <path class="e83d6449-9602-4088-a4a8-a9c8b8fbdb5e" d="M95.74766,356.29294h-14.745v13.63912h0A15.73341,15.73341,0,0,0,96.85372,385.783h6.26645a7.37251,7.37251,0,1,0,0-14.745H97.59079a2.3787,2.3787,0,0,1-2.21211-2.21177h0V356.29294Z"/>
    <path class="e83d6449-9602-4088-a4a8-a9c8b8fbdb5e" d="M142.5629,356.29294h14.745v13.63912h0a15.73341,15.73341,0,0,1-15.85107,15.8509h-6.26645a7.37251,7.37251,0,0,1,0-14.745h5.1604a2.0645,2.0645,0,0,0,2.21211-1.84313h0Z"/>
    <path class="bd1af923-065b-4657-889b-ef45ee7b01f2" d="M97.95978,371.40654h0a2.37871,2.37871,0,0,1-2.21212-2.21177h0a13.6241,13.6241,0,0,0-2.21211-7.74116h0a7.76282,7.76282,0,0,1-1.84313-4.79214h0a23.84066,23.84066,0,0,1,4.05524-10.69011h0a8.67992,8.67992,0,0,0,0-8.47839H100.171v33.91352Z"/>
    <path class="bd1af923-065b-4657-889b-ef45ee7b01f2" d="M140.35169,371.40654h0a2.37871,2.37871,0,0,0,2.21211-2.21177h0a13.6241,13.6241,0,0,1,2.21211-7.74116h0a7.76276,7.76276,0,0,0,1.84313-4.79214h0a23.84066,23.84066,0,0,0-4.05524-10.69011h0a8.67992,8.67992,0,0,1,0-8.47839h-4.05524v33.91352Z"/>
    <path class="a4edd6ab-f3db-4d98-bd80-52c39a461110" d="M95.74766,337.493h0a8.67994,8.67994,0,0,1,0,8.4784h0a23.84062,23.84062,0,0,0-4.05524,10.69011h0a7.763,7.763,0,0,0,1.84313,4.79214h0c1.47414,2.21177,2.5802,5.16073,2.21211,7.74115h0a2.37871,2.37871,0,0,0,2.21212,2.21178h5.16039"/>
    <path class="a4edd6ab-f3db-4d98-bd80-52c39a461110" d="M142.5629,337.493h0a8.67994,8.67994,0,0,0,0,8.4784h0a23.84062,23.84062,0,0,1,4.05524,10.69011h0a7.76292,7.76292,0,0,1-1.84313,4.79214h0a10.11293,10.11293,0,0,0-2.21211,7.74115h0a2.37871,2.37871,0,0,1-2.21211,2.21178h-5.1604"/>
    <g>
      <path class="a4edd6ab-f3db-4d98-bd80-52c39a461110" d="M93.90454,352.238v40.54878"/>
      <path class="a4edd6ab-f3db-4d98-bd80-52c39a461110" d="M144.406,352.238v40.54878"/>
      <path class="a4edd6ab-f3db-4d98-bd80-52c39a461110" d="M93.90454,379.1477V351.86944"/>
      <path class="a4edd6ab-f3db-4d98-bd80-52c39a461110" d="M144.406,379.1477V351.86944"/>
      <path class="b9119940-92a8-4409-8d15-417c86ffce58" d="M146.24915,392.78682H92.06141a3.7886,3.7886,0,0,1-3.68625-4.0549V384.677h61.92923v4.0549h0a3.68793,3.68793,0,0,1-4.05524,4.0549Z"/>
      <path id="b48e060f-c7f9-4137-94d7-0fbe5a968f71" data-name="p" class="b9119940-92a8-4409-8d15-417c86ffce58" d="M92.06141,385.04567a4.091,4.091,0,0,1-4.05524-4.0549V350.02626a4.091,4.091,0,0,1,4.05524-4.0549h54.18774a4.091,4.091,0,0,1,4.05524,4.0549v30.96451a4.091,4.091,0,0,1-4.05524,4.0549Z"/>
      <path class="a4edd6ab-f3db-4d98-bd80-52c39a461110" d="M92.06141,385.04567a4.091,4.091,0,0,1-4.05524-4.0549V350.02626a4.091,4.091,0,0,1,4.05524-4.0549h54.18774a4.091,4.091,0,0,1,4.05524,4.0549v30.96451a4.091,4.091,0,0,1-4.05524,4.0549Z"/>
      <path class="b6b67f75-c2c7-49a1-913c-62120e2cfd3f" d="M123.02648,359.24189H115.654l-3.68625,6.26662,3.68625,6.26662h7.37251l3.68625-6.26662Zm-3.68626,9.21564a2.58037,2.58037,0,1,1,2.5802-2.58037A2.51975,2.51975,0,0,1,119.34022,368.45753Z"/>
    </g>
    <path id="e4cacb83-81d8-4125-979a-612c384f8454" data-name="g" class="bbecb6e5-f8e6-4586-a72e-714c60665a38" d="M156.57084,278.61592h0a9.81781,9.81781,0,0,0,1.10606-4.4235h0a8.97027,8.97027,0,0,0-8.84665-8.847h0a29.611,29.611,0,0,0-58.612,0h0a8.9078,8.9078,0,0,0-7.3725,10.32152,11.732,11.732,0,0,0,1.106,3.3176h0c-6.63543,1.84313-11.05876,8.4784-9.58462,15.11366a13.04807,13.04807,0,0,0,12.53291,9.58429h0a10.20641,10.20641,0,0,0,4.7923-1.10589h0a10.67681,10.67681,0,0,0,13.27088,5.898,10.43417,10.43417,0,0,0,6.63543-10.69012h0a28.94521,28.94521,0,0,0,15.85107,0h0a10.338,10.338,0,1,0,20.27439,4.05491h0c5.89837,4.0549,13.639,2.21177,17.6942-3.68626s2.21211-13.63912-3.68625-17.694a14.53223,14.53223,0,0,0-5.1613-1.84324Zm-14.745,11.796-1.10606-.36865c.369-.36865,1.10606-1.10589,1.47414-1.47448h0c.0009.73724-.36808,1.10589-.36808,1.84313Z"/>
    <path class="a4edd6ab-f3db-4d98-bd80-52c39a461110" d="M156.57084,278.61592h0a9.81781,9.81781,0,0,0,1.10606-4.4235h0a8.97027,8.97027,0,0,0-8.84665-8.847h0a29.611,29.611,0,0,0-58.612,0h0a8.9078,8.9078,0,0,0-7.3725,10.32152,11.732,11.732,0,0,0,1.106,3.3176h0c-6.63543,1.84313-11.05876,8.4784-9.58462,15.11366a13.04807,13.04807,0,0,0,12.53291,9.58429h0a10.20641,10.20641,0,0,0,4.7923-1.10589h0a10.67681,10.67681,0,0,0,13.27088,5.898,10.43417,10.43417,0,0,0,6.63543-10.69012h0a28.94521,28.94521,0,0,0,15.85107,0h0a10.338,10.338,0,1,0,20.27439,4.05491h0c5.89837,4.0549,13.639,2.21177,17.6942-3.68626s2.21211-13.63912-3.68625-17.694a14.53223,14.53223,0,0,0-5.1613-1.84324Zm-14.745,11.796-1.10606-.36865c.369-.36865,1.10606-1.10589,1.47414-1.47448h0c.0009.73724-.36808,1.10589-.36808,1.84313Z"/>
    <path class="e83d6449-9602-4088-a4a8-a9c8b8fbdb5e" d="M148.09228,285.61977h0A4.87987,4.87987,0,0,1,143.3,290.41192h-.369c-2.21212,13.27053-14.376,22.48616-27.6469,20.27439-10.32169-1.84313-18.80026-9.58428-20.2744-20.27439h-.369a4.79215,4.79215,0,1,1,0-9.58429s5.89836-8.847,12.16481-7.3725c5.89837,1.47448,9.58462-.73724,14.376-8.847h0a16.70734,16.70734,0,0,1,13.27087-8.10974h0a56.35371,56.35371,0,0,0,2.5802,13.27053h0c1.47414,4.0549,3.68625,7.37251,5.89837,11.05876h0a4.96681,4.96681,0,0,1,5.16129,4.79208Z"/>
    <path class="a4edd6ab-f3db-4d98-bd80-52c39a461110" d="M111.59873,297.41583h0a31.55037,31.55037,0,0,0,14.376,0"/>
    <path class="f9321eda-23f7-4a2d-930a-30175fe6235b" d="M106.80642,288.93744a3.12782,3.12782,0,1,1-4.42332,0c1.47414-1.10589,3.68625-1.10589,4.42332,0"/>
    <path class="f9321eda-23f7-4a2d-930a-30175fe6235b" d="M134.82231,288.93744a3.12782,3.12782,0,1,1-4.42333,0,3.36329,3.36329,0,0,1,4.42333,0"/>
    <path class="e83d6449-9602-4088-a4a8-a9c8b8fbdb5e" d="M87.12183,299.775l5.16039-5.16074,5.1604,5.16074-5.1604,5.16073Z"/>
    <path class="e83d6449-9602-4088-a4a8-a9c8b8fbdb5e" d="M141.49389,299.84873l5.16039-5.16073,5.1604,5.16073-5.1604,5.16073Z"/>
    <path class="a4edd6ab-f3db-4d98-bd80-52c39a461110" d="M92.06141,290.04332v5.52938"/>
    <path class="a4edd6ab-f3db-4d98-bd80-52c39a461110" d="M146.24915,289.306v5.898"/>
    <circle class="e5eaf082-95e8-4917-b608-e4b7c03c5a85" cx="109.01854" cy="283.40806" r="3.31744"/>
    <circle class="e5eaf082-95e8-4917-b608-e4b7c03c5a85" cx="128.55586" cy="283.40806" r="3.31744"/>
  </g>
</svg>
