<svg id="a962b666-9fe4-4d77-ba46-0adbb4d83f72" data-name="Layer 1" xmlns="http://www.w3.org/2000/svg" xmlns:xlink="http://www.w3.org/1999/xlink" width="939" height="499" viewBox="0 0 939 499">
  <defs>
    <style>
      .a8f7350e-95d4-441a-8f00-a36e1ff8c43e, .b673b83e-6fc9-46cf-9e01-eade0a2698b0, .bb8c6de3-944f-487e-89b4-e94f90c46994, .bdf6c0f3-9ae4-48c4-8507-77b527b1025d, .beed5093-cde5-4d38-91f6-da8ba3cc1183, .e7cbe1ee-6777-40b1-9430-6f85f90c188c, .f4312cdd-934f-4779-9440-496eda630859, .faa79853-b7c4-4ff4-983e-cb21d90da107 {
        fill: none;
      }

      .a52c6501-a9e4-49cf-8824-7ef7e6b150e7, .af8381e1-60d3-40fa-92e7-17818e6e2938, .b6c187b9-417c-4ebe-a904-d9c2fdc9642c, .bcf57a96-9844-45fa-b52e-913c3d498d44 {
        fill: #ffe211;
      }

      .a23b23cc-11dc-444b-8f31-820b38432c47, .a34f29c3-33f2-45f1-96ac-be2ddde9ff2a, .ab0156e2-844c-4185-b8fb-784059d156d3, .b1040b1c-6baa-48a8-9eef-10118877ba6b, .b40299eb-33ad-4fd5-b3f7-138cc545277a, .ef8cbe71-0a8b-47d9-8bf6-084f958b4777, .f570bd26-3596-48f8-991a-f31a26f2acc6, .f5acba91-6871-46fc-a9e2-06069044b6e4 {
        fill: #fff;
      }

      .ffd0fb56-4800-4b10-bf4e-0c8b79daa915 {
        fill: #474747;
      }

      .a23b23cc-11dc-444b-8f31-820b38432c47, .a52c6501-a9e4-49cf-8824-7ef7e6b150e7, .a85d0820-cea3-4601-90bb-35ffad15f39e, .af8381e1-60d3-40fa-92e7-17818e6e2938, .b1040b1c-6baa-48a8-9eef-10118877ba6b, .b6c187b9-417c-4ebe-a904-d9c2fdc9642c, .bb8c6de3-944f-487e-89b4-e94f90c46994, .e7cbe1ee-6777-40b1-9430-6f85f90c188c, .ef8cbe71-0a8b-47d9-8bf6-084f958b4777, .f570bd26-3596-48f8-991a-f31a26f2acc6, .faa79853-b7c4-4ff4-983e-cb21d90da107, .fab8d39e-ee71-4502-98c9-e928d3091a5c {
        stroke: #474747;
      }

      .a8f7350e-95d4-441a-8f00-a36e1ff8c43e, .af8381e1-60d3-40fa-92e7-17818e6e2938, .b1040b1c-6baa-48a8-9eef-10118877ba6b, .b40299eb-33ad-4fd5-b3f7-138cc545277a, .b673b83e-6fc9-46cf-9e01-eade0a2698b0, .bb8c6de3-944f-487e-89b4-e94f90c46994, .bdf6c0f3-9ae4-48c4-8507-77b527b1025d, .f4312cdd-934f-4779-9440-496eda630859, .faa79853-b7c4-4ff4-983e-cb21d90da107 {
        stroke-linecap: round;
      }

      .a52c6501-a9e4-49cf-8824-7ef7e6b150e7, .a8f7350e-95d4-441a-8f00-a36e1ff8c43e, .af8381e1-60d3-40fa-92e7-17818e6e2938, .b1040b1c-6baa-48a8-9eef-10118877ba6b, .b40299eb-33ad-4fd5-b3f7-138cc545277a, .b673b83e-6fc9-46cf-9e01-eade0a2698b0, .bb8c6de3-944f-487e-89b4-e94f90c46994, .bdd41b87-e928-4151-accc-47f36b29a7bb, .bdf6c0f3-9ae4-48c4-8507-77b527b1025d, .e7cbe1ee-6777-40b1-9430-6f85f90c188c, .f4312cdd-934f-4779-9440-496eda630859, .faa79853-b7c4-4ff4-983e-cb21d90da107, .fab8d39e-ee71-4502-98c9-e928d3091a5c {
        stroke-linejoin: round;
      }

      .a23b23cc-11dc-444b-8f31-820b38432c47, .a52c6501-a9e4-49cf-8824-7ef7e6b150e7, .a85d0820-cea3-4601-90bb-35ffad15f39e, .af8381e1-60d3-40fa-92e7-17818e6e2938, .b1040b1c-6baa-48a8-9eef-10118877ba6b, .b6c187b9-417c-4ebe-a904-d9c2fdc9642c, .bdf6c0f3-9ae4-48c4-8507-77b527b1025d, .e7cbe1ee-6777-40b1-9430-6f85f90c188c, .f570bd26-3596-48f8-991a-f31a26f2acc6, .faa79853-b7c4-4ff4-983e-cb21d90da107, .fab8d39e-ee71-4502-98c9-e928d3091a5c {
        stroke-width: 3.61663px;
      }

      .a85d0820-cea3-4601-90bb-35ffad15f39e, .b6c187b9-417c-4ebe-a904-d9c2fdc9642c, .ef8cbe71-0a8b-47d9-8bf6-084f958b4777, .f570bd26-3596-48f8-991a-f31a26f2acc6 {
        stroke-miterlimit: 10;
      }

      .a85d0820-cea3-4601-90bb-35ffad15f39e, .fab8d39e-ee71-4502-98c9-e928d3091a5c {
        fill: #ffea83;
      }

      .a8f7350e-95d4-441a-8f00-a36e1ff8c43e, .b40299eb-33ad-4fd5-b3f7-138cc545277a, .b673b83e-6fc9-46cf-9e01-eade0a2698b0, .bb8c6de3-944f-487e-89b4-e94f90c46994, .bdd41b87-e928-4151-accc-47f36b29a7bb, .ef8cbe71-0a8b-47d9-8bf6-084f958b4777, .f4312cdd-934f-4779-9440-496eda630859 {
        stroke-width: 3.3px;
      }

      .bef772e1-c466-45ab-b7a4-43d1c2d777b3 {
        fill: #c6c6c6;
      }

      .be2ceddc-8d42-4d75-8e39-c85948c49023 {
        clip-path: url(#a1e43eba-c207-4306-8064-eb1e730a55ee);
      }

      .b673b83e-6fc9-46cf-9e01-eade0a2698b0, .bdd41b87-e928-4151-accc-47f36b29a7bb {
        stroke: #444;
      }

      .bdd41b87-e928-4151-accc-47f36b29a7bb {
        fill: #7f7f7f;
      }

      .a8f7350e-95d4-441a-8f00-a36e1ff8c43e {
        stroke: #ffe211;
      }

      .f5acba91-6871-46fc-a9e2-06069044b6e4 {
        opacity: 0.75;
        isolation: isolate;
      }

      .b40299eb-33ad-4fd5-b3f7-138cc545277a, .f4312cdd-934f-4779-9440-496eda630859 {
        stroke: #2a2a2a;
      }

      .af457dbd-555d-40a0-aa8b-77376fff004a {
        fill: #2a2a2a;
      }

      .a91145ba-0809-4436-85ac-3ecb7459e886 {
        fill: #444;
      }

      .bdf6c0f3-9ae4-48c4-8507-77b527b1025d {
        stroke: #4a4a4a;
      }

      .a34f29c3-33f2-45f1-96ac-be2ddde9ff2a {
        opacity: 0.5;
      }
    </style>
    <clipPath id="a1e43eba-c207-4306-8064-eb1e730a55ee">
      <path id="ac8f7fa6-3018-484f-858a-06c24a064498" data-name="SVGID" class="beed5093-cde5-4d38-91f6-da8ba3cc1183" d="M656.10069,334.771c-3.684-.15827-7.26107-2.77225-7.10284-6.45553l7.543-175.577c.15823-3.68329,3.33327-6.00719,7.63031-5.82259L896.841,156.91157c3.684.15827,7.26107,2.77225,7.10284,6.45554l-7.543,175.577c-.15823,3.68329-3.33327,6.0072-7.63031,5.82259Z"/>
    </clipPath>
  </defs>
  <title>Rea -Artboard 105554</title>
  <rect class="bcf57a96-9844-45fa-b52e-913c3d498d44" width="939" height="499"/>
  <g>
    <g>
      <g>
        <rect class="ab0156e2-844c-4185-b8fb-784059d156d3" x="2" y="20.79194" width="556.64835" height="141.52733" rx="25.06467"/>
        <polygon class="ab0156e2-844c-4185-b8fb-784059d156d3" points="384.401 160.487 424.877 200.963 424.877 160.487 384.401 160.487"/>
      </g>
      <g>
        <path class="ffd0fb56-4800-4b10-bf4e-0c8b79daa915" d="M37.66881,71.525l1.97168-2.36719a3.52192,3.52192,0,0,0,2.84863,1.6875c1.42481,0,2.16992-.85449,2.16992-2.542v-7.2959H39.26842V58.15874h8.918V68.106c0,3.791-1.90625,5.65332-5.52149,5.65332A6.17136,6.17136,0,0,1,37.66881,71.525Z"/>
        <path class="ffd0fb56-4800-4b10-bf4e-0c8b79daa915" d="M62.93639,68.567h-8.918a3.14264,3.14264,0,0,0,3.374,2.36621,3.99705,3.99705,0,0,0,2.958-1.13965l1.81836,1.97168a6.1716,6.1716,0,0,1-4.86426,1.90625c-4.07519,0-6.72656-2.56348-6.72656-6.06934a6.00182,6.00182,0,0,1,6.28906-6.06933,5.8352,5.8352,0,0,1,6.13477,6.11328C63.00182,67.90874,62.95787,68.28179,62.93639,68.567Zm-8.96192-1.99414h5.80664a2.94443,2.94443,0,0,0-5.80664,0Z"/>
        <path class="ffd0fb56-4800-4b10-bf4e-0c8b79daa915" d="M70.34752,72.40093l1.13965-2.4541a8.05517,8.05517,0,0,0,4.09668,1.13965c1.57812,0,2.16992-.416,2.16992-1.07422,0-1.92773-7.12207.04395-7.12207-4.667,0-2.23438,2.0166-3.8125,5.45605-3.8125A9.69408,9.69408,0,0,1,80.62389,62.563l-1.13965,2.43164a6.769,6.769,0,0,0-3.39649-.876c-1.5332,0-2.19043.48144-2.19043,1.0957,0,2.01562,7.1211.06543,7.1211,4.71094,0,2.19043-2.03809,3.74609-5.56543,3.74609A10.11458,10.11458,0,0,1,70.34752,72.40093Z"/>
        <path class="ffd0fb56-4800-4b10-bf4e-0c8b79daa915" d="M93.55455,66.77007v6.72656H90.35533V72.02886a3.8696,3.8696,0,0,1-3.59375,1.64258c-2.76074,0-4.40429-1.5332-4.40429-3.57129,0-2.08105,1.46777-3.52734,5.06152-3.52734h2.7168c0-1.46875-.876-2.32325-2.7168-2.32325a5.6744,5.6744,0,0,0-3.39649,1.09571l-1.22656-2.3877a9.05749,9.05749,0,0,1,5.083-1.4248C91.47252,61.53277,93.55455,63.19781,93.55455,66.77007Zm-3.41894,3.002V68.567H87.79186c-1.59961,0-2.10352.59082-2.10352,1.37988,0,.85449.72266,1.4248,1.92773,1.4248A2.51791,2.51791,0,0,0,90.13561,69.772Z"/>
        <path class="ffd0fb56-4800-4b10-bf4e-0c8b79daa915" d="M96.23131,58.15874a1.95359,1.95359,0,0,1,2.126-1.90625,1.9181,1.9181,0,0,1,2.125,1.83985,2.1347,2.1347,0,0,1-4.251.0664Zm.416,3.54981h3.419V73.49663h-3.419Z"/>
        <path class="ffd0fb56-4800-4b10-bf4e-0c8b79daa915" d="M102.10533,72.40093l1.13965-2.4541a8.05517,8.05517,0,0,0,4.09668,1.13965c1.57813,0,2.16992-.416,2.16992-1.07422,0-1.92773-7.12207.04395-7.12207-4.667,0-2.23438,2.0166-3.8125,5.45606-3.8125A9.694,9.694,0,0,1,112.3817,62.563l-1.13965,2.43164a6.769,6.769,0,0,0-3.39648-.876c-1.53321,0-2.19043.48144-2.19043,1.0957,0,2.01562,7.12109.06543,7.12109,4.71094,0,2.19043-2.03809,3.74609-5.56543,3.74609A10.11461,10.11461,0,0,1,102.10533,72.40093Z"/>
        <path class="ffd0fb56-4800-4b10-bf4e-0c8b79daa915" d="M120.20885,67.6021c0-3.5498,2.73926-6.06933,6.57324-6.06933,2.47656,0,4.42676,1.07422,5.28125,3.00195L129.412,65.95855a2.94058,2.94058,0,0,0-2.65136-1.62109,3.26959,3.26959,0,0,0,0,6.52929,2.90014,2.90014,0,0,0,2.65136-1.62109l2.65137,1.44629a5.4681,5.4681,0,0,1-5.28125,2.97949C122.94811,73.67144,120.20885,71.15191,120.20885,67.6021Z"/>
        <path class="ffd0fb56-4800-4b10-bf4e-0c8b79daa915" d="M145.36705,68.567h-8.918a3.14265,3.14265,0,0,0,3.374,2.36621,3.997,3.997,0,0,0,2.958-1.13965l1.81836,1.97168a6.17158,6.17158,0,0,1-4.86425,1.90625c-4.0752,0-6.72657-2.56348-6.72657-6.06934a6.00183,6.00183,0,0,1,6.28907-6.06933,5.83519,5.83519,0,0,1,6.13476,6.11328C145.43248,67.90874,145.38854,68.28179,145.36705,68.567Zm-8.96191-1.99414h5.80664a2.94443,2.94443,0,0,0-5.80664,0Z"/>
        <path class="ffd0fb56-4800-4b10-bf4e-0c8b79daa915" d="M165.88072,61.70855V77.74761h-3.418v-5.5a4.52819,4.52819,0,0,1-3.52734,1.42383,5.73033,5.73033,0,0,1-5.89453-6.06934,5.73032,5.73032,0,0,1,5.89453-6.06933,4.53308,4.53308,0,0,1,3.68066,1.53418v-1.3584Zm-3.35254,5.89355a3.02242,3.02242,0,1,0-3.00195,3.26465A2.98682,2.98682,0,0,0,162.52818,67.6021Z"/>
        <path class="ffd0fb56-4800-4b10-bf4e-0c8b79daa915" d="M180.91686,61.70855V73.49663h-3.24317V72.09429a4.76741,4.76741,0,0,1-3.65918,1.57715c-2.958,0-5.04-1.665-5.04-5.30176V61.70855h3.418v6.15723c0,1.97168.87695,2.84765,2.38867,2.84765,1.57813,0,2.7168-1.00781,2.7168-3.17676V61.70855Z"/>
        <path class="ffd0fb56-4800-4b10-bf4e-0c8b79daa915" d="M195.579,68.567h-8.918a3.14263,3.14263,0,0,0,3.374,2.36621,3.99707,3.99707,0,0,0,2.958-1.13965l1.81836,1.97168a6.1716,6.1716,0,0,1-4.86426,1.90625c-4.0752,0-6.72656-2.56348-6.72656-6.06934a6.00182,6.00182,0,0,1,6.28906-6.06933,5.83519,5.83519,0,0,1,6.13476,6.11328C195.64439,67.90874,195.60045,68.28179,195.579,68.567Zm-8.96192-1.99414h5.80664a2.94443,2.94443,0,0,0-5.80664,0Z"/>
        <path class="ffd0fb56-4800-4b10-bf4e-0c8b79daa915" d="M200.51354,77.26519l.92089-2.47559a2.5065,2.5065,0,0,0,1.44629.416c.8545,0,1.40235-.54785,1.40235-1.709V61.70855h3.418v11.7666a4.08887,4.08887,0,0,1-4.44825,4.44727A4.98031,4.98031,0,0,1,200.51354,77.26519Zm3.35253-19.10645a1.9536,1.9536,0,0,1,2.126-1.90625,1.91809,1.91809,0,0,1,2.125,1.83985,2.1347,2.1347,0,0,1-4.251.0664Z"/>
        <path class="ffd0fb56-4800-4b10-bf4e-0c8b79daa915" d="M210.35338,58.15874h2.915l-.24121,6.22266h-2.4541Z"/>
        <path class="ffd0fb56-4800-4b10-bf4e-0c8b79daa915" d="M226.329,66.77007v6.72656h-3.19922V72.02886a3.86963,3.86963,0,0,1-3.59375,1.64258c-2.76075,0-4.4043-1.5332-4.4043-3.57129,0-2.08105,1.46875-3.52734,5.06152-3.52734H222.911c0-1.46875-.877-2.32325-2.71778-2.32325a5.67219,5.67219,0,0,0-3.39648,1.09571l-1.22656-2.3877a9.05743,9.05743,0,0,1,5.083-1.4248C224.24693,61.53277,226.329,63.19781,226.329,66.77007Zm-3.418,3.002V68.567h-2.34473c-1.59961,0-2.10352.59082-2.10352,1.37988,0,.85449.72266,1.4248,1.92774,1.4248A2.52,2.52,0,0,0,222.911,69.772Z"/>
        <path class="ffd0fb56-4800-4b10-bf4e-0c8b79daa915" d="M229.00572,58.15874a1.9536,1.9536,0,0,1,2.126-1.90625,1.91809,1.91809,0,0,1,2.125,1.83985,2.1347,2.1347,0,0,1-4.251.0664Zm.417,3.54981h3.418V73.49663h-3.418Z"/>
        <path class="ffd0fb56-4800-4b10-bf4e-0c8b79daa915" d="M252.65123,66.77007v6.72656H249.452V72.02886a3.8696,3.8696,0,0,1-3.59375,1.64258c-2.76074,0-4.40429-1.5332-4.40429-3.57129,0-2.08105,1.46875-3.52734,5.06152-3.52734h2.71777c0-1.46875-.87695-2.32325-2.71777-2.32325a5.67224,5.67224,0,0,0-3.39649,1.09571l-1.22656-2.3877a9.05749,9.05749,0,0,1,5.083-1.4248C250.5692,61.53277,252.65123,63.19781,252.65123,66.77007Zm-6.00391-6.57422-3.96582-3.15527h3.68067l2.958,3.15527Zm2.58594,9.57618V68.567h-2.34472c-1.59961,0-2.10352.59082-2.10352,1.37988,0,.85449.72266,1.4248,1.92773,1.4248A2.52,2.52,0,0,0,249.23326,69.772Z"/>
        <path class="ffd0fb56-4800-4b10-bf4e-0c8b79daa915" d="M265.69322,61.97124h3.02442v2.62891h-2.93653v8.89648h-3.418V64.60015h-1.81933V61.97124h1.81933v-.52636c0-2.65137,1.6211-4.38184,4.55762-4.38184a4.84435,4.84435,0,0,1,2.60742.63574l-.89843,2.47559a2.3965,2.3965,0,0,0-1.38086-.416c-1.00782,0-1.55567.54786-1.55567,1.709Z"/>
        <path class="ffd0fb56-4800-4b10-bf4e-0c8b79daa915" d="M280.63951,66.77007v6.72656h-3.19922V72.02886a3.8696,3.8696,0,0,1-3.59375,1.64258c-2.76074,0-4.40429-1.5332-4.40429-3.57129,0-2.08105,1.46875-3.52734,5.06152-3.52734h2.71777c0-1.46875-.877-2.32325-2.71777-2.32325a5.67219,5.67219,0,0,0-3.39648,1.09571l-1.22657-2.3877a9.05749,9.05749,0,0,1,5.083-1.4248C278.55748,61.53277,280.63951,63.19781,280.63951,66.77007Zm-3.418,3.002V68.567h-2.34472c-1.59961,0-2.10352.59082-2.10352,1.37988,0,.85449.72266,1.4248,1.92774,1.4248A2.52,2.52,0,0,0,277.22154,69.772Z"/>
        <path class="ffd0fb56-4800-4b10-bf4e-0c8b79daa915" d="M283.31627,58.15874a1.95359,1.95359,0,0,1,2.126-1.90625,1.9181,1.9181,0,0,1,2.125,1.83985,2.1347,2.1347,0,0,1-4.251.0664Zm.417,3.54981h3.418V73.49663h-3.418Z"/>
        <path class="ffd0fb56-4800-4b10-bf4e-0c8b79daa915" d="M297.6483,61.53277V64.688c-.28516-.02148-.50391-.04394-.76758-.04394-1.88379,0-3.13281,1.03027-3.13281,3.28711v5.56542H290.329V61.70855h3.26562v1.55566A4.75545,4.75545,0,0,1,297.6483,61.53277Z"/>
        <path class="ffd0fb56-4800-4b10-bf4e-0c8b79daa915" d="M311.06139,68.567h-8.918a3.14264,3.14264,0,0,0,3.374,2.36621,3.99705,3.99705,0,0,0,2.958-1.13965l1.81836,1.97168a6.1716,6.1716,0,0,1-4.86426,1.90625c-4.07519,0-6.72656-2.56348-6.72656-6.06934a6.00182,6.00182,0,0,1,6.28906-6.06933,5.8352,5.8352,0,0,1,6.13477,6.11328C311.12682,67.90874,311.08287,68.28179,311.06139,68.567Zm-8.96192-1.99414h5.80664a2.94443,2.94443,0,0,0-5.80664,0Z"/>
        <path class="ffd0fb56-4800-4b10-bf4e-0c8b79daa915" d="M331.09361,68.567h-8.918a3.14265,3.14265,0,0,0,3.374,2.36621,3.99707,3.99707,0,0,0,2.958-1.13965l1.81836,1.97168a6.17162,6.17162,0,0,1-4.86426,1.90625c-4.0752,0-6.72656-2.56348-6.72656-6.06934a6.00182,6.00182,0,0,1,6.28906-6.06933,5.83519,5.83519,0,0,1,6.13476,6.11328C331.159,67.90874,331.1151,68.28179,331.09361,68.567Zm-8.96191-1.99414h5.80664a2.94443,2.94443,0,0,0-5.80664,0Z"/>
        <path class="ffd0fb56-4800-4b10-bf4e-0c8b79daa915" d="M341.04479,72.9273a4.88337,4.88337,0,0,1-2.78223.74414c-2.7832,0-4.4043-1.42383-4.4043-4.22852V64.60015H332.0399V61.97124h1.81836V59.10113h3.418v2.87011h2.93652v2.62891h-2.93652V69.399a1.37482,1.37482,0,0,0,1.46777,1.55566,2.30817,2.30817,0,0,0,1.38086-.4375Z"/>
        <path class="ffd0fb56-4800-4b10-bf4e-0c8b79daa915" d="M345.56236,77.26519l.9209-2.47559a2.5065,2.5065,0,0,0,1.44629.416c.85449,0,1.40234-.54785,1.40234-1.709V61.70855h3.418v11.7666a4.08887,4.08887,0,0,1-4.44824,4.44727A4.98034,4.98034,0,0,1,345.56236,77.26519Zm3.35254-19.10645a1.95359,1.95359,0,0,1,2.126-1.90625,1.91809,1.91809,0,0,1,2.125,1.83985,2.1347,2.1347,0,0,1-4.251.0664Z"/>
        <path class="ffd0fb56-4800-4b10-bf4e-0c8b79daa915" d="M367.38854,68.567h-8.918a3.14264,3.14264,0,0,0,3.374,2.36621,3.99707,3.99707,0,0,0,2.958-1.13965l1.81836,1.97168a6.1716,6.1716,0,0,1-4.86426,1.90625c-4.0752,0-6.72656-2.56348-6.72656-6.06934a6.00182,6.00182,0,0,1,6.28906-6.06933,5.8352,5.8352,0,0,1,6.13477,6.11328C367.454,67.90874,367.41,68.28179,367.38854,68.567Zm-8.96192-1.99414h5.80664a2.94443,2.94443,0,0,0-5.80664,0Z"/>
        <path class="ffd0fb56-4800-4b10-bf4e-0c8b79daa915" d="M395.85631,66.74761v6.749h-3.418V67.274c0-1.90625-.85449-2.7832-2.23535-2.7832-1.5332,0-2.60742.98632-2.60742,3.08984v5.916h-3.418V67.274c0-1.90625-.81055-2.7832-2.23535-2.7832-1.51172,0-2.585.98632-2.585,3.08984v5.916h-3.41895V61.70855H379.204V63.067a4.77313,4.77313,0,0,1,3.70312-1.53418,4.40079,4.40079,0,0,1,3.87793,1.92871,5.301,5.301,0,0,1,4.251-1.92871C393.84068,61.53277,395.85631,63.15386,395.85631,66.74761Z"/>
        <path class="ffd0fb56-4800-4b10-bf4e-0c8b79daa915" d="M398.18541,67.6021c0-3.5498,2.73926-6.06933,6.48535-6.06933,3.74707,0,6.46485,2.51953,6.46485,6.06933s-2.71778,6.06934-6.46485,6.06934C400.92467,73.67144,398.18541,71.15191,398.18541,67.6021Zm9.48731,0a3.02242,3.02242,0,1,0-3.002,3.26465A2.97482,2.97482,0,0,0,407.67272,67.6021Z"/>
        <path class="ffd0fb56-4800-4b10-bf4e-0c8b79daa915" d="M425.46861,66.74761v6.749h-3.418V67.274c0-1.90625-.87695-2.7832-2.38867-2.7832-1.64355,0-2.82617,1.00781-2.82617,3.17773v5.82812h-3.41894V61.70855h3.26562v1.37988a5.1611,5.1611,0,0,1,3.90039-1.55566C423.3651,61.53277,425.46861,63.15386,425.46861,66.74761Z"/>
        <path class="ffd0fb56-4800-4b10-bf4e-0c8b79daa915" d="M436.16588,72.9273a4.88335,4.88335,0,0,1-2.78223.74414c-2.7832,0-4.40429-1.42383-4.40429-4.22852V64.60015H427.161V61.97124h1.81836V59.10113h3.418v2.87011h2.93653v2.62891h-2.93653V69.399a1.37483,1.37483,0,0,0,1.46778,1.55566,2.30819,2.30819,0,0,0,1.38086-.4375Z"/>
        <path class="ffd0fb56-4800-4b10-bf4e-0c8b79daa915" d="M445.4149,61.53277V64.688c-.28515-.02148-.5039-.04394-.76758-.04394-1.88378,0-3.13281,1.03027-3.13281,3.28711v5.56542h-3.418V61.70855h3.26465v1.55566A4.75545,4.75545,0,0,1,445.4149,61.53277Z"/>
        <path class="ffd0fb56-4800-4b10-bf4e-0c8b79daa915" d="M458.828,68.567H449.91a3.14264,3.14264,0,0,0,3.374,2.36621,3.99705,3.99705,0,0,0,2.958-1.13965l1.81836,1.97168a6.1716,6.1716,0,0,1-4.86426,1.90625c-4.07519,0-6.72656-2.56348-6.72656-6.06934a6.00182,6.00182,0,0,1,6.28906-6.06933,5.8352,5.8352,0,0,1,6.13477,6.11328C458.89342,67.90874,458.84947,68.28179,458.828,68.567Zm-8.96192-1.99414h5.80665a2.94444,2.94444,0,0,0-5.80665,0Z"/>
        <path class="ffd0fb56-4800-4b10-bf4e-0c8b79daa915" d="M466.50182,67.6021c0-3.5498,2.73925-6.06933,6.48535-6.06933,3.74707,0,6.46484,2.51953,6.46484,6.06933s-2.71777,6.06934-6.46484,6.06934C469.24107,73.67144,466.50182,71.15191,466.50182,67.6021Zm9.4873,0a3.02242,3.02242,0,1,0-3.002,3.26465A2.97482,2.97482,0,0,0,475.98912,67.6021Z"/>
        <path class="ffd0fb56-4800-4b10-bf4e-0c8b79daa915" d="M493.61119,61.70855V73.49663H490.368V72.09429a4.76741,4.76741,0,0,1-3.65918,1.57715c-2.958,0-5.04-1.665-5.04-5.30176V61.70855h3.418v6.15723c0,1.97168.877,2.84765,2.38867,2.84765,1.57812,0,2.7168-1.00781,2.7168-3.17676V61.70855Zm-6.66113-1.5127-3.9668-3.15527h3.68164l2.958,3.15527Z"/>
        <path class="ffd0fb56-4800-4b10-bf4e-0c8b79daa915" d="M35.98131,103.566l.9209-2.47559a2.50648,2.50648,0,0,0,1.44629.416c.85449,0,1.40234-.54785,1.40234-1.709V88.00933h3.418v11.7666a4.08887,4.08887,0,0,1-4.44824,4.44727A4.98034,4.98034,0,0,1,35.98131,103.566Zm3.35254-19.10644a1.95358,1.95358,0,0,1,2.126-1.90625,1.91809,1.91809,0,0,1,2.125,1.83984,2.13469,2.13469,0,0,1-4.251.06641Z"/>
        <path class="ffd0fb56-4800-4b10-bf4e-0c8b79daa915" d="M45.82115,84.45953h2.915L48.495,90.68218h-2.4541Z"/>
        <path class="ffd0fb56-4800-4b10-bf4e-0c8b79daa915" d="M62.8485,94.86773h-8.918a3.14264,3.14264,0,0,0,3.374,2.36621,3.99707,3.99707,0,0,0,2.958-1.13965L62.08092,98.066a6.1716,6.1716,0,0,1-4.86426,1.90625c-4.07519,0-6.72656-2.56348-6.72656-6.06934a6.00182,6.00182,0,0,1,6.28906-6.06933,5.8352,5.8352,0,0,1,6.13477,6.11328C62.91393,94.20953,62.87,94.58257,62.8485,94.86773Zm-8.96192-1.99414h5.80664a2.94443,2.94443,0,0,0-5.80664,0Z"/>
        <path class="ffd0fb56-4800-4b10-bf4e-0c8b79daa915" d="M77.24791,93.04839v6.749h-3.418V93.57476c0-1.90625-.87695-2.7832-2.38867-2.7832-1.64355,0-2.82617,1.00781-2.82617,3.17773v5.82813H65.19615V88.00933h3.26563v1.37988a5.1611,5.1611,0,0,1,3.90039-1.55566C75.14439,87.83355,77.24791,89.45464,77.24791,93.04839Z"/>
        <path class="ffd0fb56-4800-4b10-bf4e-0c8b79daa915" d="M85.40416,98.70171l1.13965-2.4541a8.05517,8.05517,0,0,0,4.09668,1.13965c1.57812,0,2.16992-.416,2.16992-1.07422,0-1.92773-7.12207.04395-7.12207-4.667,0-2.23438,2.0166-3.8125,5.45605-3.8125a9.69417,9.69417,0,0,1,4.53614,1.03027l-1.13965,2.43164a6.769,6.769,0,0,0-3.39649-.876c-1.5332,0-2.19042.48144-2.19042,1.0957,0,2.01562,7.12109.06543,7.12109,4.71094,0,2.19043-2.03809,3.74609-5.56543,3.74609A10.11448,10.11448,0,0,1,85.40416,98.70171Z"/>
        <path class="ffd0fb56-4800-4b10-bf4e-0c8b79daa915" d="M110.05846,88.00933V99.79742h-3.24317V98.39507a4.76736,4.76736,0,0,1-3.65918,1.57715c-2.958,0-5.04-1.665-5.04-5.30176V88.00933h3.418v6.15723c0,1.97168.877,2.84765,2.38868,2.84765,1.57812,0,2.71679-1.00781,2.71679-3.17675V88.00933Z"/>
        <path class="ffd0fb56-4800-4b10-bf4e-0c8b79daa915" d="M112.82213,84.45953a1.95359,1.95359,0,0,1,2.126-1.90625,1.91809,1.91809,0,0,1,2.125,1.83984,2.1347,2.1347,0,0,1-4.251.06641Zm.417,3.5498h3.418V99.79742h-3.418Z"/>
        <path class="ffd0fb56-4800-4b10-bf4e-0c8b79daa915" d="M118.69713,98.70171l1.13965-2.4541a8.05517,8.05517,0,0,0,4.09668,1.13965c1.57812,0,2.16992-.416,2.16992-1.07422,0-1.92773-7.12207.04395-7.12207-4.667,0-2.23438,2.0166-3.8125,5.45605-3.8125a9.6942,9.6942,0,0,1,4.53614,1.03027l-1.13965,2.43164a6.769,6.769,0,0,0-3.39649-.876c-1.5332,0-2.19043.48144-2.19043,1.0957,0,2.01562,7.1211.06543,7.1211,4.71094,0,2.19043-2.03809,3.74609-5.56543,3.74609A10.11448,10.11448,0,0,1,118.69713,98.70171Z"/>
        <path class="ffd0fb56-4800-4b10-bf4e-0c8b79daa915" d="M149.37682,88.00933l-4.97364,11.78809h-3.52832l-4.95214-11.78809H139.451l3.26464,8.01953,3.375-8.01953Z"/>
        <path class="ffd0fb56-4800-4b10-bf4e-0c8b79daa915" d="M150.36705,84.45953a1.95359,1.95359,0,0,1,2.126-1.90625,1.91809,1.91809,0,0,1,2.125,1.83984,2.1347,2.1347,0,0,1-4.251.06641Zm.417,3.5498h3.418V99.79742h-3.418Z"/>
        <path class="ffd0fb56-4800-4b10-bf4e-0c8b79daa915" d="M167.81041,93.07085v6.72657h-3.19922V98.32964a3.8696,3.8696,0,0,1-3.59375,1.64258c-2.76074,0-4.4043-1.5332-4.4043-3.57129,0-2.08105,1.46778-3.52734,5.06153-3.52734h2.7168c0-1.46875-.876-2.32324-2.7168-2.32324a5.67437,5.67437,0,0,0-3.39649,1.0957l-1.22656-2.3877a9.05757,9.05757,0,0,1,5.083-1.4248C165.72838,87.83355,167.81041,89.49859,167.81041,93.07085Zm-3.41894,3.002V94.86773h-2.34375c-1.59961,0-2.10352.59082-2.10352,1.37988,0,.85449.72266,1.42481,1.92773,1.42481A2.51792,2.51792,0,0,0,164.39147,96.07281Z"/>
        <path class="ffd0fb56-4800-4b10-bf4e-0c8b79daa915" d="M189.11314,83.53863V99.79742H185.8485V98.439a4.53548,4.53548,0,0,1-3.68067,1.5332,6.07193,6.07193,0,0,1,0-12.13867,4.527,4.527,0,0,1,3.52735,1.4248V83.53863Zm-3.35253,10.36425a3.02242,3.02242,0,1,0-3.002,3.26465A2.98684,2.98684,0,0,0,185.76061,93.90288Z"/>
        <path class="ffd0fb56-4800-4b10-bf4e-0c8b79daa915" d="M203.75377,94.86773h-8.918a3.14265,3.14265,0,0,0,3.374,2.36621,3.997,3.997,0,0,0,2.958-1.13965l1.81836,1.97168a6.17159,6.17159,0,0,1-4.86426,1.90625c-4.07519,0-6.72656-2.56348-6.72656-6.06934a6.00182,6.00182,0,0,1,6.28906-6.06933,5.8352,5.8352,0,0,1,6.13477,6.11328C203.8192,94.20953,203.77525,94.58257,203.75377,94.86773Zm-8.96191-1.99414h5.80664a2.94443,2.94443,0,0,0-5.80664,0Z"/>
        <path class="ffd0fb56-4800-4b10-bf4e-0c8b79daa915" d="M204.96275,98.70171l1.13965-2.4541a8.05517,8.05517,0,0,0,4.09668,1.13965c1.57813,0,2.16992-.416,2.16992-1.07422,0-1.92773-7.12207.04395-7.12207-4.667,0-2.23438,2.01661-3.8125,5.45606-3.8125a9.69416,9.69416,0,0,1,4.53613,1.03027l-1.13965,2.43164a6.769,6.769,0,0,0-3.39648-.876c-1.5332,0-2.19043.48144-2.19043,1.0957,0,2.01562,7.12109.06543,7.12109,4.71094,0,2.19043-2.03808,3.74609-5.56543,3.74609A10.11451,10.11451,0,0,1,204.96275,98.70171Z"/>
        <path class="ffd0fb56-4800-4b10-bf4e-0c8b79daa915" d="M236.78307,93.90288a5.72521,5.72521,0,0,1-5.87207,6.06934,4.57572,4.57572,0,0,1-3.54981-1.42383v5.5h-3.41894V88.00933h3.26562v1.3584a4.57854,4.57854,0,0,1,3.70313-1.53418A5.72521,5.72521,0,0,1,236.78307,93.90288Zm-3.46192,0a3.01252,3.01252,0,1,0-3.00195,3.26465A2.97534,2.97534,0,0,0,233.32115,93.90288Z"/>
        <path class="ffd0fb56-4800-4b10-bf4e-0c8b79daa915" d="M251.11705,93.04839v6.749h-3.418V93.57476c0-1.90625-.877-2.7832-2.38867-2.7832-1.64355,0-2.82617,1.00781-2.82617,3.17773v5.82813h-3.41895V83.53863h3.41895v5.69726a5.18148,5.18148,0,0,1,3.74707-1.40234C249.01354,87.83355,251.11705,89.45464,251.11705,93.04839Z"/>
        <path class="ffd0fb56-4800-4b10-bf4e-0c8b79daa915" d="M253.46568,93.90288c0-3.5498,2.73926-6.06933,6.48633-6.06933,3.7461,0,6.46387,2.51953,6.46387,6.06933s-2.71777,6.06934-6.46387,6.06934C256.20494,99.97222,253.46568,97.45269,253.46568,93.90288Zm9.48731,0a3.02242,3.02242,0,1,0-3.001,3.26465A2.97463,2.97463,0,0,0,262.953,93.90288Z"/>
        <path class="ffd0fb56-4800-4b10-bf4e-0c8b79daa915" d="M276.30064,99.22808a4.88331,4.88331,0,0,1-2.78222.74414c-2.7832,0-4.4043-1.42383-4.4043-4.22851V90.90093h-1.81836V88.272h1.81836V85.40191h3.418V88.272h2.93652v2.6289h-2.93652v4.79883a1.37482,1.37482,0,0,0,1.46777,1.55566,2.30817,2.30817,0,0,0,1.38086-.4375Z"/>
        <path class="ffd0fb56-4800-4b10-bf4e-0c8b79daa915" d="M276.98229,93.90288c0-3.5498,2.73925-6.06933,6.48535-6.06933,3.74707,0,6.46484,2.51953,6.46484,6.06933s-2.71777,6.06934-6.46484,6.06934C279.72154,99.97222,276.98229,97.45269,276.98229,93.90288Zm9.4873,0a3.02242,3.02242,0,1,0-3.00195,3.26465A2.97482,2.97482,0,0,0,286.46959,93.90288Z"/>
        <path class="ffd0fb56-4800-4b10-bf4e-0c8b79daa915" d="M291.076,98.70171l1.13964-2.4541a8.0552,8.0552,0,0,0,4.09668,1.13965c1.57813,0,2.16993-.416,2.16993-1.07422,0-1.92773-7.12207.04395-7.12207-4.667,0-2.23438,2.0166-3.8125,5.456-3.8125a9.69413,9.69413,0,0,1,4.53613,1.03027l-1.13965,2.43164a6.769,6.769,0,0,0-3.39648-.876c-1.5332,0-2.19043.48144-2.19043,1.0957,0,2.01562,7.12109.06543,7.12109,4.71094,0,2.19043-2.03808,3.74609-5.56543,3.74609A10.11444,10.11444,0,0,1,291.076,98.70171Z"/>
        <path class="ffd0fb56-4800-4b10-bf4e-0c8b79daa915" d="M320.48619,93.07085v6.72657H317.287V98.32964a3.8696,3.8696,0,0,1-3.59375,1.64258c-2.76074,0-4.40429-1.5332-4.40429-3.57129,0-2.08105,1.46777-3.52734,5.06152-3.52734h2.7168c0-1.46875-.876-2.32324-2.7168-2.32324a5.67434,5.67434,0,0,0-3.39648,1.0957l-1.22657-2.3877a9.05757,9.05757,0,0,1,5.083-1.4248C318.40416,87.83355,320.48619,89.49859,320.48619,93.07085Zm-3.41894,3.002V94.86773H314.7235c-1.59961,0-2.10352.59082-2.10352,1.37988,0,.85449.72266,1.42481,1.92774,1.42481A2.51791,2.51791,0,0,0,317.06725,96.07281Z"/>
        <path class="ffd0fb56-4800-4b10-bf4e-0c8b79daa915" d="M335.62975,93.04839v6.749h-3.418V93.57476c0-1.90625-.877-2.7832-2.38867-2.7832-1.64356,0-2.82618,1.00781-2.82618,3.17773v5.82813h-3.418V88.00933h3.26464v1.37988a5.16112,5.16112,0,0,1,3.90039-1.55566C333.52623,87.83355,335.62975,89.45464,335.62975,93.04839Z"/>
        <path class="ffd0fb56-4800-4b10-bf4e-0c8b79daa915" d="M350.77428,93.04839v6.749h-3.418V93.57476c0-1.90625-.877-2.7832-2.38867-2.7832-1.64356,0-2.82617,1.00781-2.82617,3.17773v5.82813h-3.418V88.00933h3.26464v1.37988a5.16114,5.16114,0,0,1,3.9004-1.55566C348.67076,87.83355,350.77428,89.45464,350.77428,93.04839Z"/>
        <path class="ffd0fb56-4800-4b10-bf4e-0c8b79daa915" d="M353.12291,93.90288c0-3.5498,2.73926-6.06933,6.48535-6.06933,3.74707,0,6.46485,2.51953,6.46485,6.06933s-2.71778,6.06934-6.46485,6.06934C355.86217,99.97222,353.12291,97.45269,353.12291,93.90288Zm9.48731,0a3.02242,3.02242,0,1,0-3.002,3.26465A2.97483,2.97483,0,0,0,362.61022,93.90288Z"/>
        <path class="ffd0fb56-4800-4b10-bf4e-0c8b79daa915" d="M375.95885,99.22808a4.88335,4.88335,0,0,1-2.78223.74414c-2.7832,0-4.4043-1.42383-4.4043-4.22851V90.90093H366.954V88.272h1.81835V85.40191h3.418V88.272h2.93653v2.6289h-2.93653v4.79883a1.37482,1.37482,0,0,0,1.46778,1.55566,2.30819,2.30819,0,0,0,1.38086-.4375Z"/>
        <path class="ffd0fb56-4800-4b10-bf4e-0c8b79daa915" d="M388.99889,94.86773h-8.918a3.14264,3.14264,0,0,0,3.374,2.36621,3.99705,3.99705,0,0,0,2.958-1.13965l1.81836,1.97168a6.1716,6.1716,0,0,1-4.86426,1.90625c-4.07519,0-6.72656-2.56348-6.72656-6.06934a6.00182,6.00182,0,0,1,6.28906-6.06933,5.8352,5.8352,0,0,1,6.13477,6.11328C389.06432,94.20953,389.02037,94.58257,388.99889,94.86773ZM380.037,92.87359h5.80664a2.94443,2.94443,0,0,0-5.80664,0Zm3.50586-6.377H380.869l2.958-3.15527h3.68164Z"/>
        <path class="ffd0fb56-4800-4b10-bf4e-0c8b79daa915" d="M402.829,94.86773h-8.918a3.14263,3.14263,0,0,0,3.374,2.36621,3.99707,3.99707,0,0,0,2.958-1.13965l1.81836,1.97168a6.1716,6.1716,0,0,1-4.86426,1.90625c-4.0752,0-6.72656-2.56348-6.72656-6.06934a6.00182,6.00182,0,0,1,6.28906-6.06933,5.83519,5.83519,0,0,1,6.13476,6.11328C402.89439,94.20953,402.85045,94.58257,402.829,94.86773Zm-8.96192-1.99414h5.80664a2.94443,2.94443,0,0,0-5.80664,0Z"/>
        <path class="ffd0fb56-4800-4b10-bf4e-0c8b79daa915" d="M404.038,98.70171l1.13867-2.4541a8.06436,8.06436,0,0,0,4.09766,1.13965c1.57812,0,2.16992-.416,2.16992-1.07422,0-1.92773-7.12207.04395-7.12207-4.667,0-2.23438,2.0166-3.8125,5.45605-3.8125a9.6942,9.6942,0,0,1,4.53614,1.03027l-1.13965,2.43164a6.769,6.769,0,0,0-3.39649-.876c-1.5332,0-2.19043.48144-2.19043,1.0957,0,2.01562,7.1211.06543,7.1211,4.71094,0,2.19043-2.03809,3.74609-5.56543,3.74609A10.11448,10.11448,0,0,1,404.038,98.70171Z"/>
        <path class="ffd0fb56-4800-4b10-bf4e-0c8b79daa915" d="M420.23326,97.82574a5.095,5.095,0,0,1-.59179,2.19043l-1.249,3.15527H416.2235l.96386-3.4834a1.90068,1.90068,0,0,1-1.18359-1.8623,2.11477,2.11477,0,0,1,4.22949,0Z"/>
        <path class="ffd0fb56-4800-4b10-bf4e-0c8b79daa915" d="M440.76744,83.53863V99.79742h-3.26465V98.439a4.53545,4.53545,0,0,1-3.68066,1.5332,6.07193,6.07193,0,0,1,0-12.13867,4.527,4.527,0,0,1,3.52734,1.4248V83.53863ZM437.4149,93.90288a3.02242,3.02242,0,1,0-3.00195,3.26465A2.98683,2.98683,0,0,0,437.4149,93.90288Z"/>
        <path class="ffd0fb56-4800-4b10-bf4e-0c8b79daa915" d="M455.40807,94.86773h-8.918a3.14264,3.14264,0,0,0,3.374,2.36621,3.99707,3.99707,0,0,0,2.958-1.13965l1.81836,1.97168a6.1716,6.1716,0,0,1-4.86426,1.90625c-4.07519,0-6.72656-2.56348-6.72656-6.06934a6.00182,6.00182,0,0,1,6.28906-6.06933,5.8352,5.8352,0,0,1,6.13477,6.11328C455.4735,94.20953,455.42955,94.58257,455.40807,94.86773Zm-8.96192-1.99414h5.80664a2.94443,2.94443,0,0,0-5.80664,0Z"/>
        <path class="ffd0fb56-4800-4b10-bf4e-0c8b79daa915" d="M456.61705,98.70171l1.13965-2.4541a8.05517,8.05517,0,0,0,4.09668,1.13965c1.57812,0,2.16992-.416,2.16992-1.07422,0-1.92773-7.12207.04395-7.12207-4.667,0-2.23438,2.0166-3.8125,5.45606-3.8125a9.69416,9.69416,0,0,1,4.53613,1.03027l-1.13965,2.43164a6.769,6.769,0,0,0-3.39648-.876c-1.53321,0-2.19043.48144-2.19043,1.0957,0,2.01562,7.12109.06543,7.12109,4.71094,0,2.19043-2.03809,3.74609-5.56543,3.74609A10.11448,10.11448,0,0,1,456.61705,98.70171Z"/>
        <path class="ffd0fb56-4800-4b10-bf4e-0c8b79daa915" d="M38.72057,120.20464c0-3.5498,2.73925-6.06933,6.57324-6.06933,2.47656,0,4.42676,1.07422,5.28125,3.00195l-2.65137,1.4248A2.93981,2.93981,0,0,0,45.27232,116.94a3.27011,3.27011,0,0,0,0,6.53028,2.90113,2.90113,0,0,0,2.65137-1.62207l2.65137,1.44629a5.4688,5.4688,0,0,1-5.28125,2.98047C41.45982,126.275,38.72057,123.75445,38.72057,120.20464Z"/>
        <path class="ffd0fb56-4800-4b10-bf4e-0c8b79daa915" d="M51.52037,120.20464c0-3.5498,2.73926-6.06933,6.48633-6.06933,3.74609,0,6.46387,2.51953,6.46387,6.06933S61.75279,126.275,58.0067,126.275C54.25963,126.275,51.52037,123.75445,51.52037,120.20464Zm9.48731,0a3.02249,3.02249,0,1,0-3.001,3.26563A2.97464,2.97464,0,0,0,61.00768,120.20464Z"/>
        <path class="ffd0fb56-4800-4b10-bf4e-0c8b79daa915" d="M86.67076,119.35015v6.749h-3.418v-6.22265c0-1.90625-.85449-2.78321-2.23535-2.78321-1.5332,0-2.60742.98633-2.60742,3.08985v5.916h-3.418v-6.22265c0-1.90625-.81055-2.78321-2.23535-2.78321-1.51172,0-2.585.98633-2.585,3.08985v5.916H66.75279V114.31109h3.26563v1.3584a4.77314,4.77314,0,0,1,3.70312-1.53418,4.40078,4.40078,0,0,1,3.87793,1.92871,5.301,5.301,0,0,1,4.251-1.92871C84.65514,114.13531,86.67076,115.75738,86.67076,119.35015Z"/>
        <path class="ffd0fb56-4800-4b10-bf4e-0c8b79daa915" d="M109.662,119.35015v6.749h-3.418v-6.22265c0-1.90625-.85449-2.78321-2.23535-2.78321-1.5332,0-2.60742.98633-2.60742,3.08985v5.916h-3.418v-6.22265c0-1.90625-.81054-2.78321-2.23535-2.78321-1.51172,0-2.585.98633-2.585,3.08985v5.916H89.745V114.31109h3.26465v1.3584a4.77316,4.77316,0,0,1,3.70312-1.53418,4.40078,4.40078,0,0,1,3.87793,1.92871,5.30237,5.30237,0,0,1,4.251-1.92871C107.64635,114.13531,109.662,115.75738,109.662,119.35015Z"/>
        <path class="ffd0fb56-4800-4b10-bf4e-0c8b79daa915" d="M124.34947,121.16949h-8.918a3.14265,3.14265,0,0,0,3.374,2.36621,3.99707,3.99707,0,0,0,2.958-1.13965l1.81835,1.97168a6.1721,6.1721,0,0,1-4.86425,1.90723c-4.0752,0-6.72657-2.56446-6.72657-6.07032a6.00183,6.00183,0,0,1,6.28907-6.06933,5.83573,5.83573,0,0,1,6.13476,6.11328C124.4149,120.51128,124.371,120.88433,124.34947,121.16949Zm-8.96191-1.99414h5.80664a2.94443,2.94443,0,0,0-5.80664,0Z"/>
        <path class="ffd0fb56-4800-4b10-bf4e-0c8b79daa915" d="M138.74791,119.35015v6.749h-3.418v-6.22265c0-1.90625-.87695-2.78321-2.38867-2.78321-1.64355,0-2.82617,1.00782-2.82617,3.17774v5.82812h-3.419V114.31109h3.26563V115.691a5.1611,5.1611,0,0,1,3.90039-1.55566C136.64439,114.13531,138.74791,115.75738,138.74791,119.35015Z"/>
        <path class="ffd0fb56-4800-4b10-bf4e-0c8b79daa915" d="M149.44518,125.52984a4.88376,4.88376,0,0,1-2.78223.74512c-2.7832,0-4.4043-1.42481-4.4043-4.2295v-4.84277h-1.81836v-2.62891h1.81836v-2.87011h3.418v2.87011h2.93652v2.62891h-2.93652v4.79883a1.37482,1.37482,0,0,0,1.46777,1.55566,2.30243,2.30243,0,0,0,1.38086-.43847Z"/>
        <path class="ffd0fb56-4800-4b10-bf4e-0c8b79daa915" d="M161.8065,119.37261v6.72656h-3.19921V124.6314a3.87013,3.87013,0,0,1-3.59375,1.64356c-2.76075,0-4.4043-1.53418-4.4043-3.57227,0-2.08106,1.46777-3.52734,5.06152-3.52734h2.7168c0-1.46875-.876-2.32325-2.7168-2.32325a5.67437,5.67437,0,0,0-3.39648,1.09571l-1.22656-2.3877a9.05743,9.05743,0,0,1,5.083-1.4248C159.72447,114.13531,161.8065,115.80035,161.8065,119.37261Zm-3.41894,3.002v-1.20507h-2.34375c-1.59961,0-2.10352.59082-2.10352,1.37988,0,.85449.72266,1.4248,1.92774,1.4248A2.51789,2.51789,0,0,0,158.38756,122.37456Z"/>
        <path class="ffd0fb56-4800-4b10-bf4e-0c8b79daa915" d="M164.48229,110.76128a1.95358,1.95358,0,0,1,2.126-1.90625,1.91809,1.91809,0,0,1,2.125,1.83985,2.13469,2.13469,0,0,1-4.251.0664Zm.417,3.54981h3.418v11.78808h-3.418Z"/>
        <path class="ffd0fb56-4800-4b10-bf4e-0c8b79daa915" d="M178.81529,114.13531v3.15527c-.28515-.02148-.5039-.044-.76757-.044-1.88379,0-3.13282,1.03028-3.13282,3.28711v5.56543h-3.418V114.31109h3.26465v1.55566A4.75545,4.75545,0,0,1,178.81529,114.13531Z"/>
        <path class="ffd0fb56-4800-4b10-bf4e-0c8b79daa915" d="M192.2274,121.16949h-8.918a3.14265,3.14265,0,0,0,3.374,2.36621,3.99707,3.99707,0,0,0,2.958-1.13965l1.81835,1.97168a6.1721,6.1721,0,0,1-4.86425,1.90723c-4.0752,0-6.72657-2.56446-6.72657-6.07032a6.00183,6.00183,0,0,1,6.28907-6.06933,5.83573,5.83573,0,0,1,6.13476,6.11328C192.29283,120.51128,192.24889,120.88433,192.2274,121.16949Zm-8.96191-1.99414h5.80664a2.94443,2.94443,0,0,0-5.80664,0Z"/>
        <path class="ffd0fb56-4800-4b10-bf4e-0c8b79daa915" d="M193.43639,125.00347l1.13867-2.4541a8.06433,8.06433,0,0,0,4.09766,1.13965c1.57812,0,2.16992-.416,2.16992-1.07422,0-1.92774-7.12207.04394-7.12207-4.667,0-2.23438,2.0166-3.8125,5.45605-3.8125a9.694,9.694,0,0,1,4.53613,1.03027l-1.13964,2.43164a6.76892,6.76892,0,0,0-3.39649-.876c-1.5332,0-2.19043.48145-2.19043,1.09571,0,2.01562,7.1211.06543,7.1211,4.71093,0,2.19043-2.03809,3.74708-5.56543,3.74708A10.1142,10.1142,0,0,1,193.43639,125.00347Z"/>
        <path class="ffd0fb56-4800-4b10-bf4e-0c8b79daa915" d="M223.8983,121.16949h-8.918a3.14265,3.14265,0,0,0,3.374,2.36621,3.997,3.997,0,0,0,2.958-1.13965l1.81836,1.97168a6.1721,6.1721,0,0,1-4.86425,1.90723c-4.0752,0-6.72657-2.56446-6.72657-6.07032a6.00183,6.00183,0,0,1,6.28907-6.06933,5.83573,5.83573,0,0,1,6.13476,6.11328C223.96373,120.51128,223.91979,120.88433,223.8983,121.16949Zm-8.96191-1.99414H220.743a2.94443,2.94443,0,0,0-5.80664,0Z"/>
        <path class="ffd0fb56-4800-4b10-bf4e-0c8b79daa915" d="M233.8485,125.52984a4.88376,4.88376,0,0,1-2.78223.74512c-2.7832,0-4.4043-1.42481-4.4043-4.2295v-4.84277h-1.81933v-2.62891H226.662v-2.87011h3.418v2.87011h2.93653v2.62891h-2.93653v4.79883a1.37482,1.37482,0,0,0,1.46778,1.55566,2.30452,2.30452,0,0,0,1.38085-.43847Z"/>
        <path class="ffd0fb56-4800-4b10-bf4e-0c8b79daa915" d="M241.98326,109.84038h3.418v16.25879h-3.418Z"/>
        <path class="ffd0fb56-4800-4b10-bf4e-0c8b79daa915" d="M260.06139,121.16949h-8.918a3.14264,3.14264,0,0,0,3.374,2.36621,3.99705,3.99705,0,0,0,2.958-1.13965l1.81836,1.97168a6.17212,6.17212,0,0,1-4.86426,1.90723c-4.07519,0-6.72656-2.56446-6.72656-6.07032a6.00182,6.00182,0,0,1,6.28906-6.06933,5.83573,5.83573,0,0,1,6.13477,6.11328C260.12682,120.51128,260.08287,120.88433,260.06139,121.16949Zm-8.96192-1.99414h5.80664a2.94443,2.94443,0,0,0-5.80664,0Z"/>
        <path class="ffd0fb56-4800-4b10-bf4e-0c8b79daa915" d="M267.47252,125.00347l1.13965-2.4541a8.05517,8.05517,0,0,0,4.09668,1.13965c1.57812,0,2.16992-.416,2.16992-1.07422,0-1.92774-7.12207.04394-7.12207-4.667,0-2.23438,2.0166-3.8125,5.45605-3.8125a9.69408,9.69408,0,0,1,4.53614,1.03027l-1.13965,2.43164a6.7689,6.7689,0,0,0-3.39649-.876c-1.5332,0-2.19043.48145-2.19043,1.09571,0,2.01562,7.1211.06543,7.1211,4.71093,0,2.19043-2.03809,3.74708-5.56543,3.74708A10.1142,10.1142,0,0,1,267.47252,125.00347Z"/>
        <path class="ffd0fb56-4800-4b10-bf4e-0c8b79daa915" d="M287.8524,125.52984a4.88373,4.88373,0,0,1-2.78222.74512c-2.78321,0-4.4043-1.42481-4.4043-4.2295v-4.84277h-1.81934v-2.62891h1.81934v-2.87011h3.418v2.87011h2.93652v2.62891h-2.93652v4.79883a1.37482,1.37482,0,0,0,1.46777,1.55566,2.30455,2.30455,0,0,0,1.38086-.43847Z"/>
        <path class="ffd0fb56-4800-4b10-bf4e-0c8b79daa915" d="M300.21373,119.37261v6.72656h-3.19922V124.6314a3.87011,3.87011,0,0,1-3.59375,1.64356c-2.76074,0-4.40429-1.53418-4.40429-3.57227,0-2.08106,1.46875-3.52734,5.06152-3.52734h2.71777c0-1.46875-.87695-2.32325-2.71777-2.32325a5.67224,5.67224,0,0,0-3.39649,1.09571l-1.22656-2.3877a9.05749,9.05749,0,0,1,5.083-1.4248C298.1317,114.13531,300.21373,115.80035,300.21373,119.37261Zm-3.418,3.002v-1.20507H294.451c-1.59961,0-2.10352.59082-2.10352,1.37988,0,.85449.72266,1.4248,1.92773,1.4248A2.52,2.52,0,0,0,296.79576,122.37456Z"/>
        <path class="ffd0fb56-4800-4b10-bf4e-0c8b79daa915" d="M310.91,125.52984a4.88374,4.88374,0,0,1-2.78223.74512c-2.7832,0-4.40429-1.42481-4.40429-4.2295v-4.84277h-1.81836v-2.62891h1.81836v-2.87011h3.418v2.87011H310.078v2.62891h-2.93652v4.79883a1.37482,1.37482,0,0,0,1.46777,1.55566,2.30245,2.30245,0,0,0,1.38086-.43847Z"/>
        <path class="ffd0fb56-4800-4b10-bf4e-0c8b79daa915" d="M324.71764,114.31109v11.78808h-3.24317v-1.40234a4.76821,4.76821,0,0,1-3.65918,1.57813c-2.958,0-5.04-1.666-5.04-5.30274v-6.66113h3.418v6.15722c0,1.97168.877,2.84766,2.38867,2.84766,1.57813,0,2.7168-1.00781,2.7168-3.17676v-5.82812Z"/>
        <path class="ffd0fb56-4800-4b10-bf4e-0c8b79daa915" d="M335.50084,125.52984a4.88374,4.88374,0,0,1-2.78223.74512c-2.7832,0-4.40429-1.42481-4.40429-4.2295v-4.84277H326.495v-2.62891h1.81934v-2.87011h3.418v2.87011h2.93652v2.62891h-2.93652v4.79883a1.37482,1.37482,0,0,0,1.46777,1.55566,2.30455,2.30455,0,0,0,1.38086-.43847Z"/>
        <path class="ffd0fb56-4800-4b10-bf4e-0c8b79daa915" d="M355.64244,109.84038v16.25879h-3.26465v-1.35839a4.53608,4.53608,0,0,1-3.68066,1.53418,6.07243,6.07243,0,0,1,0-12.13965,4.527,4.527,0,0,1,3.52734,1.4248v-5.71973Zm-3.35254,10.36426a3.02249,3.02249,0,1,0-3.00195,3.26563A2.98683,2.98683,0,0,0,352.2899,120.20464Z"/>
        <path class="ffd0fb56-4800-4b10-bf4e-0c8b79daa915" d="M370.28307,121.16949h-8.918a3.14264,3.14264,0,0,0,3.374,2.36621,3.99707,3.99707,0,0,0,2.958-1.13965l1.81836,1.97168a6.17212,6.17212,0,0,1-4.86426,1.90723c-4.07519,0-6.72656-2.56446-6.72656-6.07032a6.00182,6.00182,0,0,1,6.28906-6.06933,5.83574,5.83574,0,0,1,6.13477,6.11328C370.3485,120.51128,370.30455,120.88433,370.28307,121.16949Zm-8.96192-1.99414h5.80664a2.94443,2.94443,0,0,0-5.80664,0Z"/>
        <path class="ffd0fb56-4800-4b10-bf4e-0c8b79daa915" d="M371.49205,125.00347l1.13965-2.4541a8.05517,8.05517,0,0,0,4.09668,1.13965c1.57812,0,2.16992-.416,2.16992-1.07422,0-1.92774-7.12207.04394-7.12207-4.667,0-2.23438,2.0166-3.8125,5.45606-3.8125a9.694,9.694,0,0,1,4.53613,1.03027l-1.13965,2.43164a6.76889,6.76889,0,0,0-3.39648-.876c-1.53321,0-2.19043.48145-2.19043,1.09571,0,2.01562,7.12109.06543,7.12109,4.71093,0,2.19043-2.03809,3.74708-5.56543,3.74708A10.1142,10.1142,0,0,1,371.49205,125.00347Z"/>
        <path class="ffd0fb56-4800-4b10-bf4e-0c8b79daa915" d="M398.07506,125.52984a4.88374,4.88374,0,0,1-2.78223.74512c-2.7832,0-4.40429-1.42481-4.40429-4.2295v-4.84277H389.0692v-2.62891h1.81934v-2.87011h3.418v2.87011H397.243v2.62891H394.3065v4.79883a1.37483,1.37483,0,0,0,1.46778,1.55566,2.30457,2.30457,0,0,0,1.38086-.43847Z"/>
        <path class="ffd0fb56-4800-4b10-bf4e-0c8b79daa915" d="M410.43639,119.37261v6.72656h-3.19922V124.6314a3.87012,3.87012,0,0,1-3.59375,1.64356c-2.76074,0-4.4043-1.53418-4.4043-3.57227,0-2.08106,1.46875-3.52734,5.06152-3.52734h2.71778c0-1.46875-.87695-2.32325-2.71778-2.32325a5.67219,5.67219,0,0,0-3.39648,1.09571l-1.22656-2.3877a9.05749,9.05749,0,0,1,5.083-1.4248C408.35436,114.13531,410.43639,115.80035,410.43639,119.37261Zm-7.23145-6.57422h-2.49707l2.8916-3.15527h3.02442l2.8916,3.15527h-2.49707l-1.90723-1.665Zm3.81348,9.57617v-1.20507h-2.34473c-1.59961,0-2.10351.59082-2.10351,1.37988,0,.85449.72265,1.4248,1.92773,1.4248A2.52,2.52,0,0,0,407.01842,122.37456Z"/>
        <path class="ffd0fb56-4800-4b10-bf4e-0c8b79daa915" d="M412.784,120.20464c0-3.5498,2.73926-6.06933,6.57325-6.06933,2.47656,0,4.42675,1.07422,5.28125,3.00195l-2.65137,1.4248A2.93982,2.93982,0,0,0,419.3358,116.94a3.27011,3.27011,0,0,0,0,6.53028,2.90114,2.90114,0,0,0,2.65137-1.62207l2.65137,1.44629a5.46881,5.46881,0,0,1-5.28125,2.98047C415.5233,126.275,412.784,123.75445,412.784,120.20464Z"/>
        <path class="ffd0fb56-4800-4b10-bf4e-0c8b79daa915" d="M438.577,119.35015v6.749h-3.418v-6.22265c0-1.90625-.877-2.78321-2.38867-2.78321-1.64355,0-2.82617,1.00782-2.82617,3.17774v5.82812h-3.418V109.84038h3.418v5.69727a5.18148,5.18148,0,0,1,3.74707-1.40234C436.4735,114.13531,438.577,115.75738,438.577,119.35015Z"/>
        <path class="ffd0fb56-4800-4b10-bf4e-0c8b79daa915" d="M453.284,121.16949h-8.918a3.14265,3.14265,0,0,0,3.374,2.36621,3.99707,3.99707,0,0,0,2.958-1.13965l1.81836,1.97168a6.17214,6.17214,0,0,1-4.86426,1.90723c-4.0752,0-6.72657-2.56446-6.72657-6.07032a6.00183,6.00183,0,0,1,6.28907-6.06933,5.83573,5.83573,0,0,1,6.13476,6.11328C453.34947,120.51128,453.30553,120.88433,453.284,121.16949Zm-8.96191-1.99414h5.80664a2.94443,2.94443,0,0,0-5.80664,0Z"/>
        <path class="ffd0fb56-4800-4b10-bf4e-0c8b79daa915" d="M454.49205,125.00347l1.13965-2.4541a8.05517,8.05517,0,0,0,4.09668,1.13965c1.57812,0,2.16992-.416,2.16992-1.07422,0-1.92774-7.12207.04394-7.12207-4.667,0-2.23438,2.0166-3.8125,5.45606-3.8125a9.694,9.694,0,0,1,4.53613,1.03027l-1.13965,2.43164a6.76889,6.76889,0,0,0-3.39648-.876c-1.53321,0-2.19043.48145-2.19043,1.09571,0,2.01562,7.12109.06543,7.12109,4.71093,0,2.19043-2.03809,3.74708-5.56543,3.74708A10.1142,10.1142,0,0,1,454.49205,125.00347Z"/>
        <path class="ffd0fb56-4800-4b10-bf4e-0c8b79daa915" d="M466.43736,124.12749a2.1256,2.1256,0,0,1,4.251,0,2.1256,2.1256,0,1,1-4.251,0Z"/>
      </g>
    </g>
    <g>
      <path class="faa79853-b7c4-4ff4-983e-cb21d90da107" d="M295.74057,373.9359V330.14606"/>
      <path class="faa79853-b7c4-4ff4-983e-cb21d90da107" d="M321.61654,424.02882H269.86459V374.26764h51.75195Z"/>
      <path class="a52c6501-a9e4-49cf-8824-7ef7e6b150e7" d="M311.66431,424.02882h-7.96147V374.26764h7.96147Z"/>
      <path class="a52c6501-a9e4-49cf-8824-7ef7e6b150e7" d="M287.447,424.02882h-7.96147V374.26764H287.447Z"/>
      <path class="a52c6501-a9e4-49cf-8824-7ef7e6b150e7" d="M269.53334,384.21988H211.81069v-6.63483a3.134,3.134,0,0,1,3.31741-3.31741h54.40524Z"/>
      <path class="a52c6501-a9e4-49cf-8824-7ef7e6b150e7" d="M269.53334,394.17211H211.81069v-9.95223h57.72265Z"/>
      <path class="a52c6501-a9e4-49cf-8824-7ef7e6b150e7" d="M269.53334,404.12435H211.81069v-9.95224h57.72265Z"/>
      <path class="a52c6501-a9e4-49cf-8824-7ef7e6b150e7" d="M269.53334,414.07658H211.81069v-9.95223h57.72265Z"/>
      <path class="a52c6501-a9e4-49cf-8824-7ef7e6b150e7" d="M269.53334,424.02882H211.81069v-9.95224h57.72265Z"/>
      <path class="faa79853-b7c4-4ff4-983e-cb21d90da107" d="M269.86459,374.26764l25.876-43.78984,25.876,43.78984Z"/>
      <path class="faa79853-b7c4-4ff4-983e-cb21d90da107" d="M169.67891,330.14606H295.74057"/>
      <path class="faa79853-b7c4-4ff4-983e-cb21d90da107" d="M183.944,344.0792H287.447"/>
      <path class="faa79853-b7c4-4ff4-983e-cb21d90da107" d="M196.21821,358.01232H311.99556"/>
      <path class="faa79853-b7c4-4ff4-983e-cb21d90da107" d="M245.64813,373.9359l27.86594-43.78984"/>
      <path class="faa79853-b7c4-4ff4-983e-cb21d90da107" d="M221.76293,373.9359l27.86593-43.78984"/>
      <path class="faa79853-b7c4-4ff4-983e-cb21d90da107" d="M307.68357,373.9359V350.38227"/>
      <path class="faa79853-b7c4-4ff4-983e-cb21d90da107" d="M283.4663,373.9359V350.38227"/>
      <path id="b971f6c9-e981-418c-8552-8534ed913a6f" data-name="a" class="b6c187b9-417c-4ebe-a904-d9c2fdc9642c" d="M156.40927,380.90246H30.34761l28.198-59.38167h0a6.26676,6.26676,0,0,1,5.97151-3.64915h91.89215Z"/>
      <path class="e7cbe1ee-6777-40b1-9430-6f85f90c188c" d="M156.40927,380.90246H30.34761l28.198-59.38167h0a6.26676,6.26676,0,0,1,5.97151-3.64915h91.89215Z"/>
      <path id="b53d80cb-fb43-49ed-8b88-58abf7b9a269" data-name="b" class="a85d0820-cea3-4601-90bb-35ffad15f39e" d="M217.78139,380.90246l-59.0501-62.0356h0a3.20644,3.20644,0,0,0-4.644,0h0l-59.05009,62.0356v43.12636H217.78139Z"/>
      <path class="e7cbe1ee-6777-40b1-9430-6f85f90c188c" d="M217.78139,380.90246l-59.0501-62.0356h0a3.20644,3.20644,0,0,0-4.644,0h0l-59.05009,62.0356v43.12636H217.78139Z"/>
      <path id="f059a906-16c5-434d-a07d-e68faa809e0c" data-name="c" class="a85d0820-cea3-4601-90bb-35ffad15f39e" d="M33.665,380.90246H95.03715v43.12636H33.665Z"/>
      <path class="e7cbe1ee-6777-40b1-9430-6f85f90c188c" d="M33.665,380.90246H95.03715v43.12636H33.665Z"/>
      <path id="ee1f076e-e037-42c8-8865-a0793d637283" data-name="d" class="a85d0820-cea3-4601-90bb-35ffad15f39e" d="M144.79832,424.02882H95.03715V380.90246l24.88058-26.53929,24.88059,26.53929Z"/>
      <path class="e7cbe1ee-6777-40b1-9430-6f85f90c188c" d="M144.79832,424.02882H95.03715V380.90246l24.88058-26.53929,24.88059,26.53929Z"/>
      <path id="b699744c-cfd1-46e3-8dc4-b9cb65584a45" data-name="e" class="a85d0820-cea3-4601-90bb-35ffad15f39e" d="M106.64809,364.3154H63.52173V342.42049h0a3.01234,3.01234,0,0,1,.99539-2.32219l18.24576-16.9188h0a3.20645,3.20645,0,0,1,4.64406,0l18.24576,16.9188h0a3.58471,3.58471,0,0,1,.99539,2.32219Z"/>
      <path class="e7cbe1ee-6777-40b1-9430-6f85f90c188c" d="M106.64809,364.3154H63.52173V342.42049h0a3.01234,3.01234,0,0,1,.99539-2.32219l18.24576-16.9188h0a3.20645,3.20645,0,0,1,4.64406,0l18.24576,16.9188h0a3.58471,3.58471,0,0,1,.99539,2.32219Z"/>
      <path id="ba2dfa41-58d4-44db-82af-0590b266a808" data-name="f" class="b6c187b9-417c-4ebe-a904-d9c2fdc9642c" d="M119.91773,387.53729h0a11.75424,11.75424,0,0,0-11.61094,11.61094h0v24.88059h23.22189V399.14823h0a11.53869,11.53869,0,0,0-11.611-11.61094Z"/>
      <path id="b879c181-4a4c-446b-9681-4476ceab509b" data-name="h" class="b6c187b9-417c-4ebe-a904-d9c2fdc9642c" d="M144.79832,384.21988h39.809v39.80894h-39.809Z"/>
      <path class="fab8d39e-ee71-4502-98c9-e928d3091a5c" d="M184.60727,384.21988h33.17412v39.80894H184.60727Z"/>
      <path id="eca3d757-2adf-4d71-a880-ce3f3d5630ea" data-name="i" class="b6c187b9-417c-4ebe-a904-d9c2fdc9642c" d="M148.11574,346.06964H164.7028a3.134,3.134,0,0,1,3.31741,3.31741V360.998h0a3.134,3.134,0,0,1-3.31741,3.31741H144.79832V349.38705h0a3.56752,3.56752,0,0,1,3.31742-3.31741Z"/>
      <path id="bcb01828-0818-466d-8bde-e0f4d9a1a041" data-name="j" class="b6c187b9-417c-4ebe-a904-d9c2fdc9642c" d="M73.474,344.41093H96.69585V364.3154H73.474Z"/>
      <path id="a300a1d0-ea34-4f9f-a5b4-f27af249b268" data-name="k" class="b6c187b9-417c-4ebe-a904-d9c2fdc9642c" d="M51.91079,390.8547H73.474v33.17412H51.91079Z"/>
      <path class="e7cbe1ee-6777-40b1-9430-6f85f90c188c" d="M119.91773,387.53729h0a11.75424,11.75424,0,0,0-11.61094,11.61094h0v24.88059h23.22189V399.14823h0a11.53869,11.53869,0,0,0-11.611-11.61094Z"/>
      <path class="e7cbe1ee-6777-40b1-9430-6f85f90c188c" d="M144.79832,384.21988h39.809v39.80894h-39.809Z"/>
      <path class="e7cbe1ee-6777-40b1-9430-6f85f90c188c" d="M148.11574,346.06964H164.7028a3.134,3.134,0,0,1,3.31741,3.31741V360.998h0a3.134,3.134,0,0,1-3.31741,3.31741H144.79832V349.38705h0a3.56752,3.56752,0,0,1,3.31742-3.31741Z"/>
      <path class="e7cbe1ee-6777-40b1-9430-6f85f90c188c" d="M73.474,344.41093H96.69585V364.3154H73.474Z"/>
      <path class="e7cbe1ee-6777-40b1-9430-6f85f90c188c" d="M51.91079,390.8547H73.474v33.17412H51.91079Z"/>
      <path class="faa79853-b7c4-4ff4-983e-cb21d90da107" d="M203.51716,365.97411,226.407,330.14606"/>
      <path class="faa79853-b7c4-4ff4-983e-cb21d90da107" d="M189.58339,351.37751l13.60171-21.23145"/>
      <path class="faa79853-b7c4-4ff4-983e-cb21d90da107" d="M190.91,424.02882h8.29353"/>
      <path class="faa79853-b7c4-4ff4-983e-cb21d90da107" d="M284.12962,424.02882h8.29353"/>
    </g>
  </g>
  <g>
    <g>
      <path class="ffd0fb56-4800-4b10-bf4e-0c8b79daa915" d="M620.13463,98.13335l-2.61621-4.14843-.166-.00782-2.91211-.125-.17285,4.0293-3.34668-.14355.6211-14.46,6.25878.26856c3.86329.166,6.19434,2.27344,6.05469,5.5166a4.70535,4.70535,0,0,1-3.1709,4.4375l3.04395,4.78711Zm-2.63574-11.86816-2.72754-.11719-.2168,5.04,2.72754.11719c2.04492.08789,3.11816-.81738,3.18555-2.3877C620.536,87.32769,619.54381,86.35308,617.49889,86.26519Z"/>
      <path class="ffd0fb56-4800-4b10-bf4e-0c8b79daa915" d="M635.88365,92.4566l-.27246,6.34179-3.01562-.1289.05957-1.38477a3.65333,3.65333,0,0,1-3.45508,1.40234c-2.60352-.11132-4.08984-1.623-4.00684-3.54394.084-1.96289,1.52735-3.26563,4.91407-3.12012l2.56152.10938c.05957-1.38477-.73242-2.22559-2.46777-2.29981a5.34534,5.34534,0,0,0-3.2461.89551l-1.05859-2.30176A8.55466,8.55466,0,0,1,630.746,87.2896C634.13365,87.43511,636.02818,89.08941,635.88365,92.4566Zm-3.34472,2.6914.04882-1.13672-2.21-.09472c-1.50781-.06446-2.00683.47265-2.03906,1.21679-.03516.80567.624,1.3711,1.76074,1.41993A2.37521,2.37521,0,0,0,632.53893,95.148Z"/>
      <path class="ffd0fb56-4800-4b10-bf4e-0c8b79daa915" d="M637.49791,97.84429l1.17383-2.2666a7.63905,7.63905,0,0,0,3.81836,1.24023c1.48633.06348,2.06152-.30566,2.08789-.9248.07812-1.81836-6.71582-.24707-6.52442-4.68848.08985-2.10644,2.05372-3.51269,5.29688-3.374a9.1661,9.1661,0,0,1,4.23437,1.1543L646.412,91.232a6.39505,6.39505,0,0,0-3.166-.96387c-1.44629-.06152-2.085.36621-2.11035.94434-.08106,1.90039,6.71093.35156,6.52343,4.73046-.08886,2.06543-2.07324,3.44825-5.39941,3.30567A9.54866,9.54866,0,0,1,637.49791,97.84429Z"/>
      <path class="ffd0fb56-4800-4b10-bf4e-0c8b79daa915" d="M648.47057,98.316l1.17382-2.26758a7.6165,7.6165,0,0,0,3.81739,1.24024c1.4873.06445,2.06152-.30469,2.08789-.92383.07812-1.81836-6.71485-.24707-6.52344-4.68848.08984-2.10644,2.05371-3.51367,5.29688-3.374a9.15768,9.15768,0,0,1,4.23437,1.1543l-1.17285,2.24707a6.39506,6.39506,0,0,0-3.166-.96387c-1.44629-.0625-2.085.36621-2.11035.94433-.08105,1.9004,6.71.35059,6.52246,4.7295-.08886,2.0664-2.07324,3.44922-5.39941,3.30664A9.55766,9.55766,0,0,1,648.47057,98.316Z"/>
      <path class="ffd0fb56-4800-4b10-bf4e-0c8b79daa915" d="M672.14732,89.23394l-.47753,11.11328-3.05762-.13086.05664-1.32226a4.50037,4.50037,0,0,1-3.51465,1.33789c-2.78809-.11914-4.68262-1.77344-4.53516-5.20215l.27051-6.2793,3.22266.13867-.25,5.80469c-.08008,1.8584.71094,2.71973,2.13476,2.78125,1.48829.06348,2.60352-.83984,2.69141-2.88477l.23633-5.49414Z"/>
      <path class="ffd0fb56-4800-4b10-bf4e-0c8b79daa915" d="M682.05357,89.49371l-.12793,2.9746c-.26757-.03222-.47363-.06152-.72167-.07226-1.77637-.07617-2.9961.84473-3.08692,2.97168l-.22558,5.24707-3.22266-.13867.47754-11.11328,3.07812.13281-.06347,1.4668A4.4879,4.4879,0,0,1,682.05357,89.49371Z"/>
      <path class="ffd0fb56-4800-4b10-bf4e-0c8b79daa915" d="M694.413,96.66753l-8.40723-.36132a2.96519,2.96519,0,0,0,3.08594,2.36816,3.771,3.771,0,0,0,2.834-.9541l1.63379,1.93164a5.82,5.82,0,0,1-4.66211,1.60058c-3.84277-.165-6.23632-2.68847-6.09472-5.99316a5.664,5.664,0,0,1,6.17383-5.46875,5.50683,5.50683,0,0,1,5.53613,6.0127C694.50182,96.05132,694.44615,96.4,694.413,96.66753Zm-8.36719-2.24121,5.47363.23438a2.7778,2.7778,0,0,0-5.47363-.23438Z"/>
      <path class="ffd0fb56-4800-4b10-bf4e-0c8b79daa915" d="M705.58385,99.32085l-.10645,2.4795-9.916-.42579.083-1.94335,5.94825-6.44922-5.51563-.23633.10645-2.47852,9.585.41211-.084,1.94141-5.94629,6.44922Z"/>
      <path class="ffd0fb56-4800-4b10-bf4e-0c8b79daa915" d="M724.90221,91.50054l-5.166,10.91211-3.32617-.14258-4.19043-11.31445,3.3252.14355,2.75293,7.69141,3.50585-7.42285Z"/>
      <path class="ffd0fb56-4800-4b10-bf4e-0c8b79daa915" d="M724.85338,97.066c.14355-3.34668,2.82715-5.6123,6.35937-5.46,3.53321.15137,5.99122,2.6377,5.84766,5.98437s-2.80664,5.61036-6.33984,5.459C727.18834,102.897,724.70982,100.41265,724.85338,97.066Zm8.94336.38379a2.85167,2.85167,0,1,0-2.96192,2.95605A2.806,2.806,0,0,0,733.79674,97.44976Z"/>
      <path class="ffd0fb56-4800-4b10-bf4e-0c8b79daa915" d="M737.94518,102.15972l1.17382-2.26758a7.62012,7.62012,0,0,0,3.81836,1.24024c1.48633.06445,2.06153-.30469,2.08789-.92383.07813-1.81836-6.71582-.24707-6.52441-4.68848.08984-2.10644,2.05371-3.51269,5.29688-3.374a9.16614,9.16614,0,0,1,4.23437,1.1543l-1.17285,2.24707a6.39506,6.39506,0,0,0-3.166-.96387c-1.44531-.06152-2.085.36621-2.11035.94433-.08105,1.9004,6.71094.35157,6.52344,4.73047-.08887,2.06543-2.07324,3.44825-5.39942,3.30567A9.55179,9.55179,0,0,1,737.94518,102.15972Z"/>
      <path class="ffd0fb56-4800-4b10-bf4e-0c8b79daa915" d="M755.20787,98.36968c.14356-3.34668,2.82813-5.61133,6.44238-5.45605a5.10814,5.10814,0,0,1,4.85645,3.04492l-2.55664,1.23437a2.77016,2.77016,0,0,0-2.43359-1.63574,3.08517,3.08517,0,0,0-.26465,6.15528,2.73847,2.73847,0,0,0,2.56543-1.4209l2.44043,1.4707a5.16318,5.16318,0,0,1-5.09961,2.59473C757.54381,104.20171,755.06432,101.71636,755.20787,98.36968Z"/>
      <path class="ffd0fb56-4800-4b10-bf4e-0c8b79daa915" d="M768.58385,89.15484l3.22265.13867-.6582,15.32812-3.22266-.13867Z"/>
      <path class="ffd0fb56-4800-4b10-bf4e-0c8b79daa915" d="M774.62291,93.63726l3.22266.1377-.47754,11.11328-3.22266-.1377Zm-.249-3.36426a1.84431,1.84431,0,0,1,2.082-1.71094,1.81138,1.81138,0,0,1,1.92871,1.82129,2.01448,2.01448,0,0,1-4.01074-.11035Z"/>
      <path class="ffd0fb56-4800-4b10-bf4e-0c8b79daa915" d="M791.38854,100.83355l-8.40723-.36133a2.96824,2.96824,0,0,0,3.08594,2.36914,3.77027,3.77027,0,0,0,2.834-.95508l1.63477,1.93262a5.82514,5.82514,0,0,1-4.66309,1.59961c-3.8418-.165-6.2373-2.68848-6.0957-5.99316a5.664,5.664,0,0,1,6.1748-5.46778,5.50549,5.50549,0,0,1,5.53613,6.01172C791.4774,100.21734,791.42174,100.566,791.38854,100.83355Zm-8.36719-2.24121,5.47461.23535a2.77851,2.77851,0,0,0-5.47461-.23535Z"/>
      <path class="ffd0fb56-4800-4b10-bf4e-0c8b79daa915" d="M805.03893,99.70367l-.27344,6.3623-3.22266-.13867.252-5.86719c.07714-1.79687-.71387-2.6582-2.13965-2.71973-1.54883-.0664-2.70508.83594-2.793,2.88086l-.23535,5.49512-3.22266-.13867.47754-11.11328,3.07812.13183-.05664,1.30079a4.87219,4.87219,0,0,1,3.74121-1.3086C803.26647,94.70074,805.18443,96.316,805.03893,99.70367Z"/>
      <path class="ffd0fb56-4800-4b10-bf4e-0c8b79daa915" d="M814.87389,105.96148a4.61321,4.61321,0,0,1-2.6543.58887c-2.62305-.11329-4.09375-1.52051-3.97949-4.165l.19629-4.56446-1.71485-.07324.10645-2.47851,1.71484.07324.11621-2.707,3.22168.13867-.11621,2.707,2.76758.11914-.10645,2.47852-2.76757-.11914-.19434,4.52343a1.29778,1.29778,0,0,0,1.32129,1.52637,2.16812,2.16812,0,0,0,1.31836-.35742Z"/>
      <path class="ffd0fb56-4800-4b10-bf4e-0c8b79daa915" d="M815.64147,105.49761l1.17382-2.26758a7.61966,7.61966,0,0,0,3.81739,1.24024c1.4873.06445,2.06152-.30469,2.08789-.92383.07812-1.81836-6.71485-.24707-6.52344-4.68848.08984-2.10644,2.05371-3.51269,5.29687-3.374a9.16954,9.16954,0,0,1,4.23438,1.1543l-1.17285,2.24707a6.39509,6.39509,0,0,0-3.166-.96387c-1.44629-.06152-2.085.36621-2.11035.94434-.08105,1.90039,6.71.35156,6.52246,4.73046-.08887,2.06543-2.07324,3.44825-5.39941,3.30567A9.54783,9.54783,0,0,1,815.64147,105.49761Z"/>
    </g>
    <g>
      <g>
        <path id="b0a61ade-f4f1-47e6-b47d-73f264ae8f23" data-name="a" class="ef8cbe71-0a8b-47d9-8bf6-084f958b4777" d="M573.05262,464.0515h0a17.83281,17.83281,0,0,0,17.03783,18.56825l306.9531,13.187h0a17.83161,17.83161,0,0,0,18.56754-17.03861h0l15.5343-361.59091h0l.7121-16.57554,3.11213-72.44086h0a9.04965,9.04965,0,0,0-8.813-9.6042h0L610.60945,5.00042h0A17.83158,17.83158,0,0,0,592.04192,22.039h0Z"/>
        <path id="b17c495c-0e4b-444a-b2f5-fb7ab8fba42d" data-name="b" class="ef8cbe71-0a8b-47d9-8bf6-084f958b4777" d="M610.60943,5.00079h0A17.83159,17.83159,0,0,0,592.0419,22.0394l-1.16046,27.012,342.56,14.71671,1.52969-35.60648h0a9.04966,9.04966,0,0,0-8.813-9.60421h0L610.60943,5.00079Z"/>
        <path class="bb8c6de3-944f-487e-89b4-e94f90c46994" d="M573.05262,464.0515h0a17.83281,17.83281,0,0,0,17.03783,18.56825l306.9531,13.187h0a17.83161,17.83161,0,0,0,18.56754-17.03861h0l15.5343-361.59091h0l.73847-17.1893,3.1385-73.05461h0a9.04965,9.04965,0,0,0-8.813-9.6042h0L610.63582,4.38666h0a17.83161,17.83161,0,0,0-18.56754,17.03861h0Z"/>
        <path class="bb8c6de3-944f-487e-89b4-e94f90c46994" d="M610.60943,5.00079h0A17.83159,17.83159,0,0,0,592.0419,22.0394l-1.16046,27.012,342.56,14.71671,1.52969-35.60648h0a9.04966,9.04966,0,0,0-8.813-9.60421h0L610.60943,5.00079Z"/>
        <path class="bcf57a96-9844-45fa-b52e-913c3d498d44" d="M629.8928,28.58575h0c-.211,4.91118-4.07965,9.05033-8.9897,8.83939s-8.43585-4.0525-8.19848-9.57781c.211-4.91117,4.07965-9.05032,8.9897-8.83938h0c4.91005.21094,8.40948,4.66625,8.19848,9.5778Z"/>
        <path class="bcf57a96-9844-45fa-b52e-913c3d498d44" d="M655.67656,29.69345h0c-.211,4.91117-4.07965,9.05032-8.9897,8.83938s-8.43585-4.0525-8.19848-9.5778c.211-4.91118,4.07965-9.05032,8.9897-8.83938h0a8.93247,8.93247,0,0,1,8.19848,9.5778Z"/>
      </g>
      <g>
        <path id="eb5edeee-4d5b-47d4-8981-fc15626ddca2" data-name="a" class="bef772e1-c466-45ab-b7a4-43d1c2d777b3" d="M630.31693,333.6633c-4.29705-.18461-7.82285-4.02617-7.66459-7.70983l9.31-216.70881c.18462-4.29742,4.00053-7.20868,8.29757-7.02408l257.84061,11.07709c4.297.18461,7.82284,4.02616,7.66459,7.70982l-9.31,216.70882c-.18462,4.29742-4.00052,7.20868-8.29757,7.02407Z"/>
        <g class="be2ceddc-8d42-4d75-8e39-c85948c49023">
          <g>
            <path class="b673b83e-6fc9-46cf-9e01-eade0a2698b0" d="M774.61094,181.79715l-3.48137,81.03569"/>
            <path class="b673b83e-6fc9-46cf-9e01-eade0a2698b0" d="M721.3762,261.31028l100.067,4.299-3.9561,92.08593-100.067-4.299Z"/>
            <path class="bdd41b87-e928-4151-accc-47f36b29a7bb" d="M740.40789,262.1279l15.34766.65935-3.95611,92.08593-15.34765-.65935Z"/>
            <path class="bdd41b87-e928-4151-accc-47f36b29a7bb" d="M787.06386,264.13228l15.34766.65935-3.95611,92.08593-15.34765-.65935Z"/>
            <path class="bdd41b87-e928-4151-accc-47f36b29a7bb" d="M822.05622,265.63559l104.97856,4.51h0a5.80514,5.80514,0,0,1,5.87532,6.4028l-.52748,12.27813L820.652,284.02644l1.40423-18.39085Z"/>
            <path class="bdd41b87-e928-4151-accc-47f36b29a7bb" d="M821.265,284.05277l111.73063,4.80006L932.2044,307.27,820.47378,302.47Z"/>
            <path class="bdd41b87-e928-4151-accc-47f36b29a7bb" d="M820.47378,302.47,932.2044,307.27l-.79122,18.41719-111.73063-4.80006Z"/>
            <path class="bdd41b87-e928-4151-accc-47f36b29a7bb" d="M819.68255,320.88715l111.73063,4.80006-.79122,18.41718-111.73063-4.80006Z"/>
            <path class="bdd41b87-e928-4151-accc-47f36b29a7bb" d="M818.89133,339.30433,930.622,344.10439l-.79122,18.41719-111.73063-4.80006Z"/>
            <path class="b673b83e-6fc9-46cf-9e01-eade0a2698b0" d="M721.3762,261.31028l53.20837-78.89938,46.24563,83.172Z"/>
            <path class="b673b83e-6fc9-46cf-9e01-eade0a2698b0" d="M774.61094,181.79715l131.37533,5.644"/>
            <path class="b673b83e-6fc9-46cf-9e01-eade0a2698b0" d="M789.46389,208.267l127.07829,5.45941"/>
            <path class="b673b83e-6fc9-46cf-9e01-eade0a2698b0" d="M741.0857,232.02032l189.69642,8.14954"/>
            <path class="b673b83e-6fc9-46cf-9e01-eade0a2698b0" d="M817.58438,183.64333,868.12705,267"/>
            <path class="b673b83e-6fc9-46cf-9e01-eade0a2698b0" d="M863.62734,185.62138,914.17,268.978"/>
            <path class="b673b83e-6fc9-46cf-9e01-eade0a2698b0" d="M750.28639,218.26976,748.41384,261.857"/>
            <path class="b673b83e-6fc9-46cf-9e01-eade0a2698b0" d="M796.94386,220.27421l-1.87255,43.58719"/>
          </g>
        </g>
        <path class="a8f7350e-95d4-441a-8f00-a36e1ff8c43e" d="M755.31135,230.17116c-11.34713-7.868-26.74754-7.2995-39.82479-3.556-12.46274,3.76994-23.82985,10.66214-31.03026,20.80817-7.20193,10.14635-9.64905,24.187-3.95835,34.88726,6.81273,13.20836,21.89664,20.00677,37.2443,20.66612,17.1633,1.35224,34.64309-4.66209,48.009-15.15851,12.77923-11.13689,21.446-26.75542,22.77114-43.30463.211-4.91118.422-9.82235-1.84843-14.22524A25.46326,25.46326,0,0,0,775.485,218.73705c-15.56655-9.89434-35.71875-13.22041-53.70755-9.68787"/>
        <path class="f5acba91-6871-46fc-a9e2-06069044b6e4" d="M724.25512,151.34215h0c-1.22751-.05273-2.48139.50829-4.32341.42916h0c-1.42-9.90149-10.3649-16.43616-20.23923-15.63059a18.31355,18.31355,0,0,0-15.36613,14.10094h0a9.11074,9.11074,0,0,0-4.27068-.79836h0c-6.16543.35-10.67348,5.077-10.32421,11.24236.37713,5.55171,3.87507,10.00695,9.40112,10.24436L722.106,172.7762h0c6.1127.8775,11.23524-3.82267,12.0856-9.32127.87825-6.11266-3.82231-11.23484-9.322-12.08638Z"/>
      </g>
      <g>
        <path class="b40299eb-33ad-4fd5-b3f7-138cc545277a" d="M634.91209,83.53966h0a19.1453,19.1453,0,0,1,18.21411,19.84856h0l-.26374,6.13906a19.12412,19.12412,0,0,1-16.16525,18.37159c-10.51522,1.3933-20.66122-5.80786-22.05488-16.32348h0c-1.842-.07913-3.01678-1.35976-3.55216-3.2278.07912-1.84164,1.41213-4.24468,3.25415-4.16555h0l.1055-2.45577c1.06284-10.40933,10.02617-18.635,20.46227-18.18661Z"/>
        <path class="af457dbd-555d-40a0-aa8b-77376fff004a" d="M631.63946,102.4655a2.643,2.643,0,0,0-2.56052,2.35031h0a2.45729,2.45729,0,1,0,2.56052-2.35031Z"/>
        <path class="af457dbd-555d-40a0-aa8b-77376fff004a" d="M643.91759,102.993c-1.22752-.05273-1.89477,1.14876-1.94752,2.37664s1.14839,1.89438,2.3759,1.94712h0l.61451.0264c1.22751.05273,1.89477-1.14876,1.94752-2.37664.02638-.61413-1.14839-1.89438-2.99041-1.97352Z"/>
        <path class="bcf57a96-9844-45fa-b52e-913c3d498d44" d="M627.55982,111.51583a2.643,2.643,0,0,0-2.34953-2.56125h0a2.458,2.458,0,0,0-.211,4.91155c1.25389-.56139,2.53416-1.73655,2.56053-2.3503Z"/>
        <path class="f4312cdd-934f-4779-9440-496eda630859" d="M641.4426,117.64737c-2.53414,1.73618-6.21818,1.57791-9.20859-.39561h0"/>
        <path id="a985cde3-943f-4fff-bb80-1bb45987bc04" data-name="a" class="bcf57a96-9844-45fa-b52e-913c3d498d44" d="M614.099,95.56156l-.13187,3.06953,41.13142,1.767.13187-3.06953.05275-1.22788a21.12528,21.12528,0,0,0-20.61638-21.18193c-11.69.11268-20.67968,8.95206-20.56779,20.64277Z"/>
        <path class="f4312cdd-934f-4779-9440-496eda630859" d="M614.099,95.56156l-.13187,3.06953,41.13142,1.767.13187-3.06953.05275-1.22788a21.12528,21.12528,0,0,0-20.61638-21.18193c-11.69.11268-20.67968,8.95206-20.56779,20.64277Z"/>
        <path id="bbc89c32-baee-44ef-9d1a-f348c0111c4d" data-name="b" class="bcf57a96-9844-45fa-b52e-913c3d498d44" d="M629.14226,74.68145c4.37616-1.657,11.05061.47475,11.05061.47475,6.59533,3.97343,9.69764,17.63764,8.76814,24.97826l-9.8231-.422C640.78741,89.94246,637.01785,77.47973,629.14226,74.68145Z"/>
        <path class="f4312cdd-934f-4779-9440-496eda630859" d="M610.28462,98.47288l47.885,2.05719"/>
        <path class="f4312cdd-934f-4779-9440-496eda630859" d="M629.14226,74.68145c4.37616-1.657,11.05061.47475,11.05061.47475,6.59533,3.97343,9.69764,17.63764,8.76814,24.97826l-9.8231-.422C640.78741,89.94246,637.01785,77.47973,629.14226,74.68145Z"/>
        <path class="f4312cdd-934f-4779-9440-496eda630859" d="M631.42057,93.23051s-.75279-11.103-7.37448-14.46264"/>
      </g>
      <path class="bcf57a96-9844-45fa-b52e-913c3d498d44" d="M879.22656,466.74966,631.20905,456.09459a11.66627,11.66627,0,0,1-11.1625-12.16545l2.34729-54.6378A11.66678,11.66678,0,0,1,634.55857,378.128l248.01751,10.65508a11.66626,11.66626,0,0,1,11.1625,12.16544l-2.34729,54.63781A11.66677,11.66677,0,0,1,879.22656,466.74966Z"/>
      <g>
        <path class="b40299eb-33ad-4fd5-b3f7-138cc545277a" d="M623.07015,359.18369h0a19.14531,19.14531,0,0,1,18.21411,19.84857h0l-.26374,6.13906a19.12413,19.12413,0,0,1-16.16525,18.37159c-10.51522,1.3933-20.66122-5.80787-22.05488-16.32348h0c-1.842-.07914-3.01678-1.35976-3.55216-3.2278.07912-1.84165,1.41213-4.24469,3.25415-4.16555h0l.1055-2.45578c1.06285-10.4097,10.02617-18.635,20.46227-18.18661Z"/>
        <path class="af457dbd-555d-40a0-aa8b-77376fff004a" d="M619.79754,378.10916a2.643,2.643,0,0,0-2.56053,2.35031h0a2.45729,2.45729,0,1,0,2.56053-2.35031Z"/>
        <path class="af457dbd-555d-40a0-aa8b-77376fff004a" d="M632.07566,378.63665c-1.22751-.05274-1.89477,1.14875-1.94752,2.37663s1.1484,1.89438,2.37591,1.94712h0l.6145.0264c1.22752.05273,1.89477-1.14875,1.94753-2.37664.02636-.61376-1.1484-1.89438-2.99042-1.97351Z"/>
        <path class="bcf57a96-9844-45fa-b52e-913c3d498d44" d="M615.74426,386.54573a2.64294,2.64294,0,0,0-2.34952-2.56124h0a2.458,2.458,0,1,0,2.34952,2.56124Z"/>
        <path class="f4312cdd-934f-4779-9440-496eda630859" d="M629.60066,393.29141c-2.53414,1.73617-6.21818,1.5779-9.20859-.39561h0"/>
        <path id="a4f85c88-321f-47e5-80c1-f85c420299f5" data-name="a" class="bcf57a96-9844-45fa-b52e-913c3d498d44" d="M602.2571,371.20522l-.13187,3.06953,41.13142,1.767.13187-3.06953.05275-1.22788a21.12527,21.12527,0,0,0-20.61638-21.18192c-11.69.113-20.6797,8.95243-20.56779,20.64276Z"/>
        <path class="f4312cdd-934f-4779-9440-496eda630859" d="M602.2571,371.20522l-.13187,3.06953,41.13142,1.767.13187-3.06953.05275-1.22788a21.12527,21.12527,0,0,0-20.61638-21.18192c-11.69.113-20.6797,8.95243-20.56779,20.64276Z"/>
        <path id="eee2242e-2922-4f01-a009-0e3e62cc182c" data-name="b" class="bcf57a96-9844-45fa-b52e-913c3d498d44" d="M617.30033,350.32512c4.37617-1.657,11.05061.47474,11.05061.47474,6.59533,3.97343,9.69764,17.63764,8.76814,24.97826l-9.8231-.422C628.94547,365.58649,625.17591,353.12377,617.30033,350.32512Z"/>
        <path class="f4312cdd-934f-4779-9440-496eda630859" d="M598.44269,374.11654l47.885,2.05719"/>
        <path class="f4312cdd-934f-4779-9440-496eda630859" d="M617.30033,350.32512c4.37617-1.657,11.05061.47474,11.05061.47474,6.59533,3.97343,9.69764,17.63764,8.76814,24.97826l-9.8231-.422C628.94547,365.58649,625.17591,353.12377,617.30033,350.32512Z"/>
        <path class="f4312cdd-934f-4779-9440-496eda630859" d="M619.57864,368.87417s-.75278-11.103-7.37448-14.46264"/>
      </g>
      <g>
        <path class="a91145ba-0809-4436-85ac-3ecb7459e886" d="M655.577,404.24785l11.66362.50108-.34286,7.98071-11.66362-.50108Z"/>
        <path class="a91145ba-0809-4436-85ac-3ecb7459e886" d="M666.62756,404.7226l11.66362.50108-.34286,7.98071-11.66362-.50109Z"/>
        <path class="a91145ba-0809-4436-85ac-3ecb7459e886" d="M701.61992,406.22591l11.66361.50108-.34285,7.9807-11.66362-.50108Z"/>
        <path class="a91145ba-0809-4436-85ac-3ecb7459e886" d="M713.28353,406.727l11.66362.50108-.34286,7.9807-11.66361-.50108Z"/>
        <path class="a91145ba-0809-4436-85ac-3ecb7459e886" d="M724.33415,407.20173l11.66361.50108-.34285,7.98071-11.66362-.50108Z"/>
        <path class="a91145ba-0809-4436-85ac-3ecb7459e886" d="M735.99776,407.70281l11.66362.50108-.34286,7.98071-11.66361-.50108Z"/>
        <path class="a91145ba-0809-4436-85ac-3ecb7459e886" d="M747.66288,408.204l11.66362.50108-.34286,7.9807L747.32,416.18466Z"/>
        <path class="a91145ba-0809-4436-85ac-3ecb7459e886" d="M782.04073,409.68086l11.66362.50108-.34286,7.98071-11.66362-.50108Z"/>
        <path class="a91145ba-0809-4436-85ac-3ecb7459e886" d="M793.70585,410.182l11.66362.50108-.34286,7.9807-11.66362-.50108Z"/>
        <path class="a91145ba-0809-4436-85ac-3ecb7459e886" d="M805.36947,410.68309l11.66361.50108-.34286,7.9807-11.66361-.50108Z"/>
        <path class="a91145ba-0809-4436-85ac-3ecb7459e886" d="M816.42008,411.15783l11.66361.50108-.34285,7.98071-11.66362-.50108Z"/>
        <path class="a91145ba-0809-4436-85ac-3ecb7459e886" d="M828.08369,411.65891l11.66362.50108-.34286,7.98071-11.66361-.50108Z"/>
        <path class="a91145ba-0809-4436-85ac-3ecb7459e886" d="M839.74881,412.16006l11.66362.50108-.34286,7.98071-11.66362-.50108Z"/>
        <path class="a91145ba-0809-4436-85ac-3ecb7459e886" d="M654.62748,426.3487l11.66361.50108-.34285,7.98071-11.66362-.50108Z"/>
        <path class="a91145ba-0809-4436-85ac-3ecb7459e886" d="M665.67809,426.82345l11.66362.50108-.34286,7.9807-11.66362-.50108Z"/>
        <path class="a91145ba-0809-4436-85ac-3ecb7459e886" d="M677.34171,427.32453l11.66361.50108-.34285,7.9807-11.66362-.50108Z"/>
        <path class="a91145ba-0809-4436-85ac-3ecb7459e886" d="M712.33406,428.82783l11.66362.50108-.34286,7.98071-11.66362-.50108Z"/>
        <path class="a91145ba-0809-4436-85ac-3ecb7459e886" d="M723.38467,429.30258l11.66362.50108-.34286,7.98071-11.66362-.50108Z"/>
        <path class="a91145ba-0809-4436-85ac-3ecb7459e886" d="M735.04829,429.80366l11.66362.50108-.34286,7.98071-11.66362-.50108Z"/>
        <path class="a91145ba-0809-4436-85ac-3ecb7459e886" d="M746.71341,430.3048l11.66362.50109-.34286,7.9807-11.66362-.50108Z"/>
        <path class="a91145ba-0809-4436-85ac-3ecb7459e886" d="M758.377,430.80589l11.66361.50108-.34286,7.9807-11.66361-.50108Z"/>
        <path class="a91145ba-0809-4436-85ac-3ecb7459e886" d="M769.42764,431.28063l11.66362.50108-.34286,7.98071-11.66362-.50108Z"/>
        <path class="a91145ba-0809-4436-85ac-3ecb7459e886" d="M781.09126,431.78171l11.66361.50108-.34286,7.98071-11.66361-.50108Z"/>
        <path class="a91145ba-0809-4436-85ac-3ecb7459e886" d="M815.4706,433.25868l11.66362.50108-.34286,7.98071-11.66362-.50108Z"/>
        <path class="a91145ba-0809-4436-85ac-3ecb7459e886" d="M827.13422,433.75976l11.66362.50108-.34286,7.98071-11.66362-.50108Z"/>
        <path class="a91145ba-0809-4436-85ac-3ecb7459e886" d="M838.79934,434.26091l11.66362.50108-.34286,7.9807-11.66362-.50108Z"/>
        <path class="a91145ba-0809-4436-85ac-3ecb7459e886" d="M850.463,434.762l11.66361.50108-.34285,7.9807-11.66362-.50108Z"/>
      </g>
    </g>
  </g>
  <g>
    <path class="ab0156e2-844c-4185-b8fb-784059d156d3" d="M52.86281,425.38585H369.661a0,0,0,0,1,0,0v13.67307a22.43695,22.43695,0,0,1-22.43695,22.43695H75.29976a22.43695,22.43695,0,0,1-22.43695-22.43695V425.38585A0,0,0,0,1,52.86281,425.38585Z"/>
    <g>
      <path class="ffd0fb56-4800-4b10-bf4e-0c8b79daa915" d="M83.69713,446.64019v2.64062H73.1151v-2.10058l5.40137-5.10059c1.24023-1.18066,1.46-1.90039,1.46-2.58105,0-1.10059-.75977-1.74024-2.24024-1.74024a3.42262,3.42262,0,0,0-2.90039,1.40039l-2.36133-1.5205a6.506,6.506,0,0,1,5.56153-2.60059c3.12109,0,5.20117,1.60059,5.20117,4.14063,0,1.36035-.37988,2.60058-2.34082,4.42089l-3.22071,3.041Z"/>
      <path class="ffd0fb56-4800-4b10-bf4e-0c8b79daa915" d="M85.13463,447.48a1.94054,1.94054,0,0,1,3.88086,0,1.94054,1.94054,0,1,1-3.88086,0Z"/>
      <path class="ffd0fb56-4800-4b10-bf4e-0c8b79daa915" d="M95.9149,447.90093l1.09961-2.4414a8.2364,8.2364,0,0,0,4.6211,1.46093c1.92089,0,2.70019-.64062,2.70019-1.5,0-2.62109-8.1416-.82031-8.1416-6.02148,0-2.38086,1.9209-4.36133,5.90137-4.36133a9.39329,9.39329,0,0,1,4.86132,1.24023l-1,2.46094a7.9102,7.9102,0,0,0-3.88085-1.10058c-1.9209,0-2.66114.7207-2.66114,1.60058,0,2.58008,8.1416.79981,8.1416,5.94141,0,2.33984-1.94043,4.34082-5.94043,4.34082A9.98191,9.98191,0,0,1,95.9149,447.90093Z"/>
      <path class="ffd0fb56-4800-4b10-bf4e-0c8b79daa915" d="M120.39635,438.51812v10.76269h-2.96v-1.28027a4.354,4.354,0,0,1-3.34082,1.44043c-2.70118,0-4.60157-1.52051-4.60157-4.84082v-6.082h3.1211v5.62207c0,1.7998.7998,2.59961,2.18066,2.59961,1.44043,0,2.48047-.91992,2.48047-2.90039v-5.32129Z"/>
      <path class="ffd0fb56-4800-4b10-bf4e-0c8b79daa915" d="M122.9149,435.27788a1.78355,1.78355,0,0,1,1.94043-1.74023,1.7515,1.7515,0,0,1,1.94043,1.67969,1.94884,1.94884,0,0,1-3.88086.06054Zm.37989,3.24024h3.12011v10.76269h-3.12011Z"/>
      <path class="ffd0fb56-4800-4b10-bf4e-0c8b79daa915" d="M139.99693,438.51812l-4.541,10.76269h-3.2207l-4.52149-10.76269h3.2207l2.98047,7.32226,3.08106-7.32226Z"/>
      <path class="ffd0fb56-4800-4b10-bf4e-0c8b79daa915" d="M151.45689,444.77984h-8.1416a2.869,2.869,0,0,0,3.08008,2.16015,3.64893,3.64893,0,0,0,2.70117-1.04l1.66016,1.80078a5.6393,5.6393,0,0,1-4.44141,1.74023c-3.7207,0-6.1416-2.34082-6.1416-5.541a5.47944,5.47944,0,0,1,5.74219-5.541,5.32733,5.32733,0,0,1,5.60059,5.58105C151.51647,444.17925,151.47643,444.52007,151.45689,444.77984Zm-8.18164-1.82031H148.576a2.68794,2.68794,0,0,0-5.30079,0Z"/>
      <path class="ffd0fb56-4800-4b10-bf4e-0c8b79daa915" d="M162.35533,446.88042v2.40039h-9.60156V447.4l5.48145-6.48047h-5.3418v-2.40137h9.28222V440.399l-5.48144,6.48144Z"/>
      <path class="ffd0fb56-4800-4b10-bf4e-0c8b79daa915" d="M170.01451,434.438h3.12012v14.84277h-3.12012Z"/>
      <path class="ffd0fb56-4800-4b10-bf4e-0c8b79daa915" d="M186.51647,444.77984h-8.14161a2.869,2.869,0,0,0,3.08008,2.16015,3.64893,3.64893,0,0,0,2.70117-1.04l1.66016,1.80078a5.6393,5.6393,0,0,1-4.44141,1.74023c-3.7207,0-6.14062-2.34082-6.14062-5.541a5.47862,5.47862,0,0,1,5.74121-5.541A5.32733,5.32733,0,0,1,186.576,443.94C186.576,444.17925,186.536,444.52007,186.51647,444.77984Zm-8.18165-1.82031h5.30079a2.68794,2.68794,0,0,0-5.30079,0Z"/>
      <path class="ffd0fb56-4800-4b10-bf4e-0c8b79daa915" d="M187.61412,448.28081l1.04-2.24023a7.36039,7.36039,0,0,0,3.74023,1.04c1.44043,0,1.98047-.37988,1.98047-.98047,0-1.76074-6.501.04-6.501-4.26074,0-2.041,1.84082-3.48047,4.98144-3.48047a8.85816,8.85816,0,0,1,4.14063.93945l-1.04,2.22071a6.18752,6.18752,0,0,0-3.10059-.79981c-1.40039,0-2.001.43945-2.001,1,0,1.83984,6.50195.05957,6.50195,4.30078,0,2-1.86035,3.4209-5.08106,3.4209A9.2363,9.2363,0,0,1,187.61412,448.28081Z"/>
      <path class="ffd0fb56-4800-4b10-bf4e-0c8b79daa915" d="M215.41588,444.77984h-8.1416a2.86894,2.86894,0,0,0,3.08008,2.16015,3.649,3.649,0,0,0,2.70117-1.04l1.66015,1.80078a5.63928,5.63928,0,0,1-4.4414,1.74023c-3.72071,0-6.1416-2.34082-6.1416-5.541a5.47943,5.47943,0,0,1,5.74218-5.541,5.32733,5.32733,0,0,1,5.60059,5.58105C215.47545,444.17925,215.43541,444.52007,215.41588,444.77984Zm-8.18164-1.82031H212.535a2.68793,2.68793,0,0,0-5.30078,0Z"/>
      <path class="ffd0fb56-4800-4b10-bf4e-0c8b79daa915" d="M228.55553,443.11968v6.16113h-3.12012v-5.68164c0-1.74023-.80078-2.54-2.18066-2.54-1.5,0-2.58106.91993-2.58106,2.9004v5.32128h-3.12012V438.51812H220.534v1.26074a4.71213,4.71213,0,0,1,3.56055-1.41992C226.63561,438.35894,228.55553,439.83843,228.55553,443.11968Z"/>
      <path class="ffd0fb56-4800-4b10-bf4e-0c8b79daa915" d="M243.97447,448.76031a4.45453,4.45453,0,0,1-2.541.68066c-2.54,0-4.02051-1.30078-4.02051-3.86133v-4.4209h-1.66016v-2.40039H237.413v-2.62011H240.534v2.62011h2.68067v2.40039H240.534v4.38086a1.25518,1.25518,0,0,0,1.33985,1.4209,2.10871,2.10871,0,0,0,1.26074-.40039Z"/>
      <path class="ffd0fb56-4800-4b10-bf4e-0c8b79daa915" d="M255.87584,444.77984h-8.1416a2.86894,2.86894,0,0,0,3.08008,2.16015,3.649,3.649,0,0,0,2.70117-1.04l1.66015,1.80078a5.63928,5.63928,0,0,1-4.4414,1.74023c-3.7207,0-6.14063-2.34082-6.14063-5.541a5.47862,5.47862,0,0,1,5.74121-5.541,5.32733,5.32733,0,0,1,5.60059,5.58105C255.93541,444.17925,255.89537,444.52007,255.87584,444.77984Zm-8.18164-1.82031H252.995a2.68793,2.68793,0,0,0-5.30078,0Z"/>
      <path class="ffd0fb56-4800-4b10-bf4e-0c8b79daa915" d="M276.19713,443.11968v6.16113H273.077v-5.68164c0-1.74023-.78027-2.54-2.041-2.54-1.40039,0-2.37989.9004-2.37989,2.82032v5.40136H265.535v-5.68164c0-1.74023-.74023-2.54-2.04-2.54-1.38086,0-2.36133.9004-2.36133,2.82032v5.40136h-3.12011V438.51812H260.994v1.24023a4.35791,4.35791,0,0,1,3.38086-1.39941,4.01948,4.01948,0,0,1,3.541,1.75977,4.83854,4.83854,0,0,1,3.88086-1.75977C274.35729,438.35894,276.19713,439.83843,276.19713,443.11968Z"/>
      <path class="ffd0fb56-4800-4b10-bf4e-0c8b79daa915" d="M290.71568,443.9a5.22715,5.22715,0,0,1-5.36132,5.541,4.17751,4.17751,0,0,1-3.24122-1.30078v5.02148H278.993V438.51812h2.98047v1.24023a4.18352,4.18352,0,0,1,3.38086-1.39941A5.22716,5.22716,0,0,1,290.71568,443.9Zm-3.16113,0a2.75036,2.75036,0,1,0-2.74023,2.98046A2.71557,2.71557,0,0,0,287.55455,443.9Z"/>
      <path class="ffd0fb56-4800-4b10-bf4e-0c8b79daa915" d="M291.75279,448.28081l1.04-2.24023a7.3604,7.3604,0,0,0,3.74024,1.04c1.44043,0,1.98047-.37988,1.98047-.98047,0-1.76074-6.501.04-6.501-4.26074,0-2.041,1.84082-3.48047,4.98144-3.48047a8.85813,8.85813,0,0,1,4.14063.93945l-1.04,2.22071a6.1875,6.1875,0,0,0-3.10059-.79981c-1.40039,0-2.001.43945-2.001,1,0,1.83984,6.502.05957,6.502,4.30078,0,2-1.86035,3.4209-5.08105,3.4209A9.23632,9.23632,0,0,1,291.75279,448.28081Z"/>
      <path class="ffd0fb56-4800-4b10-bf4e-0c8b79daa915" d="M315.75377,438.35894v2.87988c-.26074-.01953-.46-.04-.7002-.04-1.7207,0-2.86132.94043-2.86132,3.001v5.081h-3.12012V438.51812h2.98047v1.4209A4.34286,4.34286,0,0,1,315.75377,438.35894Z"/>
      <path class="ffd0fb56-4800-4b10-bf4e-0c8b79daa915" d="M327.995,444.77984h-8.1416a2.86894,2.86894,0,0,0,3.08008,2.16015,3.649,3.649,0,0,0,2.70117-1.04l1.66016,1.80078a5.6393,5.6393,0,0,1-4.44141,1.74023c-3.7207,0-6.14063-2.34082-6.14063-5.541a5.47862,5.47862,0,0,1,5.74122-5.541,5.32732,5.32732,0,0,1,5.60058,5.58105C328.05455,444.17925,328.01451,444.52007,327.995,444.77984Zm-8.18164-1.82031h5.30078a2.68793,2.68793,0,0,0-5.30078,0Zm3.2002-5.82129h-2.44043l2.70019-2.88086h3.36133Z"/>
      <path class="ffd0fb56-4800-4b10-bf4e-0c8b79daa915" d="M340.6151,444.77984h-8.1416a2.86894,2.86894,0,0,0,3.08007,2.16015,3.649,3.649,0,0,0,2.70118-1.04l1.66015,1.80078a5.63928,5.63928,0,0,1-4.4414,1.74023c-3.72071,0-6.14161-2.34082-6.14161-5.541a5.47944,5.47944,0,0,1,5.74219-5.541,5.32733,5.32733,0,0,1,5.60059,5.58105C340.67467,444.17925,340.63463,444.52007,340.6151,444.77984Zm-8.18164-1.82031h5.30078a2.68793,2.68793,0,0,0-5.30078,0Z"/>
      <path class="ffd0fb56-4800-4b10-bf4e-0c8b79daa915" d="M342.75279,434.438h3.12012v14.84277h-3.12012Z"/>
    </g>
    <g>
      <path class="bdf6c0f3-9ae4-48c4-8507-77b527b1025d" d="M34.95109,423.93132h486.608"/>
      <path class="bdf6c0f3-9ae4-48c4-8507-77b527b1025d" d="M13.80832,423.93132h11.746"/>
      <path class="bdf6c0f3-9ae4-48c4-8507-77b527b1025d" d="M530.95589,423.93132h11.746"/>
    </g>
  </g>
  <g>
    <g>
      <path class="a23b23cc-11dc-444b-8f31-820b38432c47" d="M479.056,316.95852h0a23.17961,23.17961,0,0,0,23.22612-23.22612,23.41871,23.41871,0,0,0-5.35988-15.00769l-7.1465-8.57578h0a7.45907,7.45907,0,0,0-5.71754-2.85856h0a7.54771,7.54771,0,0,0-7.50418,7.50385,6.79188,6.79188,0,0,0,1.78663,4.64518l7.1465,8.57578h0a8.43522,8.43522,0,0,1-1.07215,11.79168,7.51683,7.51683,0,0,1-5.35988,1.78662H476.554v14.65035h2.5011l.00088.71469Z"/>
      <path id="b8b151e4-5993-47f0-aed1-40dddb6beead" data-name="a" class="f570bd26-3596-48f8-991a-f31a26f2acc6" d="M476.554,302.30828H434.38949A39.49793,39.49793,0,0,0,394.72608,341.614h0v5.00253h15.00747V378.7758h54.31322V320.88912h0a3.96554,3.96554,0,0,1,3.93092-3.9306h8.21865V302.30818l.35767.0001Z"/>
      <path id="b2b22f0a-2cf4-476d-bde2-71cbc0d7f6e1" data-name="b" class="b6c187b9-417c-4ebe-a904-d9c2fdc9642c" d="M455.47219,443.09429h0a24.88318,24.88318,0,0,1,8.93312,1.78663V373.77328H410.0921v69.321h10.71974a26.50834,26.50834,0,0,1,8.93313,1.78663l2.5011-43.59369h0a5.1102,5.1102,0,0,1,5.0022-5.00253h0a4.88452,4.88452,0,0,1,5.0022,5.00253l2.1443,42.1643Z"/>
      <path class="faa79853-b7c4-4ff4-983e-cb21d90da107" d="M455.47219,443.09429h0a24.88318,24.88318,0,0,1,8.93312,1.78663V373.77328H410.0921v69.321h10.71974a26.50834,26.50834,0,0,1,8.93313,1.78663l2.5011-43.59369h0a5.1102,5.1102,0,0,1,5.0022-5.00253h0a4.88452,4.88452,0,0,1,5.0022,5.00253l2.1443,42.1643Z"/>
      <path class="faa79853-b7c4-4ff4-983e-cb21d90da107" d="M476.554,302.30828H434.38949A39.49793,39.49793,0,0,0,394.72608,341.614h0v5.00253h15.00747V378.7758h54.31322V320.88912h0a3.96554,3.96554,0,0,1,3.93092-3.9306h8.21865V302.30818l.35767.0001Z"/>
      <path class="a34f29c3-33f2-45f1-96ac-be2ddde9ff2a" d="M470.47966,453.09935c16.07963,2.50132,16.07963,6.43181,0,8.57578-16.07962,2.50132-42.16452,2.50132-58.24414,0s-16.07962-6.43181,0-8.57578c16.07962-2.50121,42.16452-2.50121,58.24414,0"/>
      <path class="b1040b1c-6baa-48a8-9eef-10118877ba6b" d="M471.55181,455.60067c0-8.93313-8.57545-12.50638-16.43729-12.50638H444.39477v8.21844h0a3.96553,3.96553,0,0,0,3.93092,3.93059h23.22612Z"/>
      <path class="b1040b1c-6baa-48a8-9eef-10118877ba6b" d="M436.89147,455.60067c0-8.93313-8.57545-12.50638-16.4373-12.50638H409.73442v8.21844h0a3.96554,3.96554,0,0,0,3.93092,3.93059h23.22613Z"/>
      <path class="faa79853-b7c4-4ff4-983e-cb21d90da107" d="M409.73442,346.61656V331.96621"/>
      <path class="b1040b1c-6baa-48a8-9eef-10118877ba6b" d="M424.7419,303.38022h0v1.07193h0a12.42856,12.42856,0,0,0,12.50637,12.50637,12.21223,12.21223,0,0,0,12.50637-12.50637h0a6.07567,6.07567,0,0,0-.35767-2.50132H434.7463A84.29965,84.29965,0,0,0,424.7419,303.38022Z"/>
      <path id="a75dd9b8-909d-4098-8708-9e17e14124f7" data-name="c" class="b6c187b9-417c-4ebe-a904-d9c2fdc9642c" d="M383.29272,292.30312a3.37572,3.37572,0,0,1-3.57325-3.57325V283.37a3.37572,3.37572,0,0,1,3.57325-3.57325H522.29178A3.37571,3.37571,0,0,1,525.865,283.37v5.35987a3.37572,3.37572,0,0,1-3.57325,3.57325Z"/>
      <path id="b07c4548-07c1-40f7-9b1a-47c7e79c8e0c" data-name="d" class="b6c187b9-417c-4ebe-a904-d9c2fdc9642c" d="M395.44142,267.29037h114.344a3.37572,3.37572,0,0,1,3.57325,3.57325v8.93313H391.86817v-8.93313h0A3.84265,3.84265,0,0,1,395.44142,267.29037Z"/>
      <path class="faa79853-b7c4-4ff4-983e-cb21d90da107" d="M383.29272,292.30312a3.37572,3.37572,0,0,1-3.57325-3.57325V283.37a3.37572,3.37572,0,0,1,3.57325-3.57325H522.29178A3.37571,3.37571,0,0,1,525.865,283.37v5.35987a3.37572,3.37572,0,0,1-3.57325,3.57325Z"/>
      <path class="faa79853-b7c4-4ff4-983e-cb21d90da107" d="M395.44142,267.29037h114.344a3.37572,3.37572,0,0,1,3.57325,3.57325v8.93313H391.86817v-8.93313h0A3.84265,3.84265,0,0,1,395.44142,267.29037Z"/>
      <path class="af8381e1-60d3-40fa-92e7-17818e6e2938" d="M444.39477,302.30828H454.4v71.82234H444.39477Z"/>
      <path class="af8381e1-60d3-40fa-92e7-17818e6e2938" d="M429.745,302.66552h0a45.59958,45.59958,0,0,0-10.00528,2.50132v68.60644H429.745Z"/>
      <path class="b1040b1c-6baa-48a8-9eef-10118877ba6b" d="M436.89147,234.77378h0a24.70444,24.70444,0,0,0-24.65508,24.6554h0v5.00253c-7.1465,0-6.432,12.50637,1.07215,12.50637h0a24.36013,24.36013,0,0,0,30.7303,16.07962,24.87786,24.87786,0,0,0,17.50857-23.58346V259.42918h0C461.90421,245.85088,450.82679,234.77378,436.89147,234.77378Z"/>
      <path class="af457dbd-555d-40a0-aa8b-77376fff004a" d="M432.60374,261.9305h0a3.2159,3.2159,0,1,0,3.21558,3.2159h0a3.20224,3.20224,0,0,0-3.21558-3.2159Z"/>
      <path class="af457dbd-555d-40a0-aa8b-77376fff004a" d="M451.18447,261.9305h0A3.2159,3.2159,0,1,0,454.4,265.1464h0a3.20224,3.20224,0,0,0-3.21557-3.2159Z"/>
      <path class="bcf57a96-9844-45fa-b52e-913c3d498d44" d="M429.745,274.79422h0a2.5011,2.5011,0,1,1-2.5011-2.50132h0A2.44256,2.44256,0,0,1,429.745,274.79422Z"/>
      <path class="faa79853-b7c4-4ff4-983e-cb21d90da107" d="M435.81932,278.72482h0c2.85877,2.50131,7.50417,3.2159,10.71975,1.07193.35767-.35735,1.07215-.7147,1.429-1.07193"/>
      <path class="b1040b1c-6baa-48a8-9eef-10118877ba6b" d="M420.81184,336.96874a3.37572,3.37572,0,0,1-3.57325-3.57325v-2.85856a3.37572,3.37572,0,0,1,3.57325-3.57325h7.861a3.37572,3.37572,0,0,1,3.57325,3.57325v2.85856a3.37572,3.37572,0,0,1-3.57325,3.57325Z"/>
      <path class="b1040b1c-6baa-48a8-9eef-10118877ba6b" d="M445.46692,336.96874a3.37572,3.37572,0,0,1-3.57325-3.57325v-2.85856a3.37572,3.37572,0,0,1,3.57325-3.57325h7.50417a3.37572,3.37572,0,0,1,3.57325,3.57325v2.85856a3.37572,3.37572,0,0,1-3.57325,3.57325Z"/>
      <path class="af8381e1-60d3-40fa-92e7-17818e6e2938" d="M412.23552,368.77064h51.81212v10.005H412.23552Z"/>
      <path class="a23b23cc-11dc-444b-8f31-820b38432c47" d="M409.73442,346.61656v7.50384c0,15.00769,3.93092,25.01275,11.7919,31.08732h0c3.21558,2.85855,3.57325,7.50384.71447,10.3624a7.62758,7.62758,0,0,1-9.64759,1.42928c-11.7919-8.93313-17.86625-23.22612-17.86625-42.879v-7.50384Z"/>
      <path class="af8381e1-60d3-40fa-92e7-17818e6e2938" d="M460.47439,428.444a3.37572,3.37572,0,0,1-3.57325-3.57325V409.863a3.37572,3.37572,0,0,1,3.57325-3.57325h7.50417a3.37572,3.37572,0,0,1,3.57325,3.57325V424.8707a3.37572,3.37572,0,0,1-3.57325,3.57325Z"/>
      <path class="faa79853-b7c4-4ff4-983e-cb21d90da107" d="M456.90114,415.93758h14.65067"/>
      <path class="af8381e1-60d3-40fa-92e7-17818e6e2938" d="M410.80657,428.444a3.37572,3.37572,0,0,1-3.57325-3.57325V409.863a3.37572,3.37572,0,0,1,3.57325-3.57325h7.861a3.37572,3.37572,0,0,1,3.57324,3.57325V424.8707a3.37572,3.37572,0,0,1-3.57324,3.57325Z"/>
      <path class="faa79853-b7c4-4ff4-983e-cb21d90da107" d="M407.23332,415.93758h15.00747"/>
    </g>
    <g>
      <g>
        <path id="a7037127-69c8-4132-8b7d-4d260c22ff19" data-name="f" class="b6c187b9-417c-4ebe-a904-d9c2fdc9642c" d="M410.4489,251.21075h0a26.8208,26.8208,0,1,1,53.59874-2.14386v5.71722H410.4489v-3.57336Z"/>
        <path class="faa79853-b7c4-4ff4-983e-cb21d90da107" d="M410.4489,251.21075h0a26.8208,26.8208,0,1,1,53.59874-2.14386v5.71722H410.4489v-3.57336Z"/>
        <path id="f5f638cb-7d0f-4914-ae02-1ac60ead2421" data-name="g" class="b6c187b9-417c-4ebe-a904-d9c2fdc9642c" d="M443.32349,255.49869h12.1487c1.42895-9.64781-3.93092-26.79937-12.1487-31.8019,0,0-8.93312-2.85855-14.65067,0C439.39257,226.55535,445.46692,242.99232,443.32349,255.49869Z"/>
        <path class="faa79853-b7c4-4ff4-983e-cb21d90da107" d="M467.97856,255.49869H406.16117"/>
        <path class="faa79853-b7c4-4ff4-983e-cb21d90da107" d="M443.32349,255.49869h12.1487c1.42895-9.64781-3.93092-26.79937-12.1487-31.8019,0,0-8.93312-2.85855-14.65067,0C439.39257,226.55535,445.46692,242.99232,443.32349,255.49869Z"/>
      </g>
      <path class="faa79853-b7c4-4ff4-983e-cb21d90da107" d="M422.95527,229.05667c8.21865,4.28794,10.36208,18.58094,10.36208,18.58094"/>
    </g>
  </g>
</svg>
